<svg width="93" height="131" viewBox="0 0 93 131" fill="none" xmlns="http://www.w3.org/2000/svg">
<path d="M87.8247 14.3603L22.6667 29.6304C21.2545 29.9658 19.7539 29.701 18.5535 28.8713L9.69161 22.9045C8.77364 22.2866 9.03844 20.892 10.0976 20.6272L74.0199 5.65729C75.7852 5.23362 76.2266 2.90339 74.7084 1.87951L73.1726 0.837969C72.0251 0.0788806 70.6128 -0.185918 69.2888 0.13184L3.98963 15.4372C1.6594 15.9844 0 18.0675 0 20.4507L0.0706128 113.66C0.0706128 116.996 1.73001 120.121 4.50157 121.992L14.1932 128.524C16.5234 130.095 19.3832 130.624 22.1195 129.989L86.3595 114.931C89.8548 114.101 92.3263 110.976 92.3263 107.393V17.9263C92.3263 15.5607 90.1196 13.8307 87.8247 14.3603ZM43.5152 109.635C43.2151 110.076 42.915 110.5 42.5795 110.888C42.4736 111.047 42.3324 111.188 42.2088 111.329C42.0852 111.471 41.9087 111.612 41.7322 111.735C41.0614 112.141 40.1081 112.336 39.3667 112.247C38.8194 112.177 38.2898 112.071 37.7602 111.947C37.2483 111.806 36.7363 111.647 36.242 111.471C35.7654 111.294 35.2888 111.082 34.8298 110.853C33.4352 110.147 32.1641 109.193 31.0343 108.028C30.6636 107.64 30.2929 107.216 29.9398 106.793C29.5868 106.351 29.2514 105.892 28.9336 105.398C28.0509 104.039 27.9274 102.591 28.7394 101.108C29.4632 99.7842 30.0634 98.3543 30.8049 96.7832C33.5588 100.243 36.6657 102.821 40.267 104.568C41.2379 105.063 42.2618 105.469 43.321 105.822C44.0271 106.069 44.7509 106.281 45.4923 106.475C45.1746 106.951 44.8921 107.446 44.592 107.922C44.2389 108.505 43.8859 109.087 43.5152 109.635ZM51.8122 102.256C51.2296 103.032 49.7114 103.456 48.6876 103.315C48.1756 103.244 47.6813 103.156 47.187 103.05C46.9222 102.997 46.6751 102.944 46.4103 102.874C45.8983 102.75 45.3864 102.609 44.8921 102.45C44.3272 102.273 43.78 102.097 43.2504 101.867C43.1268 101.832 43.0209 101.779 42.8973 101.726C42.3854 101.514 41.8734 101.285 41.3791 101.038C40.8672 100.773 40.3552 100.49 39.8433 100.155C39.7727 100.137 39.7021 100.084 39.6491 100.031C39.1548 99.7312 38.6605 99.4135 38.1839 99.0428C37.7249 98.7074 37.2836 98.3543 36.8599 97.9659C36.7716 97.8953 36.6834 97.8247 36.5951 97.7364C36.1538 97.3657 35.7301 96.942 35.3064 96.5184C34.6886 95.8828 34.106 95.2297 33.5411 94.5235C32.9762 93.8174 32.4289 93.076 31.917 92.2816C30.9814 90.8693 30.8755 89.2982 31.6522 87.6388C33.4352 83.8434 35.1122 79.9597 36.8599 76.023C43.3916 82.996 50.8942 87.9389 59.5972 91.0282C58.3085 92.9171 57.0375 94.8236 55.7665 96.6949C54.4955 98.5838 53.1891 100.455 51.8298 102.256H51.8122ZM85.2297 65.7135C82.1933 69.862 73.4903 81.5131 70.5246 85.7146C69.3418 87.4093 67.806 88.0448 65.9171 87.9566C64.9285 87.9036 63.9223 87.7624 62.9513 87.4799C53.9306 84.779 46.1984 79.5889 39.4373 72.6159C38.2898 71.4332 37.3365 70.0209 36.4715 68.5733C35.4123 66.808 35.2182 64.9721 36.0832 62.9596C38.0956 58.2285 43.268 44.971 45.2981 39.9222C45.2981 39.8339 45.3511 39.7456 45.3864 39.675H45.4041C45.5629 39.2513 45.7924 38.8453 46.0572 38.457C49.9586 32.8432 61.8921 34.3967 72.7136 41.9346C83.535 49.4549 89.1487 60.0998 85.2297 65.7135ZM69.8184 46.1008C61.3449 40.187 52.7831 37.8214 50.7177 40.8048C48.6346 43.7882 53.8423 50.9907 62.3158 56.8869C70.7894 62.7831 79.3512 65.1486 81.4166 62.1652C83.4997 59.1995 78.3096 51.997 69.8184 46.1008ZM59.5796 91.0282C58.2909 92.9171 57.0199 94.8236 55.7488 96.6949C57.0375 94.8236 58.3085 92.9171 59.5972 91.0282H59.5796ZM45.4923 106.475C45.1746 106.951 44.8921 107.446 44.592 107.922C44.8921 107.446 45.1922 106.951 45.51 106.475H45.4923ZM42.2088 111.329C42.0852 111.471 41.9087 111.612 41.7322 111.735C41.9264 111.63 42.0853 111.488 42.2265 111.347C42.3677 111.206 42.4913 111.047 42.5795 110.888C42.4736 111.047 42.3324 111.188 42.2088 111.329ZM40.267 104.568C41.2379 105.063 42.2618 105.469 43.321 105.822C42.2618 105.469 41.2555 105.045 40.267 104.568ZM81.4166 62.1652C79.3512 65.1486 70.7894 62.7831 62.3158 56.8869C53.8423 50.9907 48.6346 43.7882 50.7177 40.8048C52.7831 37.8214 61.3449 40.187 69.8184 46.1008C78.3096 51.997 83.4997 59.1995 81.4166 62.1652ZM81.4166 62.1652C79.3512 65.1486 70.7894 62.7831 62.3158 56.8869C53.8423 50.9907 48.6346 43.7882 50.7177 40.8048C52.7831 37.8214 61.3449 40.187 69.8184 46.1008C78.3096 51.997 83.4997 59.1995 81.4166 62.1652Z" fill="#F5F5F5" style="fill:#F5F5F5;fill:color(display-p3 0.9625 0.9625 0.9625);fill-opacity:1;"/>
</svg>
