<svg width="635" height="151" viewBox="0 0 635 151" fill="none" xmlns="http://www.w3.org/2000/svg">
<path d="M97.8247 24.3603L32.6667 39.6304C31.2545 39.9658 29.7539 39.701 28.5535 38.8713L19.6916 32.9045C18.7736 32.2866 19.0384 30.892 20.0976 30.6272L84.0199 15.6573C85.7852 15.2336 86.2266 12.9034 84.7084 11.8795L83.1726 10.838C82.0251 10.0789 80.6128 9.81408 79.2888 10.1318L13.9896 25.4372C11.6594 25.9844 10 28.0675 10 30.4507L10.0706 123.66C10.0706 126.996 11.73 130.121 14.5016 131.992L24.1932 138.524C26.5234 140.095 29.3832 140.624 32.1195 139.989L96.3595 124.931C99.8548 124.101 102.326 120.976 102.326 117.393V27.9263C102.326 25.5607 100.12 23.8307 97.8247 24.3603ZM53.5152 119.635C53.2151 120.076 52.915 120.5 52.5795 120.888C52.4736 121.047 52.3324 121.188 52.2088 121.329C52.0853 121.471 51.9087 121.612 51.7322 121.735C51.0614 122.141 50.1081 122.336 49.3667 122.247C48.8194 122.177 48.2898 122.071 47.7602 121.947C47.2483 121.806 46.7363 121.647 46.242 121.471C45.7654 121.294 45.2888 121.082 44.8298 120.853C43.4352 120.147 42.1641 119.193 41.0343 118.028C40.6636 117.64 40.2929 117.216 39.9398 116.793C39.5868 116.351 39.2514 115.892 38.9336 115.398C38.0509 114.039 37.9274 112.591 38.7394 111.108C39.4632 109.784 40.0634 108.354 40.8049 106.783C43.5588 110.243 46.6657 112.821 50.267 114.568C51.2379 115.063 52.2618 115.469 53.321 115.822C54.0271 116.069 54.7509 116.281 55.4923 116.475C55.1746 116.951 54.8921 117.446 54.592 117.922C54.2389 118.505 53.8859 119.087 53.5152 119.635ZM61.8122 112.256C61.2296 113.032 59.7114 113.456 58.6875 113.315C58.1756 113.244 57.6813 113.156 57.187 113.05C56.9222 112.997 56.6751 112.944 56.4103 112.874C55.8983 112.75 55.3864 112.609 54.8921 112.45C54.3272 112.273 53.78 112.097 53.2504 111.867C53.1268 111.832 53.0209 111.779 52.8973 111.726C52.3854 111.514 51.8734 111.285 51.3791 111.038C50.8672 110.773 50.3552 110.49 49.8433 110.155C49.7727 110.137 49.7021 110.084 49.6491 110.031C49.1548 109.731 48.6605 109.413 48.1839 109.043C47.7249 108.707 47.2836 108.354 46.8599 107.966C46.7716 107.895 46.6834 107.825 46.5951 107.736C46.1538 107.366 45.7301 106.942 45.3064 106.518C44.6886 105.883 44.106 105.23 43.5411 104.524C42.9762 103.817 42.4289 103.076 41.917 102.282C40.9814 100.869 40.8755 99.2982 41.6522 97.6388C43.4352 93.8434 45.1122 89.9596 46.8599 86.023C53.3916 92.996 60.8942 97.9389 69.5972 101.028C68.3085 102.917 67.0375 104.824 65.7665 106.695C64.4955 108.584 63.1891 110.455 61.8298 112.256H61.8122ZM95.2297 75.7135C92.1933 79.862 83.4903 91.5131 80.5246 95.7146C79.3418 97.4093 77.806 98.0448 75.9171 97.9566C74.9285 97.9036 73.9223 97.7624 72.9513 97.4799C63.9306 94.779 56.1984 89.5889 49.4373 82.6159C48.2898 81.4332 47.3365 80.0209 46.4715 78.5733C45.4123 76.808 45.2182 74.9721 46.0832 72.9596C48.0956 68.2285 53.268 54.971 55.2981 49.9222C55.2981 49.8339 55.3511 49.7456 55.3864 49.675H55.4041C55.5629 49.2513 55.7924 48.8453 56.0572 48.457C59.9586 42.8432 71.8921 44.3967 82.7136 51.9346C93.535 59.4549 99.1487 70.0998 95.2297 75.7135ZM79.8184 56.1008C71.3449 50.187 62.7831 47.8214 60.7177 50.8048C58.6346 53.7882 63.8423 60.9907 72.3158 66.8869C80.7894 72.7831 89.3512 75.1486 91.4166 72.1652C93.4997 69.1995 88.3096 61.997 79.8184 56.1008ZM69.5796 101.028C68.2909 102.917 67.0199 104.824 65.7488 106.695C67.0375 104.824 68.3085 102.917 69.5972 101.028H69.5796ZM55.4923 116.475C55.1746 116.951 54.8921 117.446 54.592 117.922C54.8921 117.446 55.1922 116.951 55.51 116.475H55.4923ZM52.2088 121.329C52.0853 121.471 51.9087 121.612 51.7322 121.735C51.9264 121.63 52.0853 121.488 52.2265 121.347C52.3677 121.206 52.4913 121.047 52.5795 120.888C52.4736 121.047 52.3324 121.188 52.2088 121.329ZM50.267 114.568C51.2379 115.063 52.2618 115.469 53.321 115.822C52.2618 115.469 51.2555 115.045 50.267 114.568ZM91.4166 72.1652C89.3512 75.1486 80.7894 72.7831 72.3158 66.8869C63.8423 60.9907 58.6346 53.7882 60.7177 50.8048C62.7831 47.8214 71.3449 50.187 79.8184 56.1008C88.3096 61.997 93.4997 69.1995 91.4166 72.1652ZM91.4166 72.1652C89.3512 75.1486 80.7894 72.7831 72.3158 66.8869C63.8423 60.9907 58.6346 53.7882 60.7177 50.8048C62.7831 47.8214 71.3449 50.187 79.8184 56.1008C88.3096 61.997 93.4997 69.1995 91.4166 72.1652Z" fill="#DF5D58" style="fill:#DF5D58;fill:color(display-p3 0.8745 0.3647 0.3451);fill-opacity:1;"/>
<path d="M186.886 97.7625C180.936 103.659 173.699 106.607 165.154 106.607C156.61 106.607 149.372 103.659 143.423 97.7625C137.527 91.7605 134.579 84.4873 134.579 75.9608C134.579 67.4343 137.527 60.1259 143.423 54.2297C149.372 48.2806 156.61 45.2972 165.154 45.2972C173.699 45.2972 180.919 48.2806 186.886 54.2297C192.835 60.1259 195.818 67.3637 195.818 75.9608C195.818 84.5579 192.835 91.8134 186.886 97.7625ZM151.597 89.8539C155.18 93.4552 159.7 95.2381 165.154 95.2381C170.609 95.2381 175.111 93.4375 178.712 89.8539C182.366 86.1997 184.185 81.5746 184.185 75.9608C184.185 70.3471 182.366 65.722 178.712 62.0678C175.058 58.4135 170.539 56.5953 165.154 56.5953C159.77 56.5953 155.251 58.4135 151.597 62.0678C147.943 65.722 146.124 70.3471 146.124 75.9608C146.124 81.5746 147.943 86.1997 151.597 89.8539Z" fill="#F5F8FB" style="fill:#F5F8FB;fill:color(display-p3 0.9608 0.9725 0.9843);fill-opacity:1;"/>
<path d="M196.224 46.48H239.58V57.6015H223.675V105.424H212.059V57.6015H196.224V46.48Z" fill="#F5F8FB" style="fill:#F5F8FB;fill:color(display-p3 0.9608 0.9725 0.9843);fill-opacity:1;"/>
<path d="M278.823 88.8477H247.083C248.478 94.126 252.45 96.7563 258.964 96.7563C263.112 96.7563 266.254 95.3617 268.39 92.5372L277.146 97.586C272.998 103.588 266.872 106.589 258.787 106.589C251.832 106.589 246.236 104.488 242.034 100.269C237.833 96.0502 235.714 90.7542 235.714 84.3638C235.714 77.9733 237.797 72.8009 241.946 68.5288C246.041 64.2568 251.373 62.1384 257.94 62.1384C264.507 62.1384 269.255 64.2744 273.174 68.5288C277.217 72.8009 279.229 78.0792 279.229 84.3638C279.229 85.5465 279.088 87.0294 278.806 88.83L278.823 88.8477ZM246.906 80.4271H268.373C267.755 77.6732 266.502 75.5725 264.63 74.1072C262.741 72.642 260.517 71.9182 257.94 71.9182C255.027 71.9182 252.608 72.6597 250.702 74.1426C248.795 75.6254 247.524 77.7262 246.906 80.4094V80.4271Z" fill="#F5F8FB" style="fill:#F5F8FB;fill:color(display-p3 0.9608 0.9725 0.9843);fill-opacity:1;"/>
<path d="M297.677 105.424H286.82V43.9556H297.677V105.424Z" fill="#F5F8FB" style="fill:#F5F8FB;fill:color(display-p3 0.9608 0.9725 0.9843);fill-opacity:1;"/>
<path d="M374.045 105.424H361.493L349.613 84.964H340.769V105.424H329.153V46.48H352.72C358.157 46.48 362.8 48.3865 366.613 52.1996C370.426 56.0127 372.332 60.6202 372.332 66.0044C372.332 69.6586 371.291 73.0304 369.226 76.155C367.142 79.262 364.406 81.6099 360.981 83.181L374.027 105.406L374.045 105.424ZM352.755 57.3544H340.804V74.7781H352.755C354.944 74.7781 356.833 73.9307 358.404 72.2184C359.975 70.506 360.77 68.4406 360.77 66.0221C360.77 63.6036 359.975 61.5558 358.404 59.8788C356.833 58.2017 354.944 57.3544 352.755 57.3544Z" fill="#F5F8FB" style="fill:#F5F8FB;fill:color(display-p3 0.9608 0.9725 0.9843);fill-opacity:1;"/>
<path d="M419.184 88.8477H387.444C388.838 94.126 392.81 96.7563 399.324 96.7563C403.473 96.7563 406.615 95.3617 408.751 92.5372L417.507 97.586C413.359 103.588 407.233 106.589 399.148 106.589C392.192 106.589 386.596 104.488 382.395 100.269C378.193 96.0502 376.075 90.7542 376.075 84.3638C376.075 77.9733 378.158 72.8009 382.307 68.5288C386.402 64.2568 391.733 62.1384 398.3 62.1384C404.867 62.1384 409.616 64.2744 413.535 68.5288C417.578 72.8009 419.59 78.0792 419.59 84.3638C419.59 85.5465 419.449 87.0294 419.166 88.83L419.184 88.8477ZM387.267 80.4271H408.733C408.116 77.6732 406.862 75.5725 404.991 74.1072C403.102 72.642 400.878 71.9182 398.3 71.9182C395.388 71.9182 392.969 72.6597 391.063 74.1426C389.156 75.6254 387.885 77.7262 387.267 80.4094V80.4271Z" fill="#F5F8FB" style="fill:#F5F8FB;fill:color(display-p3 0.9608 0.9725 0.9843);fill-opacity:1;"/>
<path d="M446.882 106.607C440.544 106.607 435.231 104.471 430.976 100.216C426.775 95.9443 424.657 90.666 424.657 84.3814C424.657 78.0969 426.757 72.8186 430.976 68.5465C435.249 64.2744 440.544 62.156 446.882 62.156C450.978 62.156 454.72 63.1446 458.074 65.1041C461.446 67.0636 463.988 69.7116 465.736 73.0127L456.397 78.4852C455.55 76.7376 454.279 75.3606 452.566 74.3544C450.854 73.3482 448.93 72.8362 446.794 72.8362C443.546 72.8362 440.845 73.9131 438.709 76.0844C436.573 78.2381 435.513 81.0097 435.513 84.3814C435.513 87.7532 436.573 90.3835 438.709 92.6255C440.845 94.7615 443.528 95.8207 446.794 95.8207C448.983 95.8207 450.925 95.3264 452.637 94.3555C454.349 93.3669 455.62 92.0076 456.468 90.2776L465.895 95.6618C464.041 99.0336 461.411 101.699 458.021 103.659C454.632 105.618 450.907 106.607 446.864 106.607H446.882Z" fill="#F5F8FB" style="fill:#F5F8FB;fill:color(display-p3 0.9608 0.9725 0.9843);fill-opacity:1;"/>
<path d="M477.034 58.2723C475.233 58.2723 473.68 57.6191 472.356 56.2952C471.032 54.9712 470.378 53.4177 470.378 51.6171C470.378 49.8164 471.032 48.2453 472.356 46.9037C473.68 45.562 475.233 44.8912 477.034 44.8912C478.834 44.8912 480.476 45.562 481.782 46.9037C483.106 48.2453 483.76 49.8164 483.76 51.6171C483.76 53.4177 483.106 54.9712 481.782 56.2952C480.458 57.6191 478.87 58.2723 477.034 58.2723ZM482.506 105.424H471.649V63.3211H482.506V105.424Z" fill="#F5F8FB" style="fill:#F5F8FB;fill:color(display-p3 0.9608 0.9725 0.9843);fill-opacity:1;"/>
<path d="M516.93 62.156C522.597 62.156 527.434 64.3097 531.406 68.6348C535.448 72.9598 537.461 78.2028 537.461 84.3814C537.461 90.56 535.448 95.9443 531.406 100.216C527.469 104.488 522.65 106.607 516.93 106.607C511.21 106.607 506.497 104.559 503.284 100.463V122.265H492.427V63.3211H503.284V68.2817C506.479 64.1861 511.034 62.1384 516.93 62.1384V62.156ZM506.585 92.9609C508.774 95.1499 511.546 96.2444 514.917 96.2444C518.289 96.2444 521.061 95.1499 523.25 92.9609C525.492 90.7189 526.622 87.8591 526.622 84.3814C526.622 80.9037 525.492 78.0616 523.25 75.8726C521.061 73.6306 518.289 72.5008 514.917 72.5008C511.546 72.5008 508.774 73.6306 506.585 75.8726C504.396 78.0616 503.302 80.9037 503.302 84.3814C503.302 87.8591 504.396 90.7189 506.585 92.9609Z" fill="#F5F8FB" style="fill:#F5F8FB;fill:color(display-p3 0.9608 0.9725 0.9843);fill-opacity:1;"/>
<path d="M586.06 88.8477H554.319C555.714 94.126 559.686 96.7563 566.2 96.7563C570.349 96.7563 573.491 95.3617 575.627 92.5372L584.383 97.586C580.234 103.588 574.109 106.589 566.023 106.589C559.068 106.589 553.472 104.488 549.271 100.269C545.069 96.0502 542.951 90.7542 542.951 84.3638C542.951 77.9733 545.034 72.8009 549.182 68.5288C553.278 64.2568 558.609 62.1384 565.176 62.1384C571.743 62.1384 576.492 64.2744 580.411 68.5288C584.453 72.8009 586.466 78.0792 586.466 84.3638C586.466 85.5465 586.325 87.0294 586.042 88.83L586.06 88.8477ZM554.143 80.4271H575.609C574.991 77.6732 573.738 75.5725 571.867 74.1072C569.978 72.642 567.753 71.9182 565.176 71.9182C562.263 71.9182 559.845 72.6597 557.938 74.1426C556.032 75.6254 554.761 77.7262 554.143 80.4094V80.4271Z" fill="#F5F8FB" style="fill:#F5F8FB;fill:color(display-p3 0.9608 0.9725 0.9843);fill-opacity:1;"/>
<path d="M602.389 75.29C602.389 77.0906 604.949 78.6265 610.051 79.9151C611.851 80.3035 613.475 80.7802 614.941 81.3098C616.406 81.8394 617.871 82.5984 619.354 83.587C620.837 84.5756 622.002 85.8819 622.849 87.506C623.697 89.1301 624.12 91.019 624.12 93.1551C624.12 97.4801 622.496 100.817 619.23 103.182C615.982 105.477 611.957 106.642 607.191 106.642C598.541 106.642 592.645 103.306 589.502 96.6151L598.929 91.3191C600.218 94.9733 602.972 96.7916 607.173 96.7916C611.039 96.7916 612.981 95.5912 612.981 93.1727C612.981 91.3721 610.421 89.8363 605.32 88.5476C603.413 88.0356 601.789 87.5413 600.43 87.0294C599.088 86.5175 597.623 85.776 596.052 84.8051C594.48 83.8165 593.28 82.5631 592.468 81.0097C591.656 79.4738 591.25 77.6555 591.25 75.5725C591.25 71.424 592.768 68.1581 595.804 65.8102C598.894 63.3918 602.707 62.1913 607.261 62.1913C610.686 62.1913 613.793 62.9681 616.6 64.5039C619.407 66.0574 621.631 68.2464 623.255 71.1062L613.987 76.155C612.646 73.2952 610.386 71.8653 607.244 71.8653C605.831 71.8653 604.684 72.183 603.748 72.8362C602.83 73.4894 602.354 74.3014 602.354 75.3253L602.389 75.29Z" fill="#F5F8FB" style="fill:#F5F8FB;fill:color(display-p3 0.9608 0.9725 0.9843);fill-opacity:1;"/>
</svg>
