<svg xmlns="http://www.w3.org/2000/svg" viewBox="0 0 500 500"><g id="freepik--Shadows--inject-2"><ellipse id="freepik--Shadow--inject-2" cx="250" cy="426.94" rx="79.53" ry="45.92" style="fill:#e0e0e0"></ellipse><path id="freepik--shadow--inject-2" d="M466.43,403.75,330.75,325.44h0L251,279.37l-96.69,55.88L32.55,405.51l61.86,35.73L163,401.65l0,0,62.19-35.95,13.51-7.79h0L251,350.82l12.31,7.11h0l144.31,83.3,58.81-34A2,2,0,0,0,466.43,403.75Z" style="fill:#e0e0e0"></path></g><g id="freepik--Kitchen--inject-2"><g id="freepik--Counter--inject-2"><polygon points="186.3 303.42 38.95 388.5 38.95 402.74 94.43 434.77 251.01 344.35 251.02 340.78 186.3 303.42"></polygon><polygon points="315.73 303.42 463.08 388.5 463.08 402.74 407.6 434.77 251.01 344.35 251.01 340.78 315.73 303.42"></polygon><g id="freepik--Corner--inject-2"><g id="freepik--counter--inject-2"><g id="freepik--Body--inject-2"><path d="M251,206.06V340.79l17.9,10.35V216.41Z" style="fill:#E95858"></path><path d="M251,206.06V340.79l17.9,10.35V216.41Z" style="fill:#fff;opacity:0.6000000000000001"></path></g><path d="M262.78,347.59l6.13,3.54V216.4l-6.13-3.54Z" style="fill:#E95858;opacity:0.4"></path></g><g id="freepik--counter--inject-2"><g id="freepik--body--inject-2"><polygon points="233.12 216.41 233.12 351.13 251.02 340.79 251.02 206.06 233.12 216.41" style="fill:#E95858"></polygon><polygon points="233.12 216.41 233.12 351.13 251.02 340.79 251.02 206.06 233.12 216.41" style="fill:#fff;opacity:0.8"></polygon></g><g id="freepik--Doors--inject-2"><polygon points="233.12 351.13 239.25 347.59 239.25 212.86 233.12 216.4 233.12 351.13" style="fill:#E95858;opacity:0.30000000000000004"></polygon></g></g></g><g id="freepik--counter--inject-2"><g id="freepik--body--inject-2"><path d="M268.91,216.41V351.14l138.71,80.08V296.49Z" style="fill:#E95858"></path><path d="M268.91,216.41V351.14l138.71,80.08V296.49Z" style="fill:#fff;opacity:0.6000000000000001"></path><polygon points="407.62 296.49 407.63 431.22 466.18 397.41 466.18 262.68 407.62 296.49" style="fill:#E95858"></polygon><polygon points="407.62 296.49 407.63 431.22 466.18 397.41 466.18 262.68 407.62 296.49" style="fill:#fff;opacity:0.8"></polygon></g><g id="freepik--doors--inject-2"><polygon points="341.34 392.95 335.2 389.41 335.2 254.68 341.34 258.22 341.34 392.95" style="fill:#E95858;opacity:0.30000000000000004"></polygon><g style="opacity:0.30000000000000004"><path d="M275,231.47l54.14,31.27V378.89L275,347.63V231.47m-1.52-2.62V348.51l57.18,33V261.86l-57.18-33Z" style="fill:#E95858"></path></g><g style="opacity:0.30000000000000004"><path d="M347.41,273.29l54.14,31.26V420.71l-54.14-31.27V273.29m-1.52-2.63V390.32l57.18,33V303.67l-57.18-33Z" style="fill:#E95858"></path></g></g><g id="freepik--Handlers--inject-2"><polygon points="327.48 325.54 324.83 324.01 324.83 306.63 327.48 308.16 327.48 325.54" style="fill:#455a64"></polygon><polygon points="352.14 339.67 349.49 338.14 349.49 320.76 352.14 322.29 352.14 339.67" style="fill:#455a64"></polygon></g></g><g id="freepik--counter--inject-2"><g id="freepik--body--inject-2"><path d="M94.41,296.49V431.22l138.71-80.08V216.41Z" style="fill:#E95858"></path><path d="M94.41,296.49V431.22l138.71-80.08V216.41Z" style="fill:#fff;opacity:0.8"></path><polygon points="94.41 296.49 94.41 431.22 35.86 397.41 35.86 262.68 94.41 296.49" style="fill:#E95858"></polygon><polygon points="94.41 296.49 94.41 431.22 35.86 397.41 35.86 262.68 94.41 296.49" style="fill:#fff;opacity:0.6000000000000001"></polygon></g><g id="freepik--doors--inject-2"><polygon points="160.7 392.95 166.83 389.41 166.83 254.68 160.7 258.22 160.7 392.95" style="fill:#E95858;opacity:0.30000000000000004"></polygon><g style="opacity:0.30000000000000004"><path d="M227.05,231.47V347.63L172.9,378.89V262.73l54.15-31.26m1.52-2.63-57.19,33V381.52l57.19-33V228.84Z" style="fill:#E95858"></path></g><g style="opacity:0.30000000000000004"><path d="M154.63,273.29V389.44L100.48,420.7V304.55l54.15-31.26m1.51-2.63L99,303.67V423.33l57.18-33V270.66Z" style="fill:#E95858"></path></g></g><g id="freepik--handlers--inject-2"><polygon points="174.55 325.54 177.2 324.01 177.2 306.63 174.55 308.16 174.55 325.54" style="fill:#455a64"></polygon><polygon points="149.89 339.67 152.54 338.14 152.54 320.76 149.89 322.29 149.89 339.67" style="fill:#455a64"></polygon></g></g><g id="freepik--Top--inject-2"><path d="M467.45,260a2.44,2.44,0,0,0-1.43-2L251,133.82l0,71.46v4.58l153.14,88.43a7.69,7.69,0,0,0,6.93,0L466,266.56a2.41,2.41,0,0,0,1.43-2Z" style="fill:#263238"></path><path d="M411.09,293.69a7.13,7.13,0,0,1-3.46.82v4.6a7.08,7.08,0,0,0,3.46-.82L466,266.56a2.44,2.44,0,0,0,1.44-2V260a2.44,2.44,0,0,1-1.44,2Z" style="fill:#37474f"></path><path d="M34.5,260a2.45,2.45,0,0,1,1.44-2L251,133.82l0,71.46v4.58L97.8,298.29a7.69,7.69,0,0,1-6.93,0L35.94,266.56a2.42,2.42,0,0,1-1.44-2Z" style="fill:#37474f"></path><path d="M90.87,293.69a7.08,7.08,0,0,0,3.46.82v4.6a7.05,7.05,0,0,1-3.46-.82L36,266.56a2.45,2.45,0,0,1-1.45-2V260A2.45,2.45,0,0,0,36,262Z" style="fill:#263238"></path><path d="M466.43,258.2,251,133.82,35.53,258.2a2,2,0,0,0,0,3.52l58.8,34L251,205.28l156.64,90.41,58.81-34A2,2,0,0,0,466.43,258.2Z" style="fill:#455a64"></path></g></g><g id="freepik--Blender--inject-2"><path id="freepik--shadow--inject-2" d="M116.75,242.75c5,2.89,7.52,6.68,7.52,10.47s-2.51,7.58-7.52,10.47c-10,5.78-26.25,5.78-36.26,0C75.48,260.8,73,257,73,253.22s2.51-7.58,7.52-10.47C90.5,237,106.74,237,116.75,242.75Z" style="fill:#37474f"></path><g id="freepik--blender--inject-2"><g id="freepik--Motor--inject-2"><path d="M76.8,251.37s0,.06,0,.09h0c0,3.18,2.17,6.36,6.38,8.79,8.51,4.92,22.31,4.92,30.83,0,4.21-2.43,6.33-5.61,6.38-8.79h0v-.15c-.07-8.21-6.12-22.77-9-26.13a9.72,9.72,0,0,0-2.94-2.48,18.34,18.34,0,0,0-6.51-2.11l-.66-.07-.65-.07-.67,0q-1.34-.06-2.67,0l-.67,0-.65.07a18.87,18.87,0,0,0-7.17,2.18,9.6,9.6,0,0,0-2.94,2.48h0c-2.92,3.36-9,17.92-9,26.13,0,0,0,0,0,0Z" style="fill:#E95858"></path><path d="M113.59,248.23c-6.07,3.6-10.58-4.12-14.29-7.33s-6.6-3.79-9.47-5.35-4.6-3.66-4.6-6.17l14.38-8.3s5.86-.27,10.38,2.93c3.72,3.22,3.11,7,3.81,9.07S118,245.59,113.59,248.23Z" style="fill:#455a64"></path><path d="M89.14,234.23c-2.61-1.51-3.91-3.48-3.91-5.46s1.3-4,3.91-5.46c5.22-3,13.69-3,18.91,0,2.61,1.51,3.91,3.49,3.91,5.46s-1.3,3.95-3.91,5.46C102.83,237.24,94.36,237.24,89.14,234.23Z" style="fill:#263238"></path><path d="M111.5,241.36a1.28,1.28,0,0,1,1.31.17,3.52,3.52,0,0,1,1.31,3.29,1.53,1.53,0,0,1-.76,1.18l-1.32.64a1.28,1.28,0,0,1-1.31-.17,3.54,3.54,0,0,1-1.31-3.29,1.53,1.53,0,0,1,.76-1.18Z" style="fill:#e0e0e0"></path><path d="M114.12,244.82a1.53,1.53,0,0,1-.76,1.18,1.29,1.29,0,0,1-1.31-.18,3.53,3.53,0,0,1-1.31-3.28,1.53,1.53,0,0,1,.76-1.18,1.28,1.28,0,0,1,1.31.17A3.52,3.52,0,0,1,114.12,244.82Z" style="fill:#fafafa"></path><path d="M106,242.39a.65.65,0,0,1,.66.07,1.78,1.78,0,0,1,.72,1.65.79.79,0,0,1-.37.61l-.66.34a.64.64,0,0,1-.67-.07,1.78,1.78,0,0,1-.71-1.64.75.75,0,0,1,.37-.61Z" style="fill:#263238"></path><path d="M107.38,244.11a.79.79,0,0,1-.37.61.66.66,0,0,1-.67-.07,1.79,1.79,0,0,1-.71-1.65.77.77,0,0,1,.37-.61.65.65,0,0,1,.66.07A1.78,1.78,0,0,1,107.38,244.11Z" style="fill:#37474f"></path><path d="M113.66,238.08a.66.66,0,0,1,.67.07,1.78,1.78,0,0,1,.71,1.64.79.79,0,0,1-.36.62l-.67.34a.65.65,0,0,1-.66-.07,1.81,1.81,0,0,1-.72-1.64.82.82,0,0,1,.37-.62C113.12,238.37,113.55,238.14,113.66,238.08Z" style="fill:#263238"></path><path d="M115,239.79a.79.79,0,0,1-.36.62.69.69,0,0,1-.67-.07,1.83,1.83,0,0,1-.72-1.65.82.82,0,0,1,.37-.61.66.66,0,0,1,.67.07A1.78,1.78,0,0,1,115,239.79Z" style="fill:#37474f"></path></g><g id="freepik--Vase--inject-2"><path d="M88,219.56c0,1,1,6.75,1.12,7.7a5,5,0,0,0,2.79,3.88,13,13,0,0,0,4.91,1.52l.91.07c.6,0,1.22,0,1.82,0l.91-.07a13,13,0,0,0,4.91-1.52,5.19,5.19,0,0,0,2.79-3.88c.14-.95,1.11-6.74,1.11-7.7,0-1.57-1-3.14-3.11-4.34a16.61,16.61,0,0,0-15,0C89,216.42,88,218,88,219.56Z" style="fill:#37474f"></path><path d="M106.14,215.22c2.08,1.2,3.11,2.77,3.11,4.34s-1,3.14-3.11,4.34a16.61,16.61,0,0,1-15,0C89,222.7,88,221.13,88,219.56s1-3.14,3.11-4.34A16.61,16.61,0,0,1,106.14,215.22Z" style="fill:#263238"></path><path d="M105.16,215.78c1.81,1.05,2.72,2.41,2.72,3.78s-.91,2.74-2.72,3.78a14.43,14.43,0,0,1-13.08,0c-1.81-1-2.71-2.41-2.71-3.78s.9-2.73,2.71-3.78A14.49,14.49,0,0,1,105.16,215.78Z" style="fill:#455a64"></path><path d="M92.08,223.34c-.29-.17-.55-.35-.8-.53.25-.18.51-.36.8-.53a14.49,14.49,0,0,1,13.08,0c.29.17.55.35.8.53-.25.18-.51.36-.8.53A14.43,14.43,0,0,1,92.08,223.34Z" style="fill:#37474f"></path><path d="M97.11,224.82a14.84,14.84,0,0,0,3,0l-.38-1.92-.42-2.16-.7-3.58-.7,3.58-.41,2.16h0l-.36,1.89Z" style="fill:#f0f0f0"></path><path d="M99.71,222.9l.38,1.92a12.61,12.61,0,0,0,2.71-.5l.44-.18,1-2.31,1.5-3.43-2.89,2.91-1.05,1.08Z" style="fill:#e0e0e0"></path><path d="M91.43,218.4l1.5,3.45,1,2.29.26.11a13.64,13.64,0,0,0,2.91.57v0l.37-1.89h0l-2.1-.51-1.05-1.06Z" style="fill:#e0e0e0"></path><path d="M79.8,186.48l-3.43,2a2.62,2.62,0,0,1,2.49.1l4.33,2.49,3.82-2.2-4.33-2.5A2.64,2.64,0,0,0,79.8,186.48Z" style="fill:#E95858"></path><path d="M79.8,186.48l-3.43,2a2.62,2.62,0,0,1,2.49.1l4.33,2.49,3.82-2.2-4.33-2.5A2.64,2.64,0,0,0,79.8,186.48Z" style="fill:#fff;opacity:0.6000000000000001"></path><path d="M86.11,212.55a21.68,21.68,0,0,1-6.65-10A113.89,113.89,0,0,1,76.74,191a.8.8,0,0,1,1.19-.83l4.32,2.5.94.54v-2.17l-4.33-2.49a2.62,2.62,0,0,0-2.49-.1l-.39.23a2.66,2.66,0,0,0-1.09,2.67,114.78,114.78,0,0,0,2.77,11.74A23.57,23.57,0,0,0,85,214Z" style="fill:#E95858"></path><path d="M86.11,212.55a21.68,21.68,0,0,1-6.65-10A113.89,113.89,0,0,1,76.74,191a.8.8,0,0,1,1.19-.83l4.32,2.5.94.54v-2.17l-4.33-2.49a2.62,2.62,0,0,0-2.49-.1l-.39.23a2.66,2.66,0,0,0-1.09,2.67,114.78,114.78,0,0,0,2.77,11.74A23.57,23.57,0,0,0,85,214Z" style="fill:#fff;opacity:0.4"></path><polygon points="89.93 210.34 86.11 212.55 84.96 214.04 88.78 211.83 89.93 210.34" style="fill:#f0f0f0"></polygon><polygon points="83.19 193.26 87.01 191.05 87.01 188.85 83.19 191.05 83.19 193.26" style="fill:#f0f0f0"></polygon><path d="M81.21,192.08c.5,2.41,1.21,5.4,2.07,8.27a21.74,21.74,0,0,0,6.65,10l-3.82,2.2a21.68,21.68,0,0,1-6.65-10A113.89,113.89,0,0,1,76.74,191a.8.8,0,0,1,1.19-.83Z" style="fill:#E95858"></path><path d="M79.37,179.73c0,14.76,3,31.42,9,41.58h0l0,.05h0a6.71,6.71,0,0,0,2.65,2.54,16.61,16.61,0,0,0,15,0,6.71,6.71,0,0,0,2.65-2.54h0c6.09-10.15,9.08-26.85,9.08-41.63h0c0-2.85-1.88-5.69-5.63-7.86-7.52-4.34-19.71-4.34-27.23,0C81.25,174,79.37,176.88,79.37,179.73Z" style="fill:#E95858;opacity:0.6000000000000001"></path><path d="M79.37,179.73c0,14.76,3,31.42,9,41.58h0l0,.05h0a6.71,6.71,0,0,0,2.65,2.54,16.61,16.61,0,0,0,15,0,6.71,6.71,0,0,0,2.65-2.54h0c6.09-10.15,9.08-26.85,9.08-41.63h0c0-2.85-1.88-5.69-5.63-7.86-7.52-4.34-19.71-4.34-27.23,0C81.25,174,79.37,176.88,79.37,179.73Z" style="fill:#fff;opacity:0.6000000000000001"></path><path d="M78.65,179.73c0-2.95,1.95-5.9,5.85-8.15,7.8-4.51,20.44-4.51,28.24,0,3.9,2.25,5.85,5.2,5.85,8.15v1.59c0,3-2,5.9-5.85,8.15-7.8,4.5-20.44,4.5-28.24,0-3.9-2.25-5.85-5.2-5.85-8.15Z" style="fill:#263238"></path><path d="M112.74,171.58c3.9,2.25,5.85,5.2,5.85,8.15s-2,5.9-5.85,8.15c-7.8,4.5-20.44,4.5-28.24,0-3.9-2.25-5.85-5.2-5.85-8.15s1.95-5.9,5.85-8.15C92.3,167.07,104.94,167.07,112.74,171.58Z" style="fill:#455a64"></path><path d="M108.7,173.91c2.78,1.61,4.17,3.71,4.17,5.82s-1.39,4.21-4.17,5.82c-5.57,3.21-14.59,3.21-20.16,0-2.78-1.61-4.17-3.72-4.17-5.82s1.39-4.21,4.17-5.82C94.11,170.7,103.13,170.7,108.7,173.91Z" style="fill:#37474f"></path><path d="M105.62,172.74c1.94,1.12,2.91,2.58,2.91,4s-1,2.93-2.91,4.05a15.48,15.48,0,0,1-14,0c-1.94-1.12-2.91-2.58-2.91-4.05s1-2.92,2.91-4A15.48,15.48,0,0,1,105.62,172.74Z" style="fill:#455a64"></path><path d="M102,174.85a2.34,2.34,0,0,1,1.38,1.93,2.37,2.37,0,0,1-1.38,1.94,7.46,7.46,0,0,1-6.7,0,2.37,2.37,0,0,1-1.38-1.94,2.34,2.34,0,0,1,1.38-1.93A7.39,7.39,0,0,1,102,174.85Z" style="fill:#fafafa"></path></g></g></g><g id="freepik--Bowl--inject-2"><path id="freepik--shadow--inject-2" d="M430.35,243.18c7.18,4.15,10.77,9.58,10.77,15s-3.59,10.87-10.78,15c-14.36,8.29-37.65,8.29-52,0-7.18-4.15-10.77-9.59-10.77-15s3.59-10.87,10.77-15C392.69,234.89,416,234.89,430.35,243.18Z" style="fill:#37474f"></path><g id="freepik--bowl--inject-2"><path d="M367.55,234.89a36.79,36.79,0,0,0,73.57,0Z" style="fill:#E95858"></path><path d="M367.55,234.89a36.79,36.79,0,0,0,73.57,0Z" style="fill:#fff;opacity:0.4"></path><path d="M378.32,219.87c-14.37,8.29-14.37,21.74,0,30s37.66,8.29,52,0,14.36-21.74,0-30S392.69,211.58,378.32,219.87Z" style="fill:#E95858"></path><path d="M378.32,219.87c-14.37,8.29-14.37,21.74,0,30s37.66,8.29,52,0,14.36-21.74,0-30S392.69,211.58,378.32,219.87Z" style="fill:#fff;opacity:0.8"></path><path d="M380.46,221.66c-13.18,7.31-13.18,19.15,0,26.45s34.56,7.3,47.74,0,13.18-19.14,0-26.45S393.65,214.36,380.46,221.66Z" style="fill:#E95858"></path><path d="M380.46,221.66c-13.18,7.31-13.18,19.15,0,26.45s34.56,7.3,47.74,0,13.18-19.14,0-26.45S393.65,214.36,380.46,221.66Z" style="fill:#fff;opacity:0.4"></path><path d="M380.46,221.66c-13.18,7.31-13.18,19.15,0,26.45a34.88,34.88,0,0,0,3.19,1.55c0-.06,1.55-7.89,3.43-18.14,1.27-6.91,7-13.59,16.91-15.33C395.47,216.24,387,218.06,380.46,221.66Z" style="fill:#E95858;opacity:0.1"></path><path d="M375.42,244.54a26.54,26.54,0,0,0,5,3.57c13.19,7.3,34.56,7.3,47.74,0a24.53,24.53,0,0,0,6.07-4.58c-.93-3.78-3.71-7.41-8.33-10.32-11.59-7.31-30.39-7.3-42,0C378.93,236.38,376.09,240.41,375.42,244.54Z" style="fill:#E95858"></path><path d="M434.27,243.53a12.57,12.57,0,0,0-1-2.71c-4.8,5.53-15,8.64-30,7.29s-21.79-9.16-16.19-16.59a32.11,32.11,0,0,0-3.12,1.69c-5,3.17-7.87,7.2-8.54,11.33a26.54,26.54,0,0,0,5,3.57c13.19,7.3,34.56,7.3,47.74,0A24.53,24.53,0,0,0,434.27,243.53Z" style="opacity:0.2"></path></g></g><g id="freepik--Eggs--inject-2"><path id="freepik--shadow--inject-2" d="M371.22,215.4,354,205.47a3.43,3.43,0,0,0-3.09,0l-43.31,25a1,1,0,0,0,0,1.79l17.19,9.92a3.43,3.43,0,0,0,3.09,0l43.31-25A.94.94,0,0,0,371.22,215.4Z" style="fill:#37474f"></path><path d="M356.69,214.14c0,2.67,2.17,5.68,4.84,5.68s4.83-3,4.83-5.68a4.84,4.84,0,1,0-9.67,0Z" style="fill:#E95858"></path><path d="M356.69,214.14c0,2.67,2.17,5.68,4.84,5.68s4.83-3,4.83-5.68a4.84,4.84,0,1,0-9.67,0Z" style="opacity:0.6000000000000001"></path><path d="M348,219.14c0,2.67,2.17,5.69,4.84,5.69s4.83-3,4.83-5.69a4.84,4.84,0,0,0-9.67,0Z" style="fill:#E95858"></path><path d="M348,219.14c0,2.67,2.17,5.69,4.84,5.69s4.83-3,4.83-5.69a4.84,4.84,0,0,0-9.67,0Z" style="opacity:0.6000000000000001"></path><path d="M339.35,224.15c0,2.67,2.16,5.69,4.84,5.69s4.83-3,4.83-5.69a4.84,4.84,0,0,0-9.67,0Z" style="fill:#E95858"></path><path d="M339.35,224.15c0,2.67,2.16,5.69,4.84,5.69s4.83-3,4.83-5.69a4.84,4.84,0,0,0-9.67,0Z" style="opacity:0.6000000000000001"></path><path d="M330.68,229.17c0,2.67,2.16,5.68,4.83,5.68s4.84-3,4.84-5.68a4.84,4.84,0,1,0-9.67,0Z" style="fill:#E95858"></path><path d="M330.68,229.17c0,2.67,2.16,5.68,4.83,5.68s4.84-3,4.84-5.68a4.84,4.84,0,1,0-9.67,0Z" style="opacity:0.6000000000000001"></path><path d="M322,234.18c0,2.68,2.16,5.69,4.83,5.69s4.84-3,4.84-5.69a4.84,4.84,0,0,0-9.67,0Z" style="fill:#E95858"></path><path d="M322,234.18c0,2.68,2.16,5.69,4.83,5.69s4.84-3,4.84-5.69a4.84,4.84,0,0,0-9.67,0Z" style="opacity:0.6000000000000001"></path><path d="M312.44,228.57c0,2.67,2.16,5.68,4.83,5.68s4.84-3,4.84-5.68a4.84,4.84,0,1,0-9.67,0Z" style="fill:#E95858"></path><path d="M312.44,228.57c0,2.67,2.16,5.68,4.83,5.68s4.84-3,4.84-5.68a4.84,4.84,0,1,0-9.67,0Z" style="opacity:0.6000000000000001"></path><path d="M307,225.64a1.05,1.05,0,0,1,.63-.89l43.31-25a3.43,3.43,0,0,1,3.09,0l17.19,9.93a1.09,1.09,0,0,1,.63.89v1.67a1.09,1.09,0,0,1-.63.9l-43.31,25a3.37,3.37,0,0,1-3.09,0l-17.19-9.92a1.05,1.05,0,0,1-.63-.89Z" style="fill:#E95858"></path><path d="M307,225.64a1.05,1.05,0,0,1,.63-.89l43.31-25a3.43,3.43,0,0,1,3.09,0l17.19,9.93a1.09,1.09,0,0,1,.63.89v1.67a1.09,1.09,0,0,1-.63.9l-43.31,25a3.37,3.37,0,0,1-3.09,0l-17.19-9.92a1.05,1.05,0,0,1-.63-.89Z" style="opacity:0.2"></path><path d="M326.34,236.84v1.66a3.25,3.25,0,0,0,1.57-.37l43.3-25a1.07,1.07,0,0,0,.65-.89c0-.3,0-1.37,0-1.67a1.1,1.1,0,0,1-.65.89l-43.3,25A3.23,3.23,0,0,1,326.34,236.84Z" style="opacity:0.1"></path><path d="M371.22,209.69,354,199.76a3.43,3.43,0,0,0-3.09,0l-43.31,25a1,1,0,0,0,0,1.79l17.19,9.92a3.43,3.43,0,0,0,3.09,0l43.31-25A.94.94,0,0,0,371.22,209.69Z" style="fill:#E95858"></path><path d="M323.5,232.82c-1.85-1.06-1.86-2.79,0-3.85a7.42,7.42,0,0,1,6.7,0c1.86,1.06,1.86,2.78,0,3.85A7.4,7.4,0,0,1,323.5,232.82Z" style="opacity:0.1"></path><path d="M313.93,227.3c-1.85-1.07-1.86-2.8,0-3.86a7.42,7.42,0,0,1,6.7,0c1.86,1.06,1.86,2.79,0,3.85A7.43,7.43,0,0,1,313.93,227.3Z" style="opacity:0.1"></path><path d="M332.17,227.81c-1.85-1.06-1.85-2.79,0-3.85a7.46,7.46,0,0,1,6.7,0c1.86,1.07,1.87,2.79,0,3.86A7.4,7.4,0,0,1,332.17,227.81Z" style="opacity:0.1"></path><path d="M322.6,222.28c-1.85-1.06-1.86-2.79,0-3.85a7.42,7.42,0,0,1,6.7,0c1.86,1.06,1.86,2.78,0,3.85A7.4,7.4,0,0,1,322.6,222.28Z" style="opacity:0.1"></path><path d="M340.84,222.8c-1.85-1.07-1.85-2.79,0-3.85a7.46,7.46,0,0,1,6.7,0c1.86,1.07,1.87,2.79,0,3.85A7.39,7.39,0,0,1,340.84,222.8Z" style="opacity:0.1"></path><path d="M331.27,217.27c-1.85-1.06-1.85-2.79,0-3.85a7.46,7.46,0,0,1,6.7,0c1.86,1.07,1.87,2.79,0,3.86A7.42,7.42,0,0,1,331.27,217.27Z" style="opacity:0.1"></path><path d="M349.51,217.79c-1.84-1.07-1.85-2.79,0-3.85a7.4,7.4,0,0,1,6.69,0c1.86,1.06,1.87,2.79,0,3.85A7.42,7.42,0,0,1,349.51,217.79Z" style="opacity:0.1"></path><path d="M339.94,212.26c-1.84-1.07-1.85-2.79,0-3.85a7.43,7.43,0,0,1,6.69,0c1.86,1.07,1.87,2.79,0,3.85A7.39,7.39,0,0,1,339.94,212.26Z" style="opacity:0.1"></path><path d="M358.18,212.78c-1.84-1.07-1.85-2.79,0-3.86a7.4,7.4,0,0,1,6.69,0c1.86,1.06,1.87,2.79,0,3.85A7.46,7.46,0,0,1,358.18,212.78Z" style="opacity:0.1"></path><path d="M348.61,207.25c-1.84-1.07-1.85-2.79,0-3.85a7.4,7.4,0,0,1,6.69,0c1.86,1.06,1.87,2.79,0,3.85A7.42,7.42,0,0,1,348.61,207.25Z" style="opacity:0.1"></path><path d="M312.78,225.29a1.69,1.69,0,0,0,0,.23,3.62,3.62,0,0,0,.15.93,3.11,3.11,0,0,0,1,.84,7.4,7.4,0,0,0,6.69,0,3,3,0,0,0,1-.83,3.78,3.78,0,0,0,.16-.95c0-.07,0-.15,0-.23s0-.16,0-.23a5.65,5.65,0,0,0,0-.59,9,9,0,0,0-2.58-5.54,2.64,2.64,0,0,0-3.73,0,9,9,0,0,0-2.58,5.49c0,.21,0,.43,0,.64A1.69,1.69,0,0,0,312.78,225.29Z" style="fill:#fff"></path><path d="M321.45,220.27a1.69,1.69,0,0,0,0,.23,3.62,3.62,0,0,0,.15.93,3.25,3.25,0,0,0,1,.85,7.37,7.37,0,0,0,6.69,0,3,3,0,0,0,1-.82,3.86,3.86,0,0,0,.16-1c0-.07,0-.15,0-.23s0-.16,0-.23,0-.4,0-.59a9,9,0,0,0-2.59-5.53,2.64,2.64,0,0,0-3.73,0,8.93,8.93,0,0,0-2.58,5.48c0,.22,0,.43,0,.64A1.69,1.69,0,0,0,321.45,220.27Z" style="fill:#fff"></path><path d="M322.35,230.82a1.55,1.55,0,0,0,0,.22,3.62,3.62,0,0,0,.15.94,3.11,3.11,0,0,0,1,.84,7.4,7.4,0,0,0,6.69,0,3,3,0,0,0,1-.83,3.86,3.86,0,0,0,.16-1c0-.07,0-.14,0-.22s0-.16,0-.23a5.65,5.65,0,0,0,0-.59,9,9,0,0,0-2.58-5.54,2.64,2.64,0,0,0-3.73,0A9,9,0,0,0,322.4,230c0,.21,0,.42,0,.64A1.69,1.69,0,0,0,322.35,230.82Z" style="fill:#fff"></path><path d="M331,225.8a1.69,1.69,0,0,0,0,.23,3.62,3.62,0,0,0,.15.93,3.23,3.23,0,0,0,1,.84,7.4,7.4,0,0,0,6.69,0,3.21,3.21,0,0,0,1-.83A4.19,4.19,0,0,0,340,226c0-.07,0-.15,0-.23s0-.16,0-.23a5.68,5.68,0,0,0,0-.59,9,9,0,0,0-2.59-5.54,2.64,2.64,0,0,0-3.73,0,9,9,0,0,0-2.58,5.49c0,.21,0,.43,0,.64A1.69,1.69,0,0,0,331,225.8Z" style="fill:#fff"></path><path d="M330.12,215.25a1.69,1.69,0,0,0,0,.23,4.85,4.85,0,0,0,.15.94,3.37,3.37,0,0,0,1,.84,7.4,7.4,0,0,0,6.69,0,3.35,3.35,0,0,0,1-.83,4.37,4.37,0,0,0,.15-1c0-.07,0-.15,0-.23s0-.15,0-.22,0-.4,0-.6a9,9,0,0,0-2.59-5.53,2.62,2.62,0,0,0-1.86-.77,2.59,2.59,0,0,0-1.86.77,8.89,8.89,0,0,0-2.59,5.48c0,.22,0,.43,0,.65A1.62,1.62,0,0,0,330.12,215.25Z" style="fill:#fff"></path><path d="M338.8,210.24v.23a4.75,4.75,0,0,0,.15.93,3.23,3.23,0,0,0,1,.84,7.4,7.4,0,0,0,6.69,0,3.21,3.21,0,0,0,1-.83,5.1,5.1,0,0,0,.16-.95V210c0-.2,0-.4,0-.59a9,9,0,0,0-2.59-5.54,2.63,2.63,0,0,0-3.72,0,8.9,8.9,0,0,0-2.58,5.49c0,.21,0,.43-.05.64Z" style="fill:#fff"></path></g></g><g id="freepik--Hanger--inject-2"><g id="freepik--hanger--inject-2"><g id="freepik--hanger--inject-2"><path d="M405.18,88.78l-2.92,1.68h0a1.15,1.15,0,0,0-.44,1v14.34a3.44,3.44,0,0,0,1.56,2.71l58.31,33.66a1.15,1.15,0,0,0,1.12.14h0l2.92-1.69h0a1.17,1.17,0,0,0,.45-1V125.28a3.43,3.43,0,0,0-1.56-2.7L406.3,88.91a1.15,1.15,0,0,0-1.11-.13Z" style="fill:#37474f"></path><path d="M463.25,141.31V127a3.43,3.43,0,0,0-1.56-2.7L403.38,90.6c-.87-.5-1.56-.1-1.56.9v14.34a3.44,3.44,0,0,0,1.56,2.71l58.31,33.66C462.55,142.71,463.25,142.31,463.25,141.31Z" style="fill:#455a64"></path><path d="M462.8,125.43l2.92-1.69a3.34,3.34,0,0,1,.46,1.54v14.34a1.14,1.14,0,0,1-.45,1h0l-2.93,1.69h0a.87.87,0,0,1-.4.08c.5,0,.84-.41.84-1.11V127A3.1,3.1,0,0,0,462.8,125.43Z" style="fill:#263238"></path><path d="M453.24,132.84a1.86,1.86,0,0,1-.91-.25,1.81,1.81,0,0,1-.92-1.59v-1.47a.72.72,0,0,1,.72-.72.73.73,0,0,1,.73.72V131a.39.39,0,0,0,.58.34l4.21-2.43a.7.7,0,0,1,1,.26.73.73,0,0,1-.26,1l-4.21,2.43A1.9,1.9,0,0,1,453.24,132.84Z" style="fill:#263238"></path><path d="M441.5,126.06a1.9,1.9,0,0,1-.92-.25,1.82,1.82,0,0,1-.91-1.59v-1.47a.72.72,0,0,1,1.44,0v1.47a.42.42,0,0,0,.19.34.4.4,0,0,0,.39,0l4.21-2.43a.71.71,0,0,1,1,.26.72.72,0,0,1-.27,1l-4.21,2.43A1.86,1.86,0,0,1,441.5,126.06Z" style="fill:#263238"></path><path d="M429.75,119.27a1.85,1.85,0,0,1-.91-.24,1.82,1.82,0,0,1-.92-1.59V116a.72.72,0,0,1,1.44,0v1.47a.37.37,0,0,0,.2.33.37.37,0,0,0,.39,0l4.2-2.43a.72.72,0,0,1,1,.27.73.73,0,0,1-.26,1L430.67,119A1.79,1.79,0,0,1,429.75,119.27Z" style="fill:#263238"></path><path d="M418,112.49a1.89,1.89,0,0,1-.92-.24,1.84,1.84,0,0,1-.92-1.59v-1.47a.73.73,0,0,1,.73-.72.72.72,0,0,1,.72.72v1.47a.38.38,0,0,0,.19.33.37.37,0,0,0,.39,0l4.21-2.43a.72.72,0,0,1,1,.27.71.71,0,0,1-.27,1l-4.21,2.43A1.76,1.76,0,0,1,418,112.49Z" style="fill:#263238"></path><path d="M406.26,105.71a1.83,1.83,0,0,1-1.83-1.83v-1.47a.72.72,0,1,1,1.44,0v1.47a.37.37,0,0,0,.2.33.4.4,0,0,0,.39,0l4.2-2.43a.72.72,0,0,1,.73,1.25l-4.21,2.43A1.79,1.79,0,0,1,406.26,105.71Z" style="fill:#263238"></path></g><path d="M407,132.63a.4.4,0,0,1,.39.39v37.49a.38.38,0,0,1-.39.39.39.39,0,0,1-.39-.39V133A.39.39,0,0,1,407,132.63Z" style="fill:#455a64"></path><path d="M406.06,133.1a.39.39,0,0,1,.39.39c0,12.32-1.69,18.69-3.17,22a20,20,0,0,0-1.83,5.62c-.53,3.27-.09,5.84,1.28,7.44a5.48,5.48,0,0,0,4.22,1.84.38.38,0,0,1,.39.39.39.39,0,0,1-.39.39,6.27,6.27,0,0,1-4.82-2.11c-1.54-1.81-2-4.52-1.45-8.07a20.66,20.66,0,0,1,1.89-5.83c1.45-3.19,3.09-9.48,3.1-21.63A.38.38,0,0,1,406.06,133.1Z" style="fill:#455a64"></path><path d="M406.05,134.09a.39.39,0,0,1,.39.39,148,148,0,0,1-1.61,24.1c-.1.62-.21,1.22-.3,1.82-.67,4.13.17,7.31,1.3,8.63a1.62,1.62,0,0,0,1.12.65.4.4,0,0,1,0,.79,2.36,2.36,0,0,1-1.71-.93c-1.15-1.36-2.24-4.59-1.48-9.26.09-.61.19-1.21.3-1.83a147.89,147.89,0,0,0,1.6-24A.39.39,0,0,1,406.05,134.09Z" style="fill:#455a64"></path><path d="M405.9,139.53a.4.4,0,0,1,.39.39c0,6.54-2.27,10.46-4.27,13.92-1.66,2.85-3.08,5.32-3.08,8.77,0,4.32,2.31,7.12,6.2,7.51a.39.39,0,0,1,.35.43.39.39,0,0,1-.43.35c-4.32-.43-6.91-3.53-6.91-8.29,0-3.66,1.55-6.33,3.19-9.16,2-3.37,4.16-7.19,4.16-13.53A.4.4,0,0,1,405.9,139.53Z" style="fill:#455a64"></path><path d="M407.86,133.1a.38.38,0,0,1,.39.39c0,12.15,1.64,18.44,3.09,21.63a21,21,0,0,1,1.89,5.83c.57,3.55.08,6.26-1.46,8.07a6.27,6.27,0,0,1-4.82,2.11.39.39,0,0,1-.39-.39.38.38,0,0,1,.39-.39,5.5,5.5,0,0,0,4.23-1.84c1.36-1.6,1.8-4.17,1.27-7.44a19.83,19.83,0,0,0-1.82-5.62c-1.48-3.27-3.16-9.64-3.16-22A.39.39,0,0,1,407.86,133.1Z" style="fill:#455a64"></path><path d="M407.87,134.09a.4.4,0,0,1,.39.39,147.08,147.08,0,0,0,1.59,24c.1.62.21,1.23.3,1.83.75,4.67-.33,7.91-1.49,9.26a2.31,2.31,0,0,1-1.71.93.4.4,0,0,1,0-.79,1.62,1.62,0,0,0,1.12-.65c1.13-1.32,2-4.5,1.31-8.63-.1-.6-.2-1.2-.3-1.82a147.13,147.13,0,0,1-1.6-24.1A.39.39,0,0,1,407.87,134.09Z" style="fill:#455a64"></path><path d="M408,139.53a.4.4,0,0,1,.39.39c0,6.34,2.2,10.16,4.15,13.53,1.64,2.83,3.19,5.5,3.19,9.17,0,4.75-2.59,7.85-6.92,8.28a.38.38,0,0,1-.42-.35.39.39,0,0,1,.35-.43c3.88-.38,6.2-3.19,6.21-7.5,0-3.46-1.43-5.92-3.08-8.78-2-3.46-4.27-7.37-4.26-13.92A.39.39,0,0,1,408,139.53Z" style="fill:#455a64"></path><path d="M411.09,106.48a4.13,4.13,0,1,0-8.25,0c0,4.71,1.31,20.21,1.31,27h0a1.38,1.38,0,0,0,.82,1.14,4.37,4.37,0,0,0,4,0,1.38,1.38,0,0,0,.82-1.14h0C409.77,126.69,411.09,111.19,411.09,106.48Z" style="fill:#E95858"></path><path d="M423.5,184.67a2.14,2.14,0,0,0,.8,1.84l12.42,7.17c.48.28.85-.15.8-.92L435.93,170a2.08,2.08,0,0,0-.8-1.56l-4-2.29v-45.2l-1.32-.76v45.2l-4-2.29c-.41-.24-.76,0-.8.64Zm11-12.35a5.15,5.15,0,0,1,.61,2.66l.75,12.77c.08,1.31-.07,2.26-.33,2.11a5.15,5.15,0,0,1-.61-2.66l-.75-12.76C434.08,173.12,434.23,172.17,434.49,172.32Zm-2-1.15a5,5,0,0,1,.54,2.63l.38,12.53c0,1.3-.14,2.23-.41,2.08a4.94,4.94,0,0,1-.54-2.62l-.37-12.54C432.06,172,432.24,171,432.5,171.17Zm-2.47.9c0-1.28.22-2.2.48-2a4.69,4.69,0,0,1,.47,2.59v12.31c0,1.28-.21,2.2-.47,2.05a4.65,4.65,0,0,1-.48-2.59ZM427.6,183l.37-12.1c0-1.25.29-2.15.55-2a4.41,4.41,0,0,1,.4,2.55l-.37,12.1c0,1.26-.29,2.15-.55,2A4.41,4.41,0,0,1,427.6,183Zm-2.44-1.4.75-11.89c.08-1.23.35-2.11.62-2a4.13,4.13,0,0,1,.33,2.5l-.75,11.9c-.08,1.23-.35,2.1-.61,1.95A4.18,4.18,0,0,1,425.16,181.57Z" style="fill:#455a64"></path><path d="M432.08,144.49c0,1.44-3.15-.38-3.15-1.82V118.25c0-1.34.71-2,1.58-1.52h0a4.17,4.17,0,0,1,1.57,3.34Z" style="fill:#E95858"></path><path d="M453.57,201.28l.86.51c3.57,2.05,6.33-1.12,5.94-6.79l-.44-6.24c-.31-4.44-2.48-9-5.18-11.06V134.31l-1.33-.77v43.34c-2.78-1.2-5,.86-5.35,5l-.44,5.73C447.24,192.86,450,199.23,453.57,201.28Z" style="fill:#455a64"></path><path d="M455.66,157.88c0,1.44-3.15-.38-3.15-1.82V131.64c0-1.34.71-2,1.57-1.51h0a4.14,4.14,0,0,1,1.58,3.33Z" style="fill:#E95858"></path><path d="M454.16,132.59a1.9,1.9,0,0,1-.92.25,1.86,1.86,0,0,1-.91-.25,1.81,1.81,0,0,1-.92-1.59v-1.47a.72.72,0,0,1,.72-.72.73.73,0,0,1,.73.72V131a.39.39,0,0,0,.58.34C453.72,131.21,454.48,131.87,454.16,132.59Z" style="fill:#263238"></path><path d="M430.67,119a1.89,1.89,0,0,1-.92.24,1.85,1.85,0,0,1-.91-.24,1.81,1.81,0,0,1-.92-1.59V116a.72.72,0,0,1,1.44,0v1.47a.37.37,0,0,0,.2.33.35.35,0,0,0,.39,0C430.23,117.65,431,118.3,430.67,119Z" style="fill:#263238"></path><path d="M407.18,105.46a1.79,1.79,0,0,1-.92.25,1.83,1.83,0,0,1-1.83-1.83v-1.47a.72.72,0,1,1,1.44,0v1.47a.37.37,0,0,0,.2.33.37.37,0,0,0,.39,0C406.74,104.08,407.5,104.74,407.18,105.46Z" style="fill:#263238"></path></g></g><g id="freepik--Character--inject-2"><g id="freepik--character--inject-2"><g id="freepik--Bottom--inject-2"><path d="M190.89,419.51c-.33,0-.57,3,1.23,4.47,2.07,1.7,8.66,4.95,16.55,3.8s12.14-3.63,15.26-6.29,7.49-6.43,11.06-7.27a25.81,25.81,0,0,0,8.82-4.54c1.05-1,.81-5.53.81-5.53Z" style="fill:#263238"></path><path d="M241.14,386.88a1.26,1.26,0,0,1,1.22,1c.27,1.24.6,4.84,1.16,6.87.78,2.82,1.38,8.61,1,10.92s-6.66,5.2-10.1,6.56a44.26,44.26,0,0,0-11.1,7.17c-3.66,3.09-11.43,6.37-16.59,6.42-6.1.06-13-1.77-14.64-4.53-2-3.41-3.51-7.4,5.47-11.68,1.69-.82,7.65-4.43,9.68-5.73,5.48-3.54,9.33-6.76,11.77-12.9a3.34,3.34,0,0,1,1.27-1.88,2.89,2.89,0,0,1,1.75-.19c1.51.18,7.55.9,8.93,1.52,1.23.55,3,1.18,3,2.71a5,5,0,0,1-.32,1.57c-.1.31-.18.73.1.91s.61,0,.85-.25a23.14,23.14,0,0,0,2.38-2.92,26.29,26.29,0,0,1,2.28-2.65,13.69,13.69,0,0,0,1.54-1C241.28,388.26,241.13,387.6,241.14,386.88Z" style="fill:#455a64"></path><path d="M223.3,419.43c1.56-1.31,3.21-2.57,4.87-3.71h0s-10.52,6.56-14.88,3.74c-2.81-1.82-1.53-4.1-1.48-4.83S202,409,199.29,408.69h0c-.74.42-1.35.78-1.75.95-7,2.9-7.9,6.51-6.64,11,1.63,2.76,7.82,5.53,15.71,5.39C211.77,426,219.64,422.52,223.3,419.43Z" style="fill:#37474f"></path><path d="M212.52,412.5c-5.59,2.31-3.17,3.31-1.59,3.5s11-5.42,16.65-10c5.94-4.8,10.52-11.18,12.73-13,.82-.65,1.7-1.46,2.49-2.21-.17-1.22-.31-2.33-.44-2.91a1.26,1.26,0,0,0-1.22-1c0,.72.14,1.38-.4,1.93a13.69,13.69,0,0,1-1.54,1,26.29,26.29,0,0,0-2.28,2.65,23.14,23.14,0,0,1-2.38,2.92C229.74,401.63,218.11,410.19,212.52,412.5Z" style="fill:#37474f"></path><path d="M211.32,415.18a.58.58,0,0,0,.35-.13.54.54,0,0,0,.06-.77c-1.62-1.89-9.24-6.31-13.37-5.79a.55.55,0,1,0,.14,1.09c3.86-.48,11.1,3.91,12.38,5.41A.58.58,0,0,0,211.32,415.18Z" style="fill:#263238"></path><path d="M216.17,412.12a.56.56,0,0,0,.35-.13.53.53,0,0,0,.07-.77c-1.63-1.89-9.24-6.3-13.38-5.79a.55.55,0,1,0,.14,1.09c3.87-.47,11.1,3.91,12.39,5.4A.53.53,0,0,0,216.17,412.12Z" style="fill:#263238"></path><path d="M221,409.22a.63.63,0,0,0,.35-.13.56.56,0,0,0,.07-.78c-1.63-1.89-9.24-6.3-13.38-5.78a.55.55,0,1,0,.14,1.09c3.86-.48,11.1,3.91,12.39,5.4A.57.57,0,0,0,221,409.22Z" style="fill:#263238"></path><path d="M225.52,405.92a.56.56,0,0,0,.35-.13.54.54,0,0,0,.07-.77c-1.63-1.89-9.26-6.31-13.38-5.79a.55.55,0,1,0,.14,1.09c3.86-.47,11.1,3.91,12.39,5.4A.53.53,0,0,0,225.52,405.92Z" style="fill:#263238"></path><path d="M229.92,402.62a.54.54,0,0,0,.34-.12.54.54,0,0,0,.08-.77c-2.23-2.68-10.19-6.34-14.32-5.83a.55.55,0,0,0-.48.62.54.54,0,0,0,.62.47c3.72-.46,11.34,3.06,13.32,5.43A.52.52,0,0,0,229.92,402.62Z" style="fill:#263238"></path><path d="M282.68,435.83c.65,5.58,1.81,9.19,4.23,12.21s6.71,3.54,11,2,9.64-4.74,10.64-9.75.58-8.29-.65-13.39Z" style="fill:#263238"></path><path d="M299.55,392.49c1.78-.09,1.3,4.3,2.14,11.82.9,8.14,4.57,14.52,5.88,21,1.49,7.46,1.21,10.9-1.57,15.86S292.81,452,287.25,446c-4.53-4.84-5-10.76-5-18.39,0-7.88.1-13.44-.56-19.34-.62-5.64-3-10.85-1.48-11.67.16.82,1.67,6.53,2.67,6.44a10.93,10.93,0,0,0-.09-2.14,2.44,2.44,0,0,1,.4-1.9,8.22,8.22,0,0,1,2.86-1.45c1.73-.52,4.82-1.17,6.59-1.53.88-.18,1.76-.32,2.65-.42a7.77,7.77,0,0,1,2.26,0,1.39,1.39,0,0,1,1,.65,2.22,2.22,0,0,1,.13.86,5.69,5.69,0,0,0,.3,1.53c.08.21.26.47.51.38a.47.47,0,0,0,.27-.49C299.74,397.66,299.61,393,299.55,392.49Z" style="fill:#455a64"></path><path d="M307.06,423.24c.23,1.08,1.63,8.2-.54,9.78-2.34,1.71-3.94-3.83-3.94-3.83s-5.74-.84-13.82,3.36c.48,1.12-.6,5.16-2.9,4.61s-3.58-8.74-3.59-8.85c0,7.31.58,13,5,17.73,5.56,5.93,16,.13,18.75-4.83s3.06-8.4,1.57-15.86C307.42,424.6,307.25,423.91,307.06,423.24Z" style="fill:#37474f"></path><path d="M302,429.75c.17,2.74,3.19,1.44,3.13-2.45S303,414,302.21,407.6c-.52-9.15-.88-15.2-2.66-15.11,0,.09,0,.19,0,.28s.19,5.21.21,5.81c.32,5.59.39,16.45,1.19,21.5A79.38,79.38,0,0,1,302,429.75Z" style="fill:#37474f"></path><path d="M289.71,432.35a78.17,78.17,0,0,1-2.16-9.42c-.86-5-3.85-15-5.33-20.38-.48-.89-2-5.91-2-5.91-1.23.34,0,5.14.58,7.38s1.28,4.65,2,7.87c1.84,6.34,2,15.87,3.2,19.52S290.43,435,289.71,432.35Z" style="fill:#37474f"></path><path d="M288.6,432.79l.24-.09a24.32,24.32,0,0,1,13.59-2.93.73.73,0,0,0,.79-.51.53.53,0,0,0-.5-.65,25.52,25.52,0,0,0-14.55,3.13.58.58,0,0,0-.23.82A.62.62,0,0,0,288.6,432.79Z" style="fill:#263238"></path><path d="M286.83,427l.21-.08a30.2,30.2,0,0,1,15.23-3.28.73.73,0,0,0,.77-.53.55.55,0,0,0-.53-.64A31.38,31.38,0,0,0,286.42,426a.59.59,0,0,0-.27.82A.65.65,0,0,0,286.83,427Z" style="fill:#263238"></path><path d="M301.56,418.06a.72.72,0,0,0,.54-.46.53.53,0,0,0-.45-.69c-8.07-1.41-15.74,3.13-16.07,3.33a.57.57,0,0,0-.24.81.68.68,0,0,0,.9.14c.07,0,7.54-4.45,15-3.12A.87.87,0,0,0,301.56,418.06Z" style="fill:#263238"></path><path d="M300.84,412.78a.71.71,0,0,0,.54-.45.53.53,0,0,0-.44-.7c-8.88-1.7-16.09,3.12-16.39,3.32a.57.57,0,0,0-.18.83.69.69,0,0,0,.91.09c.07-.05,7-4.67,15.27-3.09A.71.71,0,0,0,300.84,412.78Z" style="fill:#263238"></path><path d="M300,406.85a.7.7,0,0,0,.53-.44.52.52,0,0,0-.42-.7c-8.33-1.72-16.18,3.28-16.51,3.5a.57.57,0,0,0-.2.82.67.67,0,0,0,.91.1c.08,0,7.66-4.87,15.39-3.28A.76.76,0,0,0,300,406.85Z" style="fill:#263238"></path><path d="M286.31,193.56C300.09,223.73,295,314.83,295,314.83c.3,3.35,2.21,8,3.77,24.58,1.64,17.44,3.56,58.6,3.56,58.6s-7.76,8.66-22.58,4.61c0,0-14.47-53.45-19.23-74C256,309.19,254,277.06,254,277.06l-5.35,29.29s.67,12.58.35,21.38c-.36,10.24-5.47,65.89-5.47,65.89s-13.05,6-25.87-1.84c0,0-6-66.26-6.33-78.58-.61-24.16-2.25-93.4,7.7-119.64Z" style="fill:#ebebeb"></path><path d="M285.66,194.56c13.2,30.19,8.38,119.31,8.33,120.21v.15a34.77,34.77,0,0,0,.71,4,159.1,159.1,0,0,1,3.05,20.58c1.53,16.25,3.32,53.63,3.54,58.11a20.35,20.35,0,0,1-13.91,5.09,27.61,27.61,0,0,1-6.84-.9c-1.55-5.76-14.62-54.23-19.07-73.4S255,277.32,255,277l-.52-8.16-1.47,8-5.35,29.29,0,.11v.12c0,.12.66,12.64.35,21.3-.34,9.52-4.85,59.17-5.41,65.23a30.16,30.16,0,0,1-10.45,1.89,26.38,26.38,0,0,1-13.53-3.63c-.56-6.18-6-66.44-6.28-78-.58-22.8-2.31-91.82,7.4-118.61h65.94m.65-1H219c-10,26.24-8.31,95.48-7.7,119.64.31,12.32,6.33,78.58,6.33,78.58a27.42,27.42,0,0,0,14.48,4,29.82,29.82,0,0,0,11.39-2.2S248.63,338,249,327.73c.32-8.8-.35-21.38-.35-21.38L254,277.06s2,32.13,6.52,51.57c4.76,20.54,19.23,74,19.23,74a28.82,28.82,0,0,0,7.65,1.08c9.83,0,14.93-5.69,14.93-5.69s-1.92-41.16-3.56-58.6c-1.56-16.54-3.47-21.23-3.77-24.58,0,0,5.1-91.1-8.68-121.27Z" style="fill:#e0e0e0"></path><path d="M254,277.06l-4.82-31.39s-11.1-1.69-16.8-7.18c0,0,3.69,7.27,14.16,10.08l4.79,28.57-2.68,29.21Z" style="opacity:0.15"></path></g><g id="freepik--top--inject-2"><path d="M235.31,120.33a29.74,29.74,0,0,0-7.09-1.37,88.83,88.83,0,0,0-18,.91c-5.64.75-28.5,4-28.5,4l-7.57-32.52-13,2.43-3,0c3.85,3.73,3.05,5.19,3.31,16.65.25,10.84,0,16.75,1.17,27.23.64,5.69,3.23,9.54,11.13,9.52,13.32,0,42.18-3.61,42.18-3.61Z" style="fill:#ffbda7"></path><path d="M181.69,123.86c.67,3.06,1.18,9.27-1.05,13.43,3.63-3.44,4.41-9.16,3.49-13.77Z" style="fill:#f0997a"></path><path d="M234.79,119.38c-5.72-.94-9-2.08-20.79-.86s-32,4.8-32,4.8L179,110.86s-.35,2.26-7.58,3.92-10.19-.29-10.19-.29,0,13.53.35,19.54,1.39,9.94,2.78,11.68,3.84,2.79,13,2.44,42.83-3.83,42.83-3.83Z" style="fill:#ebebeb"></path><path d="M161,111.58v9.26a18.86,18.86,0,0,0,11,1.7c6.62-.84,9.15-4.2,9.15-4.2L179,108.52s-1.83,2.65-7.92,3.46A29,29,0,0,1,161,111.58Z" style="fill:#e0e0e0"></path><path d="M182,123.32c1.39,6,.84,9.45.54,13.14,3.14-4.12,2.13-13.61,2.13-13.61Z" style="fill:#e0e0e0"></path><g id="freepik--Chest--inject-2"><path d="M283.9,181.59c.06-5.49,6-21,6.55-28.33,1.32-18.23-5.53-25.74-8.45-27.07l-31.16-4.4-16.2-2.27a93.8,93.8,0,0,0-13.7,15.16c-5.34,7.59-8,11.77-8.76,19.4a51.4,51.4,0,0,0,1.36,16.21s1.9,13.63,1.35,20.26C214.2,199,212,225.26,212,225.26c9.89,14.4,58.87,17.39,82.86,2.64C293.15,194.47,284.4,189.44,283.9,181.59Z" style="fill:#f5f5f5"></path><path d="M235,120.64l15.71,2.2,31,4.38c2.54,1.29,9,8.52,7.71,26-.26,3.6-1.89,9.29-3.46,14.8s-3.07,10.74-3.1,13.6v.08c.18,2.73,1.27,5.12,2.65,8.14,2.82,6.2,7.08,15.54,8.28,37.52-9.88,5.87-24.73,9.23-40.86,9.23-18.79,0-34.69-4.64-39.82-11.59.28-3.27,2.22-26.47,2.86-34.32.55-6.68-1.28-19.94-1.36-20.5V170a50.62,50.62,0,0,1-1.34-15.83c.73-7.43,3.44-11.59,8.58-18.89A92.52,92.52,0,0,1,235,120.64m-.34-1.12a93.8,93.8,0,0,0-13.7,15.16c-5.34,7.59-8,11.77-8.76,19.4a51.4,51.4,0,0,0,1.36,16.21s1.9,13.63,1.35,20.26C214.2,199,212,225.26,212,225.26c5.42,7.89,22.57,12.35,40.91,12.35,15.14,0,31.1-3,42-9.71-1.71-33.43-10.46-38.46-11-46.31.06-5.49,6-21,6.55-28.33,1.32-18.23-5.53-25.74-8.45-27.07l-31.16-4.4-16.2-2.27Z" style="fill:#e0e0e0"></path><path d="M234.17,147.09a2.06,2.06,0,1,0-2,2.1A2.06,2.06,0,0,0,234.17,147.09Z" style="fill:#455a64"></path><path d="M231.8,158.59a2.06,2.06,0,1,0-2,2.09A2.06,2.06,0,0,0,231.8,158.59Z" style="fill:#455a64"></path><path d="M229.9,170.64a2.06,2.06,0,1,0-2,2.09A2.06,2.06,0,0,0,229.9,170.64Z" style="fill:#455a64"></path><path d="M228.47,183.25a2.06,2.06,0,1,0-2,2.09A2.06,2.06,0,0,0,228.47,183.25Z" style="fill:#455a64"></path><path d="M227.52,196.42a2.06,2.06,0,1,0-2,2.1A2.06,2.06,0,0,0,227.52,196.42Z" style="fill:#455a64"></path><path d="M227.05,210.16a2.07,2.07,0,1,0-2,2.09A2.07,2.07,0,0,0,227.05,210.16Z" style="fill:#455a64"></path><path d="M227.05,224.45a2.06,2.06,0,1,0-2,2.09A2.07,2.07,0,0,0,227.05,224.45Z" style="fill:#455a64"></path><path d="M249.66,148.91a2.06,2.06,0,1,0-2,2.1A2.06,2.06,0,0,0,249.66,148.91Z" style="fill:#455a64"></path><path d="M247.28,160.41a2.06,2.06,0,1,0-2,2.09A2.05,2.05,0,0,0,247.28,160.41Z" style="fill:#455a64"></path><path d="M245.38,172.46a2.06,2.06,0,1,0-2,2.09A2.05,2.05,0,0,0,245.38,172.46Z" style="fill:#455a64"></path><path d="M244,185.07a2.06,2.06,0,1,0-2,2.09A2.06,2.06,0,0,0,244,185.07Z" style="fill:#455a64"></path><path d="M243,198.24a2.06,2.06,0,1,0-2,2.1A2.07,2.07,0,0,0,243,198.24Z" style="fill:#455a64"></path><path d="M242.53,212a2.06,2.06,0,1,0-2,2.09A2.06,2.06,0,0,0,242.53,212Z" style="fill:#455a64"></path><path d="M242.53,226.27a2.06,2.06,0,1,0-2,2.09A2.05,2.05,0,0,0,242.53,226.27Z" style="fill:#455a64"></path><path d="M253.93,144.49a22.74,22.74,0,0,0-4.28-3.11c-1.6-1.09-3.19-2.22-4.86-3.2-.08-.05-.09.14,0,.18,1.37,1.21,2.83,2.34,4.27,3.46.64.51,1.26,1.05,1.89,1.57a13.75,13.75,0,0,1,1.78,1.54c2,2.24,1,5.55.6,8.19-1.1,6.33-2,12.71-2.66,19.11-1.41,12.84-2.18,25.77-2.75,38.68-.16,3.6-.29,7.2-.43,10.79-.14,3.81-.38,7.64-.24,11.45,0,.75,1.41.66,1.45-.06.15-3.43.2-6.87.33-10.3l.39-10c.26-6.54.5-13.09.92-19.63a372.62,372.62,0,0,1,4.36-39.59C255.15,150.6,256.19,147,253.93,144.49Z" style="fill:#e6e6e6"></path></g><path d="M273.81,71.06c8,1.22,9.44,14.48,7.23,21.84-4.28,14.2-14,15.48-14.65,21.59l-14.15-9.09-11-7.07c-1.53-1-3.45-1.94-4.65-3.32-1-1.19-.63-3.64-2.24-4.2-4.42-1.52-6.4-4-6.45-7.5,0-2,.74-5.19,3.55-6.74-1.75-2-3.37-7.43-1-11.25s3.73-4.59,8-6.09c7.1-2.51,15.2-2.91,22.28-.08C266.44,61.46,272.19,64.48,273.81,71.06Z" style="fill:#263238"></path><path d="M280.22,118.11a5.19,5.19,0,0,1-.13,3.28,7.49,7.49,0,0,0,5.26-5.14,7.73,7.73,0,0,0,5.24-1.24,7,7,0,0,0,2.51-4.41c.25-1-.12-4-1.42-4.33a3.37,3.37,0,0,0,4.1-4.09,1.69,1.69,0,0,1-2.33.87,3.13,3.13,0,0,1-1.51-2.3c-.17-.94-.11-1.9-.19-2.85-.79-8.59-11.7-9.49-18.2-8.34a16.7,16.7,0,0,0-4.61,1.38,13.45,13.45,0,0,0-3.74,2.89c-4.93,5.31-6,13.67-3.14,20.31,1.36,3.11,3.36,5.74,6.75,6.69,2.6.72,6.6.76,8.92-.79a4.2,4.2,0,0,0,1.94-3.15A5,5,0,0,1,280.22,118.11Z" style="fill:#263238"></path><path d="M266.45,120.39l1.24-18.15s1.6,3,5.78,1.65c3.85-1.26,4.93-6.16,3.91-10.59-.85-3.65-7.25-6.45-9.71,1-3.49.69-5-1.33-2.57-9.58,0,0-16.72,1.27-24-11.78-2-2.06-5.64-.75-6.89,1.84-.89,1.85-2.18,3.65-1.66,10.08.19,2.38-1.2,6.79-1.53,10-1.28,12.67,3.06,16.57,6.44,18.84,2.1,1.42,5.62,2.31,9.32,2.47l-.29,2.55h0c-.17,1.34-.63,2.16-2.7,1.87,0,0-3.12,7.85-.64,15.84,10.72.07,23.51-8.89,25.89-12.26C266.13,123.78,266.41,123.26,266.45,120.39Z" style="fill:#ffbda7"></path><path d="M251.64,101.46,244,103.6a3.9,3.9,0,0,0,4.83,2.89A4.16,4.16,0,0,0,251.64,101.46Z" style="fill:#b16668"></path><path d="M251.09,103.19a4.38,4.38,0,0,0-4.5,3.25,3.7,3.7,0,0,0,2.21,0,4.08,4.08,0,0,0,2.88-3.2A3.63,3.63,0,0,0,251.09,103.19Z" style="fill:#f28f8f"></path><path d="M234.94,84.55l4.64-1.85a2.4,2.4,0,0,0-3.16-1.45A2.64,2.64,0,0,0,234.94,84.55Z" style="fill:#263238"></path><path d="M239.94,88.61a2.14,2.14,0,0,1-2,2.2,2,2,0,0,1-2.16-1.92,2.15,2.15,0,0,1,2-2.2A2,2,0,0,1,239.94,88.61Z" style="fill:#263238"></path><path d="M257.2,87.06l-4.33-2.59a2.41,2.41,0,0,1,3.39-.94A2.65,2.65,0,0,1,257.2,87.06Z" style="fill:#263238"></path><path d="M255.65,90.11a2.13,2.13,0,0,1-2,2.19,2,2,0,0,1-2.17-1.91,2.15,2.15,0,0,1,2-2.2A2,2,0,0,1,255.65,90.11Z" style="fill:#263238"></path><polygon points="247.91 85.45 245.86 99.61 239.07 95.66 247.91 85.45" style="fill:#f0997a"></polygon><path d="M246.81,116.2c9.16.52,15.14-2.55,17.84-8,0,0-1,5.15-4.83,7.79-4.29,3-13.3,2.73-13.3,2.73Z" style="fill:#f0997a"></path><g id="freepik--Hat--inject-2"><path d="M292.1,82a13.33,13.33,0,0,1-4.37,8.15,14.15,14.15,0,0,1-6.77,3,14.89,14.89,0,0,1-3.58.15c-.08-.22-.18-.45-.28-.67a5.14,5.14,0,0,0-1.7-2.07l3.27-13.82A21.8,21.8,0,0,0,275,71.36a24.47,24.47,0,0,0-1.68-1.79,40.58,40.58,0,0,0-12.84-8.34c-14.89-6.29-25.09.37-25.09.37l-3.93,14.82a.41.41,0,0,1,0,.1.22.22,0,0,1,0,.06,5.84,5.84,0,0,0-1.1.77A16,16,0,0,1,224,66.12c-1-7.1,2.92-14.66,8.34-18.77,9.16-7,23.44-6.06,32,1.49a17,17,0,0,1,13.3-1.93A15.58,15.58,0,0,1,287.77,56a14.79,14.79,0,0,1-1.51,13.72,12.11,12.11,0,0,1,5.94,9.75A11.52,11.52,0,0,1,292.1,82Z" style="fill:#e6e6e6"></path><path d="M272.05,89.78a2.08,2.08,0,0,1,.36,0,4.77,4.77,0,0,1,4.69,2.9,5.44,5.44,0,0,1,.28.66,14.74,14.74,0,0,0,10.35-3.15,12,12,0,0,0,2.11-2.38c-3.74,3.74-8.3,3.55-10.43.56-2.61-3.66,0-11.77,0-11.77l-3.25.87Z" style="opacity:0.1"></path><path d="M269.54,91.09c-5.38-10.13-16.8-14.73-25.63-15.48s-12.47,1-12.47,1l4-15s10.21-6.66,25.11-.38c14.24,6,18.15,15.53,18.15,15.53l-3.26,13.81A4.66,4.66,0,0,0,269.54,91.09Z" style="fill:#e0e0e0"></path><path d="M276,88.2l-.37,1.6c-6.83-13.71-24.47-24.2-42.73-18.58L233.2,70C251.28,64.76,268.65,74.78,276,88.2Z" style="opacity:0.30000000000000004"></path><path d="M262.23,56a31.28,31.28,0,0,1,12.33,7,19,19,0,0,1,5.94,13c.05,3.8-4.7,2.71-6.59,1.17a6.94,6.94,0,0,1-2.47-5.33,7,7,0,0,1-8.63.19A10.24,10.24,0,0,1,259,63.59,11.69,11.69,0,0,1,252.41,70a11,11,0,0,1-8.93-.64A8,8,0,0,1,240,65.88a12.2,12.2,0,0,1-1-2.09,7.08,7.08,0,0,1,.59-5.79c1.84-3.24,6.76-3.74,10-3.9A35.44,35.44,0,0,1,262.23,56Z" style="fill:#e6e6e6"></path><path d="M275.4,90.57l-.07,0a5.2,5.2,0,0,1,1.77,2.11,6.35,6.35,0,0,1,.28.67,14.77,14.77,0,0,0,10.35-3.16A13.29,13.29,0,0,0,292.11,82a12.33,12.33,0,0,0-5.84-12.24A14.83,14.83,0,0,0,287.77,56a15.59,15.59,0,0,0-9.55-8.93l.31.32a14,14,0,0,1,3.12,7.77,8.73,8.73,0,0,1-1.27,6,7.9,7.9,0,0,1-5.48,2.64c.67-.08,2,1.37,2.44,1.83a6.21,6.21,0,0,1,1.49,2.82,6.44,6.44,0,0,1-.58,4.46,5.09,5.09,0,0,1-1.42,1.7,4.23,4.23,0,0,1-4.58.28,4.09,4.09,0,0,0,2,2.66,6.11,6.11,0,0,0,3.22.73c.72,0,.79.17.63.82-.11.48-.22,1-.34,1.44-.25,1.09-.51,2.19-.77,3.28l-1.35,5.7Z" style="opacity:0.05"></path><path d="M238.66,61.88a13.34,13.34,0,0,0,3.26,5.69,7.67,7.67,0,0,0,2.9,2,10.09,10.09,0,0,0,3.23.44,12.38,12.38,0,0,0,6.07-1.66,13.24,13.24,0,0,0,2.53-1.87,8.09,8.09,0,0,0,1.82-2.93c.18-.43.86-.67,1.07-.13a1.08,1.08,0,0,1,0,.44,10.37,10.37,0,0,0,.91,4.32,8.43,8.43,0,0,0,2.37,3.05,7,7,0,0,0,3.92,1.69,4.25,4.25,0,0,0,4-1.6c.32-.51,1.27-.51,1.22.25a6,6,0,0,0,10.23,4.77c.08-.07.12.11.08.17a6.27,6.27,0,0,1-7.5,2,7.19,7.19,0,0,1-4-5.54c-2.25,1.76-5.81,1.23-8.08-.31a9.07,9.07,0,0,1-3.35-4.07,8.58,8.58,0,0,1-.73-3.12,8.24,8.24,0,0,1-2.52,3,13.72,13.72,0,0,1-5.15,2.4,12.7,12.7,0,0,1-5.72,0,8.92,8.92,0,0,1-4.93-3.28,8.37,8.37,0,0,1-2-5.56C238.36,61.86,238.59,61.65,238.66,61.88Z" style="fill:#e6e6e6"></path><path d="M238.66,61.88a13.34,13.34,0,0,0,3.26,5.69,7.67,7.67,0,0,0,2.9,2,10.09,10.09,0,0,0,3.23.44,12.38,12.38,0,0,0,6.07-1.66,13.24,13.24,0,0,0,2.53-1.87,8.09,8.09,0,0,0,1.82-2.93c.18-.43.86-.67,1.07-.13a1.08,1.08,0,0,1,0,.44,10.37,10.37,0,0,0,.91,4.32,8.43,8.43,0,0,0,2.37,3.05,7,7,0,0,0,3.92,1.69,4.25,4.25,0,0,0,4-1.6c.32-.51,1.27-.51,1.22.25a6,6,0,0,0,10.23,4.77c.08-.07.12.11.08.17a6.27,6.27,0,0,1-7.5,2,7.19,7.19,0,0,1-4-5.54c-2.25,1.76-5.81,1.23-8.08-.31a9.07,9.07,0,0,1-3.35-4.07,8.58,8.58,0,0,1-.73-3.12,8.24,8.24,0,0,1-2.52,3,13.72,13.72,0,0,1-5.15,2.4,12.7,12.7,0,0,1-5.72,0,8.92,8.92,0,0,1-4.93-3.28,8.37,8.37,0,0,1-2-5.56C238.36,61.86,238.59,61.65,238.66,61.88Z" style="opacity:0.1"></path></g><g id="freepik--Neck--inject-2"><path d="M270,124.64s-.23-3.72-.57-6.3c-.23-1.81-2.61-2.94-2.61-2.94l-.23,3.35a12.08,12.08,0,0,1-5.24,5.38c-3.58,2.08-8.6,3.32-11.59,3.91a5.43,5.43,0,0,0-3.77,2.88l-2.78,5.54s7.5,1.61,17.89-3.73C269.36,128.47,270,124.64,270,124.64Z" style="fill:#e6e6e6"></path><path d="M243.18,136.46l.78-4.78s.06-1.48.24-2.93a86.54,86.54,0,0,1,2.2-9.37l.37-2.78s-2.33.62-3,1.86c-1.42,2.47-3,9.48-3,9.48S240.21,134,243.18,136.46Z" style="fill:#e6e6e6"></path></g><g id="freepik--Arm--inject-2"><g id="freepik--Spoon--inject-2"><g id="freepik--tea-spoon--inject-2"><path d="M189.81,112.38h0a8.91,8.91,0,0,1-6.36-.17,18.59,18.59,0,0,1-9.54-7c-2.25-3.46-1-6,0-7.07.07,0,1-.74,1-.78l2.5-.68A12.78,12.78,0,0,1,183.63,98c4.3,2.15,8.38,7.07,8.29,11.56A2.73,2.73,0,0,1,189.81,112.38Z" style="fill:#37474f"></path><path d="M148.22,66.39l26.95,32.08a11,11,0,0,1,2.67-.42l.19-.51L152.87,65.18c-.79-1-4.22-.58-4.55.27,0,.09-.16.42-.2.51A.43.43,0,0,0,148.22,66.39Z" style="fill:#37474f"></path><path d="M152.87,65.18c-.91-1.13-5.37-.42-4.45.7L175.36,98a11.07,11.07,0,0,1,2.67-.42Z" style="fill:#455a64"></path><path d="M175.36,97.35,151.15,68.66c-1.84-2.17-3-3.3-1.22-3.59,2.12-.34,2.38.27,2.38.27a4.14,4.14,0,0,0-1.85-.07c-1.09.23-.62,1.27.78,2.75S175.36,97.35,175.36,97.35Z" style="fill:#fff;opacity:0.1"></path><path d="M174.68,103.49c2.72,4,10.37,9.48,14.8,8.78s2.45-7.1-1.14-10.94S180.61,96.22,177,96.8,172,99.56,174.68,103.49Z" style="fill:#455a64"></path><path d="M190.93,111.68c.17-2.31-1.74-6.08-4.06-8.62-3.29-3.6-6.67-4.79-9.36-4.16s-3.37,2.79-.71,6.54a18.78,18.78,0,0,0,1.73,2.07c3.43,2.83,7.93,5.23,10.95,4.76A3.19,3.19,0,0,0,190.93,111.68Z" style="fill:#fff;opacity:0.05"></path><path d="M178.63,105.69c1.91,2.68,6.64,6.36,9,5.81s.54-4.92-1.81-7.51-4.74-3.39-6.64-2.94S176.75,103,178.63,105.69Z" style="fill:#fff;opacity:0.05"></path></g><path d="M176.52,105.68c-.82-2.77,2.24-6.08,8-3.83a13.47,13.47,0,0,1,6.57,5.75c1.14,1.94,3,6.41,1.72,8.62a1.59,1.59,0,0,1-1.71.7,1.7,1.7,0,0,1-1.23-1.4c0-.29,0-.58,0-.87-.29-2.28-3.45-2.55-5.15-3.3A24.86,24.86,0,0,1,176.52,105.68Z" style="fill:#E95858"></path><path d="M189.8,114.65c0,.29,0,.58,0,.87a1.7,1.7,0,0,0,1.23,1.4,1.49,1.49,0,0,0,.42,0c-.17,0-.33-.14-.64-.54-.52-.66-.31-1-.1-2.23.24-1.39-1.17-2.16-2.39-2.89-2.58-1.53-6-2.43-7.94-4.68a4,4,0,0,1-.71-3.65,2.52,2.52,0,0,1,1.9-1.35,7.52,7.52,0,0,1,2.12,0c-5.23-1.68-8,1.45-7.21,4.09a24.86,24.86,0,0,0,8.13,5.67C186.35,112.1,189.51,112.37,189.8,114.65Z" style="opacity:0.2"></path><path d="M191.73,114.27c-.12.37-.25.75-.34,1.14a1.1,1.1,0,0,0,0,.54.52.52,0,0,0,.35.38.55.55,0,0,0,.51-.16,1.27,1.27,0,0,0,.27-.48,3.62,3.62,0,0,0-.09-2.63.31.31,0,0,0-.14-.16c-.14-.05-.24.15-.27.31A6.66,6.66,0,0,1,191.73,114.27Z" style="fill:#fff;opacity:0.2"></path></g><path d="M149.82,77.73a3.14,3.14,0,0,1,.3,1,6.9,6.9,0,0,1-.38,1.89,3.11,3.11,0,0,0,.75,2.62c.47.52,1.14.89,1.46,1.52.62,1.25-.4,2.86.21,4.11.43.88,1.52,1.27,2,2.13.27.48.29,1.06.53,1.56.61,1.3,2.28,1.6,3.57,2.22,1.69.81,2.54,1.93,3,4.8,0,0,4.56-3.35,5.1-3.65a13.94,13.94,0,0,1,5-1.92l-3.53-4.2a2.67,2.67,0,0,0-2.21-1.64c1.77-1.17,2.22-2,1.84-4.14L173.76,92l.36-.7c-.74-3.51-.77-5.92-1.21-9.52a14.64,14.64,0,0,0-1.79-5.41A4.42,4.42,0,0,0,168,73.88a29.59,29.59,0,0,0-6.22-1.49,17.07,17.07,0,0,0-3.54-.37l5.24,6.76s-2.1-.12-3.58-.27a4.24,4.24,0,0,1-1.81-.4l-4.78-5.72c-2.34.35-4.66,2.15-3.69,4.77A4.91,4.91,0,0,0,149.82,77.73Z" style="fill:#ffbda7"></path><path d="M171.85,77.9c-1.25-3.56-2.9-6.93-6.11-8.84s-4.8-3.5-5.82-4-2.73,1.79-.67,4.95,4,4,4.92,8S171.85,77.9,171.85,77.9Z" style="fill:#ffbda7"></path><path d="M165.46,81.91a1.06,1.06,0,0,0,0-1.15,4.11,4.11,0,0,0-2.34-1.92,5.87,5.87,0,0,1,1.5.43,3.42,3.42,0,0,1,1.47,1.09,1.88,1.88,0,0,1,.16,2,2.62,2.62,0,0,1-.35.5,2.53,2.53,0,0,1,.65.3,2.35,2.35,0,0,1,1.22,1.5,3.66,3.66,0,0,1-.88,3.14,2.92,2.92,0,0,1,.69.81,3.1,3.1,0,0,1,.41,1.86,2.22,2.22,0,0,1-1,1.55,3.41,3.41,0,0,1-1.63.55,4,4,0,0,0,1.38-.86,1.77,1.77,0,0,0,.59-1.28,2.45,2.45,0,0,0-.49-1.32,1.44,1.44,0,0,0-1-.66l-1.55-.11,1.33-.9a2.22,2.22,0,0,0,1-2.28,1.65,1.65,0,0,0-.66-1,2.3,2.3,0,0,0-1.26-.35l-1.88,0,1.55-1A3.78,3.78,0,0,0,165.46,81.91Z" style="fill:#f0997a"></path></g><path d="M214.58,191.83c-2.87,24.56-4.08,53.76-4.8,75.49s-.49,44.17,0,49.72c4.34,5.55,48.56,14.94,74.87,3.29-1.37-26.8-3.7-53-4.58-78.87-1-28.8-2.33-50.42-2.33-50.42s-8.95,4.79-31,5.17S214.58,191.83,214.58,191.83Z" style="fill:#37474f"></path><path d="M284.52,181.22c-13,15.39-59.37,13-69.66,5.27l-.28,5.34c10.65,8,57.87,10.54,71.28-5.37Z" style="fill:#455a64"></path><path d="M282.52,126.79c10.41,1.33,13.86,10.82,14.65,19.3,1.37,14.77,1.13,19.42,1.9,32.6,1,17,.37,17.86-6.41,21-10.05,4.72-22.68,5.88-36,9.09a19.29,19.29,0,0,0-7.83,4.2c-8.36,6.63-22.26,11.52-31.92,4.53A12.38,12.38,0,0,1,211.55,207a3.66,3.66,0,0,1,.49-1.78,4.55,4.55,0,0,1,3.14-1.53l6.54-1.25c6.11-1.17,16.08-2.79,21.76-5.44,4.2-1.95,4.71-2.14,9.48-4.34,7.31-3.37,24.6-11.22,24.6-11.22L275,160S272.47,135.78,282.52,126.79Z" style="fill:#ffbda7"></path><path d="M282.15,126c7.69,1,13.1,6,14.59,13.16s1.94,11.18,2.9,27.13c.82,13.59.88,17.06,1.12,24.88.21,6.75-4,8.52-6.87,9.73s-7,2.51-16,4.28c-9.88,2-12.32,2.4-12.32,2.4s1.23-3-.21-9.84-5.35-8.76-5.35-8.76l16.69-8.08-2.37-20.85S271.31,136.25,282.15,126Z" style="fill:#ebebeb"></path><path d="M258.9,189.05c1.63,1,7.26,8.15,5.3,19.17l10.53-2s1.87-3.84-.17-11.3-6.68-10.25-6.68-10.25Z" style="fill:#e0e0e0"></path><path d="M276.74,180.94c4.11-1.33,10.17-2.56,14.81-.83-2.47-2.5-7.59-3.79-15.18-2.35Z" style="fill:#e0e0e0"></path><g id="freepik--Pasta--inject-2"><g id="freepik--Plate--inject-2"><path d="M229.84,173.3c-19.3-11.14-50.61-11.14-69.92,0h0v-2c-10.09,5.83-14.9,13.56-14.43,21.19-.47,7.64,4.34,15.36,14.43,21.19,19.31,11.14,50.61,11.15,69.92,0S249.15,184.45,229.84,173.3Z" style="fill:#E95858"></path><path d="M229.84,173.3c-19.3-11.14-50.61-11.14-69.92,0h0v-2c-10.09,5.83-14.9,13.56-14.43,21.19-.47,7.64,4.34,15.36,14.43,21.19,19.31,11.14,50.61,11.15,69.92,0S249.15,184.45,229.84,173.3Z" style="fill:#fff;opacity:0.30000000000000004"></path><path d="M229.84,171.3c19.31,11.14,19.31,29.22,0,40.36s-50.61,11.15-69.92,0-19.3-29.22,0-40.37S210.54,160.15,229.84,171.3Z" style="fill:#fafafa"></path><path d="M194.89,162.93v.85h0c13.06,0,25.32,2.93,34.53,8.25s14.06,12.14,14.06,19.45-5,14.22-14.06,19.45-21.48,8.25-34.54,8.25-25.32-2.93-34.53-8.25-14.06-12.14-14.06-19.45,5-14.22,14.06-19.45,21.47-8.25,34.53-8.25v-.85m0,0c-12.65,0-25.3,2.79-35,8.36-19.3,11.15-19.3,29.22,0,40.37,9.66,5.57,22.31,8.36,35,8.36s25.31-2.79,35-8.36c19.31-11.14,19.31-29.22,0-40.37-9.65-5.57-22.3-8.36-35-8.36Z" style="fill:#e0e0e0"></path></g><g id="freepik--pasta--inject-2"><g id="freepik--pasta--inject-2"><path d="M230.39,186.33a14,14,0,0,0-9.16-5.56c-1.24-7.4-9.16-11-15.8-7.9-.23.1-2.34,1.27-2.18,1.53-4.33-7.21-14.92-8.91-19.8-1.43-6.59-1.47-13.45,1-15.14,8a.25.25,0,0,1-.32.2c-14.73-1-15.45,18.3-1.41,20,.8,8.17,11.44,9.89,18.06,8.7a2.2,2.2,0,0,1,1.86.33,15.92,15.92,0,0,0,13.79.3,5.24,5.24,0,0,1,2.22.14c7.31,1.49,15.4-2.14,18.67-8.94C229,201.66,235.63,193.38,230.39,186.33Z" style="fill:#E95858"></path><path d="M230.39,186.33a14,14,0,0,0-9.16-5.56c-1.24-7.4-9.16-11-15.8-7.9-.23.1-2.34,1.27-2.18,1.53-4.33-7.21-14.92-8.91-19.8-1.43-6.59-1.47-13.45,1-15.14,8a.25.25,0,0,1-.32.2c-14.73-1-15.45,18.3-1.41,20,.8,8.17,11.44,9.89,18.06,8.7a2.2,2.2,0,0,1,1.86.33,15.92,15.92,0,0,0,13.79.3,5.24,5.24,0,0,1,2.22.14c7.31,1.49,15.4-2.14,18.67-8.94C229,201.66,235.63,193.38,230.39,186.33Z" style="fill:#fff;opacity:0.7000000000000001"></path></g><path d="M212.7,181.18c.12.12.25,0,.2-.16a3.1,3.1,0,0,0-1.29-1.44,4.1,4.1,0,0,0-1.92-.64,4.23,4.23,0,0,0-1.95.35c-.53.23-1.47.71-1.47,1.38,0,.14.11.32.26.26a3.71,3.71,0,0,0,.8-.56,4.73,4.73,0,0,1,.71-.45,3.65,3.65,0,0,1,1.66-.35,3.69,3.69,0,0,1,1.59.42A6.19,6.19,0,0,1,212.7,181.18Zm-9.19,20.67a6.19,6.19,0,0,0,6.23-1.47,6.34,6.34,0,0,0,1.57-6.39,5.86,5.86,0,0,0-.85-1.74c-.26-.36-.87-1-1.34-.59-.16.13,0,.38.18.42.6.19,1,1.09,1.17,1.63a6.14,6.14,0,0,1,.37,1.8,5.85,5.85,0,0,1-1,3.63,6.24,6.24,0,0,1-6.36,2.3C203.23,201.4,203.36,201.79,203.51,201.85Zm8.17-15.23c.26-.5-.25-1.25-.51-1.67a6.21,6.21,0,0,0-2.71-2.34,4,4,0,0,0-1.88-.41c-.21,0,0,.37.09.4a9.93,9.93,0,0,1,1.6.51,6.25,6.25,0,0,1,1.24.8,6,6,0,0,1,1,1.09,14.27,14.27,0,0,0,.94,1.62C211.5,186.71,211.62,186.74,211.68,186.62Zm-8.05,18.51a4.87,4.87,0,0,0,2.21.29,9.43,9.43,0,0,0,2.36-.36,8.94,8.94,0,0,0,4-2.34,8.34,8.34,0,0,0,2-8.52,7.91,7.91,0,0,0-3.29-4.07c-.27-.17-.29.23-.11.36a7.68,7.68,0,0,1,2.95,7.71,8.21,8.21,0,0,1-5.27,6,8.85,8.85,0,0,1-2.38.49c-.82.05-1.61-.11-2.42-.1C203.3,204.63,203.43,205,203.63,205.13Zm-27.33-7.7a9.35,9.35,0,0,0,8.45,1.2c.35-.13,0-.63-.3-.56a10.6,10.6,0,0,1-3.88.4,10.78,10.78,0,0,1-4.19-1.37C176.18,197,176.18,197.33,176.3,197.43Zm4.27-.85a1.22,1.22,0,0,0,.27,0,.23.23,0,0,0,.14,0c.05,0,.05-.07.08-.12a.13.13,0,0,0,0-.18.82.82,0,0,0-.25-.12.55.55,0,0,0-.18,0h-.25l-.46-.06a6.5,6.5,0,0,1-.84-.22c-.18-.06-.13.25,0,.31a3.72,3.72,0,0,0,1,.39A4,4,0,0,0,180.57,196.58Zm-6.42,1.82c-.1-.11-.26-.09-.25.08.07,1.07,1.48,1.93,2.35,2.32a12.44,12.44,0,0,0,3.8,1,14.58,14.58,0,0,0,4.17-.15,14.09,14.09,0,0,0,2-.51c.33-.11.66-.23,1-.36a1.33,1.33,0,0,0,.69-.44.29.29,0,0,0-.23-.38,7.47,7.47,0,0,0-1.65.56,14.21,14.21,0,0,1-5.37.72,12.84,12.84,0,0,1-3.58-.7,7.25,7.25,0,0,1-1.41-.66A7.68,7.68,0,0,1,174.15,198.4Zm10.94-23.78c.38-.43.66-1,1-1.4a8.12,8.12,0,0,1,4.74-2.82,9.69,9.69,0,0,1,7.56,2.2,6.93,6.93,0,0,1,1.35,1.46c.37.56.57,1.19.89,1.77.11.18.54.33.54,0,0-1.27-1-2.55-1.91-3.36a10.71,10.71,0,0,0-3.39-2.06,8.72,8.72,0,0,0-8.45.75,6,6,0,0,0-2.49,3.33C185,174.55,185,174.71,185.09,174.62Zm-5.78,13.67c.35.09.35-.39.07-.49-2-.76-4.06-1.35-5.54-2.93a5.27,5.27,0,0,1-.83-5.81c1.94-4.36,8.15-4.9,11.69-2.28a6.81,6.81,0,0,1,2.48,7.4c-.05.16.23.48.34.27a6.29,6.29,0,0,0-1.13-7.09,9.21,9.21,0,0,0-6.88-2.85,8.15,8.15,0,0,0-6.6,3.14,6.12,6.12,0,0,0-.37,6.68C174,186.59,176.82,187.68,179.31,188.29Zm26.5,3.68a3.51,3.51,0,0,0,2-.7,4,4,0,0,0,1.26-4.16c-1-3.67-5.55-4.8-8.85-4.4a6,6,0,0,0-4.8,3.11c-.08.15.18.44.32.27a7.11,7.11,0,0,1,3.82-2.59,9.8,9.8,0,0,1,4.9.19,5.77,5.77,0,0,1,3.4,2.45,3.73,3.73,0,0,1,0,3.89,2.74,2.74,0,0,1-1.75,1.21,4.58,4.58,0,0,1-2.1-.31c-.13,0-.15.14-.11.22A2,2,0,0,0,205.81,192Zm-1-1.85a1.81,1.81,0,0,0,1-2,2.87,2.87,0,0,0-1.38-2.12,4.21,4.21,0,0,0-2.75-.59,6,6,0,0,0-1.61.41c-.31.14-.66.38-.56.76,0,.14.23.35.33.15a1.15,1.15,0,0,1,.83-.51A5.6,5.6,0,0,1,202,186a3.38,3.38,0,0,1,2.17.53,2.23,2.23,0,0,1,1,1.57,3.32,3.32,0,0,1-.49,1.78C204.56,190,204.67,190.17,204.8,190.12Zm-5-9.73a24.63,24.63,0,0,1,3.29-3.17,13.44,13.44,0,0,1,4.31-2.08c3.06-.84,6.49-.38,8.72,2a7.41,7.41,0,0,1,1.26,1.87,21.67,21.67,0,0,1,.69,2.11c0,.11.28.28.33.09.35-1.4-.55-3.07-1.41-4.12a8.24,8.24,0,0,0-3.57-2.5,11.54,11.54,0,0,0-9.93,1.54,9.74,9.74,0,0,0-3.81,4.06C199.68,180.29,199.74,180.48,199.83,180.39Zm-4.26,2.53a1.72,1.72,0,0,0,.77.5.09.09,0,0,0,.11,0c.24-.52-.84-1.14-1.18-1.36a8,8,0,0,0-3.9-1.36,4.93,4.93,0,0,0-2.16.16c-.21.09-.05.43.14.42.66,0,1.3-.1,2,0a8,8,0,0,1,3.5,1.19A6.55,6.55,0,0,1,195.57,182.92Zm-3.08.86a4.07,4.07,0,0,0-1.53-.47,3.84,3.84,0,0,0-.83,0c-.24,0-.68,0-.82.22s0,.24.11.28a2.11,2.11,0,0,0,.83,0,4.07,4.07,0,0,1,.78,0,4.17,4.17,0,0,1,1.29.43,4.93,4.93,0,0,1,1.13.85,5.64,5.64,0,0,0,1,1c.08.05.2.05.23-.06a.92.92,0,0,0-.3-.75,6.2,6.2,0,0,0-.55-.6A5.85,5.85,0,0,0,192.49,183.78Zm.12-11.32a7.12,7.12,0,0,1,3.41,1.07,12.9,12.9,0,0,1,2.86,2.61c.12.14.31.05.25-.14a6.5,6.5,0,0,0-2.94-3.14,7.82,7.82,0,0,0-3.83-1.06c-2.35,0-5.61,1.35-6.06,3.95,0,.06.1.26.18.17a11.9,11.9,0,0,1,2.72-2.58A6.48,6.48,0,0,1,192.61,172.46Zm-3.54,6c.48-.1.93-.25,1.42-.31a7,7,0,0,1,1.65,0,11.29,11.29,0,0,1,2.66.73,9.68,9.68,0,0,1,2.3,1.25,7.18,7.18,0,0,1,1,.87c.3.34.52.74.84,1,.14.14.46.1.41-.15a4.66,4.66,0,0,0-1.85-2.18,10.41,10.41,0,0,0-2.56-1.39,11,11,0,0,0-3-.76,4.64,4.64,0,0,0-3,.48C188.77,178.17,188.9,178.48,189.07,178.44Zm0-2.29a6.09,6.09,0,0,1,3.81-1.08,4.53,4.53,0,0,1,1.82.38,8.63,8.63,0,0,1,1.57,1.12c.11.09.23,0,.22-.12-.07-.71-.81-1.18-1.4-1.47a5.14,5.14,0,0,0-2.18-.52,8.64,8.64,0,0,0-2.48.35,2.43,2.43,0,0,0-1.6,1C188.77,176,188.93,176.25,189.07,176.15Zm16,22.66c-.23,0-.56-.11-.75,0s0,.54.27.6a2.58,2.58,0,0,0,1.74-.3,4.1,4.1,0,0,0,1.91-2.26,3.37,3.37,0,0,0-.66-3.25c-.17-.2-.5-.06-.33.19a3.37,3.37,0,0,1-2.18,5Zm10.44-17.63c.09.21.4.21.31-.06a5.91,5.91,0,0,0-2.43-3.25,6.81,6.81,0,0,0-3.7-1.17,7.3,7.3,0,0,0-3.73,1,7.64,7.64,0,0,0-1.66,1.33c-.4.44-1,1.12-.89,1.74,0,.07.09.2.18.16.46-.21.83-.86,1.17-1.24a7.7,7.7,0,0,1,1.16-1.05,6.64,6.64,0,0,1,3.14-1.25A6.41,6.41,0,0,1,215.54,181.18Zm-13.4,9.16c-2.12-2.58-5.85-3.51-9-3.08A9.22,9.22,0,0,0,188,189.5c-.11.11.06.42.21.33a11.36,11.36,0,0,1,8.6-1.8,8.92,8.92,0,0,1,4.07,2,6,6,0,0,1,2,4.27,6.49,6.49,0,0,1-.47,2.61,7.28,7.28,0,0,1-.66,1.23,6.77,6.77,0,0,0-.84,1.24c-.05.14.17.4.32.33a4.47,4.47,0,0,0,1.76-2.14,7.05,7.05,0,0,0,.68-2.46A6.68,6.68,0,0,0,202.14,190.34Zm-5,5.44c0,.08.11.28.22.2.54-.36.62-1.28.58-1.88a1.62,1.62,0,0,0-1-1.4,3.74,3.74,0,0,0-2.85,0,1.68,1.68,0,0,0-.8.55c0,.05,0,.18.06.16a5.24,5.24,0,0,0,.76-.26,6.87,6.87,0,0,1,.75-.19,3.78,3.78,0,0,1,1.64.06,1.27,1.27,0,0,1,.62.32,1.07,1.07,0,0,1,.22.71,3.53,3.53,0,0,1-.08.86A3.17,3.17,0,0,0,197.1,195.78Zm14.06-8c-.19,0-.06.32.05.35a8.61,8.61,0,0,1,4.58,3.62,11.35,11.35,0,0,1,1.89,6.23,8.38,8.38,0,0,1-2.23,5.68,14,14,0,0,1-8.57,4,21.6,21.6,0,0,1-3.68-.16c-.25,0-.13.36,0,.42a10.5,10.5,0,0,0,6.58-.08,15.09,15.09,0,0,0,5.87-3.25c3.65-3.34,3.49-8.83.94-12.79C215.43,189.92,213.46,188,211.16,187.75Zm-11.81,9.82c0,.08,0,.24.14.22,1-.25,1.47-1.44,1.59-2.35a4.3,4.3,0,0,0-.76-3.05c-1.44-2.07-4.09-2.7-6.47-2.37-1.24.17-3,.5-3.7,1.64-.06.1.06.36.18.25a7.08,7.08,0,0,1,4.13-1.42,6.44,6.44,0,0,1,4,.93,4.11,4.11,0,0,1,1.91,3,3.67,3.67,0,0,1-.24,1.73C200,196.62,199.58,197.05,199.35,197.57Zm-.8,1c-2.42-2.46-5.68-3.5-8.65-5.11-1.57-.85-3.72-2.13-4.1-4a3.38,3.38,0,0,1,2.1-3.7c.36-.14,0-.61-.3-.53a3.77,3.77,0,0,0-2.58,2.73,4,4,0,0,0,1.18,3.74c2.21,2.34,5.43,3.31,8.2,4.79a11.87,11.87,0,0,1,6,6.38,5.15,5.15,0,0,1-.38,4.74,7.14,7.14,0,0,1-3.93,2.37,11,11,0,0,1-5.08,0c-1.84-.41-4.31-1.46-3.73-3.81,0-.14-.17-.37-.28-.2-.8,1.27.11,2.8,1.2,3.55a9.5,9.5,0,0,0,4.53,1.38,11,11,0,0,0,4.79-.62,6.62,6.62,0,0,0,3.69-3,6.35,6.35,0,0,0-.11-4.84A10.83,10.83,0,0,0,198.55,198.57Zm31.5-8.48a10.05,10.05,0,0,0-4.29-5.18,14.6,14.6,0,0,0-6.35-2.28,13.5,13.5,0,0,0-3.86.07,9.43,9.43,0,0,0-1.88.48c-.59.25-1.17.55-1.75.82,0,0,0,.16,0,.13a13,13,0,0,1,3.15-.74,15.75,15.75,0,0,1,3.29-.15,14.54,14.54,0,0,1,6,1.69,10.44,10.44,0,0,1,4.59,4.54,6.32,6.32,0,0,1-.72,6.27c-1.39,2.09-3.61,3.95-6.23,3.92-.18,0-.08.29,0,.32,2.49.44,4.83-1.29,6.31-3.12A7.42,7.42,0,0,0,230.05,190.09Zm-7.88,7.64c3.06-.21,6-3.23,5.26-6.41s-4.58-4.81-7.57-5.43a13.67,13.67,0,0,0-5.87,0c-.13,0,0,.32.08.31a16.33,16.33,0,0,1,9.17,1.41,6.45,6.45,0,0,1,3.22,3,4.24,4.24,0,0,1-.46,4.18,5.55,5.55,0,0,1-1.76,1.58,13.73,13.73,0,0,1-2.24.93C221.76,197.37,222,197.74,222.17,197.73Zm0-5.07a1.88,1.88,0,0,0-1.14-2.15,3.08,3.08,0,0,0-.73-.22,2.33,2.33,0,0,0-.38,0,1.08,1.08,0,0,0-.4,0c-.22.09,0,.39.12.43s.56.06.83.13a1.79,1.79,0,0,1,.59.24,1.22,1.22,0,0,1,.58,1,1.15,1.15,0,0,1-.57.89c-.34.23-.74.32-1,.57-.13.11,0,.35.18.34a2.47,2.47,0,0,0,1.28-.42A1.74,1.74,0,0,0,222.2,192.66Zm2.86-.15a4.16,4.16,0,0,0-3.15-4.07,6.86,6.86,0,0,0-3.81-.1c-.21.07,0,.43.13.42a9.9,9.9,0,0,1,3.64.27,3.82,3.82,0,0,1,2.24,1.93,2.7,2.7,0,0,1-.33,2.81c-.84,1-2.13,1-3.26,1.43-.16.05,0,.35.11.36C222.55,195.8,224.9,194.59,225.06,192.51Zm-53.29-3.61c.21,0,.15-.3,0-.35a3.43,3.43,0,0,0-3,.18,1.43,1.43,0,0,0-.52,2.17c.66.85,1.86.91,2.85,1a6.58,6.58,0,0,0,3.2-.46c.74-.34,2-1.22,1.79-2.18,0-.11-.2-.32-.32-.21-.35.33-.53.79-.87,1.13a3.44,3.44,0,0,1-1.1.74,6.55,6.55,0,0,1-3.23.32,3.43,3.43,0,0,1-1.38-.31.86.86,0,0,1-.32-1.34A3.24,3.24,0,0,1,171.77,188.9Zm20.72,15.62a1.44,1.44,0,0,1,.46-.08c.09,0,.25,0,.3-.06s-.05-.32-.18-.37a1.72,1.72,0,0,0-1.93.71,1.23,1.23,0,0,0-.19,1.07,1.3,1.3,0,0,0,.8.7,2.89,2.89,0,0,0,.58.14l.36.06h.58c.09,0,.06-.19,0-.22a5.55,5.55,0,0,0-.56-.24l.1.06a2.8,2.8,0,0,0-.76-.3l-.11-.05-.06,0-.12-.06h0l-.07-.06s0-.08,0,0a.5.5,0,0,1,0-.21.88.88,0,0,1,.16-.47A1.45,1.45,0,0,1,192.49,204.52Zm-2.29,3.71a9.15,9.15,0,0,0,5,.46,4.12,4.12,0,0,0,3.31-2.35,4.84,4.84,0,0,0-.39-4.11,10.2,10.2,0,0,0-3.51-3.37,45.68,45.68,0,0,0-5.73-2.86c-1.95-.9-3.89-2.14-4.79-4.17-.05-.11-.15,0-.12.1,1,2.76,3.81,4,6.31,5.16a27.21,27.21,0,0,1,4.41,2.39,8.53,8.53,0,0,1,2.87,3,4.27,4.27,0,0,1,.17,3.69,3.72,3.72,0,0,1-3.18,1.91,7.43,7.43,0,0,1-4.37-.62,2.5,2.5,0,0,1-.55-3.79,3.6,3.6,0,0,1,4-1.3,3.38,3.38,0,0,1,1.83,1.39c.45.73.45,2.1-.66,2.22-.29,0-.1.45.13.45a1.58,1.58,0,0,0,1.53-1.27,2.58,2.58,0,0,0-.75-2.16,4.43,4.43,0,0,0-4.09-1.37,4.25,4.25,0,0,0-3.24,2.86A3.11,3.11,0,0,0,190.2,208.23ZM179.87,181a1.67,1.67,0,0,1,1.72.19c.16.11.2-.16.12-.25a1.88,1.88,0,0,0-1.58-.65,1.75,1.75,0,0,0-1.39.82,1.68,1.68,0,0,0-.2,1.38,2.3,2.3,0,0,0,1.09,1.23,4.47,4.47,0,0,0,2.33.69c.09,0,.11-.12.1-.18a.25.25,0,0,0-.17-.19,9.66,9.66,0,0,1-1.87-.8,1.39,1.39,0,0,1-.81-1.09A1.3,1.3,0,0,1,179.87,181Zm3.48-2.27a6.13,6.13,0,0,0-4.91-1.09,4,4,0,0,0-3.36,2.93,4.15,4.15,0,0,0,1.41,4,6.17,6.17,0,0,0,2.47,1.29,5.13,5.13,0,0,0,2.85.12c.16-.05,0-.32-.09-.35-1.43-.3-2.87-.27-4.15-1.11a3.75,3.75,0,0,1-1.78-3.21,3.25,3.25,0,0,1,2.09-2.82,5.85,5.85,0,0,1,4.46.23,4.15,4.15,0,0,1,1.64,1.55,5.24,5.24,0,0,1,.55,2.23c0,.09.16.25.23.12C185.39,181.37,184.34,179.56,183.35,178.75Zm-16.6,7.54c-1.7.66-3.12,2.09-2.84,4,.63,4.42,6.38,4.64,9.71,3.67a8.74,8.74,0,0,0,3.09-1.59,5.28,5.28,0,0,0,2-2.78c.05-.21-.34-.6-.5-.33a10.07,10.07,0,0,1-1.53,2.18,7.43,7.43,0,0,1-2.17,1.47,10.73,10.73,0,0,1-5.54.82,4.65,4.65,0,0,1-4-2.56,3.1,3.1,0,0,1-.12-2.26,3.67,3.67,0,0,1,1.73-1.79,6,6,0,0,1,5.41,0c.2.09.21-.22.08-.31A5.69,5.69,0,0,0,166.75,186.29Zm25.6,14.65c.14.11.17-.12.12-.2-.59-1.05-2-1.44-3.05-1.79a24.82,24.82,0,0,1-4.53-1.94,6.43,6.43,0,0,1-2.94-3.15,6.86,6.86,0,0,1-.28-4.2,8.91,8.91,0,0,1,2.48-4.22c.11-.1,0-.39-.18-.28a7.82,7.82,0,0,0-2.78,7.89,6.62,6.62,0,0,0,2.16,3.45,15.8,15.8,0,0,0,4.2,2.27c.87.35,1.76.63,2.65.94A7.07,7.07,0,0,1,192.35,200.94Zm-7,5.65a10.53,10.53,0,0,1-2.62.78,18.57,18.57,0,0,1-2.58.12,17.66,17.66,0,0,1-5.16-.76c-2.95-1-5.78-3.44-6.09-6.7,0-.19-.3-.33-.29-.08a6.4,6.4,0,0,0,1,3.48,8.93,8.93,0,0,0,2.79,2.75,15.85,15.85,0,0,0,8.55,1.94,9.44,9.44,0,0,0,4.82-1C186,206.91,185.55,206.48,185.3,206.59Zm-12.46-9.24a12.8,12.8,0,0,0,4-2.17,9.12,9.12,0,0,0,2.86-3.46c0-.1-.08-.39-.21-.26a38.08,38.08,0,0,1-2.66,2.73,13.29,13.29,0,0,1-3.15,2,11,11,0,0,1-7.48.61,7.72,7.72,0,0,1-5.5-4.76,6.58,6.58,0,0,1,1.51-6.49,6.76,6.76,0,0,1,3.27-1.79,8.13,8.13,0,0,1,3.86.12c.33.08.19-.39,0-.47a7.25,7.25,0,0,0-7.1,1.05,7.07,7.07,0,0,0-2.58,6.67,7.86,7.86,0,0,0,4.92,5.82A11.73,11.73,0,0,0,172.84,197.35Zm13.42,6.05c-.68.26-1.32.6-2,.8a12.44,12.44,0,0,1-2.11.38,16,16,0,0,1-4.47-.28,10.73,10.73,0,0,1-4.21-1.72,8.15,8.15,0,0,1-2.55-3.23c-.08-.16-.28-.15-.25.05a6.06,6.06,0,0,0,2.28,3.32,10.7,10.7,0,0,0,4.33,2,16.16,16.16,0,0,0,4.9.41,12.41,12.41,0,0,0,2.26-.38,6.48,6.48,0,0,0,2.21-.9C186.9,203.67,186.52,203.31,186.26,203.4Z" style="fill:#E95858;opacity:0.2"></path><path d="M167.76,172.32a18.36,18.36,0,0,1,2.7-8.16,15.3,15.3,0,0,1,4.19,10.68,3.49,3.49,0,0,1-.13,1.07,4.25,4.25,0,0,1-.71,1.24,6.51,6.51,0,0,0-1.73,4.07,5.82,5.82,0,0,1-2.55-2.17A10.62,10.62,0,0,1,167.76,172.32Z" style="fill:#455a64"></path><path d="M172.11,172.57c-.06-.93-.18-1.86-.33-2.78s-.51-2-.77-3c0-.12-.16-.06-.14.05.17.91.21,1.86.33,2.78s.21,1.85.28,2.78.09,1.78.1,2.66c0,.47,0,.93,0,1.39s.11,1.11.13,1.68c0,.07.08.1.09,0,.09-.45.24-.89.3-1.34s.08-1,.09-1.47C172.22,174.4,172.18,173.48,172.11,172.57Z" style="fill:#37474f"></path><path d="M166.22,178a15.93,15.93,0,0,0-6.23,1.28,4.8,4.8,0,0,1,1.44,1.5,8.57,8.57,0,0,0,6.75,3.67,6.73,6.73,0,0,0,4.18-1.12,7.7,7.7,0,0,1-.24-2.73,2.47,2.47,0,0,0-1.15-1.28A9.57,9.57,0,0,0,166.22,178Z" style="fill:#37474f"></path><path d="M171.4,181.92a6.64,6.64,0,0,0-3.65-2.24,13.7,13.7,0,0,0-2.19-.44,5.87,5.87,0,0,0-2.21,0c-.06,0,0,.16,0,.17.71.15,1.45.12,2.16.22a11.29,11.29,0,0,1,2,.42,10.31,10.31,0,0,1,1.92.78c.67.35,1.26.83,1.92,1.19C171.42,182.09,171.42,181.94,171.4,181.92Z" style="fill:#263238"></path><g id="freepik--Mushroom--inject-2"><path d="M217.29,184.78c.68.08,2.14,1.51,2.53,1.93s1.22-.37,1.72-1.21.83-1.95.27-2.09-2.49-.77-2.89-1.34Z" style="fill:#e0e0e0"></path><path d="M217.29,184.78c.68.08,2.14,1.51,2.53,1.93s1.22-.37,1.72-1.21.83-1.95.27-2.09-2.49-.77-2.89-1.34Z" style="opacity:0.05"></path><path d="M219.52,176.51l0,0,.27.18.08.06.1.07c1,.84.75,1.75.07,2.72.35.83-.08,2.59-1.13,4.35s-2.4,3-3.29,3.08c-.56,1.19-1.26,1.85-2.74,1.06l0,0-.14-.08a3.64,3.64,0,0,1-1-.83l-.12-.15a3.64,3.64,0,0,1-.3-.46l-.1-.19a5,5,0,0,1-.37-1c0-.06,0-.11,0-.16,0-.22-.08-.43-.1-.66h0a8,8,0,0,1,1.16-4.75c1.44-2.43,3.79-3.84,5.86-3.73h.2l.21,0a3.56,3.56,0,0,1,.47.1l.15.05.11,0,.1,0,.1.05.19.08Z" style="fill:#f5f5f5"></path><path d="M219.52,176.51l0,0,.27.18.08.06.1.07c1,.84.75,1.75.07,2.72.35.83-.08,2.59-1.13,4.35s-2.4,3-3.29,3.08c-.56,1.19-1.26,1.85-2.74,1.06l0,0-.14-.08a3.64,3.64,0,0,1-1-.83l-.12-.15a3.64,3.64,0,0,1-.3-.46l-.1-.19a5,5,0,0,1-.37-1c0-.06,0-.11,0-.16,0-.22-.08-.43-.1-.66a2,2,0,0,0,2.08,1.41c.78-.08,1.25-.77,1.61-1.38s.5-1.12.78-1.66a8.2,8.2,0,0,1,1.91-1.9c1.58-1.47,1.8-4.06-.59-4.73l-.25-.05a4.44,4.44,0,0,1,1.48-.17h.2l.21,0a3.56,3.56,0,0,1,.47.1l.15.05.11,0,.1,0,.1.05.19.08Z" style="opacity:0.05"></path><path d="M217,184.15a4.78,4.78,0,0,1,1.13,1,4,4,0,0,0-.81-.31c-1-.19-1.26.31-1.61,1.15a.66.66,0,0,1-.45.44c-.51.11-1.15-.69-1-1.34s.89-1.66,1.61-1.54A3.16,3.16,0,0,1,217,184.15Z" style="fill:#e0e0e0"></path><path d="M217,184.15a4.78,4.78,0,0,1,1.13,1,4,4,0,0,0-.81-.31c-1-.19-1.26.31-1.61,1.15a.66.66,0,0,1-.45.44c-.51.11-1.15-.69-1-1.34s.89-1.66,1.61-1.54A3.16,3.16,0,0,1,217,184.15Z" style="opacity:0.1"></path><path d="M217.13,181.41a3.36,3.36,0,0,0,1,.72,4.85,4.85,0,0,0,1.46.45,2.43,2.43,0,0,1-.67-.5c-.65-.83-.31-1.26.27-2,.75-.91-.8-1.44-1.47-.86C217.25,179.69,216.7,180.83,217.13,181.41Z" style="fill:#e0e0e0"></path><path d="M217.13,181.41a3.36,3.36,0,0,0,1,.72,4.85,4.85,0,0,0,1.46.45,2.43,2.43,0,0,1-.67-.5c-.65-.83-.31-1.26.27-2,.75-.91-.8-1.44-1.47-.86C217.25,179.69,216.7,180.83,217.13,181.41Z" style="opacity:0.1"></path><path d="M217,184.15a2.6,2.6,0,0,0-1.15-.19,1.61,1.61,0,0,0-1,1.59c.15.47.64.75.37.9h0c-.51.11-1.15-.69-1-1.34s.89-1.66,1.61-1.54A3.16,3.16,0,0,1,217,184.15Z" style="opacity:0.1"></path><path d="M218.16,182.13a2.65,2.65,0,0,1-.69-.93c-.19-.51.48-1.49,1-1.59s.95.22,1-.08h0c-.14-.51-1.15-.69-1.65-.25s-1.05,1.56-.62,2.14A3.24,3.24,0,0,0,218.16,182.13Z" style="opacity:0.1"></path></g><g id="freepik--Tomatoes--inject-2"><path d="M185.17,183.85c0-1.2-.8-2.41-2.39-3.32a12.71,12.71,0,0,0-11.52,0,4,4,0,0,0-2.38,3.32v1c0,1.21.79,2.41,2.38,3.33a12.77,12.77,0,0,0,11.52,0c1.59-.92,2.39-2.12,2.39-3.33Zm-3,2.23a11.54,11.54,0,0,1-10.37,0,3.56,3.56,0,0,1-1.83-2,3.6,3.6,0,0,1,1.83-2,11.63,11.63,0,0,1,10.37,0,3.64,3.64,0,0,1,1.83,2A3.59,3.59,0,0,1,182.21,186.08Z" style="fill:#E95858"></path><path d="M182.78,180.53a11.85,11.85,0,0,0-6-1.38v1.7h.2a10.59,10.59,0,0,1,5.19,1.22,3.64,3.64,0,0,1,1.83,2,3.59,3.59,0,0,1-1.83,2,10.48,10.48,0,0,1-5.19,1.23h-.2v2.26a11.85,11.85,0,0,0,6-1.37c1.59-.92,2.39-2.12,2.39-3.33v-1C185.17,182.65,184.37,181.44,182.78,180.53Z" style="opacity:0.1"></path><path d="M182.21,181.08a11.54,11.54,0,0,0-10.37,0,3.13,3.13,0,0,0-1.9,2.5,1,1,0,0,0,0,.17h0a.41.41,0,0,0,0,.11s0,.06,0,.09a.53.53,0,0,0,0,.12,3.56,3.56,0,0,0,1.83,2,11.54,11.54,0,0,0,10.37,0,3.59,3.59,0,0,0,1.83-2l0-.15s0,0,0,0a.53.53,0,0,0,0-.13h0c0-.06,0-.11,0-.17A3.15,3.15,0,0,0,182.21,181.08Z" style="fill:#E95858"></path><path d="M182.21,181.08a11.54,11.54,0,0,0-10.37,0,3.13,3.13,0,0,0-1.9,2.5,1,1,0,0,0,0,.17h0a.41.41,0,0,0,0,.11s0,.06,0,.09a.53.53,0,0,0,0,.12,3.56,3.56,0,0,0,1.83,2,11.54,11.54,0,0,0,10.37,0,3.59,3.59,0,0,0,1.83-2l0-.15s0,0,0,0a.53.53,0,0,0,0-.13h0c0-.06,0-.11,0-.17A3.15,3.15,0,0,0,182.21,181.08Z" style="opacity:0.1"></path><path d="M182.73,180.56a12.6,12.6,0,0,0-11.41,0c-1.58.91-2.37,2.1-2.37,3.29s.79,2.38,2.37,3.29a12.6,12.6,0,0,0,11.41,0c1.57-.91,2.36-2.1,2.36-3.29S184.3,181.47,182.73,180.56Zm-10.85.54a10.53,10.53,0,0,1,5.14-1.21h0a.56.56,0,0,1,.54.69l-.52,2.27c0,.09-.23.12-.33.05l-.79-.57a.33.33,0,0,1-.13-.19l0-.16c0-.15-.21-.28-.49-.32a1,1,0,0,0-.62.11l-1.15.66a.29.29,0,0,0,0,.54h0a.85.85,0,0,0,.38.11l.27,0a.79.79,0,0,1,.32.08l1,.45c.13.06.07.18-.09.19l-4.74.37a.58.58,0,0,1-.62-.54v-.07A3.13,3.13,0,0,1,171.88,181.1Zm5.14,6.18a10.42,10.42,0,0,1-5.14-1.22l-.23-.14a.56.56,0,0,1,.18-1l3.63-.87c.15,0,.31.06.25.14l-.47.68a.42.42,0,0,1-.22.16l-.21.1c-.21.09-.32.25-.24.41a.65.65,0,0,0,.47.25l1.63.25c.35.06.69-.07.76-.27a.21.21,0,0,0,0-.24l-.11-.15a.24.24,0,0,1,0-.2l.19-.72c0-.09.23-.12.33-.05l2.13,1.59a.57.57,0,0,1-.22,1A11.89,11.89,0,0,1,177,187.28Zm5.4-1.38a.52.52,0,0,1-.54,0L178,184.23c-.13,0-.07-.17.09-.19l1.25-.1a1,1,0,0,1,.35,0l.25.06a1,1,0,0,0,.7-.07.29.29,0,0,0,.18-.38l-.42-.89a.81.81,0,0,0-.8-.29h0a.7.7,0,0,0-.35.14l-.17.12a.73.73,0,0,1-.28.13l-1.17.27c-.16,0-.31-.06-.24-.15l1.76-2.48a.59.59,0,0,1,.6-.22,8.85,8.85,0,0,1,2.38.9,3.13,3.13,0,0,1,1.88,2.48A2.94,2.94,0,0,1,182.42,185.9Z" style="fill:#E95858"></path><g style="opacity:0.30000000000000004"><path d="M182.73,180.56a12.6,12.6,0,0,0-11.41,0c-1.58.91-2.37,2.1-2.37,3.29s.79,2.38,2.37,3.29a12.6,12.6,0,0,0,11.41,0c1.57-.91,2.36-2.1,2.36-3.29S184.3,181.47,182.73,180.56Zm-10.85.54a10.53,10.53,0,0,1,5.14-1.21h0a.56.56,0,0,1,.54.69l-.52,2.27c0,.09-.23.12-.33.05l-.79-.57a.33.33,0,0,1-.13-.19l0-.16c0-.15-.21-.28-.49-.32a1,1,0,0,0-.62.11l-1.15.66a.29.29,0,0,0,0,.54h0a.85.85,0,0,0,.38.11l.27,0a.79.79,0,0,1,.32.08l1,.45c.13.06.07.18-.09.19l-4.74.37a.58.58,0,0,1-.62-.54v-.07A3.13,3.13,0,0,1,171.88,181.1Zm5.14,6.18a10.42,10.42,0,0,1-5.14-1.22l-.23-.14a.56.56,0,0,1,.18-1l3.63-.87c.15,0,.31.06.25.14l-.47.68a.42.42,0,0,1-.22.16l-.21.1c-.21.09-.32.25-.24.41a.65.65,0,0,0,.47.25l1.63.25c.35.06.69-.07.76-.27a.21.21,0,0,0,0-.24l-.11-.15a.24.24,0,0,1,0-.2l.19-.72c0-.09.23-.12.33-.05l2.13,1.59a.57.57,0,0,1-.22,1A11.89,11.89,0,0,1,177,187.28Zm5.4-1.38a.54.54,0,0,1-.54,0L178,184.23c-.13,0-.07-.17.09-.19l1.25-.1a1,1,0,0,1,.35,0l.25.06a1,1,0,0,0,.7-.07.29.29,0,0,0,.18-.38l-.42-.89a.81.81,0,0,0-.8-.29h0a.7.7,0,0,0-.35.14l-.17.12a.73.73,0,0,1-.28.13l-1.17.27c-.16,0-.31-.06-.24-.15l1.76-2.48a.59.59,0,0,1,.6-.22,8.85,8.85,0,0,1,2.38.9,3.13,3.13,0,0,1,1.88,2.48A2.94,2.94,0,0,1,182.42,185.9Z" style="fill:#fff"></path></g><path d="M177,179.31a11.47,11.47,0,0,1,5.68,1.36,3.35,3.35,0,0,1,0,6.36,12.54,12.54,0,0,1-11.36,0,3.35,3.35,0,0,1,0-6.36,11.5,11.5,0,0,1,5.68-1.36m0-.16a11.77,11.77,0,0,0-5.76,1.38,4,4,0,0,0-2.38,3.32c0,1.2.79,2.41,2.38,3.33a12.79,12.79,0,0,0,11.52,0c1.59-.92,2.39-2.13,2.39-3.33s-.8-2.41-2.39-3.32a11.74,11.74,0,0,0-5.76-1.38Z" style="fill:#E95858"></path><g id="freepik--Seeds--inject-2"><path d="M171.78,182.83c.26,0,.44.16.4.29s-.29.21-.55.18-.43-.16-.39-.29S171.52,182.8,171.78,182.83Z" style="fill:#E95858"></path><path d="M172.73,181.56c.22.09.3.25.17.36a.64.64,0,0,1-.61,0c-.22-.09-.29-.25-.17-.35A.64.64,0,0,1,172.73,181.56Z" style="fill:#E95858"></path><path d="M174.84,180.77c.1.14,0,.3-.19.35a.53.53,0,0,1-.54-.18c-.09-.15,0-.31.19-.35A.52.52,0,0,1,174.84,180.77Z" style="fill:#E95858"></path><path d="M176.88,181.1c0,.16-.11.3-.32.32a.43.43,0,0,1-.46-.26c0-.15.12-.3.33-.31A.4.4,0,0,1,176.88,181.1Z" style="fill:#E95858"></path><path d="M178.12,186.26c-.09-.15,0-.31.22-.35a.5.5,0,0,1,.52.19c.09.15,0,.31-.21.35A.52.52,0,0,1,178.12,186.26Z" style="fill:#E95858"></path><path d="M176,186.58a.4.4,0,0,1,.43-.27c.22,0,.38.15.36.3a.4.4,0,0,1-.43.27C176.17,186.87,176,186.73,176,186.58Z" style="fill:#E95858"></path><path d="M173.88,186a.64.64,0,0,1,.61-.08c.17.08.17.25,0,.37a.64.64,0,0,1-.61.08C173.72,186.25,173.72,186.08,173.88,186Z" style="fill:#E95858"></path><path d="M172.8,185.06a.67.67,0,0,1,.62,0c.13.1.07.26-.14.36a.67.67,0,0,1-.62,0C172.53,185.31,172.59,185.15,172.8,185.06Z" style="fill:#E95858"></path><path d="M180.1,181.67a.65.65,0,0,1-.6.07c-.17-.09-.16-.25,0-.37a.67.67,0,0,1,.61-.07C180.28,181.39,180.28,181.55,180.1,181.67Z" style="fill:#E95858"></path><path d="M181.86,182.22a.61.61,0,0,1-.6-.09c-.09-.11,0-.26.26-.33a.61.61,0,0,1,.6.09C182.21,182,182.1,182.16,181.86,182.22Z" style="fill:#E95858"></path><path d="M182.38,183.82c-.26,0-.45-.15-.42-.27s.27-.22.53-.19.45.14.42.27S182.64,183.85,182.38,183.82Z" style="fill:#E95858"></path><path d="M180.82,184.79c-.24-.06-.37-.2-.29-.32a.62.62,0,0,1,.59-.11c.25.06.37.21.29.33S181.06,184.85,180.82,184.79Z" style="fill:#E95858"></path><path d="M174.49,185.88a.64.64,0,0,0-.61.08c-.16.12-.16.29,0,.37a.64.64,0,0,0,.61-.08C174.66,186.13,174.66,186,174.49,185.88Zm-.19-5.29c-.2,0-.28.2-.19.35a.53.53,0,0,0,.54.18c.2-.05.29-.21.19-.35A.52.52,0,0,0,174.3,180.59Zm-2.52,2.24c-.26,0-.5,0-.54.18s.14.26.39.29.51-.05.55-.18S172,182.86,171.78,182.83Zm10.71.53c-.26,0-.49.06-.53.19s.16.25.42.27.49-.06.53-.19S182.75,183.38,182.49,183.36Zm-2.37-2.06a.67.67,0,0,0-.61.07c-.17.12-.18.28,0,.37a.65.65,0,0,0,.6-.07C180.28,181.55,180.28,181.39,180.12,181.3Zm-1.78,4.61c-.21,0-.31.2-.22.35a.52.52,0,0,0,.53.19c.2,0,.3-.2.21-.35A.5.5,0,0,0,178.34,185.91Z" style="fill:#fff;opacity:0.2"></path><path d="M172.8,185.06c-.21.09-.27.25-.14.36a.67.67,0,0,0,.62,0c.21-.1.27-.26.14-.36A.67.67,0,0,0,172.8,185.06Zm3.66,1.25a.4.4,0,0,0-.43.27c0,.15.14.29.36.3a.4.4,0,0,0,.43-.27C176.84,186.46,176.68,186.32,176.46,186.31Zm-3.56-4.39c.13-.11,0-.27-.17-.36a.64.64,0,0,0-.61,0c-.12.1-.05.26.17.35A.64.64,0,0,0,172.9,181.92Zm3.53-1.07c-.21,0-.36.16-.33.31a.43.43,0,0,0,.46.26c.21,0,.36-.16.32-.32A.4.4,0,0,0,176.43,180.85Zm4.69,3.51a.62.62,0,0,0-.59.11c-.08.12.05.26.29.32s.51,0,.59-.1S181.37,184.42,181.12,184.36Zm1-2.47a.61.61,0,0,0-.6-.09c-.24.07-.35.22-.26.33a.61.61,0,0,0,.6.09C182.1,182.16,182.21,182,182.12,181.89Z" style="fill:#fff;opacity:0.5"></path></g><path d="M188.35,195.37a4.87,4.87,0,0,0,2.64,3.47c3.18,1.84,7.95,1.61,10.64-.5a4.05,4.05,0,0,0,1.76-3.69l-.13-1.1a4.83,4.83,0,0,0-2.64-3.47c-3.19-1.84-8-1.61-10.64.5a4.06,4.06,0,0,0-1.77,3.69C188.24,194.45,188.33,195.19,188.35,195.37Zm.94-.91a3.35,3.35,0,0,1,1.42-2.23,8.06,8.06,0,0,1,4.63-1.55,9.12,9.12,0,0,1,4.95,1.09,4.21,4.21,0,0,1,2,2.08,3.41,3.41,0,0,1-1.43,2.23,8,8,0,0,1-4.63,1.55,9.12,9.12,0,0,1-4.95-1.09A4.18,4.18,0,0,1,189.29,194.46Z" style="fill:#E95858"></path><path d="M200.62,190.08a10.2,10.2,0,0,0-5.55-1.23l.22,1.83h.05a9.12,9.12,0,0,1,4.95,1.09,4.21,4.21,0,0,1,2,2.08,3.41,3.41,0,0,1-1.43,2.23,8,8,0,0,1-4.63,1.55h0l.3,2.43a9.13,9.13,0,0,0,5.18-1.73,4.05,4.05,0,0,0,1.76-3.69l-.13-1.1A4.83,4.83,0,0,0,200.62,190.08Z" style="opacity:0.1"></path><path d="M190.58,191.15a8.21,8.21,0,0,1,4.63-1.55,9.13,9.13,0,0,1,4.95,1.1,3.75,3.75,0,0,1,2.08,2.61,1,1,0,0,1,0,.17v.23a.66.66,0,0,0,0,.14,3.41,3.41,0,0,1-1.43,2.23,8.12,8.12,0,0,1-4.63,1.56,9.22,9.22,0,0,1-4.95-1.1,4.17,4.17,0,0,1-2-2.07l-.06-.17a0,0,0,0,0,0,0l0-.15h0a.57.57,0,0,1,0-.18A3.12,3.12,0,0,1,190.58,191.15Z" style="fill:#E95858"></path><path d="M190.58,191.15a8.21,8.21,0,0,1,4.63-1.55,9.13,9.13,0,0,1,4.95,1.1,3.75,3.75,0,0,1,2.08,2.61,1,1,0,0,1,0,.17v.23a.66.66,0,0,0,0,.14,3.41,3.41,0,0,1-1.43,2.23,8.12,8.12,0,0,1-4.63,1.56,9.22,9.22,0,0,1-4.95-1.1,4.17,4.17,0,0,1-2-2.07l-.06-.17a0,0,0,0,0,0,0l0-.15h0a.57.57,0,0,1,0-.18A3.12,3.12,0,0,1,190.58,191.15Z" style="opacity:0.1"></path><path d="M188.28,194.26a4.84,4.84,0,0,0,2.62,3.45c3.15,1.82,7.87,1.59,10.54-.51a4,4,0,0,0,1.75-3.65,4.82,4.82,0,0,0-2.62-3.44c-3.15-1.82-7.87-1.59-10.54.5A4.06,4.06,0,0,0,188.28,194.26Zm13.9-.95a.2.2,0,0,1,0,.07.51.51,0,0,1-.49.61l-4.43-.19c-.16,0-.22-.13-.11-.2l.85-.53a.83.83,0,0,1,.29-.1l.25,0a.73.73,0,0,0,.34-.13h0a.35.35,0,0,0-.09-.58l-1.15-.66a.77.77,0,0,0-.58-.09c-.26.05-.41.2-.42.36V192a.3.3,0,0,1-.1.21l-.65.65c-.08.09-.28.06-.31,0l-.79-2.41a.56.56,0,0,1,.42-.78h0a9.07,9.07,0,0,1,4.91,1.09A3.72,3.72,0,0,1,202.18,193.31Zm-8.48,4.1a.68.68,0,0,1-.34-1.08l1.76-1.81c.09-.08.28-.06.32,0l.26.77a.28.28,0,0,1,0,.22l-.08.16a.3.3,0,0,0,0,.26.64.64,0,0,0,.73.26l1.48-.34a.52.52,0,0,0,.4-.3c.05-.17-.07-.34-.27-.43l-.22-.09a.52.52,0,0,1-.22-.16l-.52-.71c-.06-.09.07-.19.21-.16l3.47.77a.67.67,0,0,1,.3,1.09l-.2.16a8.07,8.07,0,0,1-4.58,1.54A10.19,10.19,0,0,1,193.7,197.41Zm-4.48-3.48a3.09,3.09,0,0,1,1.41-2.75,6.78,6.78,0,0,1,2.07-1.08.51.51,0,0,1,.58.21l2,2.6c.07.09-.06.19-.21.16l-1.12-.24a.61.61,0,0,1-.27-.12l-.17-.12a.74.74,0,0,0-.34-.14h0a.66.66,0,0,0-.71.35l-.26,1a.35.35,0,0,0,.21.4.84.84,0,0,0,.66,0l.22-.08a.86.86,0,0,1,.32-.05l1.17.06c.15,0,.21.14.1.21l-3.32,2a.47.47,0,0,1-.51,0A3.55,3.55,0,0,1,189.22,193.93Z" style="fill:#E95858"></path><g style="opacity:0.30000000000000004"><path d="M188.28,194.26a4.84,4.84,0,0,0,2.62,3.45c3.15,1.82,7.87,1.59,10.54-.51a4,4,0,0,0,1.75-3.65,4.82,4.82,0,0,0-2.62-3.44c-3.15-1.82-7.87-1.59-10.54.5A4.06,4.06,0,0,0,188.28,194.26Zm13.9-.95a.2.2,0,0,1,0,.07.51.51,0,0,1-.49.61l-4.43-.19c-.16,0-.22-.13-.11-.2l.85-.53a.83.83,0,0,1,.29-.1l.25,0a.73.73,0,0,0,.34-.13h0a.35.35,0,0,0-.09-.58l-1.15-.66a.77.77,0,0,0-.58-.09c-.26.05-.41.2-.42.36V192a.3.3,0,0,1-.1.21l-.65.65c-.08.09-.28.06-.31,0l-.79-2.41a.56.56,0,0,1,.42-.78h0a9.07,9.07,0,0,1,4.91,1.09A3.72,3.72,0,0,1,202.18,193.31Zm-8.48,4.1a.68.68,0,0,1-.34-1.08l1.76-1.81c.09-.08.28-.06.32,0l.26.77a.28.28,0,0,1,0,.22l-.08.16a.3.3,0,0,0,0,.26.64.64,0,0,0,.73.26l1.48-.34a.52.52,0,0,0,.4-.3c.05-.17-.07-.34-.27-.43l-.22-.09a.52.52,0,0,1-.22-.16l-.52-.71c-.06-.09.07-.19.21-.16l3.47.77a.67.67,0,0,1,.3,1.09l-.2.16a8.07,8.07,0,0,1-4.58,1.54A10.19,10.19,0,0,1,193.7,197.41Zm-4.48-3.48a3.09,3.09,0,0,1,1.41-2.75,6.78,6.78,0,0,1,2.07-1.08.51.51,0,0,1,.58.21l2,2.6c.07.09-.06.19-.21.16l-1.12-.24a.61.61,0,0,1-.27-.12l-.17-.12a.74.74,0,0,0-.34-.14h0a.66.66,0,0,0-.71.35l-.26,1a.35.35,0,0,0,.21.4.84.84,0,0,0,.66,0l.22-.08a.86.86,0,0,1,.32-.05l1.17.06c.15,0,.21.14.1.21l-3.32,2a.45.45,0,0,1-.51,0A3.55,3.55,0,0,1,189.22,193.93Z" style="fill:#fff"></path></g><path d="M195.14,189a10.08,10.08,0,0,1,5.42,1.21,4.7,4.7,0,0,1,2.55,3.33,3.9,3.9,0,0,1-1.71,3.53,8.93,8.93,0,0,1-5.06,1.7,10,10,0,0,1-5.43-1.2,4.7,4.7,0,0,1-2.55-3.33,3.91,3.91,0,0,1,1.71-3.53,9,9,0,0,1,5.07-1.71m0-.17a9.12,9.12,0,0,0-5.13,1.73,4.06,4.06,0,0,0-1.77,3.69,4.88,4.88,0,0,0,2.65,3.47,10.19,10.19,0,0,0,5.5,1.23,9.11,9.11,0,0,0,5.14-1.74,4.05,4.05,0,0,0,1.76-3.68,4.83,4.83,0,0,0-2.64-3.47,10.22,10.22,0,0,0-5.51-1.23Z" style="fill:#E95858"></path><g id="freepik--seeds--inject-2"><path d="M200.44,192.58c-.23,0-.38.19-.33.33a.49.49,0,0,0,.53.16c.23,0,.38-.18.32-.32S200.67,192.54,200.44,192.58Z" style="fill:#E95858"></path><path d="M199.39,191.26c-.19.1-.23.28-.11.39a.57.57,0,0,0,.58,0c.18-.11.23-.28.11-.39A.55.55,0,0,0,199.39,191.26Z" style="fill:#E95858"></path><path d="M197.34,190.49a.27.27,0,0,0,.22.37.42.42,0,0,0,.48-.21.27.27,0,0,0-.23-.37A.41.41,0,0,0,197.34,190.49Z" style="fill:#E95858"></path><path d="M195.5,190.94a.33.33,0,0,0,.34.33.35.35,0,0,0,.39-.29.34.34,0,0,0-.35-.33A.34.34,0,0,0,195.5,190.94Z" style="fill:#E95858"></path><path d="M195,196.55a.28.28,0,0,0-.25-.37.42.42,0,0,0-.46.24c-.06.16,0,.32.25.36A.42.42,0,0,0,195,196.55Z" style="fill:#E95858"></path><path d="M197,196.8a.4.4,0,0,0-.43-.27.3.3,0,0,0-.29.35.41.41,0,0,0,.43.26A.29.29,0,0,0,197,196.8Z" style="fill:#E95858"></path><path d="M198.91,196a.53.53,0,0,0-.56-.06c-.15.1-.13.28,0,.4a.53.53,0,0,0,.56.06C199.1,196.34,199.08,196.16,198.91,196Z" style="fill:#E95858"></path><path d="M199.79,195a.54.54,0,0,0-.57,0c-.1.12,0,.29.18.38a.52.52,0,0,0,.57,0C200.08,195.29,200,195.11,199.79,195Z" style="fill:#E95858"></path><path d="M192.6,191.7a.54.54,0,0,0,.57,0c.14-.1.11-.27-.06-.4a.56.56,0,0,0-.57,0C192.4,191.4,192.43,191.58,192.6,191.7Z" style="fill:#E95858"></path><path d="M191.05,192.37c.23.06.47,0,.54-.12s-.05-.29-.28-.35-.47,0-.54.12S190.82,192.31,191.05,192.37Z" style="fill:#E95858"></path><path d="M190.79,194.11c.23,0,.39-.17.34-.31s-.28-.22-.51-.18-.4.18-.35.31S190.55,194.15,190.79,194.11Z" style="fill:#E95858"></path><path d="M192.35,195.09c.22-.08.32-.24.23-.36a.52.52,0,0,0-.56-.09c-.22.07-.32.24-.23.36A.51.51,0,0,0,192.35,195.09Z" style="fill:#E95858"></path><path d="M198.39,196.38a.53.53,0,0,0,.56.06c.15-.1.13-.28,0-.4a.53.53,0,0,0-.56-.06C198.2,196.08,198.22,196.26,198.39,196.38Zm-1-5.89a.27.27,0,0,0,.22.37.42.42,0,0,0,.48-.21.27.27,0,0,0-.23-.37A.41.41,0,0,0,197.34,190.49Zm2.77,2.42a.49.49,0,0,0,.53.16c.23,0,.38-.18.32-.32s-.29-.21-.52-.17S200.06,192.77,200.11,192.91Zm-9.84,1c0,.14.28.22.52.18s.39-.17.34-.31-.28-.22-.51-.18S190.22,193.8,190.27,193.93Zm2.33-2.23a.54.54,0,0,0,.57,0c.14-.1.11-.27-.06-.4a.56.56,0,0,0-.57,0C192.4,191.4,192.43,191.58,192.6,191.7Zm1.73,4.72c-.06.16,0,.32.25.36a.42.42,0,0,0,.46-.23.28.28,0,0,0-.25-.37A.42.42,0,0,0,194.33,196.42Z" style="fill:#fff;opacity:0.2"></path><path d="M199.22,195.06c-.1.12,0,.29.18.38a.52.52,0,0,0,.57,0c.11-.11,0-.29-.18-.38A.54.54,0,0,0,199.22,195.06Zm-2.93,1.82a.41.41,0,0,0,.43.26.29.29,0,0,0,.29-.34.4.4,0,0,0-.43-.27A.3.3,0,0,0,196.29,196.88Zm3.57-5.22c.18-.11.23-.28.11-.39a.55.55,0,0,0-.58,0c-.19.1-.23.28-.11.39A.57.57,0,0,0,199.86,191.66Zm-4.36-.72a.33.33,0,0,0,.34.33.35.35,0,0,0,.39-.29.34.34,0,0,0-.35-.33A.34.34,0,0,0,195.5,190.94ZM191.79,195a.51.51,0,0,0,.56.09c.22-.08.32-.24.23-.36a.52.52,0,0,0-.56-.09C191.8,194.71,191.7,194.88,191.79,195Zm-.74-2.63c.23.06.47,0,.54-.12s-.05-.29-.28-.35-.47,0-.54.12S190.82,192.31,191.05,192.37Z" style="fill:#fff;opacity:0.5"></path></g><path d="M209.85,180.69a3.63,3.63,0,0,0-1.24-3.54,12.19,12.19,0,0,0-10.4-3,3.82,3.82,0,0,0-3.06,2.3l-.28.89c-.33,1.06.06,2.32,1.25,3.55a12.16,12.16,0,0,0,10.39,3,3.82,3.82,0,0,0,3.06-2.29C209.62,181.44,209.81,180.84,209.85,180.69Zm-3.28,1.19a10.22,10.22,0,0,1-5-.27,10.05,10.05,0,0,1-4.35-2.43,3.29,3.29,0,0,1-1.1-2.24,3.43,3.43,0,0,1,2.2-1.28,10.22,10.22,0,0,1,5,.27,10,10,0,0,1,4.35,2.43,3.25,3.25,0,0,1,1.1,2.23A3.47,3.47,0,0,1,206.57,181.88Z" style="fill:#E95858"></path><path d="M208.61,177.15a11.22,11.22,0,0,0-5-2.76l-.46,1.49.18.05a10,10,0,0,1,4.35,2.43,3.25,3.25,0,0,1,1.1,2.23,3.47,3.47,0,0,1-2.2,1.29,10.22,10.22,0,0,1-5-.27l-.18-.06-.62,2a11.38,11.38,0,0,0,5.75.34,3.82,3.82,0,0,0,3.06-2.29c.05-.15.24-.75.28-.9A3.63,3.63,0,0,0,208.61,177.15Z" style="opacity:0.1"></path><path d="M207.94,177.48a9.94,9.94,0,0,0-4.35-2.42,10.12,10.12,0,0,0-5-.28,3,3,0,0,0-2.4,1.71s0,.09,0,.14v0s0,.06,0,.1a.17.17,0,0,1,0,.07v.12a3.29,3.29,0,0,0,1.1,2.24,10.05,10.05,0,0,0,4.35,2.43,10.34,10.34,0,0,0,5,.27,3.47,3.47,0,0,0,2.2-1.29.75.75,0,0,0,.07-.12l0,0a.37.37,0,0,0,0-.11h0s0-.1.05-.15A2.83,2.83,0,0,0,207.94,177.48Z" style="fill:#E95858"></path><path d="M207.94,177.48a9.94,9.94,0,0,0-4.35-2.42,10.12,10.12,0,0,0-5-.28,3,3,0,0,0-2.4,1.71s0,.09,0,.14v0s0,.06,0,.1a.17.17,0,0,1,0,.07v.12a3.29,3.29,0,0,0,1.1,2.24,10.05,10.05,0,0,0,4.35,2.43,10.34,10.34,0,0,0,5,.27,3.47,3.47,0,0,0,2.2-1.29.75.75,0,0,0,.07-.12l0,0a.37.37,0,0,0,0-.11h0s0-.1.05-.15A2.83,2.83,0,0,0,207.94,177.48Z" style="opacity:0.1"></path><path d="M208.55,177.16a12.07,12.07,0,0,0-10.3-3c-1.67.39-2.71,1.23-3,2.28s.06,2.29,1.23,3.5a12.07,12.07,0,0,0,10.3,3,3.77,3.77,0,0,0,3-2.27C210.11,179.62,209.72,178.37,208.55,177.16Zm-12.44-.22v-.12a.17.17,0,0,0,0-.07s0-.07,0-.1v0s0-.1,0-.14a3,3,0,0,1,2.4-1.71,9.75,9.75,0,0,1,4.22.08l-.21,2.83c0,.08-.19.09-.29,0l-.78-.63a.43.43,0,0,1-.14-.2l0-.15a.72.72,0,0,0-.49-.36.75.75,0,0,0-.54,0l-1,.5c-.2.1-.17.33.08.5h0a1,1,0,0,0,.35.14l.25.05a1.08,1.08,0,0,1,.3.11l.94.55c.13.07.09.17-.05.17l-4.77-.24A2.39,2.39,0,0,1,196.11,176.94Zm5.45,4.67a10.05,10.05,0,0,1-4.35-2.43l0,0,4.16-.52c.13,0,.28.08.24.16l-.33.59a.28.28,0,0,1-.17.12l-.18.07a.23.23,0,0,0-.15.36.8.8,0,0,0,.46.29l1.49.43c.31.09.6,0,.63-.17a.26.26,0,0,0-.06-.23l-.12-.15a.25.25,0,0,1-.06-.2l.06-.65c0-.09.19-.09.29,0l3.19,2.63-.06,0A10.34,10.34,0,0,1,201.56,181.61Zm7.35-1.28a.37.37,0,0,1,0,.11l0,0a.75.75,0,0,1-.07.12,2.59,2.59,0,0,1-1,.85l-4.13-2.33c-.12-.07-.09-.17.05-.17l1.1.05a1.13,1.13,0,0,1,.32.06l.23.09a.89.89,0,0,0,.62,0,.22.22,0,0,0,.1-.34l-.49-.89a.94.94,0,0,0-.76-.37h0a.42.42,0,0,0-.29.09l-.13.1a.52.52,0,0,1-.24.08l-1,.12c-.13,0-.28-.09-.23-.17l1.43-2.47a9.56,9.56,0,0,1,3.58,2.17,2.83,2.83,0,0,1,1,2.69c0,.05,0,.1-.05.15Z" style="fill:#E95858"></path><g style="opacity:0.30000000000000004"><path d="M208.55,177.16a12.07,12.07,0,0,0-10.3-3c-1.67.39-2.71,1.23-3,2.28s.06,2.29,1.23,3.5a12.07,12.07,0,0,0,10.3,3,3.77,3.77,0,0,0,3-2.27C210.11,179.62,209.72,178.37,208.55,177.16Zm-12.44-.22v-.12a.17.17,0,0,0,0-.07s0-.07,0-.1v0s0-.1,0-.14a3,3,0,0,1,2.4-1.71,9.75,9.75,0,0,1,4.22.08l-.21,2.83c0,.08-.19.09-.29,0l-.78-.63a.43.43,0,0,1-.14-.2l0-.15a.72.72,0,0,0-.49-.36.75.75,0,0,0-.54,0l-1,.5c-.2.1-.17.33.08.5h0a1,1,0,0,0,.35.14l.25.05a1.08,1.08,0,0,1,.3.11l.94.55c.13.07.09.17-.05.17l-4.77-.24A2.39,2.39,0,0,1,196.11,176.94Zm5.45,4.67a10.05,10.05,0,0,1-4.35-2.43l0,0,4.16-.52c.13,0,.28.08.24.16l-.33.59a.28.28,0,0,1-.17.12l-.18.07a.23.23,0,0,0-.15.36.8.8,0,0,0,.46.29l1.49.43c.31.09.6,0,.63-.17a.26.26,0,0,0-.06-.23l-.12-.15a.25.25,0,0,1-.06-.2l.06-.65c0-.09.19-.09.29,0l3.19,2.63-.06,0A10.34,10.34,0,0,1,201.56,181.61Zm7.35-1.28a.37.37,0,0,1,0,.11l0,0a.75.75,0,0,1-.07.12,2.59,2.59,0,0,1-1,.85l-4.13-2.33c-.12-.07-.09-.17.05-.17l1.1.05a1.13,1.13,0,0,1,.32.06l.23.09a.89.89,0,0,0,.62,0,.22.22,0,0,0,.1-.34l-.49-.89a.94.94,0,0,0-.76-.37h0a.42.42,0,0,0-.29.09l-.13.1a.52.52,0,0,1-.24.08l-1,.12c-.13,0-.28-.09-.23-.17l1.43-2.47a9.56,9.56,0,0,1,3.58,2.17,2.83,2.83,0,0,1,1,2.69c0,.05,0,.1-.05.15Z" style="fill:#fff"></path></g><path d="M203.74,174.58a10.84,10.84,0,0,1,4.75,2.67,3.47,3.47,0,0,1,1.21,3.39,3.67,3.67,0,0,1-2.94,2.2,11.24,11.24,0,0,1-5.5-.29,10.86,10.86,0,0,1-4.75-2.67,3.47,3.47,0,0,1-1.21-3.39c.32-1.05,1.37-1.83,2.95-2.2a11.2,11.2,0,0,1,5.49.29m0-.14a11.45,11.45,0,0,0-5.57-.29,3.82,3.82,0,0,0-3.06,2.3c-.33,1.05.06,2.32,1.25,3.54a11.15,11.15,0,0,0,4.82,2.71,11.45,11.45,0,0,0,5.57.29,3.85,3.85,0,0,0,3.06-2.3,3.63,3.63,0,0,0-1.24-3.54,11.09,11.09,0,0,0-4.83-2.71Z" style="fill:#E95858"></path><g id="freepik--seeds--inject-2"><path d="M197.91,177.06c.24.05.42.2.4.32s-.23.16-.47.1-.42-.2-.4-.32S197.67,177,197.91,177.06Z" style="fill:#E95858"></path><path d="M198.6,175.94c.21.12.3.28.2.37s-.34.07-.55,0-.3-.28-.21-.37A.57.57,0,0,1,198.6,175.94Z" style="fill:#E95858"></path><path d="M200.41,175.43c.11.15.05.3-.12.32a.63.63,0,0,1-.52-.24c-.11-.16-.05-.3.12-.32A.63.63,0,0,1,200.41,175.43Z" style="fill:#E95858"></path><path d="M202.32,176c.05.15-.06.27-.25.26a.51.51,0,0,1-.45-.3c-.05-.15.06-.27.25-.26A.51.51,0,0,1,202.32,176Z" style="fill:#E95858"></path><path d="M204.18,181.12a.18.18,0,0,1,.14-.31.62.62,0,0,1,.51.25c.1.16,0,.29-.14.31A.57.57,0,0,1,204.18,181.12Z" style="fill:#E95858"></path><path d="M202.32,181.18c0-.15.15-.24.35-.21a.44.44,0,0,1,.37.34c0,.15-.16.24-.36.2A.39.39,0,0,1,202.32,181.18Z" style="fill:#E95858"></path><path d="M200.27,180.32a.52.52,0,0,1,.54,0c.16.1.19.26.06.36a.52.52,0,0,1-.54,0C200.16,180.58,200.14,180.42,200.27,180.32Z" style="fill:#E95858"></path><path d="M199.16,179.32a.59.59,0,0,1,.56.09c.13.11.1.26-.08.33a.59.59,0,0,1-.56-.09C198.94,179.54,199,179.39,199.16,179.32Z" style="fill:#E95858"></path><path d="M205.34,176.94a.54.54,0,0,1-.55,0c-.16-.1-.18-.26,0-.35a.54.54,0,0,1,.55,0C205.46,176.68,205.48,176.84,205.34,176.94Z" style="fill:#E95858"></path><path d="M207,177.68a.65.65,0,0,1-.56-.16c-.1-.13,0-.26.19-.29a.62.62,0,0,1,.56.16C207.31,177.51,207.23,177.64,207,177.68Z" style="fill:#E95858"></path><path d="M207.72,179.28c-.24-.05-.43-.19-.42-.31s.22-.18.46-.12.42.19.41.31S208,179.34,207.72,179.28Z" style="fill:#E95858"></path><path d="M206.43,180c-.23-.09-.36-.24-.31-.35s.3-.12.53,0,.37.24.31.35S206.66,180.12,206.43,180Z" style="fill:#E95858"></path><path d="M200.81,180.32a.52.52,0,0,0-.54,0c-.13.1-.11.26.06.36a.52.52,0,0,0,.54,0C201,180.58,201,180.42,200.81,180.32Zm-.92-5.13c-.17,0-.23.16-.12.32a.63.63,0,0,0,.52.24c.17,0,.23-.17.12-.32A.63.63,0,0,0,199.89,175.19Zm-2,1.87c-.24-.06-.45,0-.47.1s.16.26.4.32.45,0,.47-.1S198.15,177.11,197.91,177.06Zm9.85,1.79c-.24-.06-.45,0-.46.12s.18.26.42.31.44,0,.45-.12S208,178.9,207.76,178.85Zm-2.46-2.27a.54.54,0,0,0-.55,0c-.14.09-.12.25,0,.35a.54.54,0,0,0,.55,0C205.48,176.84,205.46,176.68,205.3,176.58Zm-1,4.23a.18.18,0,0,0-.14.31.57.57,0,0,0,.51.25c.18,0,.24-.15.14-.31A.62.62,0,0,0,204.32,180.81Z" style="fill:#fff;opacity:0.2"></path><path d="M199.16,179.32c-.18.07-.22.22-.08.33a.59.59,0,0,0,.56.09c.18-.07.21-.22.08-.33A.59.59,0,0,0,199.16,179.32Zm3.51,1.65c-.2,0-.35.06-.35.21a.39.39,0,0,0,.36.33c.2,0,.36,0,.36-.2A.44.44,0,0,0,202.67,181Zm-3.87-4.66c.1-.09,0-.25-.2-.37a.57.57,0,0,0-.56,0c-.09.09,0,.25.21.37S198.71,176.4,198.8,176.31Zm3.07-.61c-.19,0-.3.11-.25.26a.51.51,0,0,0,.45.3c.19,0,.3-.11.25-.26A.51.51,0,0,0,201.87,175.7Zm4.78,4c-.23-.09-.47-.07-.53,0s.08.26.31.35.47.08.53,0S206.88,179.74,206.65,179.65Zm.56-2.26a.62.62,0,0,0-.56-.16c-.21,0-.29.16-.19.29a.65.65,0,0,0,.56.16C207.23,177.64,207.31,177.51,207.21,177.39Z" style="fill:#fff;opacity:0.5"></path></g></g><g id="freepik--mushroom--inject-2"><path d="M170.49,202.12c.51.58.66,2.83.66,3.46s1.29.59,2.32.27,2.11-1,1.76-1.52-1.49-2.47-1.39-3.23Z" style="fill:#e0e0e0"></path><path d="M170.49,202.12c.51.58.66,2.83.66,3.46s1.29.59,2.32.27,2.11-1,1.76-1.52-1.49-2.47-1.39-3.23Z" style="opacity:0.05"></path><path d="M178.42,197v0l.09.34s0,.07,0,.11l0,.14c.21,1.42-.67,2-1.94,2.28-.33.94-2,2.08-4.14,2.76s-4.18.7-5,.11c-1.34.57-2.41.59-3-1.14l0,0a1.21,1.21,0,0,1-.05-.18,3.84,3.84,0,0,1-.19-1.38c0-.07,0-.14,0-.21a4.09,4.09,0,0,1,.1-.61,1.55,1.55,0,0,1,.06-.23,5.24,5.24,0,0,1,.44-1.11l.09-.16a5.81,5.81,0,0,1,.4-.61h0a8.81,8.81,0,0,1,4.46-3.05c3-.94,5.94-.37,7.56,1.24a1.21,1.21,0,0,1,.16.16l.15.17c.11.14.22.29.32.44l.09.14.06.11.05.12a.47.47,0,0,1,0,.1,1,1,0,0,1,.09.21A2,2,0,0,1,178.42,197Z" style="fill:#f5f5f5"></path><path d="M178.42,197v0l.09.34s0,.07,0,.11l0,.14c.21,1.42-.67,2-1.94,2.28-.33.94-2,2.08-4.14,2.76s-4.18.7-5,.11c-1.34.57-2.41.59-3-1.14l0,0a1.21,1.21,0,0,1-.05-.18,3.84,3.84,0,0,1-.19-1.38c0-.07,0-.14,0-.21a4.09,4.09,0,0,1,.1-.61,1.55,1.55,0,0,1,.06-.23,5.24,5.24,0,0,1,.44-1.11l.09-.16a5.81,5.81,0,0,1,.4-.61,2.2,2.2,0,0,0,.68,2.69,2.54,2.54,0,0,0,2.34,0c.64-.21,1.23-.55,1.86-.79a9.23,9.23,0,0,1,3-.16c2.39,0,4.48-2,3-4.33a2.39,2.39,0,0,0-.16-.22,5.23,5.23,0,0,1,1.34.95,1.21,1.21,0,0,1,.16.16l.15.17c.11.14.22.29.32.44l.09.14.06.11.05.12a.47.47,0,0,1,0,.1,1,1,0,0,1,.09.21A2,2,0,0,1,178.42,197Z" style="opacity:0.05"></path><path d="M170.68,201.35a5.66,5.66,0,0,1,.18,1.68,4.55,4.55,0,0,0-.44-.85c-.72-.92-1.27-.67-2.18-.24a.74.74,0,0,1-.69,0c-.5-.3-.43-1.42.17-1.84s2-.71,2.46-.09A3.55,3.55,0,0,1,170.68,201.35Z" style="fill:#e0e0e0"></path><path d="M170.68,201.35a5.66,5.66,0,0,1,.18,1.68,4.55,4.55,0,0,0-.44-.85c-.72-.92-1.27-.67-2.18-.24a.74.74,0,0,1-.69,0c-.5-.3-.43-1.42.17-1.84s2-.71,2.46-.09A3.55,3.55,0,0,1,170.68,201.35Z" style="opacity:0.1"></path><path d="M172.85,199.23a3.39,3.39,0,0,0,.32,1.36A5.1,5.1,0,0,0,174,202a2.79,2.79,0,0,1-.19-.91c.08-1.16.68-1.26,1.67-1.41,1.3-.2.4-1.77-.58-1.79C174.21,197.91,172.92,198.44,172.85,199.23Z" style="fill:#e0e0e0"></path><path d="M172.85,199.23a3.39,3.39,0,0,0,.32,1.36A5.1,5.1,0,0,0,174,202a2.79,2.79,0,0,1-.19-.91c.08-1.16.68-1.26,1.67-1.41,1.3-.2.4-1.77-.58-1.79C174.21,197.91,172.92,198.44,172.85,199.23Z" style="opacity:0.1"></path><path d="M170.68,201.35a2.85,2.85,0,0,0-.81-1,1.77,1.77,0,0,0-2,.6c-.22.49,0,1.08-.35,1h0c-.5-.3-.43-1.42.17-1.84s2-.71,2.46-.09A3.55,3.55,0,0,1,170.68,201.35Z" style="opacity:0.1"></path><path d="M173.16,200.59a3.07,3.07,0,0,1,.11-1.28,1.77,1.77,0,0,1,2-.6c.47.28.63.89.87.64h0c.26-.52-.43-1.41-1.17-1.43s-2,.52-2.08,1.31A3.55,3.55,0,0,0,173.16,200.59Z" style="opacity:0.1"></path></g><g id="freepik--mushroom--inject-2"><path d="M210.29,203.37c.11.68-.86,2.48-1.16,3s.7,1.07,1.64,1.32,2.1.25,2.09-.32,0-2.61.49-3.14Z" style="fill:#e0e0e0"></path><path d="M210.29,203.37c.11.68-.86,2.48-1.16,3s.7,1.07,1.64,1.32,2.1.25,2.09-.32,0-2.61.49-3.14Z" style="opacity:0.05"></path><path d="M218.86,203.24v0a2.81,2.81,0,0,1-.1.31l0,.09-.05.12c-.52,1.19-1.48,1.2-2.59.82-.7.56-2.51.63-4.5.12s-3.54-1.49-3.86-2.32c-1.3-.21-2.13-.71-1.77-2.34a.06.06,0,0,1,0,0,.94.94,0,0,1,0-.16,3.42,3.42,0,0,1,.52-1.15.91.91,0,0,0,.11-.16c.11-.14.24-.28.37-.42a1.07,1.07,0,0,1,.16-.14,4.77,4.77,0,0,1,.87-.64l.15-.08a5.46,5.46,0,0,1,.6-.27h0a8,8,0,0,1,4.89-.18c2.73.71,4.73,2.58,5.2,4.59,0,.07,0,.14,0,.2l0,.21a3.87,3.87,0,0,1,0,.48.85.85,0,0,1,0,.16v.23s0,.07,0,.1a1.2,1.2,0,0,1,0,.2A2.21,2.21,0,0,1,218.86,203.24Z" style="fill:#f5f5f5"></path><path d="M218.86,203.24v0a2.81,2.81,0,0,1-.1.31l0,.09-.05.12c-.52,1.19-1.48,1.2-2.59.82-.7.56-2.51.63-4.5.12s-3.54-1.49-3.86-2.32c-1.3-.21-2.13-.71-1.77-2.34a.06.06,0,0,1,0,0,.94.94,0,0,1,0-.16,3.42,3.42,0,0,1,.52-1.15.91.91,0,0,0,.11-.16c.11-.14.24-.28.37-.42a1.07,1.07,0,0,1,.16-.14,4.77,4.77,0,0,1,.87-.64l.15-.08a5.46,5.46,0,0,1,.6-.27,2,2,0,0,0-.78,2.39,2.33,2.33,0,0,0,1.77,1.16c.59.14,1.21.17,1.81.29a8.25,8.25,0,0,1,2.35,1.31c1.85,1.12,4.4.62,4.38-1.87,0-.08,0-.17,0-.25a4.92,4.92,0,0,1,.57,1.37c0,.07,0,.14,0,.2l0,.21a3.87,3.87,0,0,1,0,.48.85.85,0,0,1,0,.16v.23s0,.07,0,.1a1.2,1.2,0,0,1,0,.2A2.21,2.21,0,0,1,218.86,203.24Z" style="opacity:0.05"></path><path d="M210.81,202.87a5,5,0,0,1-.67,1.37,4.16,4.16,0,0,0,.07-.87c-.11-1.05-.64-1.12-1.55-1.23a.66.66,0,0,1-.55-.3c-.24-.47.35-1.3,1-1.33s1.84.41,1.92,1.12A3.15,3.15,0,0,1,210.81,202.87Z" style="fill:#e0e0e0"></path><path d="M210.81,202.87a5,5,0,0,1-.67,1.37,4.16,4.16,0,0,0,.07-.87c-.11-1.05-.64-1.12-1.55-1.23a.66.66,0,0,1-.55-.3c-.24-.47.35-1.3,1-1.33s1.84.41,1.92,1.12A3.15,3.15,0,0,1,210.81,202.87Z" style="opacity:0.1"></path><path d="M213.49,202.29a3.3,3.3,0,0,0-.41,1.19,4.66,4.66,0,0,0,0,1.53,2.56,2.56,0,0,1,.29-.79c.63-.85,1.13-.64,2-.28,1.09.47,1.17-1.16.42-1.65C215.17,201.93,213.93,201.72,213.49,202.29Z" style="fill:#e0e0e0"></path><path d="M213.49,202.29a3.3,3.3,0,0,0-.41,1.19,4.66,4.66,0,0,0,0,1.53,2.56,2.56,0,0,1,.29-.79c.63-.85,1.13-.64,2-.28,1.09.47,1.17-1.16.42-1.65C215.17,201.93,213.93,201.72,213.49,202.29Z" style="opacity:0.1"></path><path d="M210.81,202.87a2.71,2.71,0,0,0-.14-1.15,1.61,1.61,0,0,0-1.79-.49c-.41.27-.54.82-.77.61h0c-.24-.47.35-1.3,1-1.33s1.84.41,1.92,1.12A3.15,3.15,0,0,1,210.81,202.87Z" style="opacity:0.1"></path><path d="M213.08,203.48a2.56,2.56,0,0,1,.7-.92,1.61,1.61,0,0,1,1.79.48c.22.44.06,1,.36.91h0c.45-.28.35-1.29-.21-1.66s-1.79-.57-2.23,0A3.3,3.3,0,0,0,213.08,203.48Z" style="opacity:0.1"></path></g></g></g><path d="M251.59,193.27c-4.92,1.88-11.38,2.19-13.7,3a20.79,20.79,0,0,0-6.13,3.45,60.73,60.73,0,0,1-9.18,5.61c-1.62.9.57,3,3.6,2.9s8.61-2.91,10.63-2.6,2,1.33,2,1.33Z" style="fill:#ffbda7"></path><path d="M220.54,193.68c-2.1-1.09-4.59-.61-6.69.19-4.85,1.84-8.51,5.88-13.1,8.21a17.25,17.25,0,0,1-7.42,2c-1.61,0-3.54,0-4.38-1.65-.64-1.24,1-2.57,1.85-3.28a18.43,18.43,0,0,1,3.53-2.09c2.25-1.12,4.61-2,6.95-2.9a46.64,46.64,0,0,0,6.64-3.11c1.7-1,4.08-2.44,4-4.72s-2.29-3.28-4.15-3.57a16.7,16.7,0,0,0-7.31.88c-5,1.58-9.31,4.66-13.82,7.29a35.06,35.06,0,0,1-6.83,3.25c-1.32.42-4.65,1.65-5.89.41-2-2,4.1-5.34,5.34-6,2.52-1.28,5.19-2.23,7.81-3.25s6-2.59,5.8-6a3.74,3.74,0,0,0-2.28-3.28,6.87,6.87,0,0,0-4.75,0c-2.27.62-1.48,3.64.75,3.52-.05,0,1.59-.17,1.73.17s-.39.85-.61,1c-1.58,1.36-4.25,2.07-6.18,2.89a41.14,41.14,0,0,0-5.71,2.86c-2.93,1.81-8.2,6.47-4,9.74,3.27,2.54,8.21.91,11.59-.5,4.48-1.88,8.4-4.79,12.65-7.11a29.26,29.26,0,0,1,7-2.89,16.19,16.19,0,0,1,3.4-.47c.55,0,2-.11,2.31.52.73,1.39-4,3.55-4.82,4-2,1-4.16,1.82-6.27,2.66-3.79,1.51-8.52,3.12-11,6.59-1.08,1.51-1.88,3.75-.48,5.32s3.91,2,5.81,2.17c5.49.53,10.55-2,14.93-5.06a65,65,0,0,1,6.78-4.64,12.26,12.26,0,0,1,3.66-1.32c1.51-.24,3.39.27,3.14,2.27-.08.66.94,1.59,1.48.92C223.51,197,222.43,194.67,220.54,193.68Z" style="opacity:0.1"></path><path d="M220.54,192c-2.1-1.1-4.59-.61-6.69.19-4.85,1.84-8.51,5.88-13.1,8.21a17.25,17.25,0,0,1-7.42,2.05c-1.61,0-3.54,0-4.38-1.65-.64-1.24,1-2.57,1.85-3.28a19,19,0,0,1,3.53-2.1c2.25-1.11,4.61-2,6.95-2.9a45.52,45.52,0,0,0,6.64-3.1c1.7-1,4.08-2.44,4-4.72s-2.29-3.28-4.15-3.57a16.7,16.7,0,0,0-7.31.88c-5,1.58-9.31,4.66-13.82,7.29a35.06,35.06,0,0,1-6.83,3.25c-1.32.42-4.65,1.64-5.89.41-2-2,4.1-5.34,5.34-6,2.52-1.28,5.19-2.23,7.81-3.25s6-2.59,5.8-6a3.74,3.74,0,0,0-2.28-3.28,6.87,6.87,0,0,0-4.75,0c-2.27.62-1.48,3.64.75,3.51-.05,0,1.59-.16,1.73.18s-.39.85-.61,1c-1.58,1.36-4.25,2.07-6.18,2.89a41.14,41.14,0,0,0-5.71,2.86c-2.93,1.81-8.2,6.47-4,9.73,3.27,2.55,8.21.92,11.59-.5,4.48-1.87,8.4-4.78,12.65-7.1a29.26,29.26,0,0,1,7-2.89,15.56,15.56,0,0,1,3.4-.47c.55,0,2-.12,2.31.52.73,1.39-4,3.55-4.82,4-2,1-4.16,1.82-6.27,2.66-3.79,1.51-8.52,3.12-11,6.58-1.08,1.52-1.88,3.76-.48,5.33s3.91,2,5.81,2.16c5.49.54,10.55-2,14.93-5.06a66.46,66.46,0,0,1,6.78-4.63,12.26,12.26,0,0,1,3.66-1.32c1.51-.24,3.39.27,3.14,2.26-.08.67.94,1.6,1.48.93C223.51,195.24,222.43,192.94,220.54,192Z" style="fill:#E95858"></path><path d="M190.1,174.92a4.5,4.5,0,0,0-1.61-.37,5,5,0,0,0-2.69.6c-.3.21-.46.46-.27.74a.51.51,0,0,0,.16.13,3.82,3.82,0,0,0,2.27,0,7.31,7.31,0,0,1,2.38,0c.18,0,.4.07.52-.07a.38.38,0,0,0,.08-.29C190.89,175.3,190.48,175.06,190.1,174.92Zm-18.93,15.37c-.45,1.29-.17,4.58,2,4.05a.75.75,0,0,0,.08-.78,5.2,5.2,0,0,0-.42-.72A3.8,3.8,0,0,1,173,189a10.76,10.76,0,0,1,2.79-2.84,1.91,1.91,0,0,0,.89-1.19,17.59,17.59,0,0,0-3.16,2.18A7.51,7.51,0,0,0,171.17,190.29ZM211,184a1.74,1.74,0,0,0-1.61-1.57c-.53,0-.72.52-.56,1,.09.27.27.51.37.78a1.86,1.86,0,0,1-.19,1.5,5.2,5.2,0,0,1-1.42,1.3,12.11,12.11,0,0,1-2,1.27c-1.85,1-3.88,1.59-5.81,2.38a55.93,55.93,0,0,0-5.95,2.85,8.71,8.71,0,0,0-2.41,1.75c0,.06-.1.15,0,.22s.07,0,.11,0a1.26,1.26,0,0,0,.65-.19c1.84-.9,3.66-1.87,5.57-2.58A72.54,72.54,0,0,0,204.9,190c1.86-.92,3.89-1.73,5.34-3.26A3,3,0,0,0,211,184Zm10.11,10c0,.08.07.16.1.25a11.81,11.81,0,0,1,.36,1.45c.16.79.77.48.86-.14a3,3,0,0,0-.64-2.12c-.16-.23-1.51-1.54-1.77-1a.33.33,0,0,0,.07.34,1.68,1.68,0,0,0,.29.24A2.41,2.41,0,0,1,221.12,194Z" style="fill:#fff;opacity:0.30000000000000004"></path><path d="M220.31,194.78c-.2-2.67-4.24-1.8-5.77-1.18a24.72,24.72,0,0,0-3.46,1.89c-1.55,1-3.07,1.93-4.6,2.92-1.23.79-2.44,1.63-3.72,2.34a25.9,25.9,0,0,1-8.52,2.85,15,15,0,0,1-4.72.09,7.52,7.52,0,0,1-3.75-1.72,2.8,2.8,0,0,0,.47.74c1.34,1.51,3.91,2,5.81,2.16,5.49.54,10.55-2,14.93-5.06a66.46,66.46,0,0,1,6.78-4.63,12.26,12.26,0,0,1,3.66-1.32A2.85,2.85,0,0,1,220.31,194.78Z" style="opacity:0.1"></path><path d="M183.41,194.1c4.48-1.87,8.4-4.78,12.65-7.1a29.26,29.26,0,0,1,7-2.89,15.65,15.65,0,0,1,3.4-.47,3.82,3.82,0,0,1,2.13.31s0-.06,0-.08c0-.54-.55-.9-1-1.12a8.38,8.38,0,0,0-5.88-.1,25.89,25.89,0,0,0-5.38,2.66q-4.38,2.58-8.82,5.07c-4,2.24-8.22,4.46-12.8,4.92a11.33,11.33,0,0,1-1.65,0C176.24,196.76,180.43,195.35,183.41,194.1Z" style="opacity:0.1"></path><path d="M173.56,191.21a2,2,0,0,0,0,.35c.62-1.88,4.66-4.12,5.65-4.62,2.52-1.28,5.19-2.23,7.81-3.25s6-2.59,5.8-6a3.76,3.76,0,0,0-.47-1.64c.39,3-4.11,5.5-6.38,6.41-2.12.84-4.33,1.44-6.37,2.47a17,17,0,0,0-3.58,2.43C175.05,188.23,173.58,189.74,173.56,191.21Z" style="opacity:0.1"></path></g></g></g></svg>
