<svg xmlns="http://www.w3.org/2000/svg" xmlns:xlink="http://www.w3.org/1999/xlink" viewBox="0 0 500 500"><defs><clipPath id="freepik--clip-path--inject-2"><path d="M308.76,239c-3.54-1.22-5.77-8.51-7.48-16.41-1.18-5.47-2.12-11.23-3.07-15.47a30.26,30.26,0,0,0-1.41-4.87l8.7-29.45c5.33,2,10.43,38.13,12.45,50.63C320,236.3,315.71,241.32,308.76,239Z" style="fill:#fff;stroke:#263238;stroke-linecap:round;stroke-linejoin:round"></path></clipPath><clipPath id="freepik--clip-path-2--inject-2"><path d="M231.39,219.87s-.17-44.61,8.1-51.84c0,0,12.65-7.19,36.91-5.3a66.4,66.4,0,0,1,28.75,9.2c6.77,14.53-5.08,41.52-16.3,49.1l-10.74,11.3S280,239.51,269,242.7C246.41,249.23,216.06,236.06,231.39,219.87Z" style="fill:#3562F7;stroke:#263238;stroke-linecap:round;stroke-linejoin:round"></path></clipPath><clipPath id="freepik--clip-path-3--inject-2"><path d="M244,180.87c-1.19,10.5-6.53,16.87-8.7,16.88-1.42,0-1.39-5.14-1.39-5.14-4.8.9-14.68,4.34-21.46,6.82l-.6.22c-2.15.79-3.95,1.47-5.1,1.91l-.88.33-.52.2c1.51,2,3,4,4.39,6,5.24,7.5,10,15.25,15.69,23.2,4.66,6.55,3,9.9,0,13,0,0-8.11,7.7-10.48,7.14s-8.91-2.73-8.71-4.31,2.77-.6,2.77-.6a8.63,8.63,0,0,1,.4-2.23c.39-1.33,5.45-2,5.45-2a11.75,11.75,0,0,1,2.45-4.28s-15.58-16.21-23.17-21.55c-5.59-3.94-15.51-16.77-11.76-20.3,7-6.52,48.17-28.21,59.35-28.1C241.7,168.11,245.16,170.37,244,180.87Z" style="fill:#fff;stroke:#263238;stroke-linecap:round;stroke-linejoin:round"></path></clipPath><clipPath id="freepik--clip-path-4--inject-2"><rect x="366.22" y="251.56" width="21.56" height="206.44" style="fill:#999;stroke:#263238;stroke-linecap:round;stroke-linejoin:round"></rect></clipPath><clipPath id="freepik--clip-path-5--inject-2"><rect x="112.22" y="251.56" width="21.56" height="206.44" style="fill:#999;stroke:#263238;stroke-linecap:round;stroke-linejoin:round"></rect></clipPath></defs><g id="freepik--background-simple--inject-2"><path d="M67.93,167.09s-27.88,72,11.3,144.5S199.11,422.39,263.7,455.14s131.66,16.8,163.53-36.84-11.84-91.93-11.9-168.42,11.45-96.74-30-161.36-143.06-78.93-219.9-31S67.93,167.09,67.93,167.09Z" style="fill:#fff;opacity:0.7000000000000001"></path><path d="M435.41,208.93c-18.19-20.12-48.67-22.37-72.37-35.56-40.79-22.7-56.6-74.39-93.71-102.71-23.43-17.88-55.09-24.81-83.4-20.89-40.19,5.56-78,32.5-89.36,72a99.81,99.81,0,0,0-3.44,35.41c1.82,23.55,6.88,47.4,2.1,70.53-5.26,25.5-21.85,47-31.76,71.09-12.34,30-14,63.61-8.76,95.58,3.6,21.82,10.77,43.85,25.76,60.11,1.13,1.23,2.31,2.4,3.51,3.55H247.59c10.26-13.09,18-28.58,27.07-42.32,22.72-34.59,59.1-59.25,98.83-70.81,17.8-5.18,37.08-8.27,51.38-20.06,14.72-12.14,21.48-31.5,24.41-50.35C452.82,251.64,450.9,226.06,435.41,208.93Z" style="fill:#3562F7"></path><path d="M435.41,208.93c-18.19-20.12-48.67-22.37-72.37-35.56-40.79-22.7-56.6-74.39-93.71-102.71-23.43-17.88-55.09-24.81-83.4-20.89-40.19,5.56-78,32.5-89.36,72a99.81,99.81,0,0,0-3.44,35.41c1.82,23.55,6.88,47.4,2.1,70.53-5.26,25.5-21.85,47-31.76,71.09-12.34,30-14,63.61-8.76,95.58,3.6,21.82,10.77,43.85,25.76,60.11,1.13,1.23,2.31,2.4,3.51,3.55H247.59c10.26-13.09,18-28.58,27.07-42.32,22.72-34.59,59.1-59.25,98.83-70.81,17.8-5.18,37.08-8.27,51.38-20.06,14.72-12.14,21.48-31.5,24.41-50.35C452.82,251.64,450.9,226.06,435.41,208.93Z" style="fill:#fff;opacity:0.7000000000000001"></path></g><g id="freepik--Chair--inject-2"><polyline points="206.42 353.1 191.53 458 185.96 458 194.19 353.1" style="fill:none;stroke:#263238;stroke-linecap:round;stroke-linejoin:round"></polyline><polyline points="252.96 353.1 267.85 458 273.42 458 265.19 353.1" style="fill:none;stroke:#263238;stroke-linecap:round;stroke-linejoin:round"></polyline><polyline points="171.42 353.1 156.53 458 150.96 458 159.19 353.1" style="fill:none;stroke:#263238;stroke-linecap:round;stroke-linejoin:round"></polyline><polyline points="216.96 353.1 231.85 458 237.42 458 229.19 353.1" style="fill:none;stroke:#263238;stroke-linecap:round;stroke-linejoin:round"></polyline><path d="M261.72,349.3H159.15a16.39,16.39,0,0,1-16.39-16.39h0a4.53,4.53,0,0,1,4.53-4.53h126.3a4.52,4.52,0,0,1,4.52,4.53h0A16.39,16.39,0,0,1,261.72,349.3Z" style="fill:none;stroke:#263238;stroke-linecap:round;stroke-linejoin:round"></path><line x1="145.1" y1="341.34" x2="179.18" y2="341.34" style="fill:none;stroke:#263238;stroke-linecap:round;stroke-linejoin:round"></line><path d="M184.73,328.38c-5.28,0-1.59,20.92,12.39,20.92" style="fill:none;stroke:#263238;stroke-linecap:round;stroke-linejoin:round"></path><line x1="184.87" y1="341.34" x2="193.68" y2="341.34" style="fill:none;stroke:#263238;stroke-linecap:round;stroke-linejoin:round"></line><line x1="198.69" y1="341.34" x2="203.29" y2="341.34" style="fill:none;stroke:#263238;stroke-linecap:round;stroke-linejoin:round"></line><line x1="210.44" y1="341.34" x2="275.78" y2="341.34" style="fill:none;stroke:#263238;stroke-linecap:round;stroke-linejoin:round"></line><polyline points="145.1 324.76 137.5 270.81 144.99 270.81 152.8 328.38" style="fill:none;stroke:#263238;stroke-linecap:round;stroke-linejoin:round"></polyline><polyline points="171.37 324.76 163.77 270.81 171.25 270.81 179.07 328.38" style="fill:none;stroke:#263238;stroke-linecap:round;stroke-linejoin:round"></polyline><polyline points="197.63 324.76 190.04 270.81 197.52 270.81 205.34 328.38" style="fill:none;stroke:#263238;stroke-linecap:round;stroke-linejoin:round"></polyline><path d="M196.62,270.16H135.5a9.26,9.26,0,0,1-8.86-7.72L122.74,236a6.51,6.51,0,0,1,6.59-7.73h61.11a9.28,9.28,0,0,1,8.87,7.73l3.9,26.49A6.51,6.51,0,0,1,196.62,270.16Z" style="fill:none;stroke:#263238;stroke-linecap:round;stroke-linejoin:round"></path><line x1="195.1" y1="267.4" x2="196.98" y2="267.4" style="fill:none;stroke:#263238;stroke-linecap:round;stroke-linejoin:round"></line><line x1="182.24" y1="267.4" x2="191.44" y2="267.4" style="fill:none;stroke:#263238;stroke-linecap:round;stroke-linejoin:round"></line><path d="M126.24,239.7l3.14,20.82a8.09,8.09,0,0,0,8,6.88h42.79" style="fill:none;stroke:#263238;stroke-linecap:round;stroke-linejoin:round"></path><line x1="125.5" y1="234.8" x2="125.88" y2="237.37" style="fill:none;stroke:#263238;stroke-linecap:round;stroke-linejoin:round"></line><line x1="72.66" y1="458" x2="427.34" y2="458" style="fill:none;stroke:#263238;stroke-linecap:round;stroke-linejoin:round"></line></g><g id="freepik--Character--inject-2"><path d="M244.22,217.87c-28.42,7.28-39.31,27.82-40.8,45.1-1.79,20.83,15.42,75.93,15.62,83.41,1,37.05,12.66,54.91,14.76,83.15h27.73s3.41-74.64,5.51-83.15,9.91-53.65,11.7-77.46c2.81-37.42-9.73-49.21-9.73-49.21C257,209.69,244.22,217.87,244.22,217.87Z" style="fill:#263238"></path><path d="M262.5,261.46a53.49,53.49,0,0,1-15.33,11.2s1.52,60.72-.38,66.26-4.29,11.9,2,90.61" style="fill:none;stroke:#fff;stroke-linecap:round;stroke-linejoin:round"></path><path d="M245.29,423.38s5.54-3.95,17-3.16c0,0,.83,13.75,2.39,17.75s9.79,10.93,11.31,12.12,1.53,5.34,1.53,5.34H242.72a109.78,109.78,0,0,1,2.77-17.66Z" style="fill:#fff"></path><path d="M245.29,423.38s5.54-3.95,17-3.16c0,0,.83,13.75,2.39,17.75s9.79,10.93,11.31,12.12,1.53,5.34,1.53,5.34H242.72a109.78,109.78,0,0,1,2.77-17.66Z" style="fill:none;stroke:#263238;stroke-linecap:round;stroke-linejoin:round"></path><path d="M252.48,425.16s.82,12.66,2.78,16a23.13,23.13,0,0,0,3.86,5" style="fill:none;stroke:#263238;stroke-linecap:round;stroke-linejoin:round"></path><path d="M260.12,447.91s1.75,2.18,3.7,2.47,12.18-.29,12.18-.29l-4.17-3.61S263.29,445,260.12,447.91Z" style="fill:#3562F7;stroke:#263238;stroke-linecap:round;stroke-linejoin:round"></path><path d="M256.46,445s7.43-4.27,12.72-1.05" style="fill:none;stroke:#263238;stroke-linecap:round;stroke-linejoin:round"></path><path d="M254.67,442.05s5.19-4.05,11.3-1.83" style="fill:none;stroke:#263238;stroke-linecap:round;stroke-linejoin:round"></path><path d="M252.48,437.64s5.57-4.34,11.45-1.58" style="fill:none;stroke:#263238;stroke-linecap:round;stroke-linejoin:round"></path><path d="M251.72,432.13s6.76-3.64,11.69-.88" style="fill:none;stroke:#263238;stroke-linecap:round;stroke-linejoin:round"></path><path d="M242.72,455.43V458h4a7,7,0,0,1,6.7,0h18.79a13.67,13.67,0,0,0,5.74-1.29l-.4-1.28Z" style="fill:#3562F7;stroke:#263238;stroke-linecap:round;stroke-linejoin:round"></path><path d="M247.7,422.59l.9,5.61s10.45-3.39,16.22-1.19v-6.89S254.07,416.33,247.7,422.59Z" style="fill:#3562F7;stroke:#263238;stroke-linecap:round;stroke-linejoin:round"></path><path d="M245.49,437.77s0,6.26,3.79,8.35,8,4.31,8.44,9.28l-3.05,0s1-2.7-2.95-5-6.11-3.67-7.43-7.23Z" style="fill:#3562F7;stroke:#263238;stroke-linecap:round;stroke-linejoin:round"></path><path d="M232.29,423.38s5.54-3.95,17-3.16c0,0,.83,13.75,2.39,17.75s9.79,10.93,11.31,12.12,1.53,5.34,1.53,5.34H229.72a109.78,109.78,0,0,1,2.77-17.66Z" style="fill:#fff"></path><path d="M232.29,423.38s5.54-3.95,17-3.16c0,0,.83,13.75,2.39,17.75s9.79,10.93,11.31,12.12,1.53,5.34,1.53,5.34H229.72a109.78,109.78,0,0,1,2.77-17.66Z" style="fill:none;stroke:#263238;stroke-linecap:round;stroke-linejoin:round"></path><path d="M239.48,425.16s.82,12.66,2.78,16a23.13,23.13,0,0,0,3.86,5" style="fill:none;stroke:#263238;stroke-linecap:round;stroke-linejoin:round"></path><path d="M247.12,447.91s1.75,2.18,3.7,2.47,12.18-.29,12.18-.29l-4.17-3.61S250.29,445,247.12,447.91Z" style="fill:#3562F7;stroke:#263238;stroke-linecap:round;stroke-linejoin:round"></path><path d="M243.46,445s7.43-4.27,12.72-1.05" style="fill:none;stroke:#263238;stroke-linecap:round;stroke-linejoin:round"></path><path d="M241.67,442.05s5.19-4.05,11.3-1.83" style="fill:none;stroke:#263238;stroke-linecap:round;stroke-linejoin:round"></path><path d="M239.48,437.64s5.57-4.34,11.45-1.58" style="fill:none;stroke:#263238;stroke-linecap:round;stroke-linejoin:round"></path><path d="M238.72,432.13s6.76-3.64,11.69-.88" style="fill:none;stroke:#263238;stroke-linecap:round;stroke-linejoin:round"></path><path d="M229.72,455.43V458h4a7,7,0,0,1,6.7,0h18.79a13.67,13.67,0,0,0,5.74-1.29l-.4-1.28Z" style="fill:#3562F7;stroke:#263238;stroke-linecap:round;stroke-linejoin:round"></path><path d="M234.7,422.59l.9,5.61s10.45-3.39,16.22-1.19v-6.89S241.07,416.33,234.7,422.59Z" style="fill:#3562F7;stroke:#263238;stroke-linecap:round;stroke-linejoin:round"></path><path d="M232.49,437.77s0,6.26,3.79,8.35,8,4.31,8.44,9.28l-3.05,0s1-2.7-2.95-5-6.11-3.67-7.43-7.23Z" style="fill:#3562F7;stroke:#263238;stroke-linecap:round;stroke-linejoin:round"></path><path d="M213.2,258.42c-8.49,14.5,5.22,69.36,9.7,84.13,0,0-.54,20.15,2.63,31s9.17,43.41,9.17,43.41" style="fill:none;stroke:#fff;stroke-linecap:round;stroke-linejoin:round"></path><path d="M258,353.1s3.07-.14,6.07-3.43" style="fill:none;stroke:#fff;stroke-linecap:round;stroke-linejoin:round"></path><path d="M230.82,345.49s-.53,5.24,5.27,7.61" style="fill:none;stroke:#fff;stroke-linecap:round;stroke-linejoin:round"></path><path d="M250.48,274.24s7.07.53,12.43-3.43" style="fill:none;stroke:#fff;stroke-linecap:round;stroke-linejoin:round"></path><path d="M233.45,262.33s6.86,2.46,9.5,6.79" style="fill:none;stroke:#fff;stroke-linecap:round;stroke-linejoin:round"></path><path d="M243,272.54s-8.18.16-14.77-3.42" style="fill:none;stroke:#fff;stroke-linecap:round;stroke-linejoin:round"></path><path d="M256.84,247s-3.24,15.92-7.78,20.67" style="fill:none;stroke:#fff;stroke-linecap:round;stroke-linejoin:round"></path><path d="M233.45,240.74s-3.86,12.32-13.45,10.82" style="fill:none;stroke:#fff;stroke-linecap:round;stroke-linejoin:round"></path><path d="M273.12,244.11s1.74,10.06,4.64,10.08" style="fill:none;stroke:#fff;stroke-linecap:round;stroke-linejoin:round"></path><path d="M308.76,239c-3.54-1.22-5.77-8.51-7.48-16.41-1.18-5.47-2.12-11.23-3.07-15.47a30.26,30.26,0,0,0-1.41-4.87l8.7-29.45c5.33,2,10.43,38.13,12.45,50.63C320,236.3,315.71,241.32,308.76,239Z" style="fill:#fff"></path><g style="clip-path:url(#freepik--clip-path--inject-2)"><path d="M306,219.92a4.42,4.42,0,0,1-4.69,2.62c-1.18-5.47-2.12-11.23-3.07-15.47l4-7.32S309.13,213.2,306,219.92Z" style="fill:#3562F7;opacity:0.4"></path></g><path d="M308.76,239c-3.54-1.22-5.77-8.51-7.48-16.41-1.18-5.47-2.12-11.23-3.07-15.47a30.26,30.26,0,0,0-1.41-4.87l8.7-29.45c5.33,2,10.43,38.13,12.45,50.63C320,236.3,315.71,241.32,308.76,239Z" style="fill:none;stroke:#263238;stroke-linecap:round;stroke-linejoin:round"></path><path d="M297.74,124.3c5.88,6.53,12.21,36.37,6.78,49.21s-52.27,10.31-57,4.88,4.7-15.65,2.89-24.83-8.39-32.86,12.72-38.19A36.81,36.81,0,0,1,297.74,124.3Z" style="fill:#263238"></path><path d="M231.39,219.87s-.17-44.61,8.1-51.84c0,0,12.65-7.19,36.91-5.3a66.4,66.4,0,0,1,28.75,9.2c6.77,14.53-5.08,41.52-16.3,49.1l-10.74,11.3S280,239.51,269,242.7C246.41,249.23,216.06,236.06,231.39,219.87Z" style="fill:#3562F7"></path><g style="clip-path:url(#freepik--clip-path-2--inject-2)"><path d="M303.39,200c-3.53,9.15-9.11,17.36-14.54,21l-10.74,11.3a6.92,6.92,0,0,1-.77,4.67c-18,6.34-18.25-1-18.25-1,6.49,1,20.06-9,20.06-9s.11-2.17-4.48-4.72-16.53,1.56-16.53,1.56c5.77,5.54,10.64,4.94,8.64,6.78s-7.79-1-7.79-1-13.35-4.76-13.55,1,3.15,7.86,3.15,7.86a34.27,34.27,0,0,1-21-12.45,15,15,0,0,1,3.8-6.2,279.11,279.11,0,0,1,1.92-32.37L243,196c-.71.64,0,3.95,0,3.95s4.47,9.26,10.66,13.5,21.5-1.67,21.5-1.67c4.34,2.57,10.63,1.67,10.63,1.67l3.11-8.35C296.08,208.82,303,200.43,303.39,200Z" style="fill-opacity:0.7000000000000001;opacity:0.15"></path></g><path d="M231.39,219.87s-.17-44.61,8.1-51.84c0,0,12.65-7.19,36.91-5.3a66.4,66.4,0,0,1,28.75,9.2c6.77,14.53-5.08,41.52-16.3,49.1l-10.74,11.3S280,239.51,269,242.7C246.41,249.23,216.06,236.06,231.39,219.87Z" style="fill:none;stroke:#263238;stroke-linecap:round;stroke-linejoin:round"></path><path d="M255.87,162.3c-.72,4.88,9.23,29.09,21.34,30.92,17.51,2.66,20.19-18.24,18.57-23.12s-9.78-.94-6.93-13.92S255.87,162.3,255.87,162.3Z" style="fill:#fff;stroke:#263238;stroke-linecap:round;stroke-linejoin:round"></path><path d="M251.29,148.25s3.49,11.75,2.5,19.86-3.14,32.35,2.45,43.74l1.9,1.63a65.72,65.72,0,0,1-1.9-18.27s1.09,9.23,1.9,13.39a50.77,50.77,0,0,1,0-16.64c1.53-8.86,6.23-25.5,3.34-36.9S251.29,148.25,251.29,148.25Z" style="fill:#263238"></path><path d="M302.36,146s11.95,28.07,8.57,46.47-14.75,15.44-14.75,15.44,8.46,1.71,11.9-10.94-4.66-35.64-4.66-35.64Z" style="fill:#263238"></path><path d="M281.55,168.11s-2.9,6.67-7.51,8.47-7.16,1.07-9.2-4.23S281.55,168.11,281.55,168.11Z" style="fill:#263238"></path><path d="M285.17,164.77a12,12,0,0,1-4.82,6.15c-10.92,7.69-16.34,6.93-24.48-8.62-2.49-4.76-1.05-9.28-2.62-13.05-4.16-9.94-1.21-21,4.19-26.8,13.25-14.32,35.31-6.54,38.58,8.68,2.08,9.67-2.15,15.46-5.74,22.73" style="fill:#fff;stroke:#263238;stroke-linecap:round;stroke-linejoin:round"></path><path d="M263.65,141.86a8.93,8.93,0,0,1,9.76,1.25" style="fill:none;stroke:#263238;stroke-linecap:round;stroke-linejoin:round"></path><path d="M258.58,143.67c1.45,3.71.85,9.42-1.17,11.3-2.91,2.7.27,4.79,2.62,4.79" style="fill:none;stroke:#263238;stroke-linecap:round;stroke-linejoin:round"></path><path d="M270.7,148.17c.09,1.26-.38,2.32-1,2.36s-1.27-.94-1.36-2.2.38-2.32,1-2.37S270.61,146.9,270.7,148.17Z" style="fill:#263238"></path><path d="M257.21,148.17c.09,1.26-.37,2.32-1,2.36s-1.27-.94-1.35-2.2.37-2.32,1-2.37S257.13,146.9,257.21,148.17Z" style="fill:#263238"></path><path d="M251.56,143.11s.62-2.55,4.45-1.09" style="fill:none;stroke:#263238;stroke-linecap:round;stroke-linejoin:round"></path><path d="M261.48,163.65c2.17-.72,4.43,3,2.8,4.25s-2.08-3.61-2.08-3.61" style="fill:none;stroke:#263238;stroke-linecap:round;stroke-linejoin:round"></path><path d="M275.86,130.16c4.63,3.47-2.45,10.13,5.81,18.09l1.69,3.2s-.61-6.55,3.86-5.66S290.28,161,290.28,161l4.54-6.51s14.41-27.76-4.54-37.14c-22.91-11.33-31.89,2.05-31.89,2.05-10.24,5.91-11.06,17.3-6.39,26,0,0-1.16-7.18,1.79-13C256.24,127.63,267,123.57,275.86,130.16Z" style="fill:#263238"></path><path d="M285.77,147.28s3.14-4,6.39-3.61,3,6.21,1.93,8.05-3.86,7.38-5.67,7.5-2.89-.12-2.65-1.2" style="fill:#fff;stroke:#263238;stroke-linecap:round;stroke-linejoin:round"></path><path d="M278.06,129.08s-2.9,7.92-1.09,14c0,0-4.7-2.58-5.06-5.47,0,0-.32.22,0,2.41l-2.41-1.45a3.21,3.21,0,0,1-2.66-1.46c-.72-1.43-.6-8.79-.6-8.79s-2,7.23-6.82,10.1c0,0,4.23-4.15,4.23-7.2A24.1,24.1,0,0,1,256,138.6s-2.68-.46-4.72,3c0,0-4.77-9.84,2.5-15.39S278.06,129.08,278.06,129.08Z" style="fill:#263238"></path><path d="M286.67,162.41s-.9,12.82-6.69,20.42" style="fill:none;stroke:#263238;stroke-linecap:round;stroke-linejoin:round"></path><path d="M262.4,180.35s8,3.66,10,4.29a5,5,0,0,1,2.75,2.68" style="fill:none;stroke:#263238;stroke-linecap:round;stroke-linejoin:round"></path><path d="M294.82,180.81s-6.87,3.13-8.92,3.37-3,3.14-3,3.14" style="fill:none;stroke:#263238;stroke-linecap:round;stroke-linejoin:round"></path><path d="M269.5,175.69s5.42,4.51,6.51,7.65" style="fill:none;stroke:#263238;stroke-linecap:round;stroke-linejoin:round"></path><path d="M244,180.87c-1.19,10.5-6.53,16.87-8.7,16.88-1.42,0-1.39-5.14-1.39-5.14-4.8.9-14.68,4.34-21.46,6.82l-.6.22c-2.15.79-3.95,1.47-5.1,1.91l-.88.33-.52.2c1.51,2,3,4,4.39,6,5.24,7.5,10,15.25,15.69,23.2,4.66,6.55,3,9.9,0,13,0,0-8.11,7.7-10.48,7.14s-8.91-2.73-8.71-4.31,2.77-.6,2.77-.6a8.63,8.63,0,0,1,.4-2.23c.39-1.33,5.45-2,5.45-2a11.75,11.75,0,0,1,2.45-4.28s-15.58-16.21-23.17-21.55c-5.59-3.94-15.51-16.77-11.76-20.3,7-6.52,48.17-28.21,59.35-28.1C241.7,168.11,245.16,170.37,244,180.87Z" style="fill:#fff"></path><g style="clip-path:url(#freepik--clip-path-3--inject-2)"><path d="M209.71,208.14a25,25,0,0,1-11.15-3c3.36.23,6.76-3,6.76-3C206.83,204.09,208.29,206.1,209.71,208.14Z" style="fill:#3562F7;opacity:0.4"></path></g><path d="M244,180.87c-1.19,10.5-6.53,16.87-8.7,16.88-1.42,0-1.39-5.14-1.39-5.14-4.8.9-14.68,4.34-21.46,6.82l-.6.22c-2.15.79-3.95,1.47-5.1,1.91l-.88.33-.52.2c1.51,2,3,4,4.39,6,5.24,7.5,10,15.25,15.69,23.2,4.66,6.55,3,9.9,0,13,0,0-8.11,7.7-10.48,7.14s-8.91-2.73-8.71-4.31,2.77-.6,2.77-.6a8.63,8.63,0,0,1,.4-2.23c.39-1.33,5.45-2,5.45-2a11.75,11.75,0,0,1,2.45-4.28s-15.58-16.21-23.17-21.55c-5.59-3.94-15.51-16.77-11.76-20.3,7-6.52,48.17-28.21,59.35-28.1C241.7,168.11,245.16,170.37,244,180.87Z" style="fill:none;stroke:#263238;stroke-linecap:round;stroke-linejoin:round"></path><path d="M209,246.58a15.43,15.43,0,0,0,4.22.79" style="fill:none;stroke:#263238;stroke-linecap:round;stroke-linejoin:round"></path><path d="M212.89,242.7a1.31,1.31,0,0,1,0,1.65c-.61,1.05-1.22,1.18-1.22,1.18" style="fill:none;stroke:#263238;stroke-linecap:round;stroke-linejoin:round"></path><path d="M205.32,202.09s-4.45,4-8.9,3" style="fill:none;stroke:#263238;stroke-linecap:round;stroke-linejoin:round"></path><path d="M233.88,192.61s1.37-.34,2.57,1.68" style="fill:none;stroke:#263238;stroke-linecap:round;stroke-linejoin:round"></path><path d="M278.11,232.33s-22.09,7.46-27.63,1.21" style="fill:none;stroke:#263238;stroke-linecap:round;stroke-linejoin:round"></path><path d="M235.27,197.75s3.51,3.1,9.45-3.46" style="fill:none;stroke:#263238;stroke-linecap:round;stroke-linejoin:round"></path><path d="M240,206.13s6.59,19.39,21.49,24.53" style="fill:none;stroke:#263238;stroke-linecap:round;stroke-linejoin:round"></path><path d="M298.73,175.69s-9,27.84-26,29.44" style="fill:none;stroke:#263238;stroke-linecap:round;stroke-linejoin:round"></path><path d="M309.16,219.48c-5.46-6.84-26.21-23.2-26.21-23.2l-11-21.22s-4-4-5.15-4.16c-.83-.13-3.59,2-3.91,3.84-.19,1,1,4.95,1,4.95,2.16-.61,1.79-3.27,1.79-3.27l1.31-1,1.49,2.22s-4.49,3.92-4.71,5.31c-.14.89.93,2.39.93,2.39s-2,3.06-.76,5a10.24,10.24,0,0,0,5,4c4.07,7.23,9.87,9.19,9.87,9.19s23,39.62,33.78,35.59" style="fill:#fff;stroke:#263238;stroke-linecap:round;stroke-linejoin:round"></path><path d="M269,194.29s-1.3-3.08-1.15-4.53" style="fill:none;stroke:#263238;stroke-linecap:round;stroke-linejoin:round"></path><path d="M267.91,190.83s-1.85-.09-2.26-.69" style="fill:none;stroke:#263238;stroke-linecap:round;stroke-linejoin:round"></path><path d="M264.72,185.29a21.9,21.9,0,0,1,3.55-2.77" style="fill:none;stroke:#263238;stroke-linecap:round;stroke-linejoin:round"></path><g style="opacity:0.2"><path d="M276.4,117.59s-4.88,4-3.65,16.11" style="fill:none;stroke:#fff;stroke-linecap:round;stroke-linejoin:round"></path><path d="M271.75,116.34a27.27,27.27,0,0,0-9.35,9.31,19.19,19.19,0,0,1-8.61,8" style="fill:none;stroke:#fff;stroke-linecap:round;stroke-linejoin:round"></path><path d="M262.91,117.59s-7.48,6.85-10.15,7.43" style="fill:none;stroke:#fff;stroke-linecap:round;stroke-linejoin:round"></path><path d="M282.89,121.31s-.86,14.22,4.42,19.63" style="fill:none;stroke:#fff;stroke-linecap:round;stroke-linejoin:round"></path><path d="M290.28,124.3s.83,12,6.52,17.72,11.74,26.08,12.13,33.07" style="fill:none;stroke:#fff;stroke-linecap:round;stroke-linejoin:round"></path><path d="M296.18,153.2s2.34,7.47,1.41,12.64" style="fill:none;stroke:#fff;stroke-linecap:round;stroke-linejoin:round"></path><path d="M256.24,166.38s-1.11,13.94-1.64,18.91a61.93,61.93,0,0,0,0,10.5" style="fill:none;stroke:#fff;stroke-linecap:round;stroke-linejoin:round"></path></g></g><g id="freepik--choice-2--inject-2"><rect x="366.22" y="251.56" width="21.56" height="206.44" style="fill:#999"></rect><g style="clip-path:url(#freepik--clip-path-4--inject-2)"><path d="M387.78,251.56v35.13a80,80,0,0,1-21.56-13.63v-21.5Z" style="fill-opacity:0.7000000000000001;opacity:0.30000000000000004"></path></g><rect x="366.22" y="251.56" width="21.56" height="206.44" style="fill:none;stroke:#263238;stroke-linecap:round;stroke-linejoin:round"></rect><path d="M328.34,237.37v13c0,2.11,21.79,3.82,48.66,3.82s48.66-1.71,48.66-3.82v-13Z" style="fill:#999;stroke:#263238;stroke-linecap:round;stroke-linejoin:round"></path><path d="M425.66,237.37c0,2.11-21.79,3.82-48.66,3.82s-48.66-1.71-48.66-3.82,21.79-3.82,48.66-3.82S425.66,235.26,425.66,237.37Z" style="fill:#bfbfbf;stroke:#263238;stroke-miterlimit:10"></path><polygon points="348.12 237.74 387.45 240.74 405.88 237.74 405.88 189.52 369.91 187.52 348.12 190.52 348.12 237.74" style="fill:#3562F7;stroke:#263238;stroke-linecap:round;stroke-linejoin:round"></polygon><path d="M378.83,216.77a10.4,10.4,0,0,1-11.38,10.65,12.78,12.78,0,0,1-11.38-12.6,10.39,10.39,0,0,1,11.38-10.66A12.79,12.79,0,0,1,378.83,216.77Z" style="fill:#263238"></path><path d="M370.61,212.1v.49c0,1.4-.42,2.24-1.35,2.6v0a3,3,0,0,1,1.56,3v1.1c0,2.11-1.09,3.14-3.18,3l-3.3-.28V208.43l3.16.27C369.67,208.89,370.61,210,370.61,212.1Zm-4.17-1.54v3.59l.82.08c.78.06,1.25-.25,1.25-1.34v-.76c0-1-.32-1.42-1.06-1.49Zm0,5.54v4.18l1.2.11c.7.06,1.08-.24,1.08-1.25V218c0-1.26-.4-1.69-1.35-1.77Z" style="fill:#fff"></path><polyline points="387.45 240.74 387.45 193.45 355.07 191.48" style="fill:none;stroke:#263238;stroke-linecap:round;stroke-linejoin:round"></polyline><line x1="387.45" y1="193.45" x2="405.88" y2="189.52" style="fill:none;stroke:#263238;stroke-linecap:round;stroke-linejoin:round"></line><line x1="411.44" y1="203.69" x2="432.4" y2="203.41" style="fill:none;stroke:#263238;stroke-linecap:round;stroke-linejoin:round"></line><line x1="409.06" y1="185.29" x2="423.3" y2="175.69" style="fill:none;stroke:#263238;stroke-linecap:round;stroke-linejoin:round"></line><line x1="382.56" y1="177.47" x2="382.56" y2="157.42" style="fill:none;stroke:#263238;stroke-linecap:round;stroke-linejoin:round"></line><line x1="357.24" y1="177.47" x2="350.91" y2="165.84" style="fill:none;stroke:#263238;stroke-linecap:round;stroke-linejoin:round"></line><line x1="340.23" y1="196.39" x2="327.6" y2="193.92" style="fill:none;stroke:#263238;stroke-linecap:round;stroke-linejoin:round"></line><line x1="340.23" y1="215.79" x2="327.6" y2="219.92" style="fill:none;stroke:#263238;stroke-linecap:round;stroke-linejoin:round"></line><line x1="413.41" y1="219.92" x2="423.3" y2="223.88" style="fill:none;stroke:#263238;stroke-linecap:round;stroke-linejoin:round"></line></g><g id="freepik--choice-1--inject-2"><rect x="112.22" y="251.56" width="21.56" height="206.44" style="fill:#999"></rect><g style="clip-path:url(#freepik--clip-path-5--inject-2)"><path d="M133.78,251.56v35.13a80,80,0,0,1-21.56-13.63v-21.5Z" style="fill-opacity:0.7000000000000001;opacity:0.30000000000000004"></path></g><rect x="112.22" y="251.56" width="21.56" height="206.44" style="fill:none;stroke:#263238;stroke-linecap:round;stroke-linejoin:round"></rect><path d="M74.34,237.37v13c0,2.11,21.79,3.82,48.66,3.82s48.66-1.71,48.66-3.82v-13Z" style="fill:#999;stroke:#263238;stroke-linecap:round;stroke-linejoin:round"></path><path d="M171.66,237.37c0,2.11-21.79,3.82-48.66,3.82s-48.66-1.71-48.66-3.82,21.79-3.82,48.66-3.82S171.66,235.26,171.66,237.37Z" style="fill:#bfbfbf;stroke:#263238;stroke-miterlimit:10"></path><polygon points="151.88 237.74 112.55 240.74 94.12 237.74 94.12 189.52 130.09 187.52 151.88 190.52 151.88 237.74" style="fill:#3562F7;stroke:#263238;stroke-linecap:round;stroke-linejoin:round"></polygon><ellipse cx="132.46" cy="215.79" rx="11.92" ry="11.15" transform="translate(-119.61 191.89) rotate(-53.04)" style="fill:#263238"></ellipse><path d="M136.15,222.07l-2.13.14-.36-2.44-2.59.17-.36,2.49-1.93.13,2.14-13.76,3.08-.2Zm-4.81-4,2-.13-1-6.83h0Z" style="fill:#fff"></path><polyline points="112.55 240.74 112.55 193.45 144.99 191.48" style="fill:none;stroke:#263238;stroke-linecap:round;stroke-linejoin:round"></polyline><line x1="112.55" y1="193.45" x2="94.12" y2="189.52" style="fill:none;stroke:#263238;stroke-linecap:round;stroke-linejoin:round"></line><line x1="88.56" y1="203.69" x2="67.6" y2="203.41" style="fill:none;stroke:#263238;stroke-linecap:round;stroke-linejoin:round"></line><line x1="90.94" y1="185.29" x2="76.7" y2="175.69" style="fill:none;stroke:#263238;stroke-linecap:round;stroke-linejoin:round"></line><line x1="117.44" y1="177.47" x2="117.44" y2="157.42" style="fill:none;stroke:#263238;stroke-linecap:round;stroke-linejoin:round"></line><line x1="142.76" y1="177.47" x2="149.09" y2="165.84" style="fill:none;stroke:#263238;stroke-linecap:round;stroke-linejoin:round"></line><line x1="159.77" y1="196.39" x2="172.4" y2="193.92" style="fill:none;stroke:#263238;stroke-linecap:round;stroke-linejoin:round"></line><line x1="159.77" y1="215.79" x2="172.4" y2="219.92" style="fill:none;stroke:#263238;stroke-linecap:round;stroke-linejoin:round"></line><line x1="86.59" y1="219.92" x2="76.7" y2="223.88" style="fill:none;stroke:#263238;stroke-linecap:round;stroke-linejoin:round"></line></g></svg>