<svg viewBox="0 0 59 83" fill="none" xmlns="http://www.w3.org/2000/svg">
<path d="M55.4997 10L46.4997 3H44C30.6666 5.83333 3.69971 11.7 2.49971 12.5C1.29971 13.3 8.66638 21.1667 12.4997 25L55.4997 18V10Z" fill="#F9F9F7" style="fill:#F9F9F7;fill:color(display-p3 0.9765 0.9765 0.9686);fill-opacity:1;"/>
<path d="M55.4714 9.06828L14.3253 18.711C13.4335 18.9228 12.486 18.7556 11.7279 18.2317L6.1318 14.4638C5.55212 14.0736 5.71933 13.1929 6.38819 13.0257L46.7539 3.57248C47.8687 3.30493 48.1474 1.83344 47.1887 1.18688L46.2189 0.529162C45.4943 0.0498117 44.6024 -0.117404 43.7664 0.0832547L2.53109 9.74829C1.0596 10.0939 0.0117188 11.4093 0.0117188 12.9142L0.0563095 71.774C0.0563095 73.8809 1.10419 75.854 2.85438 77.0357L8.97445 81.1603C10.4459 82.1525 12.2519 82.4869 13.9798 82.0856L54.5462 72.5766C56.7534 72.0527 58.3141 70.0795 58.3141 67.8166V11.3201C58.3141 9.82633 56.9206 8.73385 55.4714 9.06828ZM44.1008 29.1118C38.7499 25.3773 33.3433 23.8835 32.039 25.7675C30.7236 27.6515 34.0121 32.1997 39.363 35.923C44.7139 39.6464 50.1205 41.1402 51.4248 39.2562C52.7402 37.3834 49.4628 32.8351 44.1008 29.1118ZM37.6351 57.4827C36.8214 58.6755 36.0187 59.8794 35.2161 61.0611C36.0299 59.8794 36.8325 58.6755 37.6463 57.4827H37.6351ZM28.7393 67.2369C28.5386 67.5379 28.3603 67.85 28.1708 68.151C28.3603 67.85 28.5498 67.5379 28.7504 67.2369H28.7393ZM26.6658 70.3025C26.5878 70.3917 26.4763 70.4809 26.3648 70.5589C26.4875 70.492 26.5878 70.4028 26.677 70.3136C26.7662 70.2245 26.8442 70.1241 26.8999 70.0238C26.833 70.1241 26.7439 70.2133 26.6658 70.3025ZM25.4396 66.0329C26.0527 66.3451 26.6993 66.6015 27.3681 66.8244C26.6993 66.6015 26.0638 66.3339 25.4396 66.0329ZM51.4248 39.2562C50.1205 41.1402 44.7139 39.6464 39.363 35.923C34.0121 32.1997 30.7236 27.6515 32.039 25.7675C33.3433 23.8835 38.7499 25.3773 44.1008 29.1118C49.4628 32.8351 52.7402 37.3834 51.4248 39.2562ZM51.4248 39.2562C50.1205 41.1402 44.7139 39.6464 39.363 35.923C34.0121 32.1997 30.7236 27.6515 32.039 25.7675C33.3433 23.8835 38.7499 25.3773 44.1008 29.1118C49.4628 32.8351 52.7402 37.3834 51.4248 39.2562Z" fill="#F9F9F7" style="fill:#F9F9F7;fill:color(display-p3 0.9765 0.9765 0.9686);fill-opacity:1;"/>
<path d="M55.4714 9.06829L14.3253 18.711C13.4335 18.9228 12.486 18.7556 11.7279 18.2317L6.13179 14.4638C5.55212 14.0736 5.71933 13.1929 6.38819 13.0257L46.7539 3.57248C47.8687 3.30493 48.1474 1.83344 47.1887 1.18688L46.2189 0.529162C45.4943 0.0498117 44.6024 -0.117404 43.7664 0.0832547L2.53109 9.74829C1.0596 10.0939 0.0117188 11.4093 0.0117188 12.9142L0.0563095 71.774C0.0563095 73.8809 1.10419 75.854 2.85438 77.0357L8.97445 81.1603C10.4459 82.1525 12.2519 82.4869 13.9798 82.0856L54.5462 72.5766C56.7534 72.0527 58.3141 70.0795 58.3141 67.8166V11.3201C58.3141 9.82633 56.9206 8.73385 55.4714 9.06829ZM27.4908 69.2323C27.3012 69.511 27.1117 69.7786 26.8999 70.0238C26.833 70.1241 26.7439 70.2133 26.6658 70.3025C26.5878 70.3917 26.4763 70.4809 26.3648 70.5589C25.9412 70.8153 25.3392 70.9379 24.871 70.8822C24.5255 70.8376 24.191 70.7707 23.8566 70.6927C23.5333 70.6035 23.21 70.5032 22.8979 70.3917C22.5969 70.2802 22.2959 70.1464 22.0061 70.0015C21.1254 69.5556 20.3228 68.9536 19.6093 68.2179C19.3752 67.9726 19.1411 67.7051 18.9182 67.4375C18.6952 67.1588 18.4834 66.869 18.2828 66.5569C17.7254 65.6985 17.6473 64.7844 18.1601 63.848C18.6172 63.0119 18.9962 62.1089 19.4644 61.1168C21.2035 63.3018 23.1655 64.9293 25.4396 66.0329C26.0527 66.3451 26.6993 66.6015 27.3681 66.8244C27.814 66.9805 28.2711 67.1143 28.7393 67.2369C28.5386 67.5379 28.3603 67.85 28.1708 68.151C27.9478 68.5189 27.7249 68.8867 27.4908 69.2323ZM32.7302 64.5726C32.3623 65.0631 31.4036 65.3306 30.757 65.2414C30.4337 65.1969 30.1216 65.1411 29.8095 65.0742C29.6423 65.0408 29.4862 65.0073 29.319 64.9628C28.9957 64.8847 28.6724 64.7955 28.3603 64.6952C28.0035 64.5837 27.658 64.4723 27.3235 64.3273C27.2455 64.305 27.1786 64.2716 27.1006 64.2382C26.7773 64.1044 26.454 63.9595 26.1419 63.8034C25.8186 63.6362 25.4953 63.4578 25.172 63.246C25.1274 63.2349 25.0829 63.2014 25.0494 63.168C24.7373 62.9785 24.4251 62.7778 24.1242 62.5437C23.8343 62.3319 23.5556 62.109 23.2881 61.8637C23.2323 61.8191 23.1766 61.7745 23.1209 61.7188C22.8422 61.4847 22.5746 61.2171 22.3071 60.9496C21.9169 60.5483 21.549 60.1358 21.1923 59.6899C20.8356 59.244 20.49 58.7758 20.1667 58.2741C19.5759 57.3823 19.509 56.3902 19.9995 55.3423C21.1254 52.9456 22.1845 50.4931 23.2881 48.0071C27.4127 52.4105 32.1505 55.5318 37.6463 57.4827C36.8325 58.6755 36.0299 59.8794 35.2272 61.0611C34.4246 62.2539 33.5997 63.4355 32.7413 64.5726H32.7302ZM53.8327 41.4969C51.9153 44.1166 46.4195 51.4741 44.5467 54.1272C43.7998 55.1974 42.83 55.5987 41.6372 55.543C41.0129 55.5095 40.3775 55.4203 39.7643 55.242C34.0679 53.5364 29.1852 50.259 24.9156 45.8556C24.191 45.1087 23.5891 44.2169 23.0428 43.3028C22.374 42.188 22.2513 41.0287 22.7976 39.7578C24.0684 36.7703 27.3347 28.3984 28.6167 25.2101C28.6167 25.1544 28.6501 25.0986 28.6724 25.0541H28.6836C28.7839 24.7865 28.9288 24.5301 29.096 24.2849C31.5597 20.7399 39.0955 21.7209 45.929 26.481C52.7625 31.2299 56.3075 37.9519 53.8327 41.4969ZM44.1008 29.1118C38.7499 25.3773 33.3433 23.8836 32.039 25.7675C30.7236 27.6515 34.0121 32.1997 39.363 35.923C44.7139 39.6464 50.1205 41.1402 51.4248 39.2562C52.7402 37.3834 49.4628 32.8351 44.1008 29.1118ZM37.6351 57.4827C36.8214 58.6755 36.0187 59.8794 35.2161 61.0611C36.0299 59.8794 36.8325 58.6755 37.6463 57.4827H37.6351ZM28.7393 67.2369C28.5386 67.5379 28.3603 67.85 28.1708 68.151C28.3603 67.85 28.5498 67.5379 28.7504 67.2369H28.7393ZM26.6658 70.3025C26.5878 70.3917 26.4763 70.4809 26.3648 70.5589C26.4875 70.492 26.5878 70.4028 26.677 70.3136C26.7662 70.2245 26.8442 70.1241 26.8999 70.0238C26.833 70.1241 26.7439 70.2133 26.6658 70.3025ZM25.4396 66.0329C26.0527 66.3451 26.6993 66.6015 27.3681 66.8244C26.6993 66.6015 26.0638 66.3339 25.4396 66.0329ZM51.4248 39.2562C50.1205 41.1402 44.7139 39.6464 39.363 35.923C34.0121 32.1997 30.7236 27.6515 32.039 25.7675C33.3433 23.8836 38.7499 25.3773 44.1008 29.1118C49.4628 32.8351 52.7402 37.3834 51.4248 39.2562ZM51.4248 39.2562C50.1205 41.1402 44.7139 39.6464 39.363 35.923C34.0121 32.1997 30.7236 27.6515 32.039 25.7675C33.3433 23.8836 38.7499 25.3773 44.1008 29.1118C49.4628 32.8351 52.7402 37.3834 51.4248 39.2562Z" fill="#3562F7" style="fill:#3562F7;fill:color(display-p3 0.2081 0.3825 0.9673);fill-opacity:1;"/>
</svg>
