<svg width="635" height="131" viewBox="0 0 635 131" fill="none" xmlns="http://www.w3.org/2000/svg">
<path d="M97.8247 14.3603L32.6667 29.6304C31.2545 29.9658 29.7539 29.701 28.5535 28.8713L19.6916 22.9045C18.7736 22.2866 19.0384 20.892 20.0976 20.6272L84.0199 5.65729C85.7852 5.23362 86.2266 2.90339 84.7084 1.87951L83.1726 0.837969C82.0251 0.0788806 80.6128 -0.185918 79.2888 0.13184L13.9896 15.4372C11.6594 15.9844 10 18.0675 10 20.4507L10.0706 113.66C10.0706 116.996 11.73 120.121 14.5016 121.992L24.1932 128.524C26.5234 130.095 29.3832 130.624 32.1195 129.989L96.3595 114.931C99.8548 114.101 102.326 110.976 102.326 107.393V17.9263C102.326 15.5607 100.12 13.8307 97.8247 14.3603ZM53.5152 109.635C53.2151 110.076 52.915 110.5 52.5795 110.888C52.4736 111.047 52.3324 111.188 52.2088 111.329C52.0853 111.471 51.9087 111.612 51.7322 111.735C51.0614 112.141 50.1081 112.336 49.3667 112.247C48.8194 112.177 48.2898 112.071 47.7602 111.947C47.2483 111.806 46.7363 111.647 46.242 111.471C45.7654 111.294 45.2888 111.082 44.8298 110.853C43.4352 110.147 42.1641 109.193 41.0343 108.028C40.6636 107.64 40.2929 107.216 39.9398 106.793C39.5868 106.351 39.2514 105.892 38.9336 105.398C38.0509 104.039 37.9274 102.591 38.7394 101.108C39.4632 99.7842 40.0634 98.3543 40.8049 96.7832C43.5588 100.243 46.6657 102.821 50.267 104.568C51.2379 105.063 52.2618 105.469 53.321 105.822C54.0271 106.069 54.7509 106.281 55.4923 106.475C55.1746 106.951 54.8921 107.446 54.592 107.922C54.2389 108.505 53.8859 109.087 53.5152 109.635ZM61.8122 102.256C61.2296 103.032 59.7114 103.456 58.6875 103.315C58.1756 103.244 57.6813 103.156 57.187 103.05C56.9222 102.997 56.6751 102.944 56.4103 102.874C55.8983 102.75 55.3864 102.609 54.8921 102.45C54.3272 102.273 53.78 102.097 53.2504 101.867C53.1268 101.832 53.0209 101.779 52.8973 101.726C52.3854 101.514 51.8734 101.285 51.3791 101.038C50.8672 100.773 50.3552 100.49 49.8433 100.155C49.7727 100.137 49.7021 100.084 49.6491 100.031C49.1548 99.7312 48.6605 99.4135 48.1839 99.0428C47.7249 98.7074 47.2836 98.3543 46.8599 97.9659C46.7716 97.8953 46.6834 97.8247 46.5951 97.7364C46.1538 97.3657 45.7301 96.942 45.3064 96.5184C44.6886 95.8828 44.106 95.2297 43.5411 94.5235C42.9762 93.8174 42.4289 93.076 41.917 92.2816C40.9814 90.8693 40.8755 89.2982 41.6522 87.6388C43.4352 83.8434 45.1122 79.9596 46.8599 76.023C53.3916 82.996 60.8942 87.9389 69.5972 91.0282C68.3085 92.9171 67.0375 94.8236 65.7665 96.6949C64.4955 98.5838 63.1891 100.455 61.8298 102.256H61.8122ZM95.2297 65.7135C92.1933 69.862 83.4903 81.5131 80.5246 85.7146C79.3418 87.4093 77.806 88.0448 75.9171 87.9566C74.9285 87.9036 73.9223 87.7624 72.9513 87.4799C63.9306 84.779 56.1984 79.5889 49.4373 72.6159C48.2898 71.4332 47.3365 70.0209 46.4715 68.5733C45.4123 66.808 45.2182 64.9721 46.0832 62.9596C48.0956 58.2285 53.268 44.971 55.2981 39.9222C55.2981 39.8339 55.3511 39.7456 55.3864 39.675H55.4041C55.5629 39.2513 55.7924 38.8453 56.0572 38.457C59.9586 32.8432 71.8921 34.3967 82.7136 41.9346C93.535 49.4549 99.1487 60.0998 95.2297 65.7135ZM79.8184 46.1008C71.3449 40.187 62.7831 37.8214 60.7177 40.8048C58.6346 43.7882 63.8423 50.9907 72.3158 56.8869C80.7894 62.7831 89.3512 65.1486 91.4166 62.1652C93.4997 59.1995 88.3096 51.997 79.8184 46.1008ZM69.5796 91.0282C68.2909 92.9171 67.0199 94.8236 65.7488 96.6949C67.0375 94.8236 68.3085 92.9171 69.5972 91.0282H69.5796ZM55.4923 106.475C55.1746 106.951 54.8921 107.446 54.592 107.922C54.8921 107.446 55.1922 106.951 55.51 106.475H55.4923ZM52.2088 111.329C52.0853 111.471 51.9087 111.612 51.7322 111.735C51.9264 111.63 52.0853 111.488 52.2265 111.347C52.3677 111.206 52.4913 111.047 52.5795 110.888C52.4736 111.047 52.3324 111.188 52.2088 111.329ZM50.267 104.568C51.2379 105.063 52.2618 105.469 53.321 105.822C52.2618 105.469 51.2555 105.045 50.267 104.568ZM91.4166 62.1652C89.3512 65.1486 80.7894 62.7831 72.3158 56.8869C63.8423 50.9907 58.6346 43.7882 60.7177 40.8048C62.7831 37.8214 71.3449 40.187 79.8184 46.1008C88.3096 51.997 93.4997 59.1995 91.4166 62.1652ZM91.4166 62.1652C89.3512 65.1486 80.7894 62.7831 72.3158 56.8869C63.8423 50.9907 58.6346 43.7882 60.7177 40.8048C62.7831 37.8214 71.3449 40.187 79.8184 46.1008C88.3096 51.997 93.4997 59.1995 91.4166 62.1652Z" fill="#F5F5F5" style="fill:#F5F5F5;fill:color(display-p3 0.9625 0.9625 0.9625);fill-opacity:1;"/>
<path d="M186.886 87.7625C180.936 93.6587 173.699 96.6068 165.154 96.6068C156.61 96.6068 149.372 93.6587 143.423 87.7625C137.527 81.7605 134.579 74.4873 134.579 65.9608C134.579 57.4343 137.527 50.1259 143.423 44.2297C149.372 38.2806 156.61 35.2972 165.154 35.2972C173.699 35.2972 180.919 38.2806 186.886 44.2297C192.835 50.1259 195.818 57.3637 195.818 65.9608C195.818 74.5579 192.835 81.8134 186.886 87.7625ZM151.597 79.8539C155.18 83.4552 159.7 85.2381 165.154 85.2381C170.609 85.2381 175.111 83.4375 178.712 79.8539C182.366 76.1997 184.185 71.5746 184.185 65.9608C184.185 60.3471 182.366 55.722 178.712 52.0678C175.058 48.4135 170.539 46.5953 165.154 46.5953C159.77 46.5953 155.251 48.4135 151.597 52.0678C147.943 55.722 146.124 60.3471 146.124 65.9608C146.124 71.5746 147.943 76.1997 151.597 79.8539Z" fill="#F5F5F5" style="fill:#F5F5F5;fill:color(display-p3 0.9625 0.9625 0.9625);fill-opacity:1;"/>
<path d="M196.224 36.48H239.58V47.6015H223.675V95.424H212.059V47.6015H196.224V36.48Z" fill="#F5F5F5" style="fill:#F5F5F5;fill:color(display-p3 0.9625 0.9625 0.9625);fill-opacity:1;"/>
<path d="M278.823 78.8477H247.083C248.478 84.126 252.45 86.7563 258.964 86.7563C263.112 86.7563 266.254 85.3617 268.39 82.5372L277.146 87.586C272.998 93.5881 266.872 96.5891 258.787 96.5891C251.832 96.5891 246.236 94.4884 242.034 90.2693C237.833 86.0502 235.714 80.7542 235.714 74.3638C235.714 67.9733 237.797 62.8009 241.946 58.5288C246.041 54.2568 251.373 52.1384 257.94 52.1384C264.507 52.1384 269.255 54.2744 273.174 58.5288C277.217 62.8009 279.229 68.0792 279.229 74.3638C279.229 75.5465 279.088 77.0294 278.806 78.83L278.823 78.8477ZM246.906 70.4271H268.373C267.755 67.6732 266.502 65.5725 264.63 64.1072C262.741 62.642 260.517 61.9182 257.94 61.9182C255.027 61.9182 252.608 62.6597 250.702 64.1426C248.795 65.6254 247.524 67.7262 246.906 70.4094V70.4271Z" fill="#F5F5F5" style="fill:#F5F5F5;fill:color(display-p3 0.9625 0.9625 0.9625);fill-opacity:1;"/>
<path d="M297.677 95.424H286.82V33.9556H297.677V95.424Z" fill="#F5F5F5" style="fill:#F5F5F5;fill:color(display-p3 0.9625 0.9625 0.9625);fill-opacity:1;"/>
<path d="M374.045 95.424H361.493L349.613 74.964H340.769V95.424H329.153V36.48H352.72C358.157 36.48 362.8 38.3865 366.613 42.1996C370.426 46.0127 372.332 50.6202 372.332 56.0044C372.332 59.6586 371.291 63.0304 369.226 66.155C367.142 69.262 364.406 71.6099 360.981 73.181L374.027 95.4064L374.045 95.424ZM352.755 47.3544H340.804V64.7781H352.755C354.944 64.7781 356.833 63.9307 358.404 62.2184C359.975 60.506 360.77 58.4406 360.77 56.0221C360.77 53.6036 359.975 51.5558 358.404 49.8788C356.833 48.2017 354.944 47.3544 352.755 47.3544Z" fill="#F5F5F5" style="fill:#F5F5F5;fill:color(display-p3 0.9625 0.9625 0.9625);fill-opacity:1;"/>
<path d="M419.184 78.8477H387.444C388.838 84.126 392.81 86.7563 399.324 86.7563C403.473 86.7563 406.615 85.3617 408.751 82.5372L417.507 87.586C413.359 93.5881 407.233 96.5891 399.148 96.5891C392.192 96.5891 386.596 94.4884 382.395 90.2693C378.193 86.0502 376.075 80.7542 376.075 74.3638C376.075 67.9733 378.158 62.8009 382.307 58.5288C386.402 54.2568 391.733 52.1384 398.3 52.1384C404.867 52.1384 409.616 54.2744 413.535 58.5288C417.578 62.8009 419.59 68.0792 419.59 74.3638C419.59 75.5465 419.449 77.0294 419.166 78.83L419.184 78.8477ZM387.267 70.4271H408.733C408.116 67.6732 406.862 65.5725 404.991 64.1072C403.102 62.642 400.878 61.9182 398.3 61.9182C395.388 61.9182 392.969 62.6597 391.063 64.1426C389.156 65.6254 387.885 67.7262 387.267 70.4094V70.4271Z" fill="#F5F5F5" style="fill:#F5F5F5;fill:color(display-p3 0.9625 0.9625 0.9625);fill-opacity:1;"/>
<path d="M446.882 96.6068C440.544 96.6068 435.231 94.4708 430.976 90.2163C426.775 85.9443 424.657 80.666 424.657 74.3814C424.657 68.0969 426.757 62.8186 430.976 58.5465C435.249 54.2744 440.544 52.156 446.882 52.156C450.978 52.156 454.72 53.1446 458.074 55.1041C461.446 57.0636 463.988 59.7116 465.736 63.0127L456.397 68.4852C455.55 66.7376 454.279 65.3606 452.566 64.3544C450.854 63.3482 448.93 62.8362 446.794 62.8362C443.546 62.8362 440.845 63.9131 438.709 66.0844C436.573 68.2381 435.513 71.0097 435.513 74.3814C435.513 77.7532 436.573 80.3835 438.709 82.6255C440.845 84.7615 443.528 85.8207 446.794 85.8207C448.983 85.8207 450.925 85.3264 452.637 84.3555C454.349 83.3669 455.62 82.0076 456.468 80.2776L465.895 85.6618C464.041 89.0336 461.411 91.6992 458.021 93.6587C454.632 95.6182 450.907 96.6068 446.864 96.6068H446.882Z" fill="#F5F5F5" style="fill:#F5F5F5;fill:color(display-p3 0.9625 0.9625 0.9625);fill-opacity:1;"/>
<path d="M477.034 48.2723C475.233 48.2723 473.68 47.6191 472.356 46.2952C471.032 44.9712 470.378 43.4177 470.378 41.6171C470.378 39.8164 471.032 38.2453 472.356 36.9037C473.68 35.562 475.233 34.8912 477.034 34.8912C478.834 34.8912 480.476 35.562 481.782 36.9037C483.106 38.2453 483.76 39.8164 483.76 41.6171C483.76 43.4177 483.106 44.9712 481.782 46.2952C480.458 47.6191 478.87 48.2723 477.034 48.2723ZM482.506 95.424H471.649V53.3211H482.506V95.424Z" fill="#F5F5F5" style="fill:#F5F5F5;fill:color(display-p3 0.9625 0.9625 0.9625);fill-opacity:1;"/>
<path d="M516.93 52.156C522.597 52.156 527.434 54.3097 531.406 58.6348C535.448 62.9598 537.461 68.2028 537.461 74.3814C537.461 80.56 535.448 85.9443 531.406 90.2163C527.469 94.4884 522.65 96.6068 516.93 96.6068C511.21 96.6068 506.497 94.559 503.284 90.4635V112.265H492.427V53.3211H503.284V58.2817C506.479 54.1861 511.034 52.1384 516.93 52.1384V52.156ZM506.585 82.9609C508.774 85.1499 511.546 86.2444 514.917 86.2444C518.289 86.2444 521.061 85.1499 523.25 82.9609C525.492 80.7189 526.622 77.8591 526.622 74.3814C526.622 70.9037 525.492 68.0616 523.25 65.8726C521.061 63.6306 518.289 62.5008 514.917 62.5008C511.546 62.5008 508.774 63.6306 506.585 65.8726C504.396 68.0616 503.302 70.9037 503.302 74.3814C503.302 77.8591 504.396 80.7189 506.585 82.9609Z" fill="#F5F5F5" style="fill:#F5F5F5;fill:color(display-p3 0.9625 0.9625 0.9625);fill-opacity:1;"/>
<path d="M586.06 78.8477H554.319C555.714 84.126 559.686 86.7563 566.2 86.7563C570.349 86.7563 573.491 85.3617 575.627 82.5372L584.383 87.586C580.234 93.5881 574.109 96.5891 566.023 96.5891C559.068 96.5891 553.472 94.4884 549.271 90.2693C545.069 86.0502 542.951 80.7542 542.951 74.3638C542.951 67.9733 545.034 62.8009 549.182 58.5288C553.278 54.2568 558.609 52.1384 565.176 52.1384C571.743 52.1384 576.492 54.2744 580.411 58.5288C584.453 62.8009 586.466 68.0792 586.466 74.3638C586.466 75.5465 586.325 77.0294 586.042 78.83L586.06 78.8477ZM554.143 70.4271H575.609C574.991 67.6732 573.738 65.5725 571.867 64.1072C569.978 62.642 567.753 61.9182 565.176 61.9182C562.263 61.9182 559.845 62.6597 557.938 64.1426C556.032 65.6254 554.761 67.7262 554.143 70.4094V70.4271Z" fill="#F5F5F5" style="fill:#F5F5F5;fill:color(display-p3 0.9625 0.9625 0.9625);fill-opacity:1;"/>
<path d="M602.389 65.29C602.389 67.0906 604.949 68.6265 610.051 69.9151C611.851 70.3035 613.475 70.7802 614.941 71.3098C616.406 71.8394 617.871 72.5984 619.354 73.587C620.837 74.5756 622.002 75.8819 622.849 77.506C623.697 79.1301 624.12 81.019 624.12 83.1551C624.12 87.4801 622.496 90.8165 619.23 93.1821C615.982 95.477 611.957 96.6421 607.191 96.6421C598.541 96.6421 592.645 93.3057 589.502 86.6151L598.929 81.3191C600.218 84.9733 602.972 86.7916 607.173 86.7916C611.039 86.7916 612.981 85.5912 612.981 83.1727C612.981 81.3721 610.421 79.8363 605.32 78.5476C603.413 78.0356 601.789 77.5413 600.43 77.0294C599.088 76.5175 597.623 75.776 596.052 74.8051C594.48 73.8165 593.28 72.5631 592.468 71.0097C591.656 69.4738 591.25 67.6555 591.25 65.5725C591.25 61.424 592.768 58.1581 595.804 55.8102C598.894 53.3918 602.707 52.1913 607.261 52.1913C610.686 52.1913 613.793 52.9681 616.6 54.5039C619.407 56.0574 621.631 58.2464 623.255 61.1062L613.987 66.155C612.646 63.2952 610.386 61.8653 607.244 61.8653C605.831 61.8653 604.684 62.183 603.748 62.8362C602.83 63.4894 602.354 64.3014 602.354 65.3253L602.389 65.29Z" fill="#F5F5F5" style="fill:#F5F5F5;fill:color(display-p3 0.9625 0.9625 0.9625);fill-opacity:1;"/>
</svg>
