<?xml version="1.0" encoding="utf-8"?>
<!-- Generator: Adobe Illustrator 24.0.1, SVG Export Plug-In . SVG Version: 6.00 Build 0)  -->
<svg version="1.1" id="Layer_1" xmlns="http://www.w3.org/2000/svg" xmlns:xlink="http://www.w3.org/1999/xlink" x="0px" y="0px"
	 viewBox="0 0 114.71 106.59" style="enable-background:new 0 0 114.71 106.59;" xml:space="preserve">
<style type="text/css">
	.st0{fill:url(#SVGID_1_);}
	.st1{fill:#FFFFFF;}
</style>
<linearGradient id="SVGID_1_" gradientUnits="userSpaceOnUse" x1="0.8638" y1="54.2074" x2="113.6449" y2="54.2074" gradientTransform="matrix(1 0 0 -1 0 107.7647)">
	<stop  offset="0" style="stop-color:#5222D0"/>
	<stop  offset="0.3301" style="stop-color:#8F3BA1"/>
	<stop  offset="0.6381" style="stop-color:#C1507B"/>
	<stop  offset="0.8703" style="stop-color:#E05C64"/>
	<stop  offset="1" style="stop-color:#EC615B"/>
</linearGradient>
<path class="st0" d="M112.27,60.47c0-1.9-0.75-3.7-2.12-5.26c1.37-1.56,2.12-3.35,2.12-5.26c0-1.68-0.58-3.27-1.65-4.69
	c4.31-3.47,4.01-8.6-0.89-11.84L66.7,4.96c-5.22-3.45-13.68-3.45-18.89,0L4.77,33.43c-2.9,1.91-4.18,4.49-3.86,6.99V66.7
	c-0.32,2.5,0.96,5.08,3.86,6.99l43.03,28.46c5.22,3.45,13.68,3.45,18.89,0l43.03-28.46c4.39-2.9,5.07-7.32,2.08-10.7
	C112.1,62.18,112.27,61.34,112.27,60.47z M109.09,60.77c-0.12,1.59-1.16,3.13-3,4.34L65.08,92.23c-4.41,2.91-11.86,2.92-16.27,0
	L9.72,66.38v-6.73l37.35,24.7c2.77,1.83,6.32,2.75,9.87,2.75s7.1-0.91,9.87-2.75l38.96-25.76l1.99-1.31
	c0.87,0.99,1.35,2.08,1.35,3.2C109.11,60.58,109.1,60.67,109.09,60.77z M107.77,53.16c-0.34,0.38-0.74,0.75-1.2,1.09
	c-0.15,0.11-0.3,0.23-0.47,0.34l-0.94,0.62l-2.23,1.48L65.09,81.71c-4.41,2.91-11.86,2.91-16.27,0L11.28,56.89l-1.55-1.03v-1.3
	v-1.89v-1.89v-1.59l1.2,0.79l1.43,0.95l1.42,0.95l2.54,1.68L47.8,74.38c5.22,3.45,13.68,3.45,18.89,0l31.48-20.82l2.24-1.48
	l1.43-0.95l1.43-0.94l4.74-3.14c0.71,0.91,1.1,1.9,1.1,2.91C109.11,51.08,108.64,52.18,107.77,53.16z"/>
<path class="st1" d="M89.47,34.98c-8.53-2.15-17.07-4.29-25.6-6.45c-0.63-0.16-1.33-0.23-1.7,0.13c-0.56,0.55-1.09,0.32-1.71,0.17
	c-3.54-0.89-7.07-1.78-10.61-2.67c-0.58-0.14-1.23-0.37-1.74-0.05c-0.64,0.4-1.18,0.21-1.8,0.06c-3.05-0.77-6.11-1.52-9.15-2.31
	c-1.23-0.32-2-0.08-2.43,0.77c-0.5,0.99-1.03,1.98-1.53,2.97c-0.61,1.2-0.36,1.57,1.37,2.01c3,0.76,6.02,1.5,9.02,2.27
	c0.4,0.1,0.96,0.1,1.03,0.56c0.09,0.59,0.74,0.8,1.42,0.97c0.97,0.24,1.95,0.49,2.92,0.72c0.46,0.11,0.9,0.16,0.48,0.65
	c-0.45,0.52-0.17,1,0.44,1.41c0.8,0.54,1.57,1.1,2.48,1.73c-0.5,0.14-0.79,0.22-1.09,0.29c-3.86,0.94-7.72,1.89-11.58,2.83
	c-3.77,0.92-7.54,1.86-11.31,2.76c-0.98,0.24-1.44,0.69-1.12,1.35c0.32,0.66,1.11,0.85,2.07,0.61c0.31-0.08,0.62-0.15,0.93-0.22
	c5.54-1.36,11.09-2.72,16.64-4.06c0.44-0.11,0.88-0.33,1.58-0.21c-2.41,1.69-4.7,3.3-7,4.9c-1.8,1.26-3.61,2.51-5.38,3.79
	c-0.63,0.45-0.78,0.99-0.08,1.49s1.44,0.39,2.13-0.02c0.32-0.19,0.61-0.41,0.91-0.62c3.79-2.66,7.58-5.31,11.37-7.97
	c0.09,0.03,0.17,0.06,0.26,0.1c-0.14,0.3-0.26,0.6-0.41,0.9c-1.99,4.01-3.98,8.02-6,12.03c-0.37,0.73-0.5,1.44,0.71,1.74
	c1.23,0.31,1.71-0.3,2.07-1.04c2.06-4.2,4.17-8.4,6.26-12.59c0.64-1.28,1.3-2.57,2-3.96c0.84,0.59,1.5,1.06,2.17,1.52
	c1.3,0.9,1.9,0.91,3.17,0.04c0.87-0.6,1.78-1.18,2.58-1.83c0.62-0.49,1.17-0.57,2.07-0.34c6.35,1.63,12.73,3.22,19.1,4.81
	c1.52,0.38,2.05,0.23,2.6-0.81c1.19-2.25,2.34-4.52,3.5-6.78C90.95,35.82,90.63,35.27,89.47,34.98z M46.22,28.91
	c-0.39,0.38-0.05,1.34-1.09,1.12c-2.87-0.6-5.66-1.38-8.48-2.09c-0.04-0.01-0.08-0.03-0.22-0.07c-0.21-0.51,0.32-0.94,0.5-1.42
	c0.13-0.36,0.48-0.33,0.88-0.22c2.68,0.68,5.37,1.37,8.06,2.03C46.48,28.39,46.49,28.65,46.22,28.91z M49.21,32.01
	c-0.31-0.08-0.61-0.17-0.85-0.23c-0.46-0.21-0.23-0.44-0.13-0.64c0.38-0.78,0.81-1.54,1.17-2.32c0.19-0.42,0.49-0.47,1.04-0.33
	c3.17,0.81,6.35,1.61,9.53,2.4c0.49,0.12,0.74,0.26,0.48,0.63c-0.04,0.06-0.04,0.13-0.08,0.19c-0.54,0.87-0.52,2.16-1.55,2.54
	c-0.96,0.35-2.4-0.46-3.64-0.75C53.18,33.02,51.2,32.51,49.21,32.01z M60.41,38.83c-1.21,0.92-1.25,0.94-2.48,0.08
	c-1.67-1.17-3.35-2.34-5.02-3.52c0.07-0.07,0.14-0.13,0.21-0.2c1.44,0.35,2.88,0.71,4.32,1.07c0.15,0.04,0.38,0.17,0.37,0.25
	c-0.1,1.19,1.25,1.32,2.38,1.59C60.92,38.28,60.91,38.46,60.41,38.83z M87.2,37.02c-0.81,1.54-1.59,3.09-2.39,4.64
	c-0.03,0.06-0.08,0.12-0.12,0.19c-0.28,0.25-0.59,0.09-0.88,0.02c-7.29-1.83-14.57-3.67-21.86-5.49c-0.57-0.14-0.72-0.3-0.5-0.72
	c0.77-1.45,1.53-2.9,2.22-4.36c0.33-0.71,0.91-0.38,1.43-0.25c5.34,1.34,10.68,2.69,16.02,4.03c1.81,0.46,3.62,0.91,5.43,1.36
	C86.95,36.53,87.44,36.56,87.2,37.02z"/>
</svg>
