<?xml version="1.0" encoding="utf-8"?>
<!-- Generator: Adobe Illustrator 19.0.0, SVG Export Plug-In . SVG Version: 6.00 Build 0)  -->
<svg version="1.1" xmlns="http://www.w3.org/2000/svg" xmlns:xlink="http://www.w3.org/1999/xlink" x="0px" y="0px"
	 viewBox="0 0 1600 1200" style="enable-background:new 0 0 1600 1200;" xml:space="preserve">
<style type="text/css">
	.st0{fill:#E8E8E8;}
	.st1{fill:none;stroke:#E8E8E8;stroke-width:3;stroke-miterlimit:10;}
	.st2{fill:#EC615B;}
	.st3{fill:#5222D0;}
	.st4{fill:#161616;}
	.st5{fill:#FFFFFF;}
	.st6{opacity:0.73;fill:#FFFFFF;stroke:#161616;stroke-width:2;stroke-miterlimit:10;}
	.st7{fill:#FFFFFF;stroke:#161616;stroke-width:2;stroke-miterlimit:10;}
	.st8{opacity:0.23;fill:#6D6C6C;}
	.st9{opacity:0.24;fill:#6D6C6C;}
	.st10{opacity:0.19;fill:#6D6C6C;}
	.st11{opacity:0.29;fill:#6D6C6C;}
	.st12{opacity:0.26;fill:#6D6C6C;}
	.st13{opacity:0.34;fill:#6D6C6C;}
	.st14{opacity:0.47;fill:#6D6C6C;}
	.st15{fill:#161616;stroke:#161616;stroke-width:2;stroke-miterlimit:10;}
	.st16{opacity:0.18;fill:#6D6C6C;}
	.st17{opacity:0.28;fill:#6D6C6C;}
	.st18{opacity:0.33;fill:#6D6C6C;}
	.st19{opacity:0.38;fill:#6D6C6C;}
	.st20{opacity:0.25;fill:#6D6C6C;}
</style>
<g id="background_n3">
	<g>
		<g>
			<path class="st0" d="M625.6,941.1c-1.5,10.6-6,20.1-13.4,27.8c-1.3,1.4,0.8,3.5,2.1,2.1c7.7-8.1,12.6-18.1,14.1-29.2
				C628.7,940,625.8,939.2,625.6,941.1L625.6,941.1z"/>
		</g>
	</g>
	<g>
		<g>
			<path class="st0" d="M626,942.8c3.8,8.6,8.8,16.4,15,23.5c1.3,1.5,3.4-0.7,2.1-2.1c-6.1-6.9-10.9-14.5-14.5-22.9
				C627.9,939.5,625.3,941,626,942.8L626,942.8z"/>
		</g>
	</g>
	<g>
		<g>
			<path class="st0" d="M615.1,970.4c-0.1-0.2-0.3-0.5-0.4-0.7c-0.8,0.6-1.6,1.2-2.4,1.8c6.5,5.6,11.7,12.3,15.5,20
				c0.8,1.7,3.4,0.2,2.6-1.5c-3.9-7.9-9.2-14.9-15.9-20.7c-1.3-1.1-3.2,0.3-2.4,1.8c0.1,0.2,0.3,0.5,0.4,0.7
				C613.4,973.6,616,972.1,615.1,970.4L615.1,970.4z"/>
		</g>
	</g>
	<g>
		<g>
			<path class="st0" d="M630.7,990.6c3.3-8.2,7.3-15.9,12.1-23.3c1-1.6-1.5-3.1-2.6-1.5c-4.9,7.6-9,15.6-12.4,24.1
				C627.1,991.6,630,992.4,630.7,990.6L630.7,990.6z"/>
		</g>
	</g>
	<g>
		<g>
			<path class="st0" d="M285.5,609.5c-3.5,10-7.2,20-14,28.3c-1.2,1.5,0.9,3.6,2.1,2.1c7.1-8.7,11.1-19.1,14.8-29.6
				C289,608.5,286.1,607.7,285.5,609.5L285.5,609.5z"/>
		</g>
	</g>
	<g>
		<g>
			<path class="st0" d="M285.5,610.3c2.2,4.9,2.9,10.6,4.6,15.7c1.6,4.7,3.5,9.3,5.7,13.8c0.8,1.7,3.4,0.2,2.6-1.5
				c-2.6-5.4-4.8-10.9-6.5-16.5c-1.3-4.3-2-8.9-3.8-13C287.3,607,284.8,608.6,285.5,610.3L285.5,610.3z"/>
		</g>
	</g>
	<g>
		<g>
			<path class="st0" d="M272.2,639.8c2.9,1.2,4.9,6.9,6.1,9.6c1.8,3.9,3.1,7.9,4.1,12.1c0.5,1.9,3.4,1.1,2.9-0.8
				c-1.3-5.2-3.1-10.1-5.4-14.9c-1.6-3.3-3.3-7.4-6.9-8.9C271.2,636.1,270.5,639,272.2,639.8L272.2,639.8z"/>
		</g>
	</g>
	<g>
		<g>
			<path class="st0" d="M285.4,662.1c3.5-7.7,7.6-15.1,12.2-22.2c1.1-1.6-1.5-3.1-2.6-1.5c-4.6,7.1-8.7,14.5-12.2,22.2
				C282,662.4,284.6,663.9,285.4,662.1L285.4,662.1z"/>
		</g>
	</g>
	<g>
		<g>
			<path class="st0" d="M410,439.1c-2.3,8.2-6.2,15.5-11.7,21.9c-1.3,1.5,0.9,3.6,2.1,2.1c5.9-6.8,10.1-14.6,12.5-23.2
				C413.4,438.1,410.5,437.3,410,439.1L410,439.1z"/>
		</g>
	</g>
	<g>
		<g>
			<path class="st0" d="M409.8,440.6c1.8,7.5,3.6,16.3,8.6,22.4c1.2,1.5,3.3-0.6,2.1-2.1c-4.6-5.5-6.2-14.2-7.8-21
				C412.3,437.9,409.4,438.7,409.8,440.6L409.8,440.6z"/>
		</g>
	</g>
	<g>
		<g>
			<path class="st0" d="M397.6,463.9c2.7,1.5,4.9,7.5,6.2,10.3c1.8,3.8,3.2,7.7,4.3,11.7c0.5,1.9,3.4,1.1,2.9-0.8
				c-1.4-4.8-3.1-9.4-5.3-13.9c-1.5-3.1-3.4-8.2-6.6-10C397.4,460.4,395.9,462.9,397.6,463.9L397.6,463.9z"/>
		</g>
	</g>
	<g>
		<g>
			<path class="st0" d="M411.2,485.2c2.5-7.6,5.6-14.9,9.3-22c0.9-1.7-1.7-3.2-2.6-1.5c-3.8,7.3-7,14.9-9.6,22.7
				C407.7,486.2,410.6,487,411.2,485.2L411.2,485.2z"/>
		</g>
	</g>
	<g>
		<g>
			<path class="st0" d="M1038.9,722c-2.2,5.6-4.6,11.3-9.5,15.1c-1.5,1.2,0.6,3.3,2.1,2.1c5.3-4.1,7.9-10.3,10.2-16.4
				C1042.5,721,1039.6,720.2,1038.9,722L1038.9,722z"/>
		</g>
	</g>
	<g>
		<g>
			<path class="st0" d="M1040,723.5c1.5,5.1,3.8,9.8,7,14c1.1,1.5,3.8,0,2.6-1.5c-3-4-5.3-8.4-6.7-13.3
				C1042.3,720.8,1039.4,721.6,1040,723.5L1040,723.5z"/>
		</g>
	</g>
	<g>
		<g>
			<path class="st0" d="M1030,739.5c3.3,4.1,5.6,8.7,7,13.7c0.5,1.9,3.4,1.1,2.9-0.8c-1.5-5.6-4.2-10.6-7.8-15.1
				C1030.9,735.9,1028.8,738,1030,739.5L1030,739.5z"/>
		</g>
	</g>
	<g>
		<g>
			<path class="st0" d="M1039.8,754.2c2.7-6.1,6-11.8,10-17.1c1.2-1.5-1.4-3-2.6-1.5c-4,5.3-7.4,11-10,17.1
				C1036.4,754.4,1039,755.9,1039.8,754.2L1039.8,754.2z"/>
		</g>
	</g>
	<g>
		<g>
			<path class="st0" d="M1220.3,954.3c-2,5.9-5.1,11.3-9.2,16c-1.3,1.5,0.9,3.6,2.1,2.1c4.5-5.1,7.8-10.9,10-17.3
				C1223.8,953.3,1220.9,952.5,1220.3,954.3L1220.3,954.3z"/>
		</g>
	</g>
	<g>
		<g>
			<path class="st0" d="M1220.1,956.8c1.4,2.6,1.7,5.7,2.9,8.5c1.1,2.6,2.5,5,4.2,7.3c1.1,1.5,3.7,0,2.6-1.5
				c-1.9-2.5-3.4-5.2-4.5-8.2c-0.9-2.5-1.3-5.2-2.6-7.6C1221.8,953.6,1219.2,955.1,1220.1,956.8L1220.1,956.8z"/>
		</g>
	</g>
	<g>
		<g>
			<path class="st0" d="M1211.2,971.6c2.5,3.8,4.4,7.8,5.7,12.2c0.3,1.2,2.1,1.6,2.7,0.4c2.1-4.2,5-7.8,8.9-10.5
				c1.6-1.1,0.1-3.7-1.5-2.6c-4.3,3.1-7.6,6.9-10,11.6c0.9,0.1,1.8,0.2,2.7,0.4c-1.4-4.6-3.4-8.9-6-12.9
				C1212.7,968.5,1210.1,970,1211.2,971.6L1211.2,971.6z"/>
		</g>
	</g>
	<polygon class="st1" points="1251.5,550.9 1241.2,546.9 1232.1,553 1232.7,542 1224,535.2 1234.7,532.4 1238.5,522 1244.5,531.4 
		1255.5,531.8 1248.5,540.3 	"/>
	<g>
		<g>
			<path class="st0" d="M1233.9,516.2c15.2-25.7,33.8-49.1,55.6-69.6c1.4-1.3-0.7-3.4-2.1-2.1c-21.9,20.6-40.8,44.2-56.1,70.2
				C1230.3,516.4,1232.9,517.9,1233.9,516.2L1233.9,516.2z"/>
		</g>
	</g>
	<g>
		<g>
			<path class="st0" d="M1255.5,511.2c24.4-36.5,55.1-68.4,90.6-94.2c1.5-1.1,0.1-3.7-1.5-2.6c-35.9,26.1-67,58.4-91.6,95.3
				C1251.8,511.3,1254.4,512.8,1255.5,511.2L1255.5,511.2z"/>
		</g>
	</g>
	<g>
		<g>
			<path class="st0" d="M1260.9,540c11.8-14.5,24.4-28.5,37.5-41.8c1.4-1.4-0.8-3.5-2.1-2.1c-13.2,13.3-25.7,27.3-37.5,41.8
				C1257.6,539.3,1259.7,541.5,1260.9,540L1260.9,540z"/>
		</g>
	</g>
	<g>
		<g>
			<path class="st0" d="M918.4,360.2c-8-16.3,9.2-31.8,24-34.4c18.4-3.2,37.6,3.2,56,4.7c35,2.9,70.7-1.2,104.1-11.8
				c16.9-5.4,33.1-12.4,48.6-20.9c16.6-9.1,32.5-19.4,49.2-28.3c16.7-9,34.5-16.6,53.4-19.7c18.6-3.1,37.1-0.7,54.5,6.4
				c16.3,6.7,32.9,16.7,45.6,29c13.1,12.7,17.3,29.9,9.8,46.9c-15,33.7-58.3,38.8-90.7,40.1c-34.9,1.4-70.7-2-104.7,7.6
				c-34.5,9.8-60.1,35.1-90.1,53.2c-30.6,18.5-66.1,31.2-102.3,28.8c-30.5-2-61.3-16.2-80.4-40.5c-4.7-6-8.6-12.6-11.6-19.6
				c-0.8-1.8-3.4-0.2-2.6,1.5c12.5,28.7,39.3,48.5,68.8,57c34.1,9.8,70.4,3.5,102.3-10.5c17.7-7.8,34-18,49.7-29.3
				c15.3-11,30.5-22.6,47.6-30.6c36.2-17,77.2-13.5,116-14.5c32.3-0.8,73.8-3.6,94.7-32.2c8.7-11.9,12.9-28,7.7-42.3
				c-5.8-15.6-20.8-25.9-34.2-34.5c-15.4-9.9-32.5-17.8-50.7-20.2c-18.9-2.6-38,1-55.8,7.5c-37.8,13.9-69.4,40.2-106.7,55.2
				c-35.9,14.5-75,21.1-113.6,19.1c-10.5-0.5-21-1.8-31.4-3.5c-9.1-1.5-18.3-3.1-27.6-2.5c-14.4,0.9-28.5,8.1-33.5,22.4
				c-2,5.8-1.7,11.7,1,17.2C916.7,363.4,919.2,361.9,918.4,360.2L918.4,360.2z"/>
		</g>
	</g>
	<g>
		<g>
			<path class="st0" d="M962.2,348.3c51.7,6.8,104.8,1.5,154.1-15.5c47.6-16.4,91-49.1,142.2-53.4c25.5-2.2,52.2,2.9,71.9,20.1
				c1.4,1.3,3.6-0.8,2.1-2.1c-35.6-31.2-87.2-23.5-127.5-7c-24.6,10-47.9,23.1-72.5,33.2c-25.2,10.3-51.6,17.4-78.5,21.3
				c-30.4,4.4-61.3,4.5-91.7,0.5C960.3,345,960.3,348,962.2,348.3L962.2,348.3z"/>
		</g>
	</g>
	<g>
		<g>
			<path class="st0" d="M1041.1,406.1c20.1-1.6,38-10.9,55.1-20.9c18.7-10.9,36.9-22,58.2-27c45.9-10.7,93.7,1.3,139.8-8.3
				c20.5-4.3,45.3-16.8,43.3-41.5c-0.2-1.9-3.2-1.9-3,0c2,25.3-25.1,35.8-45.4,39.4c-22.2,3.9-44.9,3.3-67.3,2.9
				c-21.6-0.4-43.5-0.6-64.8,3.9c-19.7,4.1-37,13.1-54.2,23.2c-19.3,11.3-39,23.5-61.8,25.3C1039.2,403.2,1039.2,406.2,1041.1,406.1
				L1041.1,406.1z"/>
		</g>
	</g>
	<g>
		<g>
			<path class="st0" d="M1119.5,428.7c23.1-16.2,47.8-31.1,75.4-38.1c30-7.6,61.2-5.1,91.7-2.7c1.9,0.2,1.9-2.8,0-3
				c-30.8-2.5-62.3-4.9-92.5,2.8c-27.8,7.1-52.8,22-76.1,38.4C1116.4,427.3,1117.9,429.9,1119.5,428.7L1119.5,428.7z"/>
		</g>
	</g>
	<g>
		<g>
			<path class="st0" d="M489.2,372.8c-6-3.9-11.1-9.4-12.8-16.6c-1.6-6.7,0.7-14.6,6.6-18.6c6-4.1,13.9-2.3,20.7-2.8
				c5.5-0.4,10.9-1.8,15.9-4c22.7-9.7,36.6-31.3,53.7-47.9c8.7-8.4,19.1-16.6,31.2-19.3c11.2-2.5,26.1,0.2,28.9,13.3
				c3.3,15.3-10.9,26.6-22,34.1c-12.7,8.5-25.4,16.9-38.1,25.4c-13.8,9.2-27.4,18.9-41.6,27.5c-13.2,8.1-29.9,14.5-44.5,5.9
				c-1.7-1-3.2,1.6-1.5,2.6c12,7.1,26.3,5,38.4-0.8c15.6-7.4,29.9-18.7,44.2-28.2c14.9-9.9,29.8-19.7,44.7-29.7
				c10.9-7.3,22.4-16.4,23.7-30.5c1.1-11.8-6.9-20.8-18.3-22.8c-12.3-2.2-24.4,2.9-34.3,9.8c-24.3,17-38.5,47.4-67,58.6
				c-4.3,1.7-8.8,2.8-13.3,3.2c-4.4,0.3-8.8-0.2-13.2,0.3c-6.6,0.7-12,3.9-15.1,9.8c-6.7,12.8,1.3,26.3,12.3,33.4
				C489.3,376.4,490.8,373.9,489.2,372.8L489.2,372.8z"/>
		</g>
	</g>
	<g>
		<g>
			<path class="st0" d="M575.2,250.9c-1.9-13.1,14.5-16.9,23.4-21.1c4.6-2.2,8.7-5.1,12.9-7.9c2.1-1.4,4.2-2.8,6.4-4
				c2.6-1.4,5.8-3.6,8-0.8c1.6,2,0.9,2.5-0.1,4.7c-0.5,1-1,2.1-1.6,3.1c-1.4,2.5-3,5-5,7.1c-4.1,4.3-10,4.9-15.3,7
				c-4.1,1.6-8.1,3.6-11.8,5.9c-4.7,3-10.6,9.7-16.6,6.3c-1.7-1-3.2,1.6-1.5,2.6c5.3,3,10.3,0.3,14.8-2.9c7-5,14.2-8.6,22.4-11.1
				c6.5-2,10.6-5.3,14.3-11.1c2.1-3.3,6.9-10.1,3.8-14.1c-2.8-3.5-8.2-1.6-11.5,0c-7,3.6-13,8.8-20.1,12.3
				c-10.7,5.2-27.7,9.4-25.5,24.9C572.6,253.6,575.5,252.8,575.2,250.9L575.2,250.9z"/>
		</g>
	</g>
	<g>
		<g>
			<path class="st0" d="M494.3,354.7c-3.1-0.5-2.7-3.2-2-5c0.9-2.2,2.8-3,5-3.7c2.4-0.7,5.1-0.8,7.6-1.1c5.6-0.9,11-2.4,16.2-4.5
				c10-4.1,19.1-10,27.5-16.7c9.5-7.6,18.1-16.1,27-24.4c8.7-8.2,18.4-18.5,31.3-18.1c-0.5-0.5-1-1-1.5-1.5
				c1.1,11.7-9.7,19.5-18.2,25.5c-10.2,7.2-20.3,14.5-30.5,21.7c-9.4,6.7-18.7,13.7-28.3,20c-4.8,3.1-9.8,6.1-15.2,8.1
				c-5.2,1.9-13.3,4.8-17.6-0.1c-1.3-1.4-3.4,0.7-2.1,2.1c6.8,7.7,20.5,1.4,27.8-2.4c12.6-6.5,23.9-15.8,35.5-24
				c12-8.6,24.3-16.9,36.2-25.8c8.1-6.1,16.6-14.2,15.6-25.2c-0.1-0.8-0.6-1.5-1.5-1.5c-13.5-0.4-23.7,9.8-32.8,18.4
				c-11.5,10.8-22.6,22.1-35.6,31c-6.2,4.2-12.8,7.9-19.8,10.6c-6.8,2.6-13.6,3.4-20.7,4.8c-4.1,0.8-8.3,2.7-9.1,7.2
				c-0.6,3.4,1,7,4.7,7.6C495.4,357.9,496.3,355,494.3,354.7L494.3,354.7z"/>
		</g>
	</g>
	<g>
		<g>
			<path class="st0" d="M410.5,519.3c-3.1,5-1.6,11.6,3,15.3c6.8,5.4,14.1-0.4,19.9-4.3c4.8-3.3,11.7-5.5,15,0.9
				c1.5,3,2,6.5,3.4,9.6c1,2.3,2.4,4.3,4.8,5.3c4.6,2,9.1-1.5,13.8-0.8c1.9,0.3,2.7-2.6,0.8-2.9c-3.4-0.5-6.1,0.7-9.4,1.2
				c-5.6,0.7-7.1-3-8.5-7.4c-1.4-4.4-2.7-9.5-7.3-11.5c-5.9-2.6-11.9,1.6-16.6,4.8c-3.8,2.7-8.8,6.1-13.5,3.2
				c-3.9-2.5-5.2-7.9-2.8-11.8C414.1,519.1,411.5,517.6,410.5,519.3L410.5,519.3z"/>
		</g>
	</g>
	<g>
		<g>
			<path class="st0" d="M468.1,513.4c-2,5.3,1.8,9.7,6.6,11.5c4.2,1.6,26.2,2.7,25,9.5c-0.3,1.9,2.5,2.7,2.9,0.8
				c2.9-15.5-37.1-6.5-31.6-21C471.7,512.4,468.8,511.6,468.1,513.4L468.1,513.4z"/>
		</g>
	</g>
	<g>
		<g>
			<path class="st0" d="M518.4,905.2c1.9,3,5.1,1.9,6.5-1c3.2-6.5,3-14.2,10.2-18.3c7.5-4.3,12.3,2.8,19.4,3.6
				c5.5,0.6,10.9-2.3,14.6-6.1c4.5-4.7,6.9-10.9,10-16.6c1.8-3.3,4.2-5,7.6-2.3c1.1,0.9,2,2,3,2.9c1.4,1.2,2.9,2.3,4.7,3
				c8.6,3.7,19.2,0.2,23.8-7.8c1-1.7-1.6-3.2-2.6-1.5c-2.8,4.9-8.1,7.8-13.8,7.8c-6.6,0-9.2-3.9-14.1-7.4
				c-9.2-6.6-13.2,8.4-16.6,14.2c-3.9,6.5-10.7,13-18.9,10.2c-4.6-1.6-8.1-5-13.3-4.3c-4.3,0.5-8,3.2-10.5,6.6
				c-1.4,1.9-2.4,4-3.3,6.1c-0.6,1.5-1.1,3-1.6,4.6c-0.2,0.5-1.9,5.5-2.4,4.8C519.9,902.1,517.3,903.6,518.4,905.2L518.4,905.2z"/>
		</g>
	</g>
	<g>
		<g>
			<path class="st0" d="M582.4,893.3c1.4-11.3,17.6-3.2,23.6-2.6c5.6,0.6,10.4-1.3,13.1-6.4c1.8-3.5,2.4-7.8,6.8-9.3
				c3.6-1.2,7.9-0.4,11.6-0.9c6.9-1,13.3-3.6,19-7.6c1.6-1.1,0.1-3.7-1.5-2.6c-4,2.8-8.3,5-13,6.3c-4.6,1.2-9,1.1-13.7,1.5
				c-7.4,0.7-8.6,5.4-11.7,11.2c-5.7,10.5-17.7,1.2-26.3,1.5c-5.4,0.2-10.1,3.5-10.8,9C579.1,895.2,582.1,895.2,582.4,893.3
				L582.4,893.3z"/>
		</g>
	</g>
	<g>
		<g>
			<path class="st0" d="M639.9,665.5c-0.6,5.9-3.4,11.1-7.8,15c-1.4,1.3,0.7,3.4,2.1,2.1c5.1-4.5,8-10.4,8.7-17.1
				C643.1,663.6,640.1,663.6,639.9,665.5L639.9,665.5z"/>
		</g>
	</g>
	<g>
		<g>
			<path class="st0" d="M641.2,669.2c0.8,4.7,3.2,9,6.9,12.1c1.5,1.3,3.6-0.9,2.1-2.1c-3.3-2.8-5.4-6.5-6.1-10.8
				C643.8,666.5,640.9,667.3,641.2,669.2L641.2,669.2z"/>
		</g>
	</g>
	<g>
		<g>
			<path class="st0" d="M631.7,685c3.3,3.9,5.4,8.4,6.3,13.4c0.4,1.9,3.3,1.1,2.9-0.8c-1.1-5.5-3.5-10.4-7.1-14.7
				C632.6,681.4,630.5,683.6,631.7,685L631.7,685z"/>
		</g>
	</g>
	<g>
		<g>
			<path class="st0" d="M642.5,697.8c1.3-5,3.5-9.5,6.7-13.6c1.2-1.5-0.9-3.6-2.1-2.1c-3.6,4.4-6.1,9.4-7.5,14.9
				C639.1,698.9,642,699.7,642.5,697.8L642.5,697.8z"/>
		</g>
	</g>
	<g>
		<g>
			<path class="st0" d="M1030.2,861.8c-0.8,6.2,4.4,10.8,10.4,11.3c10.5,0.7,16.8-10.7,26.6-12.5c7.3-1.3,10,4.5,13.9,9.3
				c2.3,2.7,5.2,4.7,8.6,5.7c6.9,2.1,14.6,0.1,19.5-5.2c1.3-1.4-0.8-3.5-2.1-2.1c-5.1,5.5-13.8,6.9-20.2,2.7
				c-5.7-3.6-7.2-11.4-14.1-13.3c-6.2-1.7-12.4,1.8-17.2,5.3c-3.1,2.3-6.2,4.8-9.9,6.1c-4.6,1.6-13.4,0.3-12.4-6.6
				C1033.3,860.7,1030.5,859.9,1030.2,861.8L1030.2,861.8z"/>
		</g>
	</g>
	<g>
		<g>
			<path class="st0" d="M1065.8,892c7.3-3.7,15.8-4.2,23.3-1c5.5,2.4,9.6,6.7,16,6.4c5.7-0.2,10.8-3.3,15.7-6
				c6.1-3.3,17.9-7.6,21.1,1.9c0.6,1.8,3.5,1,2.9-0.8c-1.8-5.1-6.6-7.9-11.9-8.1c-8.2-0.2-14.7,5.9-22,8.6c-5.6,2.1-10,1.3-15.1-1.7
				c-3.3-2-6.5-3.8-10.3-4.7c-7.3-1.7-14.7-0.6-21.3,2.7C1062.6,890.3,1064.1,892.8,1065.8,892L1065.8,892z"/>
		</g>
	</g>
	<g>
		<g>
			<path class="st0" d="M948.8,1067.5c0.5,9.1-2.6,17.5-8.9,24.1c0.8,0.6,1.6,1.2,2.4,1.8c2.7-3.9,4.7-8.1,6.2-12.6
				c0.6-1.8-2.3-2.6-2.9-0.8c-1.4,4.3-3.3,8.2-5.9,11.9c-1,1.4,1.2,3,2.4,1.8c6.8-7.2,10.2-16.4,9.7-26.2
				C951.7,1065.6,948.7,1065.6,948.8,1067.5L948.8,1067.5z"/>
		</g>
	</g>
	<g>
		<g>
			<path class="st0" d="M948.9,1067.9c1.8,8.3,5.7,15.7,11.6,21.8c1.3,1.4,3.5-0.7,2.1-2.1c-5.5-5.8-9.1-12.7-10.8-20.5
				C951.4,1065.2,948.5,1066,948.9,1067.9L948.9,1067.9z"/>
		</g>
	</g>
	<g>
		<g>
			<path class="st0" d="M939.5,1096.1c5.3,5.7,9.6,12,12.9,19.1c0.8,1.8,3.4,0.2,2.6-1.5c-3.4-7.3-7.8-13.9-13.4-19.7
				C940.3,1092.5,938.2,1094.7,939.5,1096.1L939.5,1096.1z"/>
		</g>
	</g>
	<g>
		<g>
			<path class="st0" d="M954.7,1115.2c3.2-7.6,6.5-15.1,9.7-22.7c0.8-1.8-1.8-3.3-2.6-1.5c-3.2,7.6-6.5,15.1-9.7,22.7
				C951.4,1115.5,954,1117,954.7,1115.2L954.7,1115.2z"/>
		</g>
	</g>
	<g>
		<g>
			<path class="st0" d="M693,1096.5c13.6,13.3,29.9,23.2,47.9,29.2c1.8,0.6,2.6-2.3,0.8-2.9c-17.6-5.9-33.4-15.5-46.6-28.5
				C693.8,1093,691.7,1095.1,693,1096.5L693,1096.5z"/>
		</g>
	</g>
	<g>
		<g>
			<path class="st0" d="M725.9,1103.1c15.8,8.7,33.1,13.8,51.1,15.1c1.9,0.1,1.9-2.9,0-3c-17.5-1.2-34.3-6.2-49.6-14.7
				C725.8,1099.5,724.3,1102.1,725.9,1103.1L725.9,1103.1z"/>
		</g>
	</g>
	<g>
		<g>
			<path class="st0" d="M1108.4,694.1c2.9,19.7,8.7,38.8,17.2,56.8c0.8,1.7,3.4,0.2,2.6-1.5c-8.4-17.8-14.1-36.6-16.9-56.1
				C1111,691.4,1108.1,692.2,1108.4,694.1L1108.4,694.1z"/>
		</g>
	</g>
	<g>
		<g>
			<path class="st0" d="M1174.5,638.8c3.7,19,9.1,37.5,16.3,55.5c0.7,1.8,3.6,1,2.9-0.8c-7.1-18-12.6-36.5-16.3-55.5
				C1177,636.1,1174.1,636.9,1174.5,638.8L1174.5,638.8z"/>
		</g>
	</g>
	<g>
		<g>
			<path class="st0" d="M1194.6,684.4c7,18.5,16.4,36,28.2,51.9c1.1,1.5,3.7,0,2.6-1.5c-11.6-15.7-21-32.9-27.9-51.2
				C1196.8,681.8,1193.9,682.6,1194.6,684.4L1194.6,684.4z"/>
		</g>
	</g>
	<g>
		<g>
			<path class="st0" d="M744.6,491.3c3-15.9,10-30.5,20.6-42.7c1.3-1.5-0.9-3.6-2.1-2.1c-10.9,12.6-18.3,27.6-21.4,44
				C741.3,492.4,744.2,493.2,744.6,491.3L744.6,491.3z"/>
		</g>
	</g>
	<g>
		<g>
			<path class="st0" d="M732.7,491.6c1.2-8.2,4.5-15.5,9.9-21.8c1.3-1.5-0.9-3.6-2.1-2.1c-5.7,6.6-9.4,14.4-10.7,23.1
				C729.5,492.6,732.4,493.5,732.7,491.6L732.7,491.6z"/>
		</g>
	</g>
	<g>
		<g>
			<path class="st0" d="M946.1,194.2c10.6,11.9,18.1,26.1,21.9,41.7c0.5,1.9,3.4,1.1,2.9-0.8c-3.9-16-11.6-30.6-22.6-43
				C947,190.7,944.8,192.8,946.1,194.2L946.1,194.2z"/>
		</g>
	</g>
	<g>
		<g>
			<path class="st0" d="M971.8,207c5.9,13.1,9.5,27.1,10.7,41.4c0.2,1.9,3.2,1.9,3,0c-1.2-14.9-4.9-29.3-11.1-42.9
				C973.6,203.7,971,205.2,971.8,207L971.8,207z"/>
		</g>
	</g>
</g>
<g id="background_n2">
	<ellipse class="st2" cx="1252.7" cy="286" rx="53" ry="52.1"/>
	<ellipse class="st3" cx="1228.5" cy="450.2" rx="28.7" ry="29.4"/>
	<ellipse class="st3" cx="362.4" cy="349.7" rx="62.1" ry="60.9"/>
	<ellipse class="st2" cx="1094.3" cy="947.7" rx="58.6" ry="57.7"/>
	<g>
		<g>
			<path class="st3" d="M363.2,502.4c1.9,0,1.9-3,0-3C361.3,499.4,361.2,502.4,363.2,502.4L363.2,502.4z"/>
		</g>
	</g>
	<g>
		<g>
			<path class="st3" d="M361.9,506.9c7.7,0,7.7-12,0-12C354.2,494.9,354.2,506.9,361.9,506.9L361.9,506.9z"/>
		</g>
	</g>
	<g>
		<g>
			<path class="st3" d="M1117.8,321.4c7.7,0,7.7-12,0-12C1110.1,309.4,1110.1,321.4,1117.8,321.4L1117.8,321.4z"/>
		</g>
	</g>
	<g>
		<g>
			<path class="st3" d="M1093.5,716.6c7.7,0,7.7-12,0-12C1085.8,704.6,1085.8,716.6,1093.5,716.6L1093.5,716.6z"/>
		</g>
	</g>
	<g>
		<g>
			<path class="st3" d="M237.7,727.4c-4.6,4.4-0.5,11.2,5.1,11.8c3.8,0.4,12.8-4,12.8,2.3c0,3.1-0.8,6.3,0.9,9.1
				c1.4,2.3,3.9,3.4,6.6,3.3c4-0.1,7.7-4,10,0.8c1.3,2.8,1.5,5.3,4.7,6.7c2.8,1.3,5.3,0.5,7-2c2.2-3.2-3-6.2-5.2-3
				c0.7-1-1.7-6.5-2.5-7.5c-1.1-1.5-2.7-2.6-4.6-2.9c-2-0.4-4,0.2-5.9,0.8c-3,0.9-5.4,1.6-5.3-2.4c0.2-4.1,0.6-8.6-3.4-11.2
				c-1.8-1.2-4-1.4-6.1-1.3c-1.3,0.1-2.5,0.3-3.7,0.6c-0.9,0.2-8.3,1.1-6.2-0.9C244.7,729,240.5,724.8,237.7,727.4L237.7,727.4z"/>
		</g>
	</g>
	<g>
		<g>
			<path class="st3" d="M268.8,724.1c0.6,3.4,1.3,6.9,1.9,10.3c0.2,1.3,1.7,2.2,2.9,2.2c3.8-0.1,5.9-2,9.1-3.6
				c5.3-2.7,3.7,2.2,4.5,5.7c0.6,2.5,2,4.4,4.5,5.3c4.7,1.6,8.7,1.5,12.8,4.9c3,2.4,7.2-1.8,4.2-4.2c-3.3-2.7-6.9-4.8-11.1-5.6
				c-1.1-0.2-2.4-0.2-3.5-0.8c-1.6-0.9-1.2-1.4-1.2-3.3c-0.1-1.6-0.1-3.2-0.7-4.8c-1.2-2.8-4-4.2-7-4c-4.4,0.3-7.3,4.6-11.6,4.6
				c1,0.7,1.9,1.5,2.9,2.2c-0.6-3.4-1.3-6.9-1.9-10.3C273.9,718.7,268.1,720.3,268.8,724.1L268.8,724.1z"/>
		</g>
	</g>
	<g>
		<g>
			<path class="st2" d="M610,313.8c1.8-2.4,3.8-2.8,6-1c1.2,1.5,1.8,3.1,1.8,5c0.1,1.8-0.7,3.5-0.8,5.3c-0.1,1.6,0.1,3.1,1.4,4.1
				c2.8,2.1,6.6-0.5,8.3-2.8c0.8-1.1,1.5-3.2,2.6-3.9c4.4-2.9,4.1,1.3,4.9,3.1c0.6,1.5,1.4,2.6,2.8,3.3c4.9,2.4,8.9-2.4,11.2-6.1
				c1-1.6-1.6-3.1-2.6-1.5c-1.5,2.3-5.3,8.5-8.8,2.9c-0.6-1-0.5-2.5-1.1-3.6c-0.8-1.4-1.9-2.6-3.6-2.8c-2-0.2-3.7,1.1-5,2.5
				c-1.8,1.9-6.6,10.9-6.9,3.2c-0.1-4.6,1-10-4.3-12.3c-3.6-1.6-7.7,0-9,3.7C606.5,314.8,609.4,315.6,610,313.8L610,313.8z"/>
		</g>
	</g>
	<g>
		<g>
			<path class="st2" d="M611.3,301c3-2.8,8.5-2.2,10.8,1.4c1.4,2.2,0.4,5.1,1.9,7.2c0.9,1.3,2,1.7,3.6,1.4c1-0.2,1.5-0.7,2.4-1.2
				c3.2-2,6-2.8,9,0.4c1.3,1.4,3.4-0.7,2.1-2.1c-2.4-2.6-5.9-3.8-9.3-2.8c-1.8,0.6-4.5,3.3-5.5,1.3c-0.7-1.3-0.3-3.3-0.9-4.7
				c-2.8-6-11.3-7.4-16-3C607.7,300.2,609.9,302.3,611.3,301L611.3,301z"/>
		</g>
	</g>
	<g>
		<g>
			<path class="st2" d="M1002,742.9c1,3.6,2.3,18.1,9.3,15.3c2.7-1.1,4.2-7.2,6.5-6.9c1.7,0.2,1.3,0.9,1.7,2.5
				c0.4,1.4,0.8,2.7,1.4,4c1,2.2,2.2,4.2,3.6,6.1c0.6,0.8,2.1,1.1,2.6,0c2.6-5.6,9.6-4.5,10.8,1.2c0.4,1.9,3.3,1.1,2.9-0.8
				c-1.8-8.5-12.6-9.8-16.3-1.9c0.9,0,1.7,0,2.6,0c-1.6-2.2-3-4.4-4-7c-0.7-1.9-0.6-5-1.7-6.7c-1-1.6-2.8-1.9-4.5-1.4
				c-2.6,0.9-3.1,3.3-4.7,5.2c-0.6,0.8-2.7,2.8-3.9,2.1c-0.6-0.4-1.1-3.6-1.4-4.5c-0.7-2.7-1.5-5.4-2.2-8.1
				C1004.4,740.3,1001.5,741.1,1002,742.9L1002,742.9z"/>
		</g>
	</g>
	<g>
		<g>
			<path class="st2" d="M1028.3,748.1c2.1-5,7.8-2.8,9.4,0.9c0.7,1.6,1.2,3.4,2.7,4.5c4.3,3.1,9-4,11.8,3.1
				c2.5,6.4,10.2,9.3,14.8,2.8c1.1-1.6-1.5-3.1-2.6-1.5c-1.3,1.8-3.6,2.7-5.8,2c-2.6-0.8-3-3.1-3.9-5.3c-0.6-1.5-1.1-3.1-2.4-4.2
				c-1.3-1.1-2.8-1.3-4.4-1c-0.9,0.2-1.8,1-2.7,1.2c-3.3,0.6-3.9-1.2-5.1-3.6c-3.1-6.3-11.9-6.5-14.8,0.3
				C1024.6,749.1,1027.5,749.9,1028.3,748.1L1028.3,748.1z"/>
		</g>
	</g>
	<g>
		<g>
			<path class="st2" d="M1325.2,404.3c-4.2-4.1-2.5-12.6,3.2-14.6c7.1-2.4,12.9,7,9.6,12.9c-1,1.7,1.6,3.2,2.6,1.5
				c4.5-7.9-2.8-19.7-12.3-17.5c-8.4,2-11.3,14-5.3,19.8C1324.4,407.7,1326.5,405.6,1325.2,404.3L1325.2,404.3z"/>
		</g>
	</g>
	<g>
		<g>
			<path class="st2" d="M542.3,1003.1c-6-6.9-2.5-19,7.7-18.6c8.9,0.4,11.9,12.4,3.9,16.6c-1.7,0.9-0.2,3.5,1.5,2.6
				c10.2-5.4,6.8-21-4.6-22.1c-13.3-1.3-18.6,14.4-10.7,23.6C541.4,1006.7,543.5,1004.6,542.3,1003.1L542.3,1003.1z"/>
		</g>
	</g>
	<g>
		<g>
			<path class="st2" d="M529.1,864.2c-3.4-2.7-10.4-9.8-1.2-11.9c1.8-0.4,3.5,0.4,5.3-0.3c3.6-1.4,4.8-5.3,4.7-8.9
				c-0.1-2.4-0.9-4.7-1.4-7c-0.6-2.7-1.8-5.8,2-5.9c0.7,0,1.4,0.3,2.2,0.3c3.5,0,6-2.4,7.2-5.5c0.7-1.8-2.2-2.6-2.9-0.8
				c-2.4,6.6-10.3-1.2-11.8,6.4c-1.1,5.9,6.6,18.1-3.7,18.7c-4.1,0.2-7.7,0.1-8.8,5c-1.1,5.1,2.8,8.9,6.4,11.8
				C528.4,867.5,530.6,865.4,529.1,864.2L529.1,864.2z"/>
		</g>
	</g>
	<g>
		<g>
			<path class="st2" d="M551.3,850.2c-1.5-2.5-4-6.9-2.9-10c1.2-3.3,6.8-3,9.4-5.2c3.5-2.9,4.8-7.4,3.6-11.8
				c-0.5-1.9-3.4-1.1-2.9,0.8c0.8,2.8,0.3,5.5-1.6,7.7c-1.9,2.1-4,2-6.4,2.9c-1.9,0.7-3.5,1.6-4.5,3.4c-2.2,4.4,0.4,9.9,2.7,13.7
				C549.7,853.3,552.3,851.8,551.3,850.2L551.3,850.2z"/>
		</g>
	</g>
	<g>
		<g>
			<path class="st4" d="M308.6,410c-2.8,1.9-7.9,5.9-11.6,3.3c-4.1-2.8,0.5-10.2,2-13.1c3.4-6.6,7.6-12.8,12.3-18.5
				c9.5-11.6,20.8-21.6,32.2-31.3c2.9-2.5-1.3-6.7-4.2-4.2c-15.7,13.4-31.4,27.5-42.3,45.4c-3.7,6.1-10.6,16.3-6.4,23.6
				c4.8,8.3,14.9,4.2,20.9,0.1C314.8,413,311.8,407.8,308.6,410L308.6,410z"/>
		</g>
	</g>
	<g>
		<g>
			<path class="st4" d="M365.8,331.1c9-7.3,18-14.6,27-21.9c3-2.4-1.3-6.7-4.2-4.2c-9,7.3-18,14.6-27,21.9
				C358.5,329.3,362.8,333.5,365.8,331.1L365.8,331.1z"/>
		</g>
	</g>
	<g>
		<g>
			<path class="st4" d="M417.1,297.3c4.6-2.4,21.3-12.2,24.3-4.3c2.6,6.8-3.8,16.7-7.9,21.7c-2.4,3,1.8,7.2,4.2,4.2
				c6-7.3,14-20.8,8.2-30.4c-6.6-10.8-24.1-0.5-31.9,3.6C410.6,293.9,413.7,299.1,417.1,297.3L417.1,297.3z"/>
		</g>
	</g>
	<g>
		<g>
			<path class="st4" d="M333,381.4c13.6-15.5,28.8-29.6,45.4-41.9c3.1-2.3,0.1-7.5-3-5.2c-17,12.6-32.6,26.9-46.6,42.9
				C326.2,380,330.4,384.3,333,381.4L333,381.4z"/>
		</g>
	</g>
	<g>
		<g>
			<path class="st4" d="M1058.4,898.1c1.5-11.2,16.7-6.4,22.9-3.5c6.2,2.9,12.1,6.5,17.6,10.5c12.1,8.9,22.4,20.4,30.5,33.1
				c8.7,13.6,15,28.6,19.4,44.2c2,7.1,14.4,49.7-3.3,45.1c-3.7-1-5.3,4.8-1.6,5.8c5.8,1.5,11.4-1.2,14.6-6.2
				c3.8-6,2.8-13.6,1.7-20.2c-2.6-16.3-6.8-32.5-13.3-47.7c-11.8-28.1-31.7-53.6-59.1-67.9c-7-3.6-15.2-7.6-23.3-5.9
				c-6.6,1.3-11.4,6.2-12.2,12.8C1051.9,902,1057.9,901.9,1058.4,898.1L1058.4,898.1z"/>
		</g>
	</g>
	<g>
		<g>
			<path class="st4" d="M1126.5,954.5c10.3,15.8,15.4,34.1,14.8,53c-0.1,3.9,5.9,3.9,6,0c0.7-19.9-4.7-39.4-15.6-56
				C1129.6,948.2,1124.4,951.2,1126.5,954.5L1126.5,954.5z"/>
		</g>
	</g>
	<g>
		<g>
			<path class="st4" d="M1070.7,877.3c10.3,1.2,19.7,5.9,27,13.2c2.7,2.7,7-1.5,4.2-4.2c-8.5-8.6-19.3-13.6-31.2-15
				C1066.9,870.9,1066.9,876.9,1070.7,877.3L1070.7,877.3z"/>
		</g>
	</g>
</g>
<g id="background">
	<g>
		<path class="st4" d="M424.8,349.7c0,0,0,0.4,0,1.2c0,0.8,0,2-0.1,3.5c-0.2,3.1-0.7,7.6-2.2,13.2c-1.5,5.5-3.9,12.2-8.2,19.1
			c-4.3,6.8-10.4,13.9-18.8,19.6c-4.1,2.8-8.8,5.3-13.9,7.2c-1.3,0.5-2.6,0.9-3.9,1.3c-1.3,0.4-2.7,0.8-4,1.1
			c-0.7,0.2-1.4,0.3-2.1,0.5c-0.7,0.1-1.4,0.2-2.1,0.4c-1.4,0.3-2.8,0.4-4.3,0.6c-1.4,0.2-2.9,0.2-4.3,0.3c-1.5,0-2.9,0.1-4.4,0
			c-0.7,0-1.4-0.1-2.2-0.1c-0.7,0-1.5-0.1-2.2-0.2c-1.5-0.1-3-0.4-4.5-0.6c-3-0.5-6-1.2-8.9-2.1c-2.9-0.9-5.8-2-8.7-3.3
			c-11.3-5.2-21.5-13.7-28.9-24.5c-7.3-10.8-11.7-23.8-11.9-37.2c0-3.3,0.1-6.7,0.5-10c0.5-3.3,1.1-6.6,2-9.8c1-3.2,2.1-6.3,3.5-9.4
			c1.4-3,3-5.9,4.8-8.7c7.3-11.1,17.8-19.7,29.4-24.8c11.6-5.2,24.2-6.8,35.7-5.4c5.8,0.7,11.3,2,16.4,4c5.1,2,9.8,4.5,13.9,7.3
			c8.3,5.7,14.4,12.8,18.8,19.7c4.4,6.8,6.7,13.6,8.2,19.1c1.5,5.6,2,10.1,2.1,13.2c0.1,1.5,0.1,2.7,0.1,3.5
			C424.8,349.3,424.8,349.7,424.8,349.7L424.8,349.7z M424.4,349.7c0,0,0-0.4,0-1.2c0-0.8,0-2-0.2-3.5c-0.2-3-0.7-7.5-2.4-13
			c-0.8-2.7-1.9-5.7-3.4-8.8c-1.5-3.1-3.3-6.3-5.6-9.5c-4.6-6.4-10.9-12.8-19.1-17.8c-4.1-2.5-8.6-4.7-13.4-6.5
			c-4.8-1.7-10.1-2.9-15.5-3.5c-1.4-0.2-2.7-0.2-4.1-0.3c-0.7,0-1.4,0-2.1,0l-1.1,0l-1,0c-0.7,0-1.4,0-2.1,0.1
			c-0.7,0-1.4,0.1-2.1,0.1c-1.4,0.1-2.8,0.3-4.2,0.5c-2.8,0.4-5.7,1-8.5,1.8c-1.4,0.4-2.8,0.9-4.2,1.3c-0.7,0.2-1.4,0.5-2.1,0.8
			c-0.7,0.3-1.4,0.5-2.1,0.8c-11,4.6-21,12.6-28.2,22.9c-1.8,2.6-3.4,5.3-4.8,8.1c-1.4,2.8-2.6,5.8-3.6,8.8c-1,3-1.8,6.1-2.3,9.3
			c-0.5,3.2-0.8,6.3-0.9,9.6c0,3.2,0.1,6.5,0.5,9.7c0.5,3.2,1.1,6.4,2,9.5c0.9,3.1,2.1,6.1,3.4,9c1.4,2.9,3,5.7,4.8,8.3
			c3.6,5.3,7.9,10,12.8,13.9c4.9,3.9,10.3,7,15.9,9.3c2.8,1.1,5.6,2.1,8.5,2.8c2.9,0.8,5.8,1.3,8.6,1.6c1.4,0.1,2.9,0.3,4.3,0.4
			c0.7,0,1.4,0.1,2.1,0.1c0.7,0,1.5,0,2.2,0c1.4,0,2.8-0.1,4.2-0.1c1.4-0.1,2.8-0.2,4.1-0.4c5.4-0.7,10.7-1.9,15.5-3.7
			c4.8-1.8,9.3-4,13.4-6.6c8.1-5.1,14.5-11.5,19.1-17.9c2.3-3.2,4.1-6.4,5.6-9.5c1.5-3.1,2.6-6,3.4-8.8c1.7-5.5,2.2-10,2.4-13
			c0.2-1.5,0.1-2.7,0.2-3.5C424.3,350.1,424.4,349.7,424.4,349.7L424.4,349.7z"/>
	</g>
	<g>
		<path class="st4" d="M1163.1,954.7c0,0-0.1,1.4-0.2,3.9c0,0.6,0,1.3-0.1,2.1c-0.1,0.8-0.2,1.6-0.4,2.5c-0.2,0.9-0.2,1.9-0.5,3
			c-0.2,1-0.5,2.1-0.8,3.3c-1.3,4.6-3.1,10.2-6.8,15.9c-0.9,1.4-1.9,2.8-3,4.3c-0.5,0.8-1.1,1.4-1.7,2.1c-0.6,0.7-1.2,1.4-1.8,2.1
			c-0.3,0.4-0.6,0.7-1,1c-0.3,0.3-0.7,0.7-1,1c-0.7,0.7-1.4,1.4-2.1,2.1c-1.5,1.3-3.2,2.5-4.9,3.8c-6.9,4.8-15.6,8.2-25.2,9.2
			c-1.2,0.2-2.4,0.1-3.6,0.2c-0.6,0-1.2,0-1.8,0.1l-0.9,0c0,0-0.2,0-0.2,0l-0.1,0l-0.2,0l-0.4,0c-2.4-0.2-4.8-0.2-7.3-0.8
			c-5.1-0.7-9.9-2.4-14.7-4.5c-1.2-0.6-2.3-1.2-3.5-1.8c-0.6-0.3-1.1-0.6-1.7-1l-1.7-1.1l-1.7-1.1c-0.5-0.4-1.1-0.8-1.6-1.2
			c-1-0.8-2.1-1.6-3.1-2.4c-4-3.5-7.6-7.5-10.7-11.9c-0.7-1.1-1.4-2.3-2.1-3.5l-0.5-0.9c-0.2-0.3-0.3-0.6-0.5-0.9l-0.9-1.8l-0.9-1.8
			c-0.3-0.6-0.5-1.3-0.8-1.9c-0.5-1.3-1-2.5-1.4-3.8c-1.7-5.2-2.6-10.7-2.8-16.3l0.1-4.1c0-0.7,0-1.3,0.1-2l0.3-2.1l0.3-2.1l0.1-1
			l0.2-1l1-4.1c1.6-5.3,3.9-10.4,6.9-15.1c3.1-4.6,6.8-8.7,10.9-12.2c1-0.9,2.2-1.6,3.2-2.5c0.5-0.4,1.1-0.8,1.6-1.2l1.7-1.1l1.7-1
			c0.6-0.3,1.1-0.7,1.7-1c1.2-0.6,2.4-1.2,3.6-1.7c4.9-2.1,9.9-3.7,14.9-4.3c2.5-0.5,5-0.5,7.5-0.6l0.5,0l0.2,0l0.1,0
			c0,0,0.3,0,0.2,0l0.9,0.1c0.6,0,1.2,0.1,1.8,0.1s1.2,0.1,1.8,0.1c0.6,0,1.2,0,1.8,0.2c1.2,0.2,2.4,0.4,3.6,0.6
			c0.6,0.1,1.2,0.2,1.8,0.3c0.6,0.1,1.1,0.3,1.7,0.4c1.1,0.3,2.3,0.6,3.4,0.9c1.1,0.3,2.2,0.8,3.2,1.2c4.3,1.6,8.1,3.8,11.6,6.1
			c1.7,1.2,3.3,2.5,4.8,3.8c0.7,0.7,1.4,1.4,2.1,2.1c0.4,0.3,0.7,0.7,1,1c0.4,0.3,0.7,0.7,1,1c0.6,0.7,1.2,1.4,1.8,2.1
			c0.6,0.7,1.2,1.4,1.7,2.1c1,1.5,2.1,2.9,3,4.3c3.6,5.7,5.5,11.3,6.7,15.9c0.3,1.2,0.5,2.3,0.8,3.3c0.2,1,0.3,2,0.5,3
			c0.1,0.9,0.3,1.8,0.4,2.5c0.1,0.8,0.1,1.5,0.1,2.1C1163.1,953.4,1163.1,954.7,1163.1,954.7L1163.1,954.7z M1162.7,954.7
			c0,0-0.1-1.4-0.2-3.9c-0.1-0.6,0-1.3-0.2-2.1c-0.1-0.8-0.3-1.6-0.4-2.5c-0.2-0.9-0.3-1.9-0.5-2.9c-0.3-1-0.6-2.1-0.9-3.2
			c-0.2-0.6-0.3-1.2-0.5-1.7c-0.2-0.6-0.5-1.2-0.7-1.8c-0.2-0.6-0.5-1.2-0.8-1.9c-0.3-0.6-0.5-1.3-0.9-1.9c-0.7-1.3-1.3-2.6-2.1-3.9
			c-0.8-1.3-1.7-2.6-2.6-3.9c-3.8-5.3-9.1-10.5-15.9-14.7c-3.4-2-7.1-3.9-11.1-5.2c-1-0.3-2-0.7-3-1c-1-0.3-2.1-0.5-3.2-0.8
			c-0.5-0.1-1.1-0.3-1.6-0.4c-0.5-0.1-1.1-0.2-1.6-0.2c-1.1-0.2-2.2-0.3-3.3-0.5c-0.5-0.1-1.1-0.1-1.7-0.1c-0.6,0-1.2,0-1.8-0.1
			c-0.6,0-1.2,0-1.8-0.1l-0.9,0l-0.8,0c-2.3,0.2-4.6,0.1-7,0.6c-1.2,0.2-2.3,0.3-3.5,0.6c-1.2,0.3-2.3,0.6-3.5,0.9
			c-1.2,0.2-2.3,0.7-3.5,1.1l-1.7,0.6c-0.6,0.2-1.2,0.4-1.7,0.7c-1.1,0.5-2.2,1-3.4,1.6c-0.6,0.2-1.1,0.6-1.6,0.9l-1.6,0.9l-1.6,0.9
			c-0.5,0.3-1,0.7-1.5,1.1c-1,0.7-2.1,1.5-3.1,2.2c-3.9,3.2-7.4,7-10.4,11.2c-2.9,4.3-5.3,9-7,14l-1.1,3.8l-0.3,1l-0.2,1l-0.3,1.9
			l-0.4,1.9c-0.1,0.6-0.1,1.3-0.2,2l-0.3,4c0,5.3,0.6,10.7,2,15.8c1.6,5.1,3.8,10,6.8,14.4c0.8,1.1,1.6,2.1,2.4,3.2
			c0.4,0.5,0.8,1.1,1.2,1.5l1.3,1.4l1.3,1.4c0.2,0.2,0.4,0.5,0.7,0.7l0.7,0.6c1,0.9,2,1.7,2.9,2.6c1,0.8,2.1,1.5,3.1,2.3
			c0.5,0.4,1,0.8,1.6,1.1l1.7,0.9l1.7,0.9c0.6,0.3,1.1,0.6,1.7,0.9c1.2,0.5,2.3,1,3.4,1.5c0.6,0.3,1.2,0.5,1.7,0.7l1.8,0.6
			c1.2,0.4,2.3,0.8,3.5,1c1.2,0.3,2.4,0.5,3.6,0.8c1.2,0.2,2.4,0.3,3.5,0.5c2.3,0.4,4.8,0.3,7.2,0.4l0.4,0l0.2,0l0.1,0
			c0.1,0-0.1,0,0,0l0.9-0.1c0.6,0,1.2-0.1,1.7-0.1c1.1-0.1,2.3-0.1,3.4-0.3c9-1.1,17.1-4.3,23.9-8.4c6.8-4.2,12-9.4,15.9-14.7
			c0.9-1.4,1.8-2.7,2.6-3.9c0.7-1.4,1.4-2.7,2.1-3.9c0.4-0.6,0.6-1.3,0.9-1.9c0.3-0.6,0.5-1.2,0.8-1.9c0.2-0.6,0.5-1.2,0.7-1.8
			c0.2-0.6,0.3-1.2,0.5-1.7c0.3-1.1,0.6-2.2,0.9-3.2c0.3-1,0.4-2,0.5-2.9c0.1-0.9,0.3-1.7,0.4-2.5c0.1-0.8,0.1-1.5,0.2-2.1
			C1162.7,956.1,1162.7,954.7,1162.7,954.7L1162.7,954.7z"/>
	</g>
	<g>
		<path class="st4" d="M1253.5,452.2c0,0,0,0.8-0.1,2.2c0,0.4,0,0.8-0.1,1.2c-0.1,0.4-0.1,0.9-0.2,1.5c-0.1,0.5-0.1,1.1-0.2,1.7
			c-0.1,0.6-0.3,1.2-0.4,1.9c-0.7,2.6-1.7,5.9-3.7,9.2c-2,3.3-4.8,6.9-8.8,9.7c-4,2.9-9.1,4.9-14.7,5.5c-0.7,0.1-1.4,0.1-2.1,0.1
			l-1.1,0l-0.5,0l-0.1,0l-0.1,0l-0.1,0l-0.3,0c-1.4-0.1-2.7-0.2-4.2-0.5c-3-0.5-5.7-1.5-8.5-2.8c-2.7-1.3-5.2-3.1-7.6-5
			c-2.3-2-4.4-4.3-6.2-6.9c-0.8-1.3-1.7-2.6-2.3-4.1c-0.4-0.7-0.7-1.4-1-2.1c-0.3-0.7-0.6-1.5-0.9-2.2c-1-3-1.6-6.2-1.8-9.4
			c0-1.7-0.1-3.1,0.2-4.8c0.1-1.7,0.5-3.2,0.9-4.8c0.9-3.1,2.2-6.1,4-8.8c1.8-2.7,3.9-5.1,6.3-7.2c2.5-2,5.1-3.8,7.9-5
			c2.8-1.2,5.8-2.2,8.8-2.5c1.5-0.3,3-0.3,4.4-0.4l0.3,0l0.1,0l0.1,0l0.2,0l0.5,0l1,0.1c0.7,0.1,1.3,0.1,2,0.2
			c0.7,0.1,1.4,0.2,2.2,0.3c0.4,0.1,0.7,0.1,1.1,0.2l1,0.3c0.7,0.2,1.3,0.4,2,0.5c0.6,0.2,1.3,0.5,1.9,0.7c2.5,0.9,4.7,2.3,6.7,3.7
			c4,2.9,6.8,6.5,8.8,9.8c2,3.4,3,6.6,3.7,9.3c0.1,0.7,0.3,1.3,0.4,1.9c0.1,0.6,0.2,1.2,0.2,1.7c0.1,0.5,0.1,1,0.2,1.5
			c0.1,0.4,0,0.9,0.1,1.2C1253.4,451.4,1253.5,452.2,1253.5,452.2L1253.5,452.2z M1253.1,452.2c0,0,0-0.8-0.1-2.2
			c0-0.4,0-0.8-0.1-1.2c-0.1-0.4-0.2-0.9-0.2-1.4c-0.1-0.5-0.2-1.1-0.3-1.7c-0.2-0.6-0.4-1.2-0.5-1.8c-0.1-0.3-0.2-0.7-0.3-1
			c-0.1-0.3-0.3-0.7-0.4-1c-0.3-0.7-0.6-1.4-1-2.1c-0.4-0.7-0.8-1.4-1.2-2.2c-0.5-0.7-1-1.4-1.6-2.2c-2.2-2.9-5.3-5.8-9.1-8
			c-1.9-1.1-4-2.1-6.2-2.8c-0.6-0.2-1.1-0.4-1.7-0.5c-0.6-0.1-1.2-0.3-1.8-0.4l-0.9-0.2c-0.3-0.1-0.6-0.1-0.9-0.1
			c-0.6-0.1-1.2-0.2-1.8-0.2c-0.6-0.1-1.3-0.1-2-0.1l-1,0l-0.5,0c-0.1,0,0.1,0,0,0l-0.1,0l-0.1,0l-0.2,0c-1.3,0.1-2.6,0.1-3.9,0.3
			c-2.6,0.3-5.2,1.1-7.7,2.1c-2.5,1-4.9,2.5-7.1,4.2c-2.2,1.8-4.1,3.9-5.9,6.2c-1.6,2.4-3,5-4,7.7c-0.4,1.4-0.9,2.8-1.1,4.2
			c-0.4,1.4-0.4,3.1-0.6,4.5c0,3,0.2,6,1,8.9c0.9,2.9,2.1,5.7,3.8,8.2c0.9,1.2,1.8,2.4,2.8,3.5c0.5,0.5,1,1.1,1.6,1.6l1.7,1.4
			c2.3,1.8,4.9,3.2,7.5,4.2c2.6,0.9,5.4,1.6,8,1.8c1.2,0.2,2.7,0.1,4.1,0.2l0.3,0l0.1,0l0.1,0c0,0-0.1,0,0,0l0.5,0l1-0.1
			c0.6-0.1,1.3-0.1,1.9-0.2c5-0.7,9.5-2.4,13.3-4.6c3.8-2.3,6.9-5.1,9.1-8c0.5-0.8,1.1-1.5,1.6-2.2c0.4-0.8,0.8-1.5,1.2-2.2
			c0.4-0.7,0.6-1.4,1-2.1c0.1-0.3,0.3-0.7,0.4-1c0.1-0.3,0.2-0.7,0.3-1c0.2-0.6,0.4-1.3,0.5-1.8c0.2-0.6,0.2-1.1,0.3-1.6
			c0.1-0.5,0.2-1,0.2-1.4c0.1-0.4,0.1-0.8,0.1-1.2C1253,453,1253.1,452.2,1253.1,452.2L1253.1,452.2z"/>
	</g>
	<g>
		<path class="st4" d="M1313.6,286c0,0-0.1,1.3-0.2,3.7c0,0.6,0,1.3-0.1,2c-0.1,0.7-0.2,1.6-0.4,2.4c-0.2,0.9-0.2,1.8-0.4,2.8
			c-0.2,1-0.5,2.1-0.8,3.2c-1.2,4.4-3,9.8-6.5,15.3c-0.8,1.4-1.9,2.7-2.8,4.1c-0.5,0.7-1.1,1.4-1.7,2c-0.6,0.7-1.2,1.4-1.8,2.1
			c-1.2,1.4-2.6,2.6-4,3.9c-1.5,1.2-3,2.5-4.7,3.6c-6.6,4.6-15,7.9-24.2,8.9c-1.1,0.2-2.3,0.1-3.5,0.2c-0.6,0-1.2,0-1.8,0.1l-0.9,0
			c0,0-0.2,0-0.2,0l-0.1,0l-0.2,0l-0.4,0c-2.3-0.2-4.6-0.2-7-0.8c-4.9-0.7-9.5-2.3-14.1-4.4c-1.1-0.6-2.2-1.1-3.3-1.7
			c-0.6-0.3-1.1-0.6-1.6-1l-1.6-1l-1.6-1c-0.5-0.4-1-0.8-1.5-1.1c-1-0.8-2-1.5-3-2.3c-3.9-3.4-7.3-7.2-10.3-11.5
			c-0.7-1.1-1.4-2.2-2.1-3.3l-0.5-0.8l-0.4-0.9l-0.9-1.8l-0.9-1.8c-0.3-0.6-0.5-1.2-0.7-1.8c-0.5-1.2-1-2.4-1.4-3.7l-1.1-3.8l-0.3-1
			l-0.2-1l-0.3-2c-0.2-1.3-0.5-2.6-0.5-3.9l-0.3-4l0.1-3.9c0-0.7,0-1.3,0.1-2l0.3-2l0.3-2l0.1-1l0.2-1l0.9-3.9
			c1.5-5.1,3.8-10,6.7-14.5c3-4.4,6.5-8.3,10.5-11.7c1-0.8,2.1-1.6,3.1-2.4c0.5-0.4,1-0.8,1.6-1.1l1.6-1l1.6-1
			c0.5-0.3,1.1-0.7,1.7-0.9c1.2-0.6,2.3-1.1,3.4-1.7c4.7-2,9.5-3.5,14.3-4.1c2.4-0.5,4.8-0.5,7.2-0.6l0.4,0l0.2,0l0.1,0
			c0,0,0.3,0,0.2,0l0.9,0c0.6,0,1.1,0.1,1.7,0.1c0.6,0,1.1,0.1,1.7,0.1c0.6,0,1.1,0,1.7,0.2c1.2,0.2,2.3,0.4,3.5,0.5
			c0.6,0.1,1.2,0.2,1.7,0.3c0.6,0.1,1.1,0.3,1.6,0.4c1.1,0.3,2.2,0.6,3.3,0.9c1.1,0.3,2.1,0.8,3.1,1.1c4.1,1.5,7.8,3.6,11.1,5.9
			c1.6,1.2,3.2,2.4,4.7,3.7c1.4,1.4,2.8,2.6,4,4c0.6,0.7,1.2,1.4,1.8,2.1c0.6,0.7,1.2,1.3,1.6,2c1,1.4,2,2.8,2.8,4.1
			c3.5,5.5,5.2,10.9,6.5,15.3c0.3,1.1,0.5,2.2,0.8,3.2c0.2,1,0.3,2,0.4,2.8c0.1,0.9,0.2,1.7,0.4,2.4c0.1,0.7,0.1,1.4,0.1,2
			C1313.5,284.7,1313.6,286,1313.6,286L1313.6,286z M1313.2,286c0,0-0.1-1.3-0.2-3.7c-0.1-0.6,0-1.3-0.2-2c-0.1-0.7-0.3-1.5-0.4-2.4
			c-0.2-0.9-0.3-1.8-0.5-2.8c-0.3-1-0.6-2-0.9-3.1c-0.2-0.5-0.3-1.1-0.5-1.7c-0.2-0.6-0.4-1.1-0.7-1.7c-0.2-0.6-0.5-1.2-0.7-1.8
			c-0.2-0.6-0.5-1.2-0.8-1.8c-0.6-1.2-1.3-2.5-2-3.7c-0.8-1.2-1.7-2.5-2.5-3.8c-3.7-5-8.8-10.1-15.2-14c-3.3-1.9-6.8-3.8-10.6-5
			c-1-0.3-1.9-0.7-2.9-1c-1-0.2-2-0.5-3-0.7c-0.5-0.1-1-0.3-1.5-0.4c-0.5-0.1-1-0.2-1.5-0.2c-1-0.1-2.1-0.3-3.1-0.4
			c-0.5-0.1-1.1-0.1-1.6-0.1c-0.6,0-1.1,0-1.7-0.1c-0.6,0-1.1,0-1.7-0.1l-0.9,0l-0.7,0c-2.2,0.2-4.5,0.1-6.7,0.5
			c-4.5,0.5-8.9,2-13.3,3.7c-1.1,0.5-2.1,1-3.2,1.5c-0.6,0.2-1.1,0.5-1.6,0.8l-1.5,0.9l-1.6,0.9c-0.5,0.3-1,0.7-1.5,1
			c-1,0.7-2,1.4-2.9,2.1c-3.8,3.1-7.1,6.7-10,10.7c-2.8,4.1-5,8.6-6.7,13.4c-1.6,4.8-2.4,9.7-2.7,15c0,5,0.6,10.2,1.9,15.1
			c1.5,4.9,3.7,9.6,6.5,13.8c0.7,1,1.5,2,2.3,3c0.7,1,1.6,1.9,2.5,2.9l1.3,1.4c0.2,0.2,0.4,0.5,0.6,0.7l0.7,0.6
			c0.9,0.8,1.9,1.6,2.8,2.5c1,0.8,2,1.4,3,2.2c0.5,0.3,1,0.7,1.5,1l1.6,0.9l1.6,0.9c0.5,0.3,1,0.6,1.6,0.8c1.1,0.5,2.2,1,3.3,1.5
			c0.5,0.3,1.1,0.5,1.7,0.6l1.7,0.6c1.1,0.4,2.2,0.8,3.4,1c1.1,0.3,2.3,0.5,3.4,0.8c1.1,0.2,2.3,0.3,3.4,0.5
			c2.2,0.4,4.6,0.3,6.9,0.4l0.4,0l0.2,0l0.1,0c0.1,0-0.1,0,0,0l0.8-0.1c0.6,0,1.1-0.1,1.7-0.1c1.1-0.1,2.2-0.1,3.3-0.3
			c8.6-1.1,16.4-4.1,22.9-8.1c6.5-4,11.6-9,15.2-14.1c0.9-1.3,1.7-2.6,2.5-3.8c0.7-1.3,1.3-2.5,2-3.8c0.3-0.6,0.6-1.2,0.8-1.8
			c0.2-0.6,0.5-1.2,0.7-1.8c0.2-0.6,0.5-1.2,0.7-1.7c0.2-0.6,0.3-1.1,0.5-1.7c0.3-1.1,0.6-2.1,0.9-3.1c0.3-1,0.4-1.9,0.5-2.8
			c0.1-0.9,0.3-1.7,0.4-2.4c0.1-0.7,0.1-1.4,0.2-2C1313.1,287.3,1313.2,286,1313.2,286L1313.2,286z"/>
	</g>
	<g>
		<g>
			<path class="st4" d="M561.5,470.8c-0.9-0.6-0.7-2.1-0.3-2.9c0.7-1.4,2.9-1.8,4.3-1.8c2.8-0.1,5.6,1.2,8.2,1.9
				c3.6,1.1,7.4,1.7,11.1,0.5c6.6-2.3,9.1-9.2,11.5-15.2c1.4-3.5,4.5-9.7,9.1-9.5c3.8,0.2,6.2,4.8,10.4,4.9c7.2,0.3,12-7.3,14.5-13
				c1.5-3.5-3.6-6.6-5.2-3c-2.1,4.8-6.2,12.7-12.1,8.4c-3.2-2.3-6.1-4.3-10.3-3.1c-8.9,2.4-10.9,12-14.5,19.1
				c-3.1,6-7.4,6.7-13.7,4.9c-4.4-1.3-9.1-2.8-13.7-1.1c-6.2,2.4-8.4,11.3-2.3,15.1C561.8,478,564.8,472.9,561.5,470.8L561.5,470.8z
				"/>
		</g>
	</g>
	<g>
		<g>
			<path class="st4" d="M607.2,470.4c-0.6-3.7,2.5-7.6,6.2-8.1c3.3-0.5,5.8,2.3,8.9,2.9c5.7,1,10.1-3.7,12.3-8.3
				c1.4-2.9,2.2-6.5,4.7-8.7c2.2-2,5.4-2.4,8.2-2.9c5.2-0.9,10.2-1.6,13.9-5.8c2.5-2.9-1.7-7.1-4.2-4.2c-4.3,4.9-12.1,3.5-17.8,5.9
				c-7.2,3.1-7.3,9.8-11.6,15.4c-3.7,4.8-7.5,0.3-11.9-0.2c-2.6-0.3-5.3,0.3-7.6,1.5c-5.2,2.9-7.8,8.3-6.8,14.1
				C602.1,475.8,607.9,474.2,607.2,470.4L607.2,470.4z"/>
		</g>
	</g>
	<g>
		<g>
			<path class="st4" d="M620.2,765.3c-3.9-5.3,0-13.6,7.1-11.5c6.9,2,6.4,11.5-0.3,13.5c-3.7,1.1-2.1,6.9,1.6,5.8
				c11.8-3.6,13.2-20.5,1.1-24.8c-11.9-4.3-22.2,9.9-14.7,20C617.2,771.4,622.5,768.4,620.2,765.3L620.2,765.3z"/>
		</g>
	</g>
	<g>
		<g>
			<path class="st4" d="M1203.5,632.8c-0.5-1.8,0.8-2.3,3.8-1.4c1.4,0.5,2.7,1,4,1.6c1.4,0.6,2.8,1.1,4.3,1.4
				c2.8,0.5,5.6-0.1,7.9-1.9c4.9-3.9,4.2-10.4,7.2-15.2c3.2-5.2,5.5-1.5,7.9,1.5c1.3,1.7,2.8,3.1,5,3.6c2.3,0.5,4.6-0.3,6.4-1.8
				c1.2-1,2.2-2.3,3-3.6c0.1-0.2,4.5-6.6,4.6-4.9c0.2,3.8,6.2,3.9,6,0c-0.1-3.6-2.8-6.1-6.4-6.2c-4.2-0.1-6.5,3.2-8.4,6.4
				c-1.8,2.9-3.8,5.4-6.3,1.8c-1-1.4-1.8-2.8-3.2-3.9c-3.1-2.5-7-2.3-10.1,0c-3.5,2.5-5,6.6-6.1,10.5c-0.6,2.3-1.2,5.3-3,7
				c-2.8,2.5-6.8-0.3-9.6-1.4c-3.9-1.5-8.8-1.9-11.6,1.9c-2.1,2.9-2.1,6.5,0.4,9C1202,639.8,1206.2,635.5,1203.5,632.8L1203.5,632.8
				z"/>
		</g>
	</g>
	<g>
		<g>
			<path class="st4" d="M1251.9,638.9c-1.1-4.3,4.8-5,7.5-4.5c2.3,0.4,4.4,1.3,6.7,1.9c3.6,1,7.6,1.6,11.2,0.3c2.8-1,4.8-3,6.3-5.5
				c1.8-3,2.4-7.2,5.5-9.2c3.2-2.1,0.2-7.3-3-5.2c-3.7,2.4-5,5.9-6.8,9.7c-3.5,7.1-9.6,4.6-15.7,2.9c-4.6-1.3-9.5-1.8-13.6,1.1
				c-3.4,2.4-4.9,6.2-3.8,10.2C1247.1,644.2,1252.9,642.6,1251.9,638.9L1251.9,638.9z"/>
		</g>
	</g>
</g>
<g id="cat">
	<path class="st4" d="M417.5,751.4c-22.9,30.5-33.9,43-43.3,56c-7.5,10.3-17.9,26.4-27.5,48.6c-3.1,3.8-7.9,8.3-13.7,8.5
		c-13.6,0.3-17-23-37-35.9c-15.4-10-37.3-11.6-53.9-4.2c-31.6,13.9-37.8,56.6-34.9,58.1c2.8,1.5,15.8-33.9,43.3-38.1
		c9.5-1.4,17.7,1.3,20.1,2.1c14.2,5.1,18,15.3,30.7,26.4c6.5,5.7,16.8,12.9,32.8,18c-1.6,3.8-3.1,8.8-3.2,14.8
		c-0.1,20,16.6,32.9,19.2,34.8c1.3,3,3.3,8.3,3.2,15.3c-0.1,8.7-3.4,15.2-5.1,18.1c5.2,7.5,10.2,13,13.9,16.7
		c8.7,8.5,12.1,9.1,13.4,9.3c8.2,0.8,14.8-7.1,16.2-8.8c-2.2-1-13.1-6.5-17.6-19.5c-4.4-12.7,0.6-23.7,1.9-26.4c1.4-3,3-5.4,4.2-7
		c5.4,3.1,12.1,8.1,15.3,16.2c4.4,11.1-1.6,18.5,3.7,25.5c5.6,7.3,18.1,7.3,25.8,5.1c8.3-2.3,16.9-8.7,15.9-12.7
		c-1.1-4.5-13.7-1.1-20.1-8.5c-5.7-6.5-3-17.4-1.1-25.4c6.2-25.2,20.7-31.4,21.1-49.7c0.2-8.4-2.7-15.4-5.3-20.1
		c17.7-36.4,37.4-52.4,52.9-60.3c9.2-4.7,24.4-8.6,42.4-22.3c8.2-6.2,14.3-11.8,21.3-18.5c8.5-8.1,27-25.8,24.6-29.2
		c-2-2.7-16.6,4.8-20.9,7c-20.6,10.6-23.1,18.7-36.7,21.8c-10.6,2.4-24.8,1-27.5-5.3c-3.2-7.5,13.4-14.7,13.7-30.7
		c0.1-2.5-0.3-5.5-13.7-28.5c-12.2-20.8-15.8-25-18-24.3c-3.4,1.1,0.7,13.8-6.3,20.1c-3.8,3.4-9.1,3.5-12.7,3.2
		c-15.3-15.9-21-18.3-23.3-16.9c-4.2,2.7,5.9,18.3,2.1,38.1C431.5,732.3,427.4,738.2,417.5,751.4z"/>
	<g>
		<g>
			<path class="st5" d="M466,724.2c0.1,0.1,0.1,0.2,0.1,0.3c0-0.2,0-0.1,0,0c0.1-0.3-0.1,0.1,0,0c0.1-0.1-0.1,0.1-0.1,0.1
				c-0.1,0.1,0.1,0,0,0c-0.1,0-0.2,0-0.3,0c0,0-0.3-0.1-0.1,0c0.1,0.1-0.1-0.1-0.1-0.1c0.1,0.1,0,0.1,0,0c0-0.1,0-0.2,0-0.3
				c0-0.1,0.1-0.2,0-0.1c0.1-0.1,0.1-0.2,0.2-0.2c-0.2,0.1,0,0,0.1,0c-0.4,0,0.2,0,0,0c-0.2,0,0.3,0.1,0.1,0c-0.2-0.1,0.3,0.2,0,0
				c-0.7-0.4-1.7-0.1-2.1,0.5c-0.4,0.7-0.1,1.6,0.5,2.1c1,0.7,2.5,0.5,3.3-0.4c1-1,1-2.6,0.1-3.6c-0.9-1-2.3-1.2-3.4-0.5
				c-1.2,0.8-1.5,2.3-0.9,3.6c0.4,0.7,1.4,0.9,2.1,0.5C466.2,725.8,466.3,724.9,466,724.2L466,724.2z"/>
		</g>
	</g>
	<g>
		<g>
			<path class="st5" d="M487,715.9c-0.2-0.3,0.1,0.2,0,0.4c0,0.1-0.1,0.2-0.1,0.3c-0.3,0.3-0.9,0.4-1.2,0c-0.4-0.5,0-1.1,0.4-1.2
				c-0.2,0.1,0,0,0.1,0c0.2,0,0.4,0.1,0.5,0.2c-0.6-0.6-1.6-0.6-2.1,0c-0.6,0.6-0.6,1.5,0,2.1c0.7,0.8,2,0.9,2.9,0.3
				c1.1-0.7,1.3-2.2,0.6-3.2c-0.7-1-2.1-1.3-3.1-0.5c-0.9,0.7-1.2,2.1-0.6,3.1c0.5,0.7,1.3,1,2.1,0.5
				C487.1,717.5,487.5,716.5,487,715.9L487,715.9z"/>
		</g>
	</g>
	<g>
		<g>
			<path class="st5" d="M481.3,726.6c0.8,1.9,2,8.5-1.6,8.6c-1,0-1,1.5,0,1.5c5.1-0.1,4.2-7.9,2.9-10.8
				C482.2,724.9,480.9,725.7,481.3,726.6L481.3,726.6z"/>
		</g>
	</g>
	<g>
		<g>
			<path class="st5" d="M481.8,727.1c0.8,2.2,2.3,4.7,4.6,5.6c1.9,0.7,4.1-0.3,4.2-2.4c0.1-1-1.4-1-1.5,0c-0.1,2.4-3.1,0.6-3.9-0.2
				c-0.9-1-1.6-2.1-2-3.4C482.9,725.8,481.5,726.2,481.8,727.1L481.8,727.1z"/>
		</g>
	</g>
	<g>
		<g>
			<path class="st5" d="M462.6,727.9c1.8-0.4,3.5-0.3,5.1,0.4c0.9,0.4,1.3-1.1,0.4-1.4c-1.9-0.8-3.9-0.9-5.9-0.4
				C461.3,726.7,461.7,728.1,462.6,727.9L462.6,727.9z"/>
		</g>
	</g>
	<g>
		<g>
			<path class="st5" d="M489.3,713.4c-1,1.7-1.6,3.5-1.8,5.5c-0.1,1,1.4,1,1.5,0c0.2-1.7,0.7-3.3,1.6-4.8
				C491.1,713.3,489.8,712.6,489.3,713.4L489.3,713.4z"/>
		</g>
	</g>
	<path class="st4" d="M467.6,781.7c3.2-14.1,16.6-16.8,40.2-35.8c15.9-12.8,24.5-23.5,27.5-21.4c2.3,1.6-0.4,9.8-1.4,12.5
		c-2.6,7.5-6.7,12.4-8.3,14.4c-6.8,7.9-19.3,21.4-43.8,37.7c-4.8,3.2-9.8,6.3-12.7,4.5C465.6,791.3,467.4,782.6,467.6,781.7z"/>
	<path class="st6" d="M419,754.1c-12.8-11.5-16-26.3-16.6-29.3c-4.9-24.9,10-44.1,13.1-47.9c16.6-20.4,49.3-32.3,75.1-18.8
		c20.3,10.7,26.3,32.1,27.8,38.2c4.5,19.1,0.2,42.3-16,57.7C478.6,776.7,439.6,772.7,419,754.1z"/>
</g>
<g id="leg_r">
	<path class="st7" d="M794.5,596.9c-13.3,11.4-31,28.8-47.6,53.2c-12,17.7-32.4,48.5-39.5,92.8c-10.3,64,13.8,114.6,21.8,129.9
		c29.1,55.7,74.4,81.7,91.2,90.4c-3.7,6-8.9,15.4-13.7,27.4c-1.1,2.9-22.8,58.4-8.1,68.6c11.1,7.6,37.8-13.6,41.9-16.9
		c24.4-19.5,35.8-45.7,48.4-75.8c5.3-12.8,9-23.5,11.3-30.7c-13.9-9.7-34.5-26.4-52.4-52.4c-11.2-16.2-49.4-71.6-33.1-122.6
		c7.5-23.4,18-19.8,46.8-67c21.1-34.7,33-54.1,26.6-70.2C879.5,601.8,840.5,592.6,794.5,596.9z"/>
	<g>
		<g>
			<path class="st4" d="M753.1,653.9c17.3-0.2,33.3-9.9,41.4-25.2c0.7-1.3-1.3-2.4-1.9-1.1c-7.7,14.6-22.9,23.9-39.4,24.1
				C751.6,651.7,751.6,653.9,753.1,653.9L753.1,653.9z"/>
		</g>
	</g>
	<g>
		<g>
			<path class="st4" d="M796.8,947.9c22.9-10.6,42.3-27.6,55.7-49c0.8-1.2-1.2-2.4-1.9-1.1c-13.3,21.1-32.3,37.8-54.9,48.2
				C794.4,946.6,795.5,948.5,796.8,947.9L796.8,947.9z"/>
		</g>
	</g>
	<g>
		<g>
			<path class="st4" d="M828.5,928.8c2,7.7,9.8,0.5,12.6-2.2c7.1-6.6,14.7-13,18.6-22.2c0.6-1.3-1.4-2.5-1.9-1.1
				c-2.4,5.6-6.1,10.1-10.4,14.3c-1.9,1.8-3.8,3.6-5.7,5.4c-0.9,0.9-9.6,10-10.9,5.1C830.3,926.8,828.1,927.4,828.5,928.8
				L828.5,928.8z"/>
		</g>
	</g>
	<g>
		<g>
			<path class="st4" d="M793.1,742.4c-10.3,19.5-14.5,41.5-12,63.4c0.2,1.4,2.4,1.4,2.3,0c-2.5-21.5,1.5-43.1,11.6-62.2
				C795.7,742.3,793.7,741.1,793.1,742.4L793.1,742.4z"/>
		</g>
	</g>
	<g>
		<g>
			<path class="st4" d="M783.2,818.4c-1.4-2.4-2.7-5.1-2.2-8c0.4-2.5,2.7-4.7,5.4-4.4c5.9,0.8,3,14.8-3.7,11.4
				c-1.3-0.6-2.4,1.3-1.1,1.9c3.7,1.9,7.8-0.1,9.4-3.8c1.4-3.3,1.3-8.8-2-10.9c-2.8-1.9-6.7-0.5-8.7,1.9c-3.1,3.8-1.2,9.2,1,13
				C782,820.8,783.9,819.7,783.2,818.4L783.2,818.4z"/>
		</g>
	</g>
	<g>
		<g>
			<path class="st4" d="M790.2,828.4c13.2,28.4,30.9,54.4,52.4,77.1c1,1.1,2.6-0.5,1.6-1.6c-21.4-22.6-38.9-48.5-52.1-76.7
				C791.5,826,789.6,827.1,790.2,828.4L790.2,828.4z"/>
		</g>
	</g>
	<g>
		<g>
			<path class="st4" d="M713.8,830.2c3.9-5.9,11.4-8.1,18.1-6c6.8,2.1,11.9,8,14.6,14.4c3.1,7.2,3.8,15.5,1.7,23.1
				c-2.2,7.8-9,15.4-17.7,11.8c-1.3-0.6-1.9,1.6-0.6,2.2c7.8,3.2,15.3-1.7,18.8-8.7c4.4-8.9,3.9-20.3-0.1-29.3
				c-3.3-7.5-9.7-14.4-18-16c-7.2-1.4-14.7,1.4-18.7,7.5C711,830.3,713,831.5,713.8,830.2L713.8,830.2z"/>
		</g>
	</g>
	<g>
		<g>
			<path class="st4" d="M718.2,842c1.1-6.2,8.9-6.3,13.4-4.1c3.5,1.7,6.4,4.8,8.1,8.3c1.9,3.9,2.5,8.6,1,12.8
				c-2.2,6.1-7.9,7.3-13.8,7c-1.4-0.1-1.4,2.2,0,2.3c6.4,0.4,12.6-1,15.4-7.3c2.4-5.4,1.5-12-1.4-17c-2.8-4.9-7.8-8.9-13.6-9.5
				c-4.9-0.5-10.4,1.7-11.3,7C715.8,842.8,718,843.4,718.2,842L718.2,842z"/>
		</g>
	</g>
	<g>
		<g>
			<path class="st4" d="M754,909c14.3-6.9,26.8-16.6,37.1-28.6c0.9-1.1-0.6-2.7-1.6-1.6c-10.2,11.9-22.6,21.4-36.7,28.3
				C751.6,907.7,752.7,909.7,754,909L754,909z"/>
		</g>
	</g>
	<g>
		<g>
			<path class="st4" d="M771.4,898.3c1.7,2.1,3.9,6.5,6.7,7.4c2.2,0.7,4-1,5.6-2.2c5.3-3.7,10.2-7.7,13.6-13.3
				c0.8-1.2-1.2-2.4-1.9-1.1c-2.7,4.4-6.3,7.7-10.3,10.7c-1.7,1.3-3.5,3.1-5.7,2.9c-2.6-0.2-4.6-4-6.3-6
				C772.1,895.6,770.5,897.2,771.4,898.3L771.4,898.3z"/>
		</g>
	</g>
	<g>
		<g>
			<path class="st4" d="M828.8,891c-6.6,12.5-16.2,23-28.1,30.6c-0.7,0.4-0.8,1.5,0,1.9c4.6,2.5,8.5,5.6,11.8,9.6
				c0.9,1.1,2.5-0.5,1.6-1.6c-3.5-4.1-7.5-7.4-12.3-9.9c0,0.6,0,1.3,0,1.9c12.3-7.8,22.2-18.5,29-31.4
				C831.5,890.9,829.5,889.7,828.8,891L828.8,891z"/>
		</g>
	</g>
	<g>
		<g>
			<path class="st4" d="M717.7,707.4c10.1-1.3,20.2-1.1,30.2,0.9c9.4,1.9,19.6,4.7,25.8,12.6c0.9,1.1,2.5-0.5,1.6-1.6
				c-6-7.7-15.8-10.7-25-12.7c-10.7-2.4-21.7-2.8-32.6-1.4C716.3,705.4,716.3,707.6,717.7,707.4L717.7,707.4z"/>
		</g>
	</g>
	<g>
		<g>
			<path class="st4" d="M709.6,734.7c17.1,0.5,33.5,5.1,48.4,13.5c1.3,0.7,2.4-1.2,1.1-1.9c-15.2-8.6-32.1-13.3-49.5-13.9
				C708.2,732.4,708.2,734.7,709.6,734.7L709.6,734.7z"/>
		</g>
	</g>
	<g>
		<g>
			<path class="st4" d="M773.2,720.6c-5.4,8.1-10.1,16.6-14.2,25.4c-0.6,1.3,1.3,2.4,1.9,1.1c4.1-8.8,8.8-17.3,14.2-25.4
				C776,720.5,774,719.4,773.2,720.6L773.2,720.6z"/>
		</g>
	</g>
	<g>
		<g>
			<path class="st4" d="M714.3,716.9c10.6-0.8,21,0.4,31.1,3.6c1.4,0.4,2-1.7,0.6-2.2c-10.3-3.2-20.9-4.4-31.7-3.7
				C712.9,714.8,712.9,717,714.3,716.9L714.3,716.9z"/>
		</g>
	</g>
	<g>
		<g>
			<path class="st4" d="M749.6,709.8c-1.8,2.5-2.9,5.3-3.5,8.3c-0.2,1.4,1.9,2,2.2,0.6c0.5-2.9,1.6-5.4,3.2-7.8
				C752.4,709.7,750.4,708.6,749.6,709.8L749.6,709.8z"/>
		</g>
	</g>
	<g>
		<g>
			<path class="st4" d="M749,716c7.5,2.3,14.3,6.1,20.2,11.3c1.1,0.9,2.7-0.6,1.6-1.6c-6.2-5.4-13.3-9.4-21.2-11.9
				C748.2,713.4,747.6,715.6,749,716L749,716z"/>
		</g>
	</g>
	<g>
		<g>
			<path class="st4" d="M723.7,738.8c-5.6,11.3-8.8,23.4-9.4,36c-0.1,1.4,2.2,1.4,2.3,0c0.6-12.2,3.7-23.9,9.1-34.9
				C726.3,738.6,724.4,737.5,723.7,738.8L723.7,738.8z"/>
		</g>
	</g>
	<g>
		<g>
			<path class="st4" d="M713.8,785.9c-0.8-2.1-1.8-4.6-1.1-6.9c0.6-2,3.1-3.9,4.9-2c1.6,1.6,2.3,4.7,1.1,6.7c-1,1.7-3.2,2.3-4.8,1.1
				c-1.2-0.8-2.3,1.1-1.1,1.9c2.4,1.7,5.8,0.9,7.5-1.4c2.1-2.8,1.3-6.9-0.7-9.5c-2-2.5-5.2-2.5-7.4-0.3c-3.1,3-1.9,7.4-0.6,11
				C712.1,787.8,714.3,787.2,713.8,785.9L713.8,785.9z"/>
		</g>
	</g>
	<g>
		<g>
			<path class="st4" d="M808.7,636.7c-10,13.9-20.8,27.2-32.2,40c-1,1.1,0.6,2.7,1.6,1.6c11.5-12.9,22.4-26.4,32.5-40.4
				C811.5,636.6,809.6,635.5,808.7,636.7L808.7,636.7z"/>
		</g>
	</g>
	<g>
		<g>
			<path class="st4" d="M776.7,678.8c4.3,4.2,9.6,6.6,15.5,7.1c1.4,0.1,1.4-2.1,0-2.3c-5.3-0.5-10.1-2.8-13.9-6.5
				C777.3,676.2,775.7,677.8,776.7,678.8L776.7,678.8z"/>
		</g>
	</g>
	<g>
		<g>
			<path class="st4" d="M784,669.6c3.8,3.7,8.3,6.4,13.4,8.1c1.4,0.5,2-1.7,0.6-2.2c-4.7-1.6-8.8-4.1-12.4-7.5
				C784.5,667,782.9,668.6,784,669.6L784,669.6z"/>
		</g>
	</g>
	<g>
		<g>
			<path class="st4" d="M796,676.2c-1.3,3.1-3.3,5.7-5.9,7.8c-1.1,0.9,0.5,2.5,1.6,1.6c2.7-2.2,4.9-5,6.3-8.2
				C798.5,676.1,796.5,674.9,796,676.2L796,676.2z"/>
		</g>
	</g>
	<g>
		<g>
			<path class="st4" d="M796,655.6c3.6,3.8,8.2,6.2,13.4,7c1.4,0.2,2-2,0.6-2.2c-4.8-0.7-9-2.9-12.4-6.4
				C796.5,652.9,794.9,654.5,796,655.6L796,655.6z"/>
		</g>
	</g>
	<g>
		<g>
			<path class="st4" d="M801.5,648c3.1,3.1,6.9,5.3,11.2,6.3c1.4,0.3,2-1.8,0.6-2.2c-3.9-0.9-7.4-2.8-10.2-5.7
				C802.1,645.4,800.5,647,801.5,648L801.5,648z"/>
		</g>
	</g>
	<g>
		<g>
			<path class="st4" d="M811.9,653.3c0.1,2.8-1,5.3-3.2,7.2c-1.1,0.9,0.5,2.5,1.6,1.6c2.6-2.2,4-5.4,3.8-8.8
				C814.1,651.8,811.9,651.8,811.9,653.3L811.9,653.3z"/>
		</g>
	</g>
	<g>
		<g>
			<path class="st4" d="M783.2,745.4c-7.7,15.8-11.8,32.7-12.4,50.2c0,1.4,2.2,1.4,2.3,0c0.5-17.1,4.6-33.7,12.1-49.1
				C785.8,745.2,783.9,744.1,783.2,745.4L783.2,745.4z"/>
		</g>
	</g>
	<g>
		<g>
			<path class="st4" d="M799.1,713.9c9.9,7.4,18,16.6,24.2,27.3c0.7,1.3,2.7,0.1,1.9-1.1c-6.4-11-14.8-20.5-25.1-28.1
				C799.1,711.1,798,713,799.1,713.9L799.1,713.9z"/>
		</g>
	</g>
	<g>
		<g>
			<path class="st4" d="M811.9,714.2c7.2,5.7,13.3,12.5,18.2,20.2c0.8,1.2,2.7,0.1,1.9-1.1c-5-7.9-11.2-14.9-18.5-20.7
				C812.4,711.7,810.8,713.3,811.9,714.2L811.9,714.2z"/>
		</g>
	</g>
	<g>
		<g>
			<path class="st4" d="M889.4,929.2c-11.8,12.4-7.8,30.2-12,45.4c-2.6,9.5-7.5,18.4-11.6,27.3c-4,8.8-8,17.5-12.1,26.3
				c-0.6,1.3,1.3,2.5,1.9,1.1c7.4-16.2,15.9-32.2,22.1-48.9c5.9-15.9,0.7-36.6,13.1-49.6C892,929.8,890.4,928.2,889.4,929.2
				L889.4,929.2z"/>
		</g>
	</g>
	<g>
		<g>
			<path class="st4" d="M820,964.5c7.2-4.5,14.8-7.7,23.1-9.5c1.4-0.3,0.8-2.5-0.6-2.2c-8.5,1.8-16.4,5.1-23.7,9.7
				C817.7,963.3,818.8,965.3,820,964.5L820,964.5z"/>
		</g>
	</g>
	<g>
		<g>
			<path class="st4" d="M873,917.9c-3.4,7.2-8,13.5-13.9,18.9c-0.7,0.6-0.3,1.6,0.5,1.9c3,1,7.7,4.1,10.6,1.6c2.3-2,4.2-5.1,6.1-7.5
				c2.3-2.8,4.6-5.7,7-8.5c0.9-1.1-0.7-2.7-1.6-1.6c-3.2,3.9-6.4,7.9-9.7,11.8c-1.3,1.6-2.6,4.2-4.9,4.4c-1.8,0.1-5.2-1.8-6.9-2.4
				c0.2,0.6,0.3,1.3,0.5,1.9c6-5.5,10.7-12,14.2-19.3C875.5,917.7,873.6,916.6,873,917.9L873,917.9z"/>
		</g>
	</g>
	<g>
		<g>
			<path class="st4" d="M802,1007.9c6.4-4.7,16.7-3.7,23.5-0.2c1.3,0.7,2.4-1.3,1.1-1.9c-7.5-3.8-18.7-5-25.8,0.2
				C799.7,1006.8,800.8,1008.8,802,1007.9L802,1007.9z"/>
		</g>
	</g>
	<g>
		<g>
			<path class="st4" d="M797.8,1023.1c8-5.2,17.3-6.6,26.4-3.8c1.4,0.4,2-1.8,0.6-2.2c-9.7-2.9-19.7-1.4-28.1,4.1
				C795.5,1022,796.6,1023.9,797.8,1023.1L797.8,1023.1z"/>
		</g>
	</g>
	<g>
		<g>
			<path class="st4" d="M825.4,1007.3c0.8,3.8-0.3,7.6-2.9,10.4c-1,1.1,0.6,2.7,1.6,1.6c3.2-3.5,4.4-8,3.5-12.6
				C827.3,1005.3,825.1,1005.9,825.4,1007.3L825.4,1007.3z"/>
		</g>
	</g>
	<path class="st8" d="M848,704c-10.3,4.5-46.7,21.8-63.5,62c-14.2,33.9-6.3,64.5-0.5,87c13.2,51.2,44.7,84.5,62.5,100.5
		c-0.5,5.5-1.8,13.8-6,23c-8.1,17.7-19.6,22.6-28.5,35.5c-5.9,8.7-12.1,23-10.5,47c2.9,0.3,7.1,0.4,12-0.5
		c7.4-1.3,18.9-5.4,36.5-25.5c11.6-13.3,19.1-25.9,25-37c7.6-14.3,17.1-34.8,25-61c-29.2-22.6-47.8-45.7-59-62
		c-15.1-22-20.7-37.2-22.5-42.5c-4-11.8-11-32.8-6.5-58.5c1.6-8.9,2.5-14.1,6-20.5c9-16.4,23.5-19.7,28.5-36
		C848,710.7,848.1,706.5,848,704z"/>
	<path class="st9" d="M817.9,745.1c-6.5,15-14.6,39.6-13.8,70.1c1.8,63.6,41.1,105.6,52,116.5c3.4,10.7,6.9,27.2,4.4,47
		c-6,46.4-41,73.2-48.9,78.9c6.9-2.2,18-6.5,29.4-15c22-16.3,31.9-38.1,43.8-65.1c4.3-9.6,10-23.9,15-42
		c-29.7-23-48.2-46.9-58.9-63.3c-11.3-17.2-21.9-33.7-26.9-58.2C808.1,784,813.7,758.8,817.9,745.1z"/>
</g>
<g id="leg_l">
	<path class="st7" d="M990.9,644.4c8.3,18,5,38.9,2.4,55c-3.6,22.6-11.7,39.9-17.7,50.4c-2.6,12.8-5.1,34.4,1.4,59.2
		c7.8,30,24.6,48.7,40.2,66c13.3,14.8,36.3,36.8,71.5,55.1c-2,7.4-5.2,18.6-9.5,32.2c-18.3,56.8-29.9,67.9-34.1,71.6
		c-11.5,10.1-32.5,21.7-41.6,15c-7.4-5.4-9.3-24.5,16.5-86.1c-10.8-3.9-25.9-10-42.9-19.1c-17.6-9.3-66.1-35.2-96.7-77.6
		c-46.3-64.3-34.6-143.5-30.6-165.4c-7.1-3.3-19.9-10.5-24.4-23.9c-8.2-24.2,16.1-52.1,35.8-64.1
		C903.7,586.6,972.9,605.3,990.9,644.4z"/>
	<g>
		<g>
			<path class="st5" d="M827.6,645c-6,9.1-6.6,20.7-2.3,30.7c2.1,4.9,5.3,9.3,9.2,13c1.9,1.8,3.9,3.5,6.1,5c0.9,0.6,8.3,4.4,6.9,5.8
				c0.6-0.1,1.2-0.2,1.8-0.2c-12.9-9.5-22.9-23.7-22.6-40.2c0-1.6-2.7-2.1-2.9-0.4c-2.5,14.2,3.3,28.4,15,36.8
				c0.4-0.9,0.8-1.8,1.2-2.7c-14-4.3-17.1-19.8-13.5-32.4c-1-0.1-2-0.3-2.9-0.4c1,13.2,2.6,27.2,13.1,36.5c1.4,1.3,3.5-0.8,2.1-2.1
				c-11.6-11-18.5-28.2-8.8-42.8c-0.9-0.1-1.8-0.2-2.7-0.4c0.4,2.3,0.5,4.5,0.1,6.8c1,0,1.9,0,2.9,0c-1.9-6.4-1.1-12.6,2.4-18.3
				c-0.9-0.1-1.8-0.2-2.7-0.4c1.9,10.7-2.1,21.4-0.6,32.1c0.5,3.6,1.5,7.3,3.5,10.5c1,1.6,2.2,3,3.6,4.2c1.5,1.3,4.9,2.5,5.2,4.7
				c0.6-0.6,1.2-1.2,1.8-1.8c-2.1-0.3-4.3-0.6-6.4-0.9c-1-0.1-2.3,0.7-1.8,1.8c1.7,4.3,4.4,7.3,8.6,9.3c0-0.9,0-1.7,0-2.6
				c-1,0-2.1,0-3.1,0c-0.4,0.9-0.7,1.7-1.1,2.6c1.2,0.6,2.4,1.2,3.5,1.8c0.4-0.9,0.7-1.7,1.1-2.6c-2.3,0.1-4.8-5-5.7-6.7
				c-1.3-2.4-2.3-5-3.1-7.7c-1.5-5.4-1.8-10.9-1-16.4c-0.9,0.1-1.8,0.2-2.7,0.4c3.5,6.3,4.6,13.2,3.1,20.3c0.7-0.3,1.5-0.6,2.2-0.9
				c-0.5-0.9-1-1.8-1.6-2.7c-0.8,0.4-1.5,0.9-2.3,1.3c1.7,1,3.3,2,5,2.9c1.7,1,3.2-1.6,1.5-2.6c-1.7-1-3.3-2-5-2.9
				c-0.9-0.5-2.4,0.1-2.3,1.3c0.3,2.4,1.1,3.9,3.1,5.3c0.8,0.6,2,0,2.2-0.9c1.6-7.9,0.5-15.6-3.4-22.6c-0.6-1-2.5-1-2.7,0.4
				c-1.1,7.4-0.5,14.8,2.2,21.8c1.6,4.1,4.9,13,10.4,12.9c1.4,0,1.9-1.6,1.1-2.6c-1.6-1.9-3.2-2.6-5.7-2.7c-1.3-0.1-2,1.7-1.1,2.6
				c2,1.9,4.5,2.2,6.8,0.5c0.8-0.6,1.1-2.1,0-2.6c-3.5-1.6-5.8-3.9-7.2-7.5c-0.6,0.6-1.2,1.2-1.8,1.8c2.1,0.3,4.3,0.6,6.4,0.9
				c1.2,0.2,2-0.6,1.8-1.8c-0.5-3.5-4.2-4.3-6.5-6.4c-3.8-3.5-5.4-8.9-5.9-13.9c-0.9-10.5,2.6-20.7,0.7-31.1
				c-0.2-1.3-2.1-1.4-2.7-0.4c-3.9,6.3-4.9,13.5-2.7,20.6c0.4,1.3,2.7,1.6,2.9,0c0.4-2.9,0.4-5.5-0.1-8.4c-0.2-1.4-2.1-1.3-2.7-0.4
				c-10.4,15.7-3.3,34.5,9.3,46.4c0.7-0.7,1.4-1.4,2.1-2.1c-9.9-8.7-11.2-21.9-12.2-34.3c-0.1-1.6-2.5-2.1-2.9-0.4
				c-4.1,14.3,0.1,31.3,15.6,36.1c1.7,0.5,2.5-1.8,1.2-2.7c-10.5-7.6-15.8-20.6-13.6-33.4c-1-0.1-2-0.3-2.9-0.4
				c-0.3,17.6,10.4,32.7,24.1,42.8c0.5,0.4,1.4,0.2,1.8-0.2c2.2-2.2,1.4-4.7-0.9-6.5c-4.8-3.7-10-6-14.2-10.6
				c-9.4-10.4-12.3-25.8-4.3-37.9C831.3,644.9,828.7,643.4,827.6,645L827.6,645z"/>
		</g>
	</g>
	<g>
		<g>
			<path class="st4" d="M963.7,667c2.2,11.5-4,22.8-8.5,33c-3.8,8.7-7.7,17.4-11.1,26.3c-6.4,17-10.3,34.6-9.8,52.9
				c0.9,33.2,14.8,65.9,38.7,89.2c15.7,15.2,34.6,26.4,53.5,37.1c1.3,0.7,2.4-1.2,1.1-1.9c-16.7-9.5-33.4-19.2-47.9-32
				c-13.4-11.8-24.1-26.1-31.6-42.4c-7.2-15.9-11.2-33.3-11.6-50.7c-0.4-18.4,3.7-36.1,10.3-53.2c4.1-10.7,9-21.1,13.4-31.6
				c3.7-8.7,7.3-17.6,5.5-27.2C965.6,664.9,963.4,665.6,963.7,667L963.7,667z"/>
		</g>
	</g>
	<g>
		<g>
			<path class="st4" d="M1005.3,955.8c2.7-11.4,7.9-22.1,13.6-32.3c5.3-9.4,11.6-18.3,21.4-23.3c1.3-0.7,0.2-2.6-1.1-1.9
				c-9.7,4.9-16.1,13.5-21.4,22.7c-6.2,10.7-11.7,22.1-14.6,34.2C1002.8,956.6,1004.9,957.2,1005.3,955.8L1005.3,955.8z"/>
		</g>
	</g>
	<g>
		<g>
			<path class="st4" d="M1015.1,959.9c4.6-21.3,16.2-40.3,33.2-54c1.1-0.9-0.5-2.5-1.6-1.6c-17.2,13.9-29.1,33.3-33.7,55
				C1012.7,960.7,1014.8,961.3,1015.1,959.9L1015.1,959.9z"/>
		</g>
	</g>
	<g>
		<g>
			<path class="st4" d="M1071.7,922.2c-4.7,6.1-7,13.7-6.3,21.4c0.3,3.4,1.3,6.7,2.7,9.8c1.8,4,1.4,6.4,0.3,10.4
				c-0.8,2.8-1.6,5.5-2.4,8.2c-6.6,21.5-14.3,42.7-23,63.4c-0.6,1.3,1.4,2.5,1.9,1.1c8.3-19.7,15.8-39.9,22.1-60.3
				c1.6-5.1,3.4-10.3,4.6-15.6c0.8-3.6-0.3-5.7-1.8-9c-4.1-9.5-2.4-20.3,3.9-28.4C1074.5,922.2,1072.5,921,1071.7,922.2
				L1071.7,922.2z"/>
		</g>
	</g>
	<g>
		<g>
			<path class="st4" d="M1020.9,964.1c4.6-4.6,10.3-7.6,16.7-8.8c1.4-0.3,0.8-2.4-0.6-2.2c-6.8,1.2-12.8,4.5-17.7,9.4
				C1018.3,963.5,1019.9,965.1,1020.9,964.1L1020.9,964.1z"/>
		</g>
	</g>
	<g>
		<g>
			<path class="st4" d="M1056.6,911.5c-1.6,3.4-3.3,6.7-5.2,9.9c-1.8,3.1-4.8,6.1-6.2,9.3c-2.1,4.6,4.7,4.5,7.9,5.3
				c0.4,0.1,0.8,0,1.1-0.3c5-5.8,9.8-11.7,12.1-19c0.4-1.4-1.7-2-2.2-0.6c-1.3,4.2-3.4,7.9-6,11.4c-0.9,1.2-3.1,4.8-4.5,5.5
				c-1.2,0.6-4.9,0.2-6-0.7c-1,0-1.1-0.2-0.4-0.5c0.6-0.9,1.3-1.7,1.9-2.6c1.2-1.7,2.4-3.5,3.5-5.4c2.2-3.6,4.2-7.4,6-11.3
				C1059.2,911.3,1057.2,910.1,1056.6,911.5L1056.6,911.5z"/>
		</g>
	</g>
	<g>
		<g>
			<path class="st4" d="M1004.2,1011.5c6.6-2.5,17-4.8,22.4,1.2c1,1.1,2.6-0.5,1.6-1.6c-6-6.6-17.2-4.5-24.6-1.7
				C1002.2,1009.8,1002.8,1012,1004.2,1011.5L1004.2,1011.5z"/>
		</g>
	</g>
	<g>
		<g>
			<path class="st4" d="M1000.9,1024c3.8-1.5,7.6-2.6,11.7-2.9c3.1-0.2,6.7,0.9,9.7,0.5c4.1-0.6,5.3-4.7,6-8.5
				c0.3-1.4-1.9-2-2.2-0.6c-0.2,1-0.4,2-0.8,3c-1,2.7-2.5,3.4-5.4,3.6c-2.1,0.1-4.3-0.4-6.5-0.3c-4.6,0.2-8.9,1.3-13.1,3
				C999,1022.4,999.6,1024.6,1000.9,1024L1000.9,1024z"/>
		</g>
	</g>
	<g>
		<g>
			<path class="st4" d="M956,847.2c4.4,2,10.8-3.9,14.1-6.3c5.4-3.9,9.9-8.6,13.4-14.3c0.7-1.2-1.2-2.4-1.9-1.1
				c-2.8,4.8-6.5,8.8-10.8,12.2c-2.2,1.7-10.6,9-13.5,7.6C955.9,844.7,954.7,846.6,956,847.2L956,847.2z"/>
		</g>
	</g>
	<g>
		<g>
			<path class="st4" d="M977.6,870.5c8.3-2.8,15.1-10.4,19.7-17.6c0.8-1.2-1.2-2.3-1.9-1.1c-4.3,6.6-10.6,14-18.4,16.6
				C975.6,868.8,976.2,871,977.6,870.5L977.6,870.5z"/>
		</g>
	</g>
	<g>
		<g>
			<path class="st4" d="M860.9,827.8c-2.1-9.1,9.3-11.9,15.6-8.7c5.4,2.8,8.8,8,10.5,13.7c1.5,5,2,10.4,2.2,15.7
				c0.3,7.1-5.1,12.8-12.4,10c-1.3-0.5-1.9,1.6-0.6,2.2c5.6,2.2,12.7-0.5,14.7-6.4c1.5-4.3,0.3-9.9-0.3-14.3
				c-0.6-4.4-1.5-8.8-3.5-12.8c-3.3-6.6-10.1-12.4-17.8-11.9c-6.7,0.4-12.3,6.2-10.8,13.1C859.1,829.8,861.2,829.2,860.9,827.8
				L860.9,827.8z"/>
		</g>
	</g>
	<g>
		<g>
			<path class="st4" d="M863.6,834.5c-0.6-5.4,3.1-10.3,8.9-9.7c4.7,0.5,7.8,4.6,9.4,8.7c1.1,3,1.9,6.4,1.8,9.6
				c-0.1,7.2-5.8,11.1-12.5,7.8c-1.3-0.6-2.4,1.3-1.1,1.9c5.2,2.6,11.2,2.6,14.3-3.1c3-5.4,1.3-13.3-1.1-18.6
				c-2.4-5.2-7.4-9.7-13.5-8.6c-5.8,1.1-9.1,6.3-8.5,11.9C861.5,836,863.8,836,863.6,834.5L863.6,834.5z"/>
		</g>
	</g>
	<g>
		<g>
			<path class="st4" d="M846.8,741.6c5.5-3.6,11.7-5.4,17.9-7.2c7.1-2,14.1-3.2,21.5-2.1c1.4,0.2,2-2,0.6-2.2c-7.2-1-14-0.3-21,1.6
				c-7,1.9-14.1,3.9-20.2,7.9C844.4,740.4,845.5,742.4,846.8,741.6L846.8,741.6z"/>
		</g>
	</g>
	<g>
		<g>
			<path class="st4" d="M846,750.6c3.6-2.4,7.5-4.3,11.7-5.7c0.6-0.2,0.9-0.8,0.8-1.4c-0.4-2.5-0.5-4.9,0-7.4c0.2-1.4-1.9-2-2.2-0.6
				c-0.5,2.9-0.5,5.7,0,8.6c0.3-0.5,0.5-0.9,0.8-1.4c-4.3,1.4-8.4,3.4-12.2,5.9C843.7,749.4,844.8,751.4,846,750.6L846,750.6z"/>
		</g>
	</g>
	<g>
		<g>
			<path class="st4" d="M868,732.9c0.2,2.3-0.5,6.9,2.6,7.4c4.4,0.8,9.9-0.5,14.3-1c0.5-0.1,1-0.3,1.1-0.8c0.3-2,0.7-4.1,1-6.1
				c0.2-1.4-1.9-2-2.2-0.6c-0.3,2-0.7,4.1-1,6.1c0.4-0.3,0.7-0.6,1.1-0.8c-3,0.4-5.9,0.7-8.9,0.8c-0.8,0.1-3,0.5-3.8,0.2
				c-2.2-0.7-1.7-3.4-1.9-5.2C870.1,731.4,867.9,731.4,868,732.9L868,732.9z"/>
		</g>
	</g>
	<g>
		<g>
			<path class="st4" d="M848.3,775.3c14.8-8.5,31.3-12.7,48.3-12.4c1.4,0,1.4-2.2,0-2.3c-17.4-0.3-34.3,4-49.4,12.7
				C845.9,774.1,847,776,848.3,775.3L848.3,775.3z"/>
		</g>
	</g>
	<g>
		<g>
			<path class="st4" d="M864.8,767.9c0.8,3.4,1.4,6.8,1.7,10.3c0.1,0.8,0.7,1.2,1.4,1.1c9.9-2,19.8-3.6,29.8-4.9
				c1.4-0.2,1.4-2.4,0-2.3c-10.2,1.2-20.3,2.9-30.4,4.9c0.5,0.4,0.9,0.7,1.4,1.1c-0.3-3.7-0.9-7.3-1.8-10.9
				C866.6,765.9,864.4,766.5,864.8,767.9L864.8,767.9z"/>
		</g>
	</g>
	<g>
		<g>
			<path class="st4" d="M896,763.4c0.7,2.8,1.1,5.7,1.1,8.6c0,1.4,2.2,1.5,2.3,0c0-3.1-0.4-6.2-1.1-9.2
				C897.8,761.4,895.7,762,896,763.4L896,763.4z"/>
		</g>
	</g>
	<g>
		<g>
			<path class="st4" d="M867.9,773.2c9.4-3.5,19.1-5.2,29.1-5.1c1.4,0,1.4-2.2,0-2.3c-10.2-0.1-20.1,1.6-29.7,5.1
				C865.9,771.6,866.5,773.7,867.9,773.2L867.9,773.2z"/>
		</g>
	</g>
	<g>
		<g>
			<path class="st4" d="M929.4,914.3c13.6-7.3,25.2-17.5,34.3-30c0.9-1.2-1.1-2.3-1.9-1.1c-8.8,12.2-20.2,22.1-33.5,29.2
				C927,913.1,928.1,915,929.4,914.3L929.4,914.3z"/>
		</g>
	</g>
	<g>
		<g>
			<path class="st4" d="M966.3,860.8c-4.6,9.2-10.5,17.5-17.7,24.8c-1,1,0.6,2.6,1.6,1.6c7.4-7.4,13.5-15.9,18.1-25.3
				C968.9,860.6,967,859.5,966.3,860.8L966.3,860.8z"/>
		</g>
	</g>
	<g>
		<g>
			<path class="st4" d="M947,901.7c2.7,3.5,5.7,6.8,8.7,9.9c1,1,2.6-0.6,1.6-1.6c-3.1-3.1-6-6.5-8.7-9.9
				C947.7,899,946.1,900.6,947,901.7L947,901.7z"/>
		</g>
	</g>
	<g>
		<g>
			<path class="st4" d="M955.6,910.4c-3.2,5-7.5,9.1-12.7,11.9c-1.3,0.7-0.1,2.6,1.1,1.9c5.5-3.1,10.1-7.4,13.5-12.8
				C958.3,910.3,956.3,909.1,955.6,910.4L955.6,910.4z"/>
		</g>
	</g>
	<g>
		<g>
			<path class="st4" d="M943.9,868.4c3.1,2.8,6.2,5.6,9.2,8.4c1.1,1,2.7-0.6,1.6-1.6c-3.1-2.8-6.2-5.6-9.2-8.4
				C944.4,865.9,942.8,867.4,943.9,868.4L943.9,868.4z"/>
		</g>
	</g>
	<g>
		<g>
			<path class="st4" d="M944.1,867.4c2.7-2.7,5.3-5.6,7.8-8.5c0.9-1.1-0.7-2.7-1.6-1.6c-2.5,3-5.1,5.8-7.8,8.5
				C941.5,866.8,943.1,868.4,944.1,867.4L944.1,867.4z"/>
		</g>
	</g>
	<g>
		<g>
			<path class="st4" d="M951.9,856.4c-2.7-3-5.2-6.1-7.5-9.3c-0.1,0.5-0.1,0.9-0.2,1.4c2.6-2.8,5.2-5.7,7.8-8.5
				c1-1.1-0.6-2.7-1.6-1.6c-2.6,2.8-5.2,5.7-7.8,8.5c-0.3,0.3-0.5,1-0.2,1.4c2.5,3.4,5.1,6.6,7.9,9.7
				C951.3,859.1,952.9,857.5,951.9,856.4L951.9,856.4z"/>
		</g>
	</g>
	<g>
		<g>
			<path class="st4" d="M954.4,876.4c5.1-4.8,9.1-10.5,11.9-16.9c0.6-1.3-1.4-2.5-1.9-1.1c-2.7,6.2-6.6,11.7-11.5,16.4
				C951.8,875.8,953.4,877.4,954.4,876.4L954.4,876.4z"/>
		</g>
	</g>
	<g>
		<g>
			<path class="st4" d="M944.1,837.8c-2.8,2.9-5.4,5.8-8,8.8c-0.9,1.1,0.7,2.7,1.6,1.6c2.6-3,5.2-6,8-8.8
				C946.7,838.3,945.1,836.7,944.1,837.8L944.1,837.8z"/>
		</g>
	</g>
	<g>
		<g>
			<path class="st4" d="M939.9,852.5c1.3,2,2.7,4,4,6.1c0.8,1.2,2.7,0.1,1.9-1.1c-1.3-2-2.7-4-4-6.1
				C941.1,850.2,939.1,851.3,939.9,852.5L939.9,852.5z"/>
		</g>
	</g>
	<g>
		<g>
			<path class="st4" d="M884.4,816c10.1,9.9,14,24.4,10.4,38.1c-0.4,1.4,1.8,2,2.2,0.6c3.8-14.4-0.3-29.8-11-40.3
				C884.9,813.4,883.3,815,884.4,816L884.4,816z"/>
		</g>
	</g>
	<g>
		<g>
			<path class="st4" d="M924.7,709.9c1.9,20.7-8.8,39.4-12,59.4c-3,18.3,0.3,37,8.8,53.4c0.7,1.3,2.6,0.1,1.9-1.1
				c-9.4-18.1-11.9-38.7-7.2-58.4c4.2-17.6,12.4-34.6,10.7-53.2C926.8,708.5,924.5,708.5,924.7,709.9L924.7,709.9z"/>
		</g>
	</g>
	<g>
		<g>
			<path class="st4" d="M914.6,762.9c6.8,3.1,14.2,3.3,21.2,0.4c1.3-0.6,0.7-2.7-0.6-2.2c-6.4,2.7-13.1,2.7-19.4-0.2
				C914.5,760.4,913.3,762.3,914.6,762.9L914.6,762.9z"/>
		</g>
	</g>
	<g>
		<g>
			<path class="st4" d="M920,748c5.9,3.4,13,3.2,18.6-0.6c1.2-0.8,0.1-2.8-1.1-1.9c-5,3.4-11.1,3.6-16.3,0.6
				C919.9,745.3,918.8,747.3,920,748L920,748z"/>
		</g>
	</g>
	<g>
		<g>
			<path class="st4" d="M979.6,665.8c-3.8,18.7-8.9,37-15.3,54.9c-0.3,0.9,0.6,1.5,1.4,1.4c6.7-1,13.3-1.1,20-0.1
				c1.4,0.2,2-2,0.6-2.2c-7.1-1-14.1-0.9-21.2,0.1c0.5,0.5,0.9,0.9,1.4,1.4c6.4-17.9,11.5-36.3,15.3-54.9
				C982.1,665,979.9,664.4,979.6,665.8L979.6,665.8z"/>
		</g>
	</g>
	<path class="st10" d="M873.4,624.2c-6.5,27.2-22.1,108.1,18.2,190.6c5.6,11.5,27.4,54.1,73.4,93c26.4,22.3,52.1,36.1,70.7,44.5
		c-3.8,2.2-7.6,4.5-11.5,6.7c-4.5,21.2-7.8,36.8-9.4,44.5c-5.7,26.9-8.4,40.4-4,43.8c7,5.4,25.1-4.4,36.4-15.5
		c10-9.9,13.7-20.1,22.2-45.8c7.6-22.8,13.7-41.9,18.2-55.9c-11-6.4-25.7-15.8-41.8-29c-15.7-12.9-35.7-29.3-50.5-53.2
		c-20.9-33.7-23.8-69.5-22.9-93.6c3.6-5.7,8.5-14.4,12.8-25.6c3.8-9.9,20.9-54.2,6.1-81.5C976.2,619.4,926.6,606.9,873.4,624.2z"/>
	<path class="st11" d="M944.5,652.8c-7.6,21.1-17.5,57.6-12.8,102.7c5,48,24.1,81.2,36.7,102.7c26.2,44.7,59.1,74.1,83.5,92
		c-0.8,11.8-2.6,25.9-6.5,41.3c-5.5,21.9-13.5,39.6-20.8,52.8c1.4,0.1,3.2,0.1,5.1-0.2c6.8-1.4,10.7-6.4,12-8.2
		c4.2-3.9,10.1-10,15.7-18.4c7.8-11.7,11.1-22.3,17.4-43c7.2-23.6,11.9-39.3,13.8-45.6c-15.2-7.7-36.6-20.3-58.7-40.3
		c-10.5-9.5-24.3-22.1-35.8-40.3c-21.5-34.4-23.5-71.5-22-95.4c8.9-12.6,25.4-40.2,23.8-76.1c-0.4-8.9-1.8-16.9-3.7-23.8
		C976.3,652.8,960.4,652.8,944.5,652.8z"/>
</g>
<g id="hand_r">
	<path class="st7" d="M840.6,376.2c-15.4-6.1-48.8,46-53.9,53.9c-10.5,16.4-24.2,41.3-34.7,75.1c-27.4,6.8-54.8,13.7-82.1,20.5
		C643.1,509,634.1,506.6,632,509c-1.5,1.8-0.2,7.3,1.9,10.9c2.4,4.2,5.2,4.8,5.1,6.4c-0.2,3.8-15.1,4.1-27,7.7
		c-24.1,7.2-40.7,28.6-38.5,32.1c3,4.6,44.8-15.8,44.9-15.4c0.1,0.3-20.7,5.2-28.2,21.2c-2.9,6.1-4.4,14.9-0.6,18
		c2.1,1.7,5.6,1.2,18-3.9c15.7-6.4,25.8-11.9,26.2-11.2c0.7,1.2-31.6,20.3-29.5,24.9c1.7,3.7,24.9-3.8,27.5-4.6
		c17.8-5.7,31.6-13.3,41.3-19.4c10.1,3.8,28.2,9,50.7,7.1c40.4-3.5,65.9-27.6,72.5-34c13.7-13.3,21.7-33.5,37.9-73.8
		c9.5-23.8,21.1-57.1,12.8-88.6C845.9,382.2,844.3,377.7,840.6,376.2z"/>
	<g>
		<g>
			<path class="st4" d="M591.4,587.9c8.4-12,23.2-16.4,36-22.3c1.7-0.8,0.2-3.4-1.5-2.6c-13.3,6.2-28.2,10.8-37,23.4
				C587.7,588,590.3,589.5,591.4,587.9L591.4,587.9z"/>
		</g>
	</g>
	<g>
		<g>
			<path class="st4" d="M638.9,542.7c5.9,7.6,14.9,11.6,24.5,11.2c1.9-0.1,1.9-3.1,0-3c-8.9,0.4-16.9-3.3-22.3-10.3
				C639.8,539.1,637.7,541.2,638.9,542.7L638.9,542.7z"/>
		</g>
	</g>
	<g>
		<g>
			<path class="st4" d="M774,449.8c4,9.6,10.7,17.5,19.6,23c1.6,1,3.2-1.6,1.5-2.6c-8.2-5-14.5-12.3-18.2-21.2
				C776.2,447.2,773.3,448,774,449.8L774,449.8z"/>
		</g>
	</g>
	<g>
		<g>
			<path class="st4" d="M786.5,431c4.7,6.2,10.4,11,17.4,14.5c-0.2-0.6-0.5-1.1-0.7-1.7c-2.2,9.2-5.4,17.9-9.6,26.4
				c-0.9,1.7,1.7,3.2,2.6,1.5c4.3-8.7,7.6-17.7,9.9-27.1c0.1-0.6-0.1-1.4-0.7-1.7c-6.5-3.2-12-7.6-16.4-13.4
				C788,428,785.4,429.5,786.5,431L786.5,431z"/>
		</g>
	</g>
	<g>
		<g>
			<path class="st4" d="M781.8,440.3c4.5,6.1,9.9,11.3,16.3,15.4c1.6,1,3.1-1.5,1.5-2.6c-5.9-3.8-11.1-8.6-15.2-14.3
				C783.3,437.3,780.7,438.8,781.8,440.3L781.8,440.3z"/>
		</g>
	</g>
	<g>
		<g>
			<path class="st4" d="M781.9,561c-2.1-15.1,10.3-27.3,25.2-25.6c1.9,0.2,1.9-2.8,0-3c-17.1-1.9-30.5,12.6-28.1,29.4
				C779.2,563.7,782.1,562.9,781.9,561L781.9,561z"/>
		</g>
	</g>
	<g>
		<g>
			<path class="st4" d="M693.4,520.4c-1.7,9.9-2,19.9-0.9,29.9c0.2,1.9,3.2,1.9,3,0c-1.1-9.8-0.9-19.4,0.8-29.1
				C696.6,519.3,693.7,518.5,693.4,520.4L693.4,520.4z"/>
		</g>
	</g>
	<g>
		<g>
			<path class="st4" d="M704.7,517.3c-0.2,3.5-0.5,7.1-0.7,10.6c-0.1,0.9-0.1,1.8-0.2,2.7c-0.9,0.7-1.8,1.2-2.9,1.5
				c-1.6,0.7-3.2,1.2-4.8,1.8c-1.8,0.7-1,3.6,0.8,2.9c2.8-1,8.4-1.8,9.7-4.8c0.7-1.7,0.4-4.2,0.6-6c0.2-2.9,0.4-5.7,0.6-8.6
				C707.9,515.4,704.9,515.4,704.7,517.3L704.7,517.3z"/>
		</g>
	</g>
	<g>
		<g>
			<path class="st4" d="M752,501.5c-0.2,3.4-0.4,6.8-0.6,10.2c-0.1,1.9,2.9,1.9,3,0c0.2-3.4,0.4-6.8,0.6-10.2
				C755.1,499.6,752.1,499.6,752,501.5L752,501.5z"/>
		</g>
	</g>
	<g>
		<g>
			<path class="st4" d="M752.3,517.8c0.2,1.7,0.4,3.4,0.6,5.1c0.1,0.8,0.6,1.5,1.5,1.5c0.7,0,1.6-0.7,1.5-1.5
				c-0.2-1.7-0.4-3.4-0.6-5.1c-0.1-0.8-0.6-1.5-1.5-1.5C753.1,516.3,752.2,517,752.3,517.8L752.3,517.8z"/>
		</g>
	</g>
	<g>
		<g>
			<path class="st4" d="M804.4,406.7c6.1,4.6,18.1,2.2,24.7-0.2c8.1-2.9,14.9-8.2,19.8-15.2c1.1-1.6-1.5-3.1-2.6-1.5
				c-4.5,6.3-10.7,11.1-18,13.8c-5.8,2.1-16.9,4.6-22.4,0.5C804.3,403,802.8,405.6,804.4,406.7L804.4,406.7z"/>
		</g>
	</g>
	<g>
		<g>
			<path class="st4" d="M814,396.4c12.8,1.8,25.2-3.8,32.2-14.7c1-1.6-1.6-3.1-2.6-1.5c-6.2,9.6-17.4,15-28.8,13.4
				C812.9,393.2,812.1,396.1,814,396.4L814,396.4z"/>
		</g>
	</g>
	<path class="st9" d="M849.6,402.6c-11.3,15.2-18.8,28.3-23.6,37.3c-16.8,31.9-20.3,46.8-36.7,68.4c-6.1,8.1-16.4,20-32.5,32.2
		c-12.3,2.5-29.9,6.4-50.8,11.8c-25.5,6.7-38.6,10.2-53.3,16.8c-12.1,5.4-29.2,14.6-47.9,30.4c9.2-0.8,20.9-2.7,34-7.1
		c14.7-4.9,26.2-11.3,34.4-16.8c7,2.7,17.5,5.9,30.5,7.1c33,2.8,57.7-10.2,65.8-14.6c7.5-4.1,21.2-11.7,33.1-26.9
		c3.6-4.5,6.9-9.7,15.4-28.7c13.5-30,21.1-47.1,26.5-72.4C846.4,431.4,848.6,418.5,849.6,402.6z"/>
	<path class="st12" d="M593.9,581.4c1.4-1.8,5.8-7.1,20.7-12.8c5.5-2.1,20.9-7.9,22.9-4.4c0.6,1.1,0.2,3.3-4.9,8.8
		c-6.8,4.5-15.8,9.4-26.9,13.2c-6,2.1-11.7,3.5-16.8,4.4C589.8,588.3,591.2,584.9,593.9,581.4z"/>
	<path class="st13" d="M847.6,433.5c-6.4,11.1-17.4,30.4-31.1,54.7c-19.6,34.9-30.7,51.9-39.9,60.7c-11.1,10.5-40,31.8-104.5,25.6
		c10.5,3.9,43.2,14.3,80.4,1.5c26.8-9.3,42.6-26,46.4-30.1c3.9-4.3,11.8-13.6,26.1-47.8C831.5,482.3,839.8,460.5,847.6,433.5z"/>
	<path class="st14" d="M610,598.7c11.8-3.9,26.3-9.3,42.5-16.6c11.7-5.3,19.2-9.3,19.6-8.6c0.5,0.8-11.2,9.4-24.9,15.6
		C632.8,595.5,619.6,597.8,610,598.7z"/>
</g>
<g id="backbag">
	<path class="st15" d="M923.9,378.4c5.7-1.8,88.3-26.6,140.5,21.1c56.6,51.7,27.7,143.2,14.3,185.5c-14.3,45.4-33,58.1-42.8,63
		c-18.9,9.5-37.4,6.3-55.9,3.6c-31.5-4.6-76.1-9.6-133.9-11.2c6.3-79.7,12.7-159.5,19-239.2C884.7,393.6,904.3,386,923.9,378.4z"/>
</g>
<g id="tube">
	<path class="st7" d="M998.7,415c22.1,0.3,56.9,4.3,87.2,27c19.1,14.3,37.3,36.7,63.4,125.3c34.2,115.7,21.1,138,52.3,177.6
		c4.4,5.6,46.1,56.9,111,63.4c80.7,8.1,142.9-58.8,185.5-104.6c73.8-79.4,103.2-169.3,115.7-228.3c12.2,3.7,24.3,7.4,36.5,11.1
		c-38.5,98.5-83.8,172.2-118.9,222c-67.1,95.1-106.8,116.7-131.6,126.8c-17.8,7.3-78.4,32-144.3,6.3c-61.2-23.8-89.1-76.4-98.3-93.5
		c-10.4-19.5-11.1-28.1-27-98.3c-30.8-136.3-41.4-161.8-65-177.6c-13.3-8.9-36.8-18.7-77.7-12.7C991.3,444.6,995,429.8,998.7,415z"
		/>
	<g>
		<g>
			<path class="st4" d="M1066.2,470.6c1.2-10.5,7-19.7,15.8-25.4c1.6-1,0.1-3.6-1.5-2.6c-9.8,6.4-16,16.4-17.3,28
				C1063,472.6,1066,472.5,1066.2,470.6L1066.2,470.6z"/>
		</g>
	</g>
	<g>
		<g>
			<path class="st4" d="M1096.4,509.2c4.9-9.4,13.1-16,23.3-18.9c1.9-0.5,1.1-3.4-0.8-2.9c-10.9,3-19.9,10.2-25.1,20.2
				C1092.9,509.4,1095.5,510.9,1096.4,509.2L1096.4,509.2z"/>
		</g>
	</g>
	<g>
		<g>
			<path class="st4" d="M1091,485.6c4.1-7.3,11.2-12.2,19.5-13.3c1.9-0.2,1.9-3.2,0-3c-9.4,1.2-17.4,6.5-22.1,14.8
				C1087.5,485.8,1090.1,487.3,1091,485.6L1091,485.6z"/>
		</g>
	</g>
	<g>
		<g>
			<path class="st4" d="M1118,581.9c6.2-8.7,16.3-13.5,26.9-13.1c1.9,0.1,1.9-2.9,0-3c-11.8-0.5-22.7,5-29.5,14.6
				C1114.2,582,1116.8,583.5,1118,581.9L1118,581.9z"/>
		</g>
	</g>
	<g>
		<g>
			<path class="st4" d="M1114.1,549.8c5.1-8.3,14.8-11.1,23.9-12.4c1.9-0.3,1.1-3.2-0.8-2.9c-10,1.4-20.1,4.8-25.7,13.8
				C1110.5,549.9,1113.1,551.4,1114.1,549.8L1114.1,549.8z"/>
		</g>
	</g>
	<g>
		<g>
			<path class="st4" d="M1103,532.7c4.9-8.2,13.5-13.2,23-13.5c1.9-0.1,1.9-3.1,0-3c-10.6,0.3-20.1,5.8-25.6,14.9
				C1099.4,532.8,1102,534.3,1103,532.7L1103,532.7z"/>
		</g>
	</g>
	<g>
		<g>
			<path class="st4" d="M1131.5,648.6c8.4-9.1,19.9-13.8,32.3-13.3c1.9,0.1,1.9-2.9,0-3c-13.1-0.5-25.5,4.6-34.4,14.2
				C1128,647.9,1130.2,650,1131.5,648.6L1131.5,648.6z"/>
		</g>
	</g>
	<g>
		<g>
			<path class="st4" d="M1127.4,630.4c7.6-9.3,19-14.1,31-13.1c1.9,0.2,1.9-2.8,0-3c-12.7-1.1-25,4.1-33.1,14
				C1124,629.7,1126.1,631.9,1127.4,630.4L1127.4,630.4z"/>
		</g>
	</g>
	<g>
		<g>
			<path class="st4" d="M1123,610.4c5.6-6.6,13.2-10.7,21.9-11.6c1.9-0.2,1.9-3.2,0-3c-9.4,1-17.8,5.2-24,12.5
				C1119.6,609.8,1121.7,611.9,1123,610.4L1123,610.4z"/>
		</g>
	</g>
	<g>
		<g>
			<path class="st4" d="M1131.6,594c6.2-4.3,13.2-6.1,20.7-5.3c1.9,0.2,1.9-2.8,0-3c-7.9-0.8-15.6,1.1-22.2,5.7
				C1128.5,592.6,1130,595.2,1131.6,594L1131.6,594z"/>
		</g>
	</g>
	<g>
		<g>
			<path class="st4" d="M1162.3,754.3c5.8-10.1,15-17.4,26.1-20.8c1.8-0.6,1.1-3.5-0.8-2.9c-11.9,3.6-21.7,11.4-27.9,22.2
				C1158.7,754.5,1161.3,756,1162.3,754.3L1162.3,754.3z"/>
		</g>
	</g>
	<g>
		<g>
			<path class="st4" d="M1149.9,727.9c6.1-10.3,16.7-16.9,28.6-17.8c1.9-0.1,1.9-3.1,0-3c-13,1-24.5,8.1-31.2,19.3
				C1146.3,728,1148.9,729.5,1149.9,727.9L1149.9,727.9z"/>
		</g>
	</g>
	<g>
		<g>
			<path class="st4" d="M1142.1,694.3c7.1-9.6,18.6-14.7,30.5-13.7c1.9,0.2,1.9-2.8,0-3c-13-1.1-25.4,4.7-33.1,15.2
				C1138.3,694.4,1140.9,695.9,1142.1,694.3L1142.1,694.3z"/>
		</g>
	</g>
	<g>
		<g>
			<path class="st4" d="M1151.1,701.7c7.6-5.4,16.2-8.1,25.5-8c1.9,0,1.9-3,0-3c-9.8-0.1-19,2.7-27,8.4
				C1148,700.2,1149.5,702.8,1151.1,701.7L1151.1,701.7z"/>
		</g>
	</g>
	<g>
		<g>
			<path class="st4" d="M1265.3,798.2c2,6.3,3,12.9,2.7,19.5c-0.3,6.2-1.3,14-6.4,18.1c-1.5,1.2,0.6,3.3,2.1,2.1
				c4.9-4.1,6.2-10.7,7-16.8c1-8.1,0-16.1-2.5-23.8C1267.6,795.6,1264.7,796.4,1265.3,798.2L1265.3,798.2z"/>
		</g>
	</g>
	<g>
		<g>
			<path class="st4" d="M1301.3,812.9c4.5,10.1,3.5,21.4-2.4,30.7c-1,1.6,1.6,3.1,2.6,1.5c6.5-10.2,7.3-22.7,2.4-33.7
				C1303.1,809.6,1300.5,811.1,1301.3,812.9L1301.3,812.9z"/>
		</g>
	</g>
	<g>
		<g>
			<path class="st4" d="M1364.9,805.7c8.2,10.1,10.2,23.6,5.8,35.8c-0.7,1.8,2.2,2.6,2.9,0.8c4.9-13.2,2.3-27.8-6.5-38.7
				C1365.8,802.1,1363.7,804.2,1364.9,805.7L1364.9,805.7z"/>
		</g>
	</g>
	<g>
		<g>
			<path class="st4" d="M1504.9,699.1c6.7,2.7,11.1,8.8,12.2,15.8c0.3,1.9,3.2,1.1,2.9-0.8c-1.2-8.2-6.7-14.8-14.3-17.9
				C1503.9,695.5,1503.1,698.4,1504.9,699.1L1504.9,699.1z"/>
		</g>
	</g>
	<g>
		<g>
			<path class="st4" d="M1557.4,626.9c6.5,2.6,11.6,7.9,13.8,14.5c0.6,1.8,3.5,1,2.9-0.8c-2.6-7.7-8.3-13.6-15.9-16.6
				C1556.4,623.3,1555.7,626.2,1557.4,626.9L1557.4,626.9z"/>
		</g>
	</g>
	<g>
		<g>
			<path class="st4" d="M1432.4,768.1c7.5,9.9,10.6,22,8.6,34.2c-0.3,1.9,2.6,2.7,2.9,0.8c2.1-13-1-26-8.9-36.5
				C1433.8,765.1,1431.2,766.6,1432.4,768.1L1432.4,768.1z"/>
		</g>
	</g>
	<g>
		<g>
			<path class="st4" d="M1403.7,791c7.6,8.8,15.7,19.5,11.4,31.7c-0.6,1.8,2.3,2.6,2.9,0.8c4.6-13.3-3.9-25-12.2-34.7
				C1404.5,787.5,1402.4,789.6,1403.7,791L1403.7,791z"/>
		</g>
	</g>
	<g>
		<g>
			<path class="st4" d="M1190.8,793.7c2.8-10.9,10.1-19.7,20.2-24.6c1.7-0.8,0.2-3.4-1.5-2.6c-10.8,5.2-18.6,14.8-21.6,26.4
				C1187.4,794.8,1190.3,795.6,1190.8,793.7L1190.8,793.7z"/>
		</g>
	</g>
	<g>
		<g>
			<path class="st4" d="M1208.2,810.9c5.8-12,14.8-21.8,26.4-28.5c1.7-1,0.2-3.6-1.5-2.6c-12,6.9-21.5,17.1-27.4,29.6
				C1204.7,811.1,1207.3,812.7,1208.2,810.9L1208.2,810.9z"/>
		</g>
	</g>
	<g>
		<g>
			<path class="st4" d="M1178.2,769.4c3.7-7,9.6-12.5,16.9-15.5c1.8-0.7,1-3.6-0.8-2.9c-8.1,3.3-14.7,9.1-18.7,16.9
				C1174.8,769.5,1177.3,771.1,1178.2,769.4L1178.2,769.4z"/>
		</g>
	</g>
	<g>
		<g>
			<path class="st4" d="M1469.8,735.5c10.3,3.4,17.9,11.9,20.3,22.5c0.4,1.9,3.3,1.1,2.9-0.8c-2.6-11.6-11.1-20.9-22.3-24.6
				C1468.8,732,1468,734.9,1469.8,735.5L1469.8,735.5z"/>
		</g>
	</g>
	<g>
		<g>
			<path class="st4" d="M1488.4,727.2c4.8,2.6,8.4,6.7,10.1,11.9c0.6,1.8,3.5,1,2.9-0.8c-2-5.9-6-10.7-11.5-13.7
				C1488.2,723.7,1486.7,726.3,1488.4,727.2L1488.4,727.2z"/>
		</g>
	</g>
	<g>
		<g>
			<path class="st4" d="M1523.7,676.2c5.4,1.9,9.9,5.4,13.2,10.1c1.1,1.6,3.7,0.1,2.6-1.5c-3.8-5.4-8.9-9.3-15-11.5
				C1522.7,672.7,1521.9,675.6,1523.7,676.2L1523.7,676.2z"/>
		</g>
	</g>
	<g>
		<g>
			<path class="st4" d="M1582.4,572.8c8.3,1.4,15.6,5.7,20.5,12.5c1.1,1.5,3.7,0,2.6-1.5c-5.4-7.4-13.2-12.4-22.3-13.9
				C1581.3,569.6,1580.5,572.5,1582.4,572.8L1582.4,572.8z"/>
		</g>
	</g>
	<g>
		<g>
			<path class="st4" d="M1342.1,816.4c4.5,8.3,5,17.6,1.5,26.4c-0.7,1.8,2.2,2.6,2.9,0.8c3.7-9.5,3-19.8-1.8-28.7
				C1343.8,813.2,1341.2,814.7,1342.1,816.4L1342.1,816.4z"/>
		</g>
	</g>
	<g>
		<g>
			<path class="st4" d="M1465.5,758.3c5.6,5.4,8.5,12.4,8.3,20.2c0,1.9,3,1.9,3,0c0.2-8.5-3-16.4-9.2-22.3
				C1466.2,754.8,1464.1,757,1465.5,758.3L1465.5,758.3z"/>
		</g>
	</g>
	<path class="st11" d="M993.2,427.7c34.8,10.1,84.8,30.9,115.9,77.4c29.6,44.2,17.7,72.5,42.8,158.1
		c18.3,62.4,35.7,121.5,86.7,150.4c65,36.8,144.9,2.2,159.2-4.4c39.9-18.4,64.9-46.6,103.2-90c28.5-32.2,47.1-60.5,56-74.7
		c22.1-35.1,51.1-90.1,70.2-164.2c7.4,2,14.8,4.1,22.1,6.1c-13.7,38.4-27.8,69.3-38.9,91.6c-22.9,46-43.8,76.4-85.5,137.4
		c-16.4,23.9-28.2,40.1-45.8,58.8c-16.3,17.2-30.2,32-51.9,45.8c-13.7,8.7-57.1,35.4-116.8,32.1c-34.1-1.9-58.8-12.8-67.2-16.8
		c-7.2-3.4-43-21-71.7-61.8c-19.6-27.8-26.3-56.4-39.7-113.7c-11.6-49.4-12.6-72.4-29-123.6c-11.9-37.2-19.1-49.4-29.8-59.5
		c-28.2-26.8-67.9-27-85.5-25.9C989.7,443,991.4,435.3,993.2,427.7z"/>
</g>
<g id="torso">
	<path class="st7" d="M833.1,379c-13,16.3-13.3,50.5-14.1,119c-0.2,22.3,0.3,40.7,0.8,53.1c-13.8,20.3-27.6,40.6-41.5,61
		c14.4,11.1,32.6,22.7,54.7,32.3c66.4,29,128.7,22.8,159.9,17.3c13-36.5,22.2-67.4,28.5-89.9c29.4-105.6,23.2-133.9,13.8-153
		c-9.6-19.7-23.2-31.2-29.4-36.3C955,340.1,865.1,338.7,833.1,379z"/>
	<g>
		<g>
			<path class="st4" d="M840.8,571.2c2.6,2.6,5.6,4.5,8.9,5.9c1.8,0.7,2.6-2.2,0.8-2.9c-2.9-1.2-5.4-3-7.6-5.1
				C841.5,567.8,839.4,569.9,840.8,571.2L840.8,571.2z"/>
		</g>
	</g>
	<g>
		<g>
			<path class="st4" d="M818.7,540.3c-0.2,7.9,2.1,15.4,6.8,21.8c0.8,1.2,2.8,0,1.9-1.1c-4.5-6.1-6.7-13.1-6.4-20.6
				C821,538.9,818.8,538.9,818.7,540.3L818.7,540.3z"/>
		</g>
	</g>
	<g>
		<g>
			<path class="st4" d="M937.9,530.7c33.5,10.1,70.6,3.7,98.8-17c1.2-0.8,0-2.8-1.1-1.9c-27.7,20.4-64.1,26.7-97.1,16.7
				C937.1,528.1,936.5,530.3,937.9,530.7L937.9,530.7z"/>
		</g>
	</g>
	<g>
		<g>
			<path class="st4" d="M936.7,529.1c-0.6,2.8-3.1,8.7-1.5,11.5c1.7,2.8,7.8,3.2,10.6,3.7c9.8,2,19.9,2.7,29.9,2
				c20.4-1.3,40.1-8.1,57-19.6c1.2-0.8,0.1-2.8-1.1-1.9c-14.6,10-31.3,16.4-48.8,18.6c-8.5,1.1-17.1,1.2-25.6,0.4
				c-4.7-0.5-9.4-1.3-14-2.3c-3.4-0.8-5.7-0.4-5.8-5.1c-0.1-2.1,0.9-4.6,1.3-6.6C939.2,528.3,937,527.7,936.7,529.1L936.7,529.1z"/>
		</g>
	</g>
	<g>
		<g>
			<path class="st4" d="M795.2,588.2c17.3,21.3,40.9,36.7,67.3,44.2c1.4,0.4,2-1.8,0.6-2.2c-26.1-7.3-49.2-22.6-66.3-43.6
				C795.9,585.5,794.3,587.1,795.2,588.2L795.2,588.2z"/>
		</g>
	</g>
	<g>
		<g>
			<path class="st4" d="M788.3,598c3.5,3,6.9,6,10.4,9.1c2.6,2.3,5.6,5.9,8.7,7.5c4.7,2.5,7.8-1.8,10-5.7c0.7-1.3-1.2-2.4-1.9-1.1
				c-1.8,3.2-3.3,6.1-7.8,4.1c-2-0.9-4.2-3.7-5.9-5.2c-3.9-3.5-7.9-6.9-11.8-10.4C788.8,595.5,787.2,597.1,788.3,598L788.3,598z"/>
		</g>
	</g>
	<g>
		<g>
			<path class="st4" d="M828.9,618.8c-3.9,9.6,8.3,14,15.5,16.9c6.3,2.6,17.1,6.3,20.1-2.7c0.4-1.4-1.7-2-2.2-0.6
				c-2.7,8.2-14.9,2.4-19.9,0c-5-2.4-14.1-6-11.3-13C831.6,618.1,829.4,617.5,828.9,618.8L828.9,618.8z"/>
		</g>
	</g>
	<g>
		<g>
			<path class="st4" d="M802.9,576.8c12,12.9,26.2,23.3,42.2,30.7c1.3,0.6,2.5-1.3,1.1-1.9c-15.8-7.3-29.9-17.5-41.8-30.3
				C803.5,574.1,801.9,575.7,802.9,576.8L802.9,576.8z"/>
		</g>
	</g>
	<g>
		<g>
			<path class="st4" d="M844,444.2c-3.3,0.4-6.2-5.5-6.9-7.9c-1.1-3.6-0.9-7.5,0.5-11c2.8-7.1,10.3-11.4,17.7-8.7
				c6.9,2.5,10.4,10.6,8.1,17.4c-1.3,3.9-4.3,6.9-8,8.6c-3.3,1.5-8.9,3.2-12.3,1.3c-1.3-0.7-2.4,1.2-1.1,1.9
				c4,2.3,10.2,0.7,14.1-1.1c3.9-1.7,7-4.7,8.8-8.6c3.6-8.1-0.1-18.1-8.4-21.5c-9-3.7-18.4,1.8-21.4,10.5c-1.5,4.3-1.4,9.1,0.4,13.3
				c1.3,3.1,4.6,8.4,8.5,7.9C845.4,446.3,845.5,444.1,844,444.2L844,444.2z"/>
		</g>
	</g>
	<g>
		<g>
			<path class="st4" d="M819.1,516.6c12.3,9.8,27.3,15,43.1,14.8c1.4,0,1.5-2.3,0-2.3c-15.1,0.2-29.6-4.7-41.5-14.1
				C819.6,514.1,818,515.7,819.1,516.6L819.1,516.6z"/>
		</g>
	</g>
	<g>
		<g>
			<path class="st4" d="M820.1,507.9c-0.2,0.8,9.5,4.4,11,5c1.6,0.7,4.2,1.2,5.6,2.3c2.7,2.2,1.2,6.9,0.6,9.8
				c-0.3,1.4,1.9,2,2.2,0.6c0.5-2.5,2.2-8.1,1-10.5c-1-2.1-5.4-3-7.3-3.8c-3.9-1.6-7.8-3.6-11.8-5c-1.3-0.4-2.8-0.8-3.3,0.9
				C817.5,508.7,819.7,509.3,820.1,507.9L820.1,507.9z"/>
		</g>
	</g>
	<g>
		<g>
			<path class="st4" d="M875.2,586.5c27.1,9.7,55.7,14,84.4,12.8c1.4-0.1,1.5-2.3,0-2.3c-28.5,1.2-56.9-3.1-83.8-12.7
				C874.4,583.8,873.8,586,875.2,586.5L875.2,586.5z"/>
		</g>
	</g>
	<g>
		<g>
			<path class="st4" d="M819.6,463.6c4.4,2.4,9,3.7,13.9,4.7c2.8,0.6,6.7,0.5,7.7,3.8c0.9,2.9-0.1,7.5-0.2,10.5
				c-0.1,1.4,2.2,1.4,2.3,0c0.2-3.9,0.7-8.4,0.1-12.3c-0.3-1.8-0.5-2.1-2.2-2.8c-3-1.2-6.8-1.3-10-2.1c-3.7-0.9-7.2-2-10.5-3.9
				C819.5,460.9,818.3,462.8,819.6,463.6L819.6,463.6z"/>
		</g>
	</g>
	<g>
		<g>
			<path class="st4" d="M822.8,478.9c3.2,3.5,11,3.7,15.4,4.6c6.7,1.4,13.5,2.5,20.3,3.5c1.4,0.2,2-2,0.6-2.2
				c-5.9-0.8-11.7-1.8-17.5-2.9c-2.8-0.5-5.5-1.1-8.2-1.7c-2.6-0.6-7.1-0.7-9-2.8C823.4,476.2,821.8,477.8,822.8,478.9L822.8,478.9z
				"/>
		</g>
	</g>
	<g>
		<g>
			<path class="st4" d="M914.3,562.4c-1.1,3.9-1.6,7.9-1.8,11.9c0,1.4,2.2,1.4,2.3,0c0.1-3.8,0.7-7.6,1.7-11.3
				C916.8,561.6,914.7,561,914.3,562.4L914.3,562.4z"/>
		</g>
	</g>
	<g>
		<g>
			<path class="st4" d="M915.6,563.1c15,0.7,31.5-0.3,45.8,4.9c1.4,0.5,2-1.7,0.6-2.2c-14.5-5.2-31.2-4.2-46.4-4.9
				C914.2,560.7,914.2,563,915.6,563.1L915.6,563.1z"/>
		</g>
	</g>
	<g>
		<g>
			<path class="st4" d="M914.8,576.5c14.4,1.2,28.8,2.4,43.1,3.5c1.4,0.1,1.4-2.1,0-2.3c-14.4-1.2-28.8-2.4-43.1-3.5
				C913.4,574.1,913.4,576.4,914.8,576.5L914.8,576.5z"/>
		</g>
	</g>
	<g>
		<g>
			<path class="st4" d="M960.2,567.2c-0.3,3.5-1.1,6.8-2.5,10.1c-0.6,1.3,1.6,1.9,2.2,0.6c1.4-3.4,2.3-7,2.6-10.7
				C962.6,565.8,960.3,565.8,960.2,567.2L960.2,567.2z"/>
		</g>
	</g>
	<g>
		<g>
			<path class="st4" d="M923.6,563.6c-1.2,3.8-1.7,7.6-1.8,11.5c0,1.4,2.2,1.4,2.3,0c0-3.7,0.6-7.4,1.7-10.9
				C926.2,562.8,924,562.2,923.6,563.6L923.6,563.6z"/>
		</g>
	</g>
	<g>
		<g>
			<path class="st4" d="M933.7,564c-1.4,3.9-2.3,7.8-2.6,11.9c-0.1,1.4,2.1,1.4,2.3,0c0.3-3.9,1.2-7.6,2.5-11.3
				C936.4,563.3,934.2,562.7,933.7,564L933.7,564z"/>
		</g>
	</g>
	<g>
		<g>
			<path class="st4" d="M945.4,564.5c-1.2,3.7-2.3,7.4-3.5,11.1c-0.4,1.4,1.7,2,2.2,0.6c1.2-3.7,2.3-7.4,3.5-11.1
				C948,563.7,945.9,563.1,945.4,564.5L945.4,564.5z"/>
		</g>
	</g>
	<g>
		<g>
			<path class="st4" d="M964.3,656.1c-0.4,2.8-1.1,5.6-2.1,8.3c-0.5,1.4,1.7,2,2.2,0.6c1-2.7,1.7-5.4,2.1-8.3
				C966.7,655.3,964.5,654.7,964.3,656.1L964.3,656.1z"/>
		</g>
	</g>
	<g>
		<g>
			<path class="st4" d="M975.1,655.6c0,2.4-0.5,4.7-1.6,6.8c-0.7,1.3,1.3,2.4,1.9,1.1c1.3-2.5,2-5.2,1.9-8
				C977.4,654.1,975.1,654.1,975.1,655.6L975.1,655.6z"/>
		</g>
	</g>
	<g>
		<g>
			<path class="st4" d="M986.3,653.9c0,2-0.5,3.9-1.6,5.6c-0.8,1.2,1.2,2.4,1.9,1.1c1.3-2,1.9-4.4,1.9-6.8
				C988.6,652.5,986.3,652.5,986.3,653.9L986.3,653.9z"/>
		</g>
	</g>
	<g>
		<g>
			<path class="st4" d="M900.5,439.5c-1.2,9.7-2.3,19.3-3.5,29c-0.2,1.9-1.2,5.1,0.1,6.8c1.7,2.2,6.2,1.9,8.6,2.3
				c18,2.8,36.2,4.7,54.3,5.9c1.4,0.1,1.4-2.2,0-2.3c-16.1-1.1-32.1-2.7-48-5c-1.9-0.3-3.8-0.6-5.8-0.9c-1.6-0.2-4.5-0.1-5.8-0.9
				c-3.2-2-1-8.7-0.6-11.8c0.9-7.7,1.8-15.4,2.8-23.2C903,438,900.7,438,900.5,439.5L900.5,439.5z"/>
		</g>
	</g>
	<g>
		<g>
			<path class="st4" d="M902.2,439.4c17.4-2.9,35-0.9,52.3,1.9c3.9,0.6,10.3,0.2,11.5,4.8c0.8,3.1-0.2,7.8-0.5,11
				c-0.8,8.4-2.7,16.7-5.3,24.8c-0.4,1.4,1.7,2,2.2,0.6c3-9.1,4.9-18.5,5.6-28.1c0.2-3.2,1.3-7.9-0.1-11c-1.1-2.5-3.6-2.7-6-3.1
				c-19.9-3.5-40.1-6.4-60.2-3C900.2,437.5,900.8,439.7,902.2,439.4L902.2,439.4z"/>
		</g>
	</g>
	<g>
		<g>
			<path class="st4" d="M901,451.4c21.8-3.8,44-1.8,64.8,5.8c1.4,0.5,1.9-1.7,0.6-2.2c-21.2-7.7-43.8-9.7-66-5.8
				C899,449.5,899.6,451.6,901,451.4L901,451.4z"/>
		</g>
	</g>
	<g>
		<g>
			<path class="st4" d="M912.9,436.8c-0.9,3.6-1.4,7.2-1.5,11c0,1.4,2.2,1.4,2.3,0c0.1-3.5,0.5-7,1.4-10.4
				C915.4,436,913.2,435.4,912.9,436.8L912.9,436.8z"/>
		</g>
	</g>
	<g>
		<g>
			<path class="st4" d="M928.7,438c-0.7,3.1-1,6.2-0.9,9.4c0,1.4,2.3,1.5,2.3,0c-0.1-3,0.2-5.9,0.9-8.8
				C931.2,437.2,929,436.6,928.7,438L928.7,438z"/>
		</g>
	</g>
	<g>
		<g>
			<path class="st4" d="M948.5,440c-0.6,3.4-0.9,6.8-1,10.2c0,1.4,2.2,1.4,2.3,0c0-3.2,0.3-6.4,0.9-9.6
				C950.9,439.2,948.7,438.6,948.5,440L948.5,440z"/>
		</g>
	</g>
	<g>
		<g>
			<path class="st4" d="M931.9,460.9c-0.8,5.9-1.6,11.8-2.2,17.8c-0.2,1.4,2.1,1.4,2.3,0c0.6-5.7,1.3-11.5,2.1-17.2
				C934.3,460.1,932.1,459.5,931.9,460.9L931.9,460.9z"/>
		</g>
	</g>
	<g>
		<g>
			<path class="st4" d="M932.9,462c9.9,1.7,19.8,3.5,29.7,5.2c1.4,0.2,2-1.9,0.6-2.2c-9.9-1.7-19.8-3.5-29.7-5.2
				C932.1,459.5,931.5,461.7,932.9,462L932.9,462z"/>
		</g>
	</g>
	<g>
		<g>
			<path class="st4" d="M936.9,468.5c-1.2,3.6-1.9,7.3-2.4,11c-0.2,1.4,2.1,1.4,2.3,0c0.4-3.5,1.2-7,2.3-10.4
				C939.5,467.7,937.3,467.1,936.9,468.5L936.9,468.5z"/>
		</g>
	</g>
	<g>
		<g>
			<path class="st4" d="M938,470.7c7.5,0.3,15.1,0.6,22.6,1c1.4,0.1,1.4-2.2,0-2.3c-7.5-0.3-15.1-0.6-22.6-1
				C936.5,468.3,936.5,470.6,938,470.7L938,470.7z"/>
		</g>
	</g>
	<g>
		<g>
			<path class="st4" d="M900,460.6c3.6,0.6,7.1,1.2,10.7,1.8c-0.3-0.5-0.5-0.9-0.8-1.4c-1.4,4.8-2.5,9.7-3.4,14.6
				c-0.2,1.4,1.9,2,2.2,0.6c0.9-4.9,2-9.8,3.4-14.6c0.2-0.5-0.2-1.3-0.8-1.4c-3.6-0.6-7.1-1.2-10.7-1.8
				C899.2,458.2,898.5,460.4,900,460.6L900,460.6z"/>
		</g>
	</g>
	<g>
		<g>
			<path class="st4" d="M898.8,482.3c18.9,4.9,38.3,7.2,57.8,7c1.4,0,1.5-2.3,0-2.3c-19.3,0.2-38.5-2.1-57.2-6.9
				C898,479.8,897.4,482,898.8,482.3L898.8,482.3z"/>
		</g>
	</g>
	<g>
		<g>
			<path class="st4" d="M864.4,510c-1.7,11.8-3.8,23.4-6.3,35.1c-0.3,1.4,1.9,2,2.2,0.6c2.5-11.6,4.6-23.3,6.3-35.1
				C866.8,509.2,864.6,508.6,864.4,510L864.4,510z"/>
		</g>
	</g>
	<g>
		<g>
			<path class="st4" d="M906,616.3c-0.5,7.7-3.8,15.4-6.3,22.7c-2.5,7.4-5.1,14.8-7.9,22.1c-0.5,1.4,1.7,1.9,2.2,0.6
				c3-7.9,5.8-15.9,8.5-24c2.3-6.9,5.3-14.1,5.7-21.4C908.3,614.9,906.1,614.9,906,616.3L906,616.3z"/>
		</g>
	</g>
	<g>
		<g>
			<path class="st4" d="M906.9,616.1c17.6,3.2,35.3,5.1,53.1,5.9c-0.4-0.4-0.8-0.8-1.1-1.1c0.6,15.4-2.4,30.5-9,44.4
				c-0.6,1.3,1.3,2.4,1.9,1.1c6.8-14.3,9.9-29.8,9.3-45.6c0-0.6-0.5-1.1-1.1-1.1c-17.6-0.8-35.1-2.7-52.5-5.8
				C906.1,613.7,905.5,615.9,906.9,616.1L906.9,616.1z"/>
		</g>
	</g>
	<g>
		<g>
			<path class="st4" d="M905.7,630c16.6,3.2,33.4,7.1,50.4,5.7c1.4-0.1,1.4-2.4,0-2.3c-16.8,1.5-33.4-2.4-49.8-5.6
				C904.9,627.5,904.3,629.7,905.7,630L905.7,630z"/>
		</g>
	</g>
	<g>
		<g>
			<path class="st4" d="M901.8,639.6c17,6.8,35.3,9.1,53.5,6.7c1.4-0.2,1.4-2.4,0-2.3c-18,2.4-36,0.1-52.9-6.6
				C901.1,636.9,900.5,639,901.8,639.6L901.8,639.6z"/>
		</g>
	</g>
	<g>
		<g>
			<path class="st4" d="M924.3,618.7c-1.3,4.2-2.5,8.5-3.5,12.8c-0.3,1.4,1.8,2,2.2,0.6c1-4.3,2.2-8.6,3.5-12.8
				C926.9,618,924.8,617.4,924.3,618.7L924.3,618.7z"/>
		</g>
	</g>
	<g>
		<g>
			<path class="st4" d="M937.8,635.4c-0.6,3.1-1.2,6.2-1.8,9.3c-0.3,1.4,1.9,2,2.2,0.6c0.6-3.1,1.2-6.2,1.8-9.3
				C940.3,634.6,938.1,634,937.8,635.4L937.8,635.4z"/>
		</g>
	</g>
	<g>
		<g>
			<path class="st4" d="M906.8,657.6c-0.9-0.1-1-1.4-0.8-2c0.2-0.8,0.7-1.4,1.4-1.8c1.4-0.9,3-0.5,3.9,0.9c1.7,2.8-1.7,5.8-4.3,3.8
				c-1.1-0.9-2.7,0.7-1.6,1.6c2.2,1.7,5.4,1.6,7.3-0.4c2-2.1,1.5-5.7-0.7-7.5c-2.3-1.9-5.7-1.2-7.4,1.2c-1.7,2.4-1,6.2,2.2,6.6
				C908.2,660,908.2,657.8,906.8,657.6L906.8,657.6z"/>
		</g>
	</g>
	<g>
		<g>
			<path class="st4" d="M923.8,659.2c-1.5-0.3-2.4-1.9-1.5-3.2c0.9-1.5,2.9-1.5,4.1-0.3c1,1,1.4,2.7,0,3.5c-1,0.6-2.5,0.6-3.6,0.5
				c-1.4,0-1.4,2.2,0,2.3c2.2,0.1,5.1-0.2,6.3-2.4c1.3-2.5-0.4-5.5-2.8-6.5c-2.4-1-5.3,0.1-6.3,2.5c-1,2.5,0.6,5.4,3.2,5.9
				C924.6,661.7,925.2,659.5,923.8,659.2L923.8,659.2z"/>
		</g>
	</g>
	<g>
		<g>
			<path class="st4" d="M940.4,660c-3.2-0.8-1.6-5.5,1.4-4.3c1.1,0.4,1.8,1.9,1.5,3c-0.4,1.4-2,2.2-3.4,1.9c-1.4-0.3-2,1.9-0.6,2.2
				c2.6,0.6,5.4-0.8,6.1-3.4c0.6-2.3-0.8-5.1-3.1-5.8c-2.3-0.7-5.1,0.6-5.8,3c-0.8,2.5,0.9,5.1,3.3,5.7
				C941.2,662.5,941.8,660.4,940.4,660L940.4,660z"/>
		</g>
	</g>
	<g>
		<g>
			<path class="st4" d="M953.1,380c14.9,6.2,28.6,14.6,40.9,25c1.5,1.2,3.6-0.9,2.1-2.1c-12.7-10.8-26.8-19.4-42.2-25.8
				C952.1,376.3,951.4,379.2,953.1,380L953.1,380z"/>
		</g>
	</g>
	<g>
		<g>
			<path class="st4" d="M954.2,378c1.8-1.8,3.9-4,6.3-5.1c3.6-1.6,6.1-0.7,9.5,1c3.5,1.7,6.8,3.8,9.9,6.1
				c7.1,5.2,13.4,11.4,19.7,17.6c1.4,1.4,3.5-0.8,2.1-2.1c-8-7.9-16.1-15.9-25.8-21.8c-3.2-1.9-8.6-5.6-12.6-5.2
				c-4.1,0.4-8.4,4.7-11.1,7.4C950.7,377.2,952.8,379.4,954.2,378L954.2,378z"/>
		</g>
	</g>
	<g>
		<g>
			<path class="st4" d="M996.5,404.9c1.6-2,3.2-4.1,4.9-6c1.2-1.5-0.9-3.6-2.1-2.1c-1.8,2.2-3.6,4.4-5.4,6.6
				c-0.5,0.6-0.1,1.7,0.5,2.1C995.3,405.9,996,405.5,996.5,404.9L996.5,404.9z"/>
		</g>
	</g>
	<g>
		<g>
			<path class="st4" d="M981.5,391.7c0.2-3,2.5-5.3,5.3-5.9c1.9-0.4,1.1-3.3-0.8-2.9c-4.2,0.9-7.2,4.6-7.5,8.8
				C978.4,393.6,981.4,393.6,981.5,391.7L981.5,391.7z"/>
		</g>
	</g>
	<g>
		<g>
			<path class="st4" d="M988.4,396.6c0.6-2,2.4-3.4,4.4-3.5c1.9-0.1,1.9-3.1,0-3c-3.4,0.2-6.3,2.4-7.3,5.7
				C985,397.7,987.9,398.5,988.4,396.6L988.4,396.6z"/>
		</g>
	</g>
	<path class="st16" d="M837.2,383.7c13.5,3.8,28,7.3,43.3,10.5c18.6,3.9,36.2,6.8,52.7,8.9c-15.9,89.9-21.4,123.6-23.3,136.5
		c-0.3,2.4-2.4,17-5.5,36.6c-1,6.1-1.8,11-2.2,13.9c-4.6,0.3-9.3,0.7-13.9,1c-11.9,19.4-23.7,38.8-35.6,58.1
		c13.3,5.8,30.4,11.8,50.8,15.2c37.7,6.4,69.4,1.5,89.2-3.4c3.5-9.9,8.6-25,14.7-43.5c30-91.5,32.5-116.5,33.3-128.1
		c2.2-31.9,3.4-51.9-7.9-74.5c-22.7-45.2-85.8-59.1-88.9-59.6C886.9,345.9,844.5,378,837.2,383.7z"/>
	<path class="st17" d="M819.7,552c-0.6,0.2,1.3,12.2,10.4,18.9c4,3,8.6,4.2,8.9,3.7c0.4-0.6-5.7-3.4-11.5-10
		C821.5,557.8,820.1,551.8,819.7,552z"/>
	<path class="st18" d="M875.4,586.1c5.9,5,15,11.3,27.4,15.4c27.2,9,51.1,0.8,59.2-2.3c-11.9,0.7-26.9,0.5-43.8-2
		C901.1,594.6,886.7,590.3,875.4,586.1z"/>
	<path class="st19" d="M1032.6,442.6c-8.2,46.3-18.1,84-26.1,111c-15.9,54.1-25.2,66.7-34.1,75.6c-30.3,30.1-74.5,31.1-94.6,30.1
		c14.9,3.2,33,6,53.5,6.7c23.8,0.8,44.5-1.2,61.2-4c12.3-32.4,20.8-60.5,26.8-82.3c17.3-63.8,17.5-92.8,16.4-111
		C1034.9,457.8,1033.6,448.8,1032.6,442.6z"/>
</g>
<g id="hand_l">
	<path class="st7" d="M1013,386.4c16.2,1,26.3,33.5,32.5,53.7c7,22.6,22.9,74-1.2,126.3c-14.6,31.6-38,51.4-62.4,71.9
		c-14.4,12.1-27.4,20.8-36.8,26.7c0.5,3.8,2,19.1-8.1,33.4c-12.7,18.2-33.5,20-36.3,20.2c12.4-16.3,14.3-19.8,13.8-20.2
		c-0.7-0.6-6.7,8.3-16.7,12.1c-10.4,3.9-21.2,0.7-28.3-2.3c5.4-2.3,13-6.3,20-13.7c4.1-4.3,7.5-9.2,6.7-10
		c-1.1-1.2-8.9,8.2-19.7,8.7c-6.9,0.3-12.7-3.1-16.1-5.8c4-0.6,13.5-2.6,21.9-10.4c5-4.6,7.8-9.6,9.4-12.9c-2.6-0.7-5.5-1.2-8.8-1.5
		c-7.6-0.6-13.9,0.5-18.4,1.7c9.9-12.7,19.8-18.5,27.1-21.3c12.7-5,21-2.9,33.1-10.4c7.1-4.4,11.4-9.7,16-16
		c24.1-33.4,41.4-57.2,43.2-88.9c1.9-32.1-14.3-33.3-13.3-65.7C971.8,424.5,994.8,385.3,1013,386.4z"/>
	<g>
		<g>
			<path class="st4" d="M871.6,709.1c12.2,2.8,27.8-5.4,35.3-14.9c1.2-1.5-0.9-3.6-2.1-2.1c-6.7,8.5-21.2,16.6-32.4,14.1
				C870.5,705.8,869.7,708.7,871.6,709.1L871.6,709.1z"/>
		</g>
	</g>
	<g>
		<g>
			<path class="st4" d="M984.3,508.2c9.9-11.7,25.1-14.4,39.6-15.4c1.4-0.1,1.4-2.4,0-2.3c-15.1,1.1-30.9,3.9-41.2,16.1
				C981.8,507.7,983.4,509.3,984.3,508.2L984.3,508.2z"/>
		</g>
	</g>
	<g>
		<g>
			<path class="st4" d="M1023,493.2c1.9,8.9,2.2,17.8,1.1,26.9c-0.2,1.4,2.1,1.4,2.3,0c1.1-9.2,0.7-18.4-1.2-27.5
				C1024.9,491.2,1022.7,491.8,1023,493.2L1023,493.2z"/>
		</g>
	</g>
	<g>
		<g>
			<path class="st4" d="M984.9,533c10.9-9.1,25-10.7,38.6-12.1c1.4-0.1,1.4-2.4,0-2.3c-14.3,1.4-28.8,3.3-40.2,12.8
				C982.2,532.3,983.8,533.9,984.9,533L984.9,533z"/>
		</g>
	</g>
	<g>
		<g>
			<path class="st4" d="M985.3,518c10.6-10.1,24.5-15.5,39.1-15.3c1.4,0,1.4-2.2,0-2.3c-15.2-0.3-29.7,5.4-40.7,15.9
				C982.7,517.4,984.2,519,985.3,518L985.3,518z"/>
		</g>
	</g>
	<g>
		<g>
			<path class="st4" d="M1004.3,495.5c0.7,2.4,1.4,4.7,2.1,7.1c0.4,1.4,2.6,0.8,2.2-0.6c-0.7-2.4-1.4-4.7-2.1-7.1
				C1006,493.5,1003.9,494.1,1004.3,495.5L1004.3,495.5z"/>
		</g>
	</g>
	<g>
		<g>
			<path class="st4" d="M993.2,511.4c0.9,3.9,1.5,7.9,1.7,12c0.1,1.4,2.3,1.4,2.3,0c-0.2-4.2-0.8-8.4-1.8-12.6
				C995,509.4,992.9,510,993.2,511.4L993.2,511.4z"/>
		</g>
	</g>
	<g>
		<g>
			<path class="st4" d="M1024.8,396.3c-7,10.6-16.9,18.7-28.8,23.4c-1.3,0.5-0.8,2.7,0.6,2.2c12.4-4.9,22.7-13.3,30.1-24.4
				C1027.5,396.2,1025.6,395.1,1024.8,396.3L1024.8,396.3z"/>
		</g>
	</g>
	<g>
		<g>
			<path class="st4" d="M1003.8,419.5c1.4,1.5,3.3,4.4,5.7,3.8c1.4-0.3,2.5-1.6,3.6-2.4c1.5-1.2,3.1-2.3,4.6-3.5
				c1.1-0.9,0-2.8-1.1-1.9c-1.8,1.4-3.6,2.7-5.4,4.1c-1,0.8-1.7,1.7-3.2,1c-0.9-0.4-1.9-1.9-2.6-2.6
				C1004.4,416.9,1002.8,418.5,1003.8,419.5L1003.8,419.5z"/>
		</g>
	</g>
	<g>
		<g>
			<path class="st4" d="M1038.8,428.6c0.7,1.9,1.8,3.6,3.3,5c1.1,1,2.7-0.6,1.6-1.6c-1.2-1.1-2.2-2.5-2.7-4
				C1040.5,426.7,1038.4,427.3,1038.8,428.6L1038.8,428.6z"/>
		</g>
	</g>
	<g>
		<g>
			<path class="st4" d="M1051.8,537.6c-18.9,8.2-27.8,29.5-20.6,48.8c0.5,1.3,2.7,0.8,2.2-0.6c-6.9-18.5,1.5-38.4,19.6-46.3
				C1054.3,539,1053.2,537,1051.8,537.6L1051.8,537.6z"/>
		</g>
	</g>
	<g>
		<g>
			<path class="st4" d="M937.3,622.2c3.6,6.4,6.8,14.1,11.9,19.4c4.4,4.5,10.4,7,16.3,8.8c1.4,0.4,2-1.7,0.6-2.2
				c-6.1-1.8-12.1-4.4-16.3-9.4c-4.4-5.2-7.3-12-10.6-17.9C938.6,619.8,936.6,621,937.3,622.2L937.3,622.2z"/>
		</g>
	</g>
	<g>
		<g>
			<path class="st4" d="M936.4,642.9c4.6,7.2,11.5,12.3,19.8,14.3c1.4,0.3,2-1.8,0.6-2.2c-7.7-1.9-14.2-6.5-18.5-13.3
				C937.5,640.5,935.6,641.6,936.4,642.9L936.4,642.9z"/>
		</g>
	</g>
	<g>
		<g>
			<path class="st4" d="M900,641.7c6.3,5.2,7.6,17.4,8.3,25c0.1,1.4,2.4,1.4,2.3,0c-0.7-8.3-2-20.9-8.9-26.6
				C900.5,639.1,898.9,640.7,900,641.7L900,641.7z"/>
		</g>
	</g>
	<g>
		<g>
			<path class="st4" d="M913.6,638.5c3.1,4.7,4.9,9.9,5.2,15.5c0.1,1.4,2.3,1.4,2.3,0c-0.4-6-2.2-11.7-5.6-16.7
				C914.8,636.1,912.8,637.3,913.6,638.5L913.6,638.5z"/>
		</g>
	</g>
	<g>
		<g>
			<path class="st4" d="M908.8,658.7c3.4-2.2,7.1-3.3,11.2-3.5c1.4-0.1,1.5-2.3,0-2.3c-4.4,0.2-8.6,1.4-12.3,3.8
				C906.4,657.5,907.6,659.5,908.8,658.7L908.8,658.7z"/>
		</g>
	</g>
	<g>
		<g>
			<path class="st4" d="M964.4,607.9c4.9,10.6,13,19,23.4,24.2c1.3,0.6,2.4-1.3,1.1-1.9c-10.1-5.1-17.9-13.1-22.6-23.4
				C965.7,605.4,963.8,606.6,964.4,607.9L964.4,607.9z"/>
		</g>
	</g>
	<g>
		<g>
			<path class="st4" d="M967.7,607.1c6.9-9.7,14.8-18.6,23.7-26.6c6.5-5.8,13.2-0.8,19,3.1c5.1,3.5,9.7,7.5,13.8,12
				c1,1.1,2.6-0.5,1.6-1.6c-4.7-5-9.9-9.5-15.7-13.3c-3.8-2.5-10.6-7.9-15.4-5.9c-2.4,1-5,4.1-6.9,5.8c-2.8,2.6-5.5,5.3-8.1,8
				c-5.1,5.4-9.7,11.2-14,17.2C964.9,607.1,966.9,608.2,967.7,607.1L967.7,607.1z"/>
		</g>
	</g>
	<g>
		<g>
			<path class="st4" d="M989.9,587.5c9.4,5.1,17.6,11.7,24.7,19.7c1,1.1,2.5-0.5,1.6-1.6c-7.2-8.1-15.6-14.8-25.1-20
				C989.8,584.9,988.7,586.8,989.9,587.5L989.9,587.5z"/>
		</g>
	</g>
	<g>
		<g>
			<path class="st4" d="M982.3,609.9c4.1,5.2,8.7,10,13.8,14.3c1.1,0.9,2.7-0.7,1.6-1.6c-5.1-4.3-9.7-9-13.8-14.3
				C983,607.1,981.4,608.7,982.3,609.9L982.3,609.9z"/>
		</g>
	</g>
	<g>
		<g>
			<path class="st4" d="M984.6,609c1.2-1.7,2.6-4.3,4.4-5.5c2.9-1.9,4.2-0.1,6.4,1.4c4,2.7,7.8,5.6,11.5,8.7
				c1.1,0.9,2.7-0.7,1.6-1.6c-2.7-2.3-5.5-4.5-8.4-6.6c-2.4-1.7-5.5-4.8-8.3-5.5c-4-1-7.3,5.1-9.2,7.8
				C981.8,609,983.8,610.2,984.6,609L984.6,609z"/>
		</g>
	</g>
	<path class="st20" d="M986.3,404.5c9.6,10.2,30.2,35.1,36.9,72.8c6.2,35.3-3.2,62.7-8.6,78.7c-20.1,58.8-65,90.1-81.3,100.3
		c-1.4,5.1-3.4,12.7-5.7,22.1c-3.2,13-3.4,14.8-5.1,18.4c-6.9,14.7-20.2,19.7-19.5,21c0.9,1.5,22.6-3.1,34.3-21
		c8.9-13.6,7.8-28.1,7.2-33.3c15.7-8.9,33.3-20.8,50.7-36.9c16-14.7,32.7-30.1,45.6-56.4c12.6-25.6,15.2-48.6,15.9-59.9
		c1.4-23.5-2.9-40.8-7.2-57.4c-7.1-27.6-16.5-63.2-35.4-65.6C1010.4,386.9,1000.5,387.1,986.3,404.5z"/>
	<path class="st17" d="M1047.9,551.5c-13.8,23.5-28.2,41-39.4,53.2c-20.3,22-38.1,40.8-65.5,44.8c-7.4,1.1-13.6,0.8-18,0.4
		c3.3,1.1,10,4,13.8,10.7c5.3,9.4,1.1,20-1.9,27.6c-5.2,13.2-14.3,21.6-20.3,26c4.5-1.8,11.5-5.4,17.6-12.3
		c13.8-15.6,11.9-35.3,11.5-39.1c22.7-12.8,39.5-26.3,50.9-36.8c14.6-13.3,30.1-27.7,42.1-51.7
		C1043.3,565.3,1046.2,557.2,1047.9,551.5z"/>
</g>
<g id="head">
	<path class="st7" d="M816.2,278.6c-5.4,22.4,4.9,40.9,13.3,56.1c8.2,14.9,15,27.2,30.1,33.2c1.4,0.6,21.4,8.1,40.4-2.4
		c21.1-11.7,24.4-36.4,25.9-47.6c1.2-8.8,4.5-33.3-11.5-53.7c-17.2-21.9-52.2-33.1-76-18.7C821.7,255.7,817.2,274.6,816.2,278.6z"/>
	<g id="Layer_8">
		<path class="st2" d="M857.1,245.1c1.6,2.2,4.6,5.6,9.2,8.2c7.8,4.5,15.4,4.1,18.4,3.8c0.6,4.1,3.1,17.8,15,27.6
			c7.5,6.2,22.4,13.8,30.5,8.2c9.3-6.4,6-28-1.9-41.3c-10.1-17.2-29.6-20.8-41-23.1c-7-1.4-25.7-5.2-30.8,3.3
			C855.4,233.5,853.9,237.4,857.1,245.1z"/>
	</g>
	<g id="Layer_9">
		<path class="st2" d="M845.4,238.8c2.1,0.8,3.4,1.3,4.4,2.5c4.5,5.6-1.2,21.3-12.3,28.2c-5.9,3.6-11.9,3.9-15.5,3.8
			c1,3.8,2.8,12.4-0.3,22.5c-1.9,6.2-5,10.6-7.3,13.3c-1.8-2.4-4-6-5.7-10.8c-4.1-11.8-1.5-22.2,0-27.8c1.9-7.2,7.3-27.8,23.1-32
			C839.3,236.5,845.4,238.8,845.4,238.8z"/>
	</g>
	<path class="st4" d="M808.8,312.2c-0.6-6.7-3.9-46.2,23.4-62.6c24.4-14.7,53.4,0.9,57.6,3.1c22.8,12.6,34.5,37,35,59.1
		c0.1,5.3,0.6,28.9-15.7,42.8c-8.3,7.1-17.4,8.7-29.5,10.9c-17.9,3.2-33,1.7-42.8,0c0.6,5.8,1.2,11.7,1.8,17.5
		c21,4.4,38.6,4.4,50.6,3.6c17-1.1,30-4.4,38.6-6.6c15.1-3.9,27.5-8.6,36.8-12.7c2-11.4,4.1-27.8,4.2-47.6c0.1-28,0.2-46.5-9.2-66.6
		c-3.8-8.1-17.7-37.9-51.1-49.1c-37.8-12.7-70.4,8.3-76,12.1c-7.7,5.2-26.4,19.6-35,45.8c-1.3,3.9-7.7,24.6-1.2,50
		c10,39.3,43.5,61.3,45.1,60C835.8,367.2,811.7,346.4,808.8,312.2z"/>
	<g>
		<g>
			<path class="st4" d="M852.4,294.3c3.2,11.3,5.7,22.8,7.6,34.4c0.3,1.9,3.2,1.1,2.9-0.8c-1.9-11.6-4.4-23.1-7.6-34.4
				C854.8,291.7,851.9,292.5,852.4,294.3L852.4,294.3z"/>
		</g>
	</g>
	<g>
		<g>
			<path class="st4" d="M860.8,329.7c5.8,1.2,11.6,0.3,16.8-2.7c1.7-1,0.2-3.6-1.5-2.6c-4.5,2.6-9.4,3.4-14.5,2.4
				C859.7,326.4,858.9,329.3,860.8,329.7L860.8,329.7z"/>
		</g>
	</g>
	<g>
		<g>
			<path class="st4" d="M839.5,317.1c-3.5-3.8-4.9-8.9-3.9-14c-0.8,0.2-1.7,0.4-2.5,0.7c1.9,2,3.1,4.3,3.9,6.9
				c0.3,0.9,0.6,1.9,0.9,2.9c0.2,0.6,0.3,1.3,0.5,1.9c0,0.9,0.4,1.4,1.4,1.6c-1-1.6-3.6-0.1-2.6,1.5c0.6,1.1,1.8,1.6,3,1
				c1.6-0.7,1.6-2.5,1.3-4c-1-5-2.8-10.1-6.3-13.9c-0.7-0.8-2.3-0.4-2.5,0.7c-1.2,6.2,0.4,12.2,4.7,16.9
				C838.7,320.7,840.8,318.5,839.5,317.1L839.5,317.1z"/>
		</g>
	</g>
	<g>
		<g>
			<path class="st4" d="M833.6,305.5c0.9,4.2,2.3,8.3,4.2,12.1c0.8,1.7,3.4,0.2,2.6-1.5c-1.8-3.6-3-7.4-3.9-11.4
				C836.1,302.8,833.2,303.6,833.6,305.5L833.6,305.5z"/>
		</g>
	</g>
	<g>
		<g>
			<path class="st4" d="M881.9,298.5c-2.5-3.4-3-7.5-1.6-11.4c-0.7,0.3-1.5,0.6-2.2,0.9c2.3,1.3,2.6,4.2,3.2,6.5
				c0.3,1.3,0.6,2.6,0.8,3.9c0.6,3.2-1-1.9-1.1-2.6c-0.1-1.9-3.1-1.9-3,0c0.1,2.3,1.1,5.1,3.3,6.2c1.7,0.8,3.6,0.1,3.9-1.8
				c0.4-2.7-1-6.5-1.8-9.1c-0.7-2.3-1.7-4.4-3.9-5.7c-0.9-0.5-1.9,0-2.2,0.9c-1.7,4.6-1,9.7,1.9,13.7
				C880.4,301.6,883,300.1,881.9,298.5L881.9,298.5z"/>
		</g>
	</g>
	<g>
		<g>
			<path class="st4" d="M878.3,288.7c0.6,4.1,1.6,8,3.2,11.8c0.7,1.8,3.6,1,2.9-0.8c-1.5-3.8-2.6-7.7-3.2-11.8
				C881,286,878.1,286.8,878.3,288.7L878.3,288.7z"/>
		</g>
	</g>
	<g>
		<g>
			<path class="st4" d="M824.5,297.5c0.7-5,5.3-8.4,10.3-7.6c1.9,0.3,2.7-2.6,0.8-2.9c-7.1-1.1-13.2,3.4-14.1,10.5
				C821.2,299.5,824.2,299.4,824.5,297.5L824.5,297.5z"/>
		</g>
	</g>
	<g>
		<g>
			<path class="st4" d="M868.4,278.7c5.4-4.9,13-4.8,18.3,0.1c1.4,1.3,3.5-0.8,2.1-2.1c-6.6-6.1-15.9-6.2-22.5-0.1
				C864.9,277.9,867,280,868.4,278.7L868.4,278.7z"/>
		</g>
	</g>
	<g>
		<g>
			<path class="st4" d="M864.1,347.2c13.1,0.3,25.4-5.4,33.7-15.6c1.2-1.5-0.9-3.6-2.1-2.1c-7.7,9.6-19.2,15-31.5,14.7
				C862.1,344.1,862.1,347.1,864.1,347.2L864.1,347.2z"/>
		</g>
	</g>
	<g>
		<g>
			<path class="st4" d="M892.6,329.5c2.3,0.5,4.3,2,5.1,4.2c0.7,1.8,3.6,1,2.9-0.8c-1.2-3.2-3.8-5.6-7.2-6.3
				C891.5,326.2,890.7,329.1,892.6,329.5L892.6,329.5z"/>
		</g>
	</g>
	<path class="st11" d="M897.5,257.9c7.9,22.2,10.6,40.9,11.6,53.7c1.6,20.7-1.1,27.9-3.4,32.2c-8.1,15.1-24.8,20.3-30.9,21.9
		c4.6,0.1,21.4,0.1,34.8-12c16.1-14.7,15-36.1,14.6-44.2C922.7,280.4,902.4,262.1,897.5,257.9z"/>
</g>
</svg>
