<svg xmlns="http://www.w3.org/2000/svg" viewBox="0 0 1600 1200" style="enable-background:new 0 0 1600 1200" xml:space="preserve"><style>.st0{fill:#e8e8e8}.st2{fill:#ec615b}.st3{fill:#5222d0}.st4{fill:#161616}.st5,.st7{fill:#fff}.st7{stroke:#161616;stroke-width:2;stroke-miterlimit:10}.st11,.st17,.st9{opacity:.24;fill:#6d6c6c}.st11,.st17{opacity:.29}.st17{opacity:.28}</style><g id="background_n3"><path class="st0" d="M625.6 941.1c-1.5 10.6-6 20.1-13.4 27.8-1.3 1.4.8 3.5 2.1 2.1 7.7-8.1 12.6-18.1 14.1-29.2.3-1.8-2.6-2.6-2.8-.7z"/><path class="st0" d="M626 942.8c3.8 8.6 8.8 16.4 15 23.5 1.3 1.5 3.4-.7 2.1-2.1-6.1-6.9-10.9-14.5-14.5-22.9-.7-1.8-3.3-.3-2.6 1.5zM615.1 970.4c-.1-.2-.3-.5-.4-.7l-2.4 1.8c6.5 5.6 11.7 12.3 15.5 20 .8 1.7 3.4.2 2.6-1.5-3.9-7.9-9.2-14.9-15.9-20.7-1.3-1.1-3.2.3-2.4 1.8.1.2.3.5.4.7.9 1.8 3.5.3 2.6-1.4z"/><path class="st0" d="M630.7 990.6c3.3-8.2 7.3-15.9 12.1-23.3 1-1.6-1.5-3.1-2.6-1.5-4.9 7.6-9 15.6-12.4 24.1-.7 1.7 2.2 2.5 2.9.7zM285.5 609.5c-3.5 10-7.2 20-14 28.3-1.2 1.5.9 3.6 2.1 2.1 7.1-8.7 11.1-19.1 14.8-29.6.6-1.8-2.3-2.6-2.9-.8z"/><path class="st0" d="M285.5 610.3c2.2 4.9 2.9 10.6 4.6 15.7 1.6 4.7 3.5 9.3 5.7 13.8.8 1.7 3.4.2 2.6-1.5-2.6-5.4-4.8-10.9-6.5-16.5-1.3-4.3-2-8.9-3.8-13-.8-1.8-3.3-.2-2.6 1.5zM272.2 639.8c2.9 1.2 4.9 6.9 6.1 9.6 1.8 3.9 3.1 7.9 4.1 12.1.5 1.9 3.4 1.1 2.9-.8-1.3-5.2-3.1-10.1-5.4-14.9-1.6-3.3-3.3-7.4-6.9-8.9-1.8-.8-2.5 2.1-.8 2.9z"/><path class="st0" d="M285.4 662.1c3.5-7.7 7.6-15.1 12.2-22.2 1.1-1.6-1.5-3.1-2.6-1.5-4.6 7.1-8.7 14.5-12.2 22.2-.8 1.8 1.8 3.3 2.6 1.5zM410 439.1c-2.3 8.2-6.2 15.5-11.7 21.9-1.3 1.5.9 3.6 2.1 2.1 5.9-6.8 10.1-14.6 12.5-23.2.5-1.8-2.4-2.6-2.9-.8z"/><path class="st0" d="M409.8 440.6c1.8 7.5 3.6 16.3 8.6 22.4 1.2 1.5 3.3-.6 2.1-2.1-4.6-5.5-6.2-14.2-7.8-21-.4-2-3.3-1.2-2.9.7zM397.6 463.9c2.7 1.5 4.9 7.5 6.2 10.3 1.8 3.8 3.2 7.7 4.3 11.7.5 1.9 3.4 1.1 2.9-.8-1.4-4.8-3.1-9.4-5.3-13.9-1.5-3.1-3.4-8.2-6.6-10-1.7-.8-3.2 1.7-1.5 2.7z"/><path class="st0" d="M411.2 485.2c2.5-7.6 5.6-14.9 9.3-22 .9-1.7-1.7-3.2-2.6-1.5-3.8 7.3-7 14.9-9.6 22.7-.6 1.8 2.3 2.6 2.9.8zM1038.9 722c-2.2 5.6-4.6 11.3-9.5 15.1-1.5 1.2.6 3.3 2.1 2.1 5.3-4.1 7.9-10.3 10.2-16.4.8-1.8-2.1-2.6-2.8-.8z"/><path class="st0" d="M1040 723.5c1.5 5.1 3.8 9.8 7 14 1.1 1.5 3.8 0 2.6-1.5-3-4-5.3-8.4-6.7-13.3-.6-1.9-3.5-1.1-2.9.8zM1030 739.5c3.3 4.1 5.6 8.7 7 13.7.5 1.9 3.4 1.1 2.9-.8-1.5-5.6-4.2-10.6-7.8-15.1-1.2-1.4-3.3.7-2.1 2.2z"/><path class="st0" d="M1039.8 754.2c2.7-6.1 6-11.8 10-17.1 1.2-1.5-1.4-3-2.6-1.5-4 5.3-7.4 11-10 17.1-.8 1.7 1.8 3.2 2.6 1.5zM1220.3 954.3c-2 5.9-5.1 11.3-9.2 16-1.3 1.5.9 3.6 2.1 2.1 4.5-5.1 7.8-10.9 10-17.3.6-1.8-2.3-2.6-2.9-.8z"/><path class="st0" d="M1220.1 956.8c1.4 2.6 1.7 5.7 2.9 8.5 1.1 2.6 2.5 5 4.2 7.3 1.1 1.5 3.7 0 2.6-1.5-1.9-2.5-3.4-5.2-4.5-8.2-.9-2.5-1.3-5.2-2.6-7.6-.9-1.7-3.5-.2-2.6 1.5z"/><path class="st0" d="M1211.2 971.6c2.5 3.8 4.4 7.8 5.7 12.2.3 1.2 2.1 1.6 2.7.4 2.1-4.2 5-7.8 8.9-10.5 1.6-1.1.1-3.7-1.5-2.6-4.3 3.1-7.6 6.9-10 11.6.9.1 1.8.2 2.7.4-1.4-4.6-3.4-8.9-6-12.9-1-1.7-3.6-.2-2.5 1.4z"/><path style="fill:none;stroke:#e8e8e8;stroke-width:3;stroke-miterlimit:10" d="m1251.5 550.9-10.3-4-9.1 6.1.6-11-8.7-6.8 10.7-2.8 3.8-10.4 6 9.4 11 .4-7 8.5z"/><path class="st0" d="M1233.9 516.2c15.2-25.7 33.8-49.1 55.6-69.6 1.4-1.3-.7-3.4-2.1-2.1-21.9 20.6-40.8 44.2-56.1 70.2-1 1.7 1.6 3.2 2.6 1.5zM1255.5 511.2c24.4-36.5 55.1-68.4 90.6-94.2 1.5-1.1.1-3.7-1.5-2.6-35.9 26.1-67 58.4-91.6 95.3-1.2 1.6 1.4 3.1 2.5 1.5zM1260.9 540c11.8-14.5 24.4-28.5 37.5-41.8 1.4-1.4-.8-3.5-2.1-2.1-13.2 13.3-25.7 27.3-37.5 41.8-1.2 1.4.9 3.6 2.1 2.1zM918.4 360.2c-8-16.3 9.2-31.8 24-34.4 18.4-3.2 37.6 3.2 56 4.7 35 2.9 70.7-1.2 104.1-11.8 16.9-5.4 33.1-12.4 48.6-20.9 16.6-9.1 32.5-19.4 49.2-28.3 16.7-9 34.5-16.6 53.4-19.7 18.6-3.1 37.1-.7 54.5 6.4 16.3 6.7 32.9 16.7 45.6 29 13.1 12.7 17.3 29.9 9.8 46.9-15 33.7-58.3 38.8-90.7 40.1-34.9 1.4-70.7-2-104.7 7.6-34.5 9.8-60.1 35.1-90.1 53.2-30.6 18.5-66.1 31.2-102.3 28.8-30.5-2-61.3-16.2-80.4-40.5-4.7-6-8.6-12.6-11.6-19.6-.8-1.8-3.4-.2-2.6 1.5 12.5 28.7 39.3 48.5 68.8 57 34.1 9.8 70.4 3.5 102.3-10.5 17.7-7.8 34-18 49.7-29.3 15.3-11 30.5-22.6 47.6-30.6 36.2-17 77.2-13.5 116-14.5 32.3-.8 73.8-3.6 94.7-32.2 8.7-11.9 12.9-28 7.7-42.3-5.8-15.6-20.8-25.9-34.2-34.5-15.4-9.9-32.5-17.8-50.7-20.2-18.9-2.6-38 1-55.8 7.5-37.8 13.9-69.4 40.2-106.7 55.2-35.9 14.5-75 21.1-113.6 19.1-10.5-.5-21-1.8-31.4-3.5-9.1-1.5-18.3-3.1-27.6-2.5-14.4.9-28.5 8.1-33.5 22.4-2 5.8-1.7 11.7 1 17.2 1.2 1.9 3.7.4 2.9-1.3z"/><path class="st0" d="M962.2 348.3c51.7 6.8 104.8 1.5 154.1-15.5 47.6-16.4 91-49.1 142.2-53.4 25.5-2.2 52.2 2.9 71.9 20.1 1.4 1.3 3.6-.8 2.1-2.1-35.6-31.2-87.2-23.5-127.5-7-24.6 10-47.9 23.1-72.5 33.2-25.2 10.3-51.6 17.4-78.5 21.3-30.4 4.4-61.3 4.5-91.7.5-2-.4-2 2.6-.1 2.9zM1041.1 406.1c20.1-1.6 38-10.9 55.1-20.9 18.7-10.9 36.9-22 58.2-27 45.9-10.7 93.7 1.3 139.8-8.3 20.5-4.3 45.3-16.8 43.3-41.5-.2-1.9-3.2-1.9-3 0 2 25.3-25.1 35.8-45.4 39.4-22.2 3.9-44.9 3.3-67.3 2.9-21.6-.4-43.5-.6-64.8 3.9-19.7 4.1-37 13.1-54.2 23.2-19.3 11.3-39 23.5-61.8 25.3-1.8.1-1.8 3.1.1 3zM1119.5 428.7c23.1-16.2 47.8-31.1 75.4-38.1 30-7.6 61.2-5.1 91.7-2.7 1.9.2 1.9-2.8 0-3-30.8-2.5-62.3-4.9-92.5 2.8-27.8 7.1-52.8 22-76.1 38.4-1.6 1.2-.1 3.8 1.5 2.6zM489.2 372.8c-6-3.9-11.1-9.4-12.8-16.6-1.6-6.7.7-14.6 6.6-18.6 6-4.1 13.9-2.3 20.7-2.8 5.5-.4 10.9-1.8 15.9-4 22.7-9.7 36.6-31.3 53.7-47.9 8.7-8.4 19.1-16.6 31.2-19.3 11.2-2.5 26.1.2 28.9 13.3 3.3 15.3-10.9 26.6-22 34.1-12.7 8.5-25.4 16.9-38.1 25.4-13.8 9.2-27.4 18.9-41.6 27.5-13.2 8.1-29.9 14.5-44.5 5.9-1.7-1-3.2 1.6-1.5 2.6 12 7.1 26.3 5 38.4-.8 15.6-7.4 29.9-18.7 44.2-28.2 14.9-9.9 29.8-19.7 44.7-29.7 10.9-7.3 22.4-16.4 23.7-30.5 1.1-11.8-6.9-20.8-18.3-22.8-12.3-2.2-24.4 2.9-34.3 9.8-24.3 17-38.5 47.4-67 58.6-4.3 1.7-8.8 2.8-13.3 3.2-4.4.3-8.8-.2-13.2.3-6.6.7-12 3.9-15.1 9.8-6.7 12.8 1.3 26.3 12.3 33.4 1.5.9 3-1.6 1.4-2.7zM575.2 250.9c-1.9-13.1 14.5-16.9 23.4-21.1 4.6-2.2 8.7-5.1 12.9-7.9 2.1-1.4 4.2-2.8 6.4-4 2.6-1.4 5.8-3.6 8-.8 1.6 2 .9 2.5-.1 4.7-.5 1-1 2.1-1.6 3.1-1.4 2.5-3 5-5 7.1-4.1 4.3-10 4.9-15.3 7-4.1 1.6-8.1 3.6-11.8 5.9-4.7 3-10.6 9.7-16.6 6.3-1.7-1-3.2 1.6-1.5 2.6 5.3 3 10.3.3 14.8-2.9 7-5 14.2-8.6 22.4-11.1 6.5-2 10.6-5.3 14.3-11.1 2.1-3.3 6.9-10.1 3.8-14.1-2.8-3.5-8.2-1.6-11.5 0-7 3.6-13 8.8-20.1 12.3-10.7 5.2-27.7 9.4-25.5 24.9.4 1.8 3.3 1 3-.9z"/><path class="st0" d="M494.3 354.7c-3.1-.5-2.7-3.2-2-5 .9-2.2 2.8-3 5-3.7 2.4-.7 5.1-.8 7.6-1.1 5.6-.9 11-2.4 16.2-4.5 10-4.1 19.1-10 27.5-16.7 9.5-7.6 18.1-16.1 27-24.4 8.7-8.2 18.4-18.5 31.3-18.1l-1.5-1.5c1.1 11.7-9.7 19.5-18.2 25.5-10.2 7.2-20.3 14.5-30.5 21.7-9.4 6.7-18.7 13.7-28.3 20-4.8 3.1-9.8 6.1-15.2 8.1-5.2 1.9-13.3 4.8-17.6-.1-1.3-1.4-3.4.7-2.1 2.1 6.8 7.7 20.5 1.4 27.8-2.4 12.6-6.5 23.9-15.8 35.5-24 12-8.6 24.3-16.9 36.2-25.8 8.1-6.1 16.6-14.2 15.6-25.2-.1-.8-.6-1.5-1.5-1.5-13.5-.4-23.7 9.8-32.8 18.4-11.5 10.8-22.6 22.1-35.6 31-6.2 4.2-12.8 7.9-19.8 10.6-6.8 2.6-13.6 3.4-20.7 4.8-4.1.8-8.3 2.7-9.1 7.2-.6 3.4 1 7 4.7 7.6 1.6.2 2.5-2.7.5-3zM410.5 519.3c-3.1 5-1.6 11.6 3 15.3 6.8 5.4 14.1-.4 19.9-4.3 4.8-3.3 11.7-5.5 15 .9 1.5 3 2 6.5 3.4 9.6 1 2.3 2.4 4.3 4.8 5.3 4.6 2 9.1-1.5 13.8-.8 1.9.3 2.7-2.6.8-2.9-3.4-.5-6.1.7-9.4 1.2-5.6.7-7.1-3-8.5-7.4-1.4-4.4-2.7-9.5-7.3-11.5-5.9-2.6-11.9 1.6-16.6 4.8-3.8 2.7-8.8 6.1-13.5 3.2-3.9-2.5-5.2-7.9-2.8-11.8 1-1.8-1.6-3.3-2.6-1.6zM468.1 513.4c-2 5.3 1.8 9.7 6.6 11.5 4.2 1.6 26.2 2.7 25 9.5-.3 1.9 2.5 2.7 2.9.8 2.9-15.5-37.1-6.5-31.6-21 .7-1.8-2.2-2.6-2.9-.8zM518.4 905.2c1.9 3 5.1 1.9 6.5-1 3.2-6.5 3-14.2 10.2-18.3 7.5-4.3 12.3 2.8 19.4 3.6 5.5.6 10.9-2.3 14.6-6.1 4.5-4.7 6.9-10.9 10-16.6 1.8-3.3 4.2-5 7.6-2.3 1.1.9 2 2 3 2.9 1.4 1.2 2.9 2.3 4.7 3 8.6 3.7 19.2.2 23.8-7.8 1-1.7-1.6-3.2-2.6-1.5-2.8 4.9-8.1 7.8-13.8 7.8-6.6 0-9.2-3.9-14.1-7.4-9.2-6.6-13.2 8.4-16.6 14.2-3.9 6.5-10.7 13-18.9 10.2-4.6-1.6-8.1-5-13.3-4.3-4.3.5-8 3.2-10.5 6.6-1.4 1.9-2.4 4-3.3 6.1-.6 1.5-1.1 3-1.6 4.6-.2.5-1.9 5.5-2.4 4.8-1.2-1.6-3.8-.1-2.7 1.5zM582.4 893.3c1.4-11.3 17.6-3.2 23.6-2.6 5.6.6 10.4-1.3 13.1-6.4 1.8-3.5 2.4-7.8 6.8-9.3 3.6-1.2 7.9-.4 11.6-.9 6.9-1 13.3-3.6 19-7.6 1.6-1.1.1-3.7-1.5-2.6-4 2.8-8.3 5-13 6.3-4.6 1.2-9 1.1-13.7 1.5-7.4.7-8.6 5.4-11.7 11.2-5.7 10.5-17.7 1.2-26.3 1.5-5.4.2-10.1 3.5-10.8 9-.4 1.8 2.6 1.8 2.9-.1zM639.9 665.5c-.6 5.9-3.4 11.1-7.8 15-1.4 1.3.7 3.4 2.1 2.1 5.1-4.5 8-10.4 8.7-17.1.2-1.9-2.8-1.9-3 0z"/><path class="st0" d="M641.2 669.2c.8 4.7 3.2 9 6.9 12.1 1.5 1.3 3.6-.9 2.1-2.1-3.3-2.8-5.4-6.5-6.1-10.8-.3-1.9-3.2-1.1-2.9.8zM631.7 685c3.3 3.9 5.4 8.4 6.3 13.4.4 1.9 3.3 1.1 2.9-.8-1.1-5.5-3.5-10.4-7.1-14.7-1.2-1.5-3.3.7-2.1 2.1z"/><path class="st0" d="M642.5 697.8c1.3-5 3.5-9.5 6.7-13.6 1.2-1.5-.9-3.6-2.1-2.1-3.6 4.4-6.1 9.4-7.5 14.9-.5 1.9 2.4 2.7 2.9.8zM1030.2 861.8c-.8 6.2 4.4 10.8 10.4 11.3 10.5.7 16.8-10.7 26.6-12.5 7.3-1.3 10 4.5 13.9 9.3 2.3 2.7 5.2 4.7 8.6 5.7 6.9 2.1 14.6.1 19.5-5.2 1.3-1.4-.8-3.5-2.1-2.1-5.1 5.5-13.8 6.9-20.2 2.7-5.7-3.6-7.2-11.4-14.1-13.3-6.2-1.7-12.4 1.8-17.2 5.3-3.1 2.3-6.2 4.8-9.9 6.1-4.6 1.6-13.4.3-12.4-6.6 0-1.8-2.8-2.6-3.1-.7zM1065.8 892c7.3-3.7 15.8-4.2 23.3-1 5.5 2.4 9.6 6.7 16 6.4 5.7-.2 10.8-3.3 15.7-6 6.1-3.3 17.9-7.6 21.1 1.9.6 1.8 3.5 1 2.9-.8-1.8-5.1-6.6-7.9-11.9-8.1-8.2-.2-14.7 5.9-22 8.6-5.6 2.1-10 1.3-15.1-1.7-3.3-2-6.5-3.8-10.3-4.7-7.3-1.7-14.7-.6-21.3 2.7-1.6 1-.1 3.5 1.6 2.7zM948.8 1067.5c.5 9.1-2.6 17.5-8.9 24.1l2.4 1.8c2.7-3.9 4.7-8.1 6.2-12.6.6-1.8-2.3-2.6-2.9-.8-1.4 4.3-3.3 8.2-5.9 11.9-1 1.4 1.2 3 2.4 1.8 6.8-7.2 10.2-16.4 9.7-26.2-.1-1.9-3.1-1.9-3 0z"/><path class="st0" d="M948.9 1067.9c1.8 8.3 5.7 15.7 11.6 21.8 1.3 1.4 3.5-.7 2.1-2.1-5.5-5.8-9.1-12.7-10.8-20.5-.4-1.9-3.3-1.1-2.9.8zM939.5 1096.1c5.3 5.7 9.6 12 12.9 19.1.8 1.8 3.4.2 2.6-1.5-3.4-7.3-7.8-13.9-13.4-19.7-1.3-1.5-3.4.7-2.1 2.1z"/><path class="st0" d="M954.7 1115.2c3.2-7.6 6.5-15.1 9.7-22.7.8-1.8-1.8-3.3-2.6-1.5-3.2 7.6-6.5 15.1-9.7 22.7-.7 1.8 1.9 3.3 2.6 1.5zM693 1096.5c13.6 13.3 29.9 23.2 47.9 29.2 1.8.6 2.6-2.3.8-2.9-17.6-5.9-33.4-15.5-46.6-28.5-1.3-1.3-3.4.8-2.1 2.2zM725.9 1103.1c15.8 8.7 33.1 13.8 51.1 15.1 1.9.1 1.9-2.9 0-3-17.5-1.2-34.3-6.2-49.6-14.7-1.6-1-3.1 1.6-1.5 2.6zM1108.4 694.1c2.9 19.7 8.7 38.8 17.2 56.8.8 1.7 3.4.2 2.6-1.5-8.4-17.8-14.1-36.6-16.9-56.1-.3-1.9-3.2-1.1-2.9.8zM1174.5 638.8c3.7 19 9.1 37.5 16.3 55.5.7 1.8 3.6 1 2.9-.8-7.1-18-12.6-36.5-16.3-55.5-.4-1.9-3.3-1.1-2.9.8zM1194.6 684.4c7 18.5 16.4 36 28.2 51.9 1.1 1.5 3.7 0 2.6-1.5-11.6-15.7-21-32.9-27.9-51.2-.7-1.8-3.6-1-2.9.8zM744.6 491.3c3-15.9 10-30.5 20.6-42.7 1.3-1.5-.9-3.6-2.1-2.1-10.9 12.6-18.3 27.6-21.4 44-.4 1.9 2.5 2.7 2.9.8zM732.7 491.6c1.2-8.2 4.5-15.5 9.9-21.8 1.3-1.5-.9-3.6-2.1-2.1-5.7 6.6-9.4 14.4-10.7 23.1-.3 1.8 2.6 2.7 2.9.8zM946.1 194.2c10.6 11.9 18.1 26.1 21.9 41.7.5 1.9 3.4 1.1 2.9-.8-3.9-16-11.6-30.6-22.6-43-1.3-1.4-3.5.7-2.2 2.1zM971.8 207c5.9 13.1 9.5 27.1 10.7 41.4.2 1.9 3.2 1.9 3 0-1.2-14.9-4.9-29.3-11.1-42.9-.8-1.8-3.4-.3-2.6 1.5z"/></g><g id="background_n2"><ellipse class="st2" cx="1252.7" cy="286" rx="53" ry="52.1"/><ellipse class="st3" cx="1228.5" cy="450.2" rx="28.7" ry="29.4"/><ellipse class="st3" cx="362.4" cy="349.7" rx="62.1" ry="60.9"/><ellipse class="st2" cx="1094.3" cy="947.7" rx="58.6" ry="57.7"/><path class="st3" d="M363.2 502.4c1.9 0 1.9-3 0-3s-2 3 0 3z"/><path class="st3" d="M361.9 506.9c7.7 0 7.7-12 0-12s-7.7 12 0 12zM1117.8 321.4c7.7 0 7.7-12 0-12s-7.7 12 0 12zM1093.5 716.6c7.7 0 7.7-12 0-12s-7.7 12 0 12zM237.7 727.4c-4.6 4.4-.5 11.2 5.1 11.8 3.8.4 12.8-4 12.8 2.3 0 3.1-.8 6.3.9 9.1 1.4 2.3 3.9 3.4 6.6 3.3 4-.1 7.7-4 10 .8 1.3 2.8 1.5 5.3 4.7 6.7 2.8 1.3 5.3.5 7-2 2.2-3.2-3-6.2-5.2-3 .7-1-1.7-6.5-2.5-7.5-1.1-1.5-2.7-2.6-4.6-2.9-2-.4-4 .2-5.9.8-3 .9-5.4 1.6-5.3-2.4.2-4.1.6-8.6-3.4-11.2-1.8-1.2-4-1.4-6.1-1.3-1.3.1-2.5.3-3.7.6-.9.2-8.3 1.1-6.2-.9 2.8-2.6-1.4-6.8-4.2-4.2zM268.8 724.1c.6 3.4 1.3 6.9 1.9 10.3.2 1.3 1.7 2.2 2.9 2.2 3.8-.1 5.9-2 9.1-3.6 5.3-2.7 3.7 2.2 4.5 5.7.6 2.5 2 4.4 4.5 5.3 4.7 1.6 8.7 1.5 12.8 4.9 3 2.4 7.2-1.8 4.2-4.2-3.3-2.7-6.9-4.8-11.1-5.6-1.1-.2-2.4-.2-3.5-.8-1.6-.9-1.2-1.4-1.2-3.3-.1-1.6-.1-3.2-.7-4.8-1.2-2.8-4-4.2-7-4-4.4.3-7.3 4.6-11.6 4.6 1 .7 1.9 1.5 2.9 2.2-.6-3.4-1.3-6.9-1.9-10.3-.7-4-6.5-2.4-5.8 1.4z"/><path class="st2" d="M610 313.8c1.8-2.4 3.8-2.8 6-1 1.2 1.5 1.8 3.1 1.8 5 .1 1.8-.7 3.5-.8 5.3-.1 1.6.1 3.1 1.4 4.1 2.8 2.1 6.6-.5 8.3-2.8.8-1.1 1.5-3.2 2.6-3.9 4.4-2.9 4.1 1.3 4.9 3.1.6 1.5 1.4 2.6 2.8 3.3 4.9 2.4 8.9-2.4 11.2-6.1 1-1.6-1.6-3.1-2.6-1.5-1.5 2.3-5.3 8.5-8.8 2.9-.6-1-.5-2.5-1.1-3.6-.8-1.4-1.9-2.6-3.6-2.8-2-.2-3.7 1.1-5 2.5-1.8 1.9-6.6 10.9-6.9 3.2-.1-4.6 1-10-4.3-12.3-3.6-1.6-7.7 0-9 3.7-.4 1.9 2.5 2.7 3.1.9zM611.3 301c3-2.8 8.5-2.2 10.8 1.4 1.4 2.2.4 5.1 1.9 7.2.9 1.3 2 1.7 3.6 1.4 1-.2 1.5-.7 2.4-1.2 3.2-2 6-2.8 9 .4 1.3 1.4 3.4-.7 2.1-2.1-2.4-2.6-5.9-3.8-9.3-2.8-1.8.6-4.5 3.3-5.5 1.3-.7-1.3-.3-3.3-.9-4.7-2.8-6-11.3-7.4-16-3-1.7 1.3.5 3.4 1.9 2.1zM1002 742.9c1 3.6 2.3 18.1 9.3 15.3 2.7-1.1 4.2-7.2 6.5-6.9 1.7.2 1.3.9 1.7 2.5.4 1.4.8 2.7 1.4 4 1 2.2 2.2 4.2 3.6 6.1.6.8 2.1 1.1 2.6 0 2.6-5.6 9.6-4.5 10.8 1.2.4 1.9 3.3 1.1 2.9-.8-1.8-8.5-12.6-9.8-16.3-1.9h2.6c-1.6-2.2-3-4.4-4-7-.7-1.9-.6-5-1.7-6.7-1-1.6-2.8-1.9-4.5-1.4-2.6.9-3.1 3.3-4.7 5.2-.6.8-2.7 2.8-3.9 2.1-.6-.4-1.1-3.6-1.4-4.5-.7-2.7-1.5-5.4-2.2-8.1-.3-1.7-3.2-.9-2.7.9zM1028.3 748.1c2.1-5 7.8-2.8 9.4.9.7 1.6 1.2 3.4 2.7 4.5 4.3 3.1 9-4 11.8 3.1 2.5 6.4 10.2 9.3 14.8 2.8 1.1-1.6-1.5-3.1-2.6-1.5-1.3 1.8-3.6 2.7-5.8 2-2.6-.8-3-3.1-3.9-5.3-.6-1.5-1.1-3.1-2.4-4.2-1.3-1.1-2.8-1.3-4.4-1-.9.2-1.8 1-2.7 1.2-3.3.6-3.9-1.2-5.1-3.6-3.1-6.3-11.9-6.5-14.8.3-.7 1.8 2.2 2.6 3 .8zM1325.2 404.3c-4.2-4.1-2.5-12.6 3.2-14.6 7.1-2.4 12.9 7 9.6 12.9-1 1.7 1.6 3.2 2.6 1.5 4.5-7.9-2.8-19.7-12.3-17.5-8.4 2-11.3 14-5.3 19.8 1.4 1.3 3.5-.8 2.2-2.1zM542.3 1003.1c-6-6.9-2.5-19 7.7-18.6 8.9.4 11.9 12.4 3.9 16.6-1.7.9-.2 3.5 1.5 2.6 10.2-5.4 6.8-21-4.6-22.1-13.3-1.3-18.6 14.4-10.7 23.6 1.3 1.5 3.4-.6 2.2-2.1zM529.1 864.2c-3.4-2.7-10.4-9.8-1.2-11.9 1.8-.4 3.5.4 5.3-.3 3.6-1.4 4.8-5.3 4.7-8.9-.1-2.4-.9-4.7-1.4-7-.6-2.7-1.8-5.8 2-5.9.7 0 1.4.3 2.2.3 3.5 0 6-2.4 7.2-5.5.7-1.8-2.2-2.6-2.9-.8-2.4 6.6-10.3-1.2-11.8 6.4-1.1 5.9 6.6 18.1-3.7 18.7-4.1.2-7.7.1-8.8 5-1.1 5.1 2.8 8.9 6.4 11.8 1.3 1.4 3.5-.7 2-1.9zM551.3 850.2c-1.5-2.5-4-6.9-2.9-10 1.2-3.3 6.8-3 9.4-5.2 3.5-2.9 4.8-7.4 3.6-11.8-.5-1.9-3.4-1.1-2.9.8.8 2.8.3 5.5-1.6 7.7-1.9 2.1-4 2-6.4 2.9-1.9.7-3.5 1.6-4.5 3.4-2.2 4.4.4 9.9 2.7 13.7 1 1.6 3.6.1 2.6-1.5z"/><path class="st4" d="M308.6 410c-2.8 1.9-7.9 5.9-11.6 3.3-4.1-2.8.5-10.2 2-13.1 3.4-6.6 7.6-12.8 12.3-18.5 9.5-11.6 20.8-21.6 32.2-31.3 2.9-2.5-1.3-6.7-4.2-4.2-15.7 13.4-31.4 27.5-42.3 45.4-3.7 6.1-10.6 16.3-6.4 23.6 4.8 8.3 14.9 4.2 20.9.1 3.3-2.3.3-7.5-2.9-5.3zM365.8 331.1l27-21.9c3-2.4-1.3-6.7-4.2-4.2l-27 21.9c-3.1 2.4 1.2 6.6 4.2 4.2zM417.1 297.3c4.6-2.4 21.3-12.2 24.3-4.3 2.6 6.8-3.8 16.7-7.9 21.7-2.4 3 1.8 7.2 4.2 4.2 6-7.3 14-20.8 8.2-30.4-6.6-10.8-24.1-.5-31.9 3.6-3.4 1.8-.3 7 3.1 5.2z"/><path class="st4" d="M333 381.4c13.6-15.5 28.8-29.6 45.4-41.9 3.1-2.3.1-7.5-3-5.2-17 12.6-32.6 26.9-46.6 42.9-2.6 2.8 1.6 7.1 4.2 4.2zM1058.4 898.1c1.5-11.2 16.7-6.4 22.9-3.5 6.2 2.9 12.1 6.5 17.6 10.5 12.1 8.9 22.4 20.4 30.5 33.1 8.7 13.6 15 28.6 19.4 44.2 2 7.1 14.4 49.7-3.3 45.1-3.7-1-5.3 4.8-1.6 5.8 5.8 1.5 11.4-1.2 14.6-6.2 3.8-6 2.8-13.6 1.7-20.2-2.6-16.3-6.8-32.5-13.3-47.7-11.8-28.1-31.7-53.6-59.1-67.9-7-3.6-15.2-7.6-23.3-5.9-6.6 1.3-11.4 6.2-12.2 12.8-.4 3.8 5.6 3.7 6.1-.1z"/><path class="st4" d="M1126.5 954.5c10.3 15.8 15.4 34.1 14.8 53-.1 3.9 5.9 3.9 6 0 .7-19.9-4.7-39.4-15.6-56-2.1-3.3-7.3-.3-5.2 3zM1070.7 877.3c10.3 1.2 19.7 5.9 27 13.2 2.7 2.7 7-1.5 4.2-4.2-8.5-8.6-19.3-13.6-31.2-15-3.8-.4-3.8 5.6 0 6z"/></g><g id="background"><path class="st4" d="M424.8 349.7v1.2c0 .8 0 2-.1 3.5-.2 3.1-.7 7.6-2.2 13.2-1.5 5.5-3.9 12.2-8.2 19.1-4.3 6.8-10.4 13.9-18.8 19.6-4.1 2.8-8.8 5.3-13.9 7.2-1.3.5-2.6.9-3.9 1.3-1.3.4-2.7.8-4 1.1-.7.2-1.4.3-2.1.5-.7.1-1.4.2-2.1.4-1.4.3-2.8.4-4.3.6-1.4.2-2.9.2-4.3.3-1.5 0-2.9.1-4.4 0-.7 0-1.4-.1-2.2-.1-.7 0-1.5-.1-2.2-.2-1.5-.1-3-.4-4.5-.6-3-.5-6-1.2-8.9-2.1-2.9-.9-5.8-2-8.7-3.3-11.3-5.2-21.5-13.7-28.9-24.5-7.3-10.8-11.7-23.8-11.9-37.2 0-3.3.1-6.7.5-10 .5-3.3 1.1-6.6 2-9.8 1-3.2 2.1-6.3 3.5-9.4 1.4-3 3-5.9 4.8-8.7 7.3-11.1 17.8-19.7 29.4-24.8 11.6-5.2 24.2-6.8 35.7-5.4 5.8.7 11.3 2 16.4 4 5.1 2 9.8 4.5 13.9 7.3 8.3 5.7 14.4 12.8 18.8 19.7 4.4 6.8 6.7 13.6 8.2 19.1 1.5 5.6 2 10.1 2.1 13.2.1 1.5.1 2.7.1 3.5.2.9.2 1.3.2 1.3zm-.4 0v-1.2c0-.8 0-2-.2-3.5-.2-3-.7-7.5-2.4-13-.8-2.7-1.9-5.7-3.4-8.8-1.5-3.1-3.3-6.3-5.6-9.5-4.6-6.4-10.9-12.8-19.1-17.8-4.1-2.5-8.6-4.7-13.4-6.5-4.8-1.7-10.1-2.9-15.5-3.5-1.4-.2-2.7-.2-4.1-.3h-4.2c-.7 0-1.4 0-2.1.1-.7 0-1.4.1-2.1.1-1.4.1-2.8.3-4.2.5-2.8.4-5.7 1-8.5 1.8-1.4.4-2.8.9-4.2 1.3-.7.2-1.4.5-2.1.8-.7.3-1.4.5-2.1.8-11 4.6-21 12.6-28.2 22.9-1.8 2.6-3.4 5.3-4.8 8.1s-2.6 5.8-3.6 8.8c-1 3-1.8 6.1-2.3 9.3-.5 3.2-.8 6.3-.9 9.6 0 3.2.1 6.5.5 9.7.5 3.2 1.1 6.4 2 9.5.9 3.1 2.1 6.1 3.4 9 1.4 2.9 3 5.7 4.8 8.3 3.6 5.3 7.9 10 12.8 13.9 4.9 3.9 10.3 7 15.9 9.3 2.8 1.1 5.6 2.1 8.5 2.8 2.9.8 5.8 1.3 8.6 1.6 1.4.1 2.9.3 4.3.4.7 0 1.4.1 2.1.1h2.2c1.4 0 2.8-.1 4.2-.1 1.4-.1 2.8-.2 4.1-.4 5.4-.7 10.7-1.9 15.5-3.7 4.8-1.8 9.3-4 13.4-6.6 8.1-5.1 14.5-11.5 19.1-17.9 2.3-3.2 4.1-6.4 5.6-9.5 1.5-3.1 2.6-6 3.4-8.8 1.7-5.5 2.2-10 2.4-13 .2-1.5.1-2.7.2-3.5-.1-.7 0-1.1 0-1.1zM1163.1 954.7s-.1 1.4-.2 3.9c0 .6 0 1.3-.1 2.1s-.2 1.6-.4 2.5c-.2.9-.2 1.9-.5 3-.2 1-.5 2.1-.8 3.3-1.3 4.6-3.1 10.2-6.8 15.9-.9 1.4-1.9 2.8-3 4.3-.5.8-1.1 1.4-1.7 2.1l-1.8 2.1c-.3.4-.6.7-1 1l-1 1-2.1 2.1c-1.5 1.3-3.2 2.5-4.9 3.8-6.9 4.8-15.6 8.2-25.2 9.2-1.2.2-2.4.1-3.6.2-.6 0-1.2 0-1.8.1H1106.4c-2.4-.2-4.8-.2-7.3-.8-5.1-.7-9.9-2.4-14.7-4.5-1.2-.6-2.3-1.2-3.5-1.8-.6-.3-1.1-.6-1.7-1l-1.7-1.1-1.7-1.1c-.5-.4-1.1-.8-1.6-1.2-1-.8-2.1-1.6-3.1-2.4-4-3.5-7.6-7.5-10.7-11.9-.7-1.1-1.4-2.3-2.1-3.5l-.5-.9c-.2-.3-.3-.6-.5-.9l-.9-1.8-.9-1.8c-.3-.6-.5-1.3-.8-1.9-.5-1.3-1-2.5-1.4-3.8-1.7-5.2-2.6-10.7-2.8-16.3l.1-4.1c0-.7 0-1.3.1-2l.3-2.1.3-2.1.1-1 .2-1 1-4.1c1.6-5.3 3.9-10.4 6.9-15.1 3.1-4.6 6.8-8.7 10.9-12.2 1-.9 2.2-1.6 3.2-2.5.5-.4 1.1-.8 1.6-1.2l1.7-1.1 1.7-1c.6-.3 1.1-.7 1.7-1 1.2-.6 2.4-1.2 3.6-1.7 4.9-2.1 9.9-3.7 14.9-4.3 2.5-.5 5-.5 7.5-.6h1l.9.1c.6 0 1.2.1 1.8.1s1.2.1 1.8.1c.6 0 1.2 0 1.8.2l3.6.6 1.8.3c.6.1 1.1.3 1.7.4 1.1.3 2.3.6 3.4.9 1.1.3 2.2.8 3.2 1.2 4.3 1.6 8.1 3.8 11.6 6.1 1.7 1.2 3.3 2.5 4.8 3.8l2.1 2.1c.4.3.7.7 1 1 .4.3.7.7 1 1l1.8 2.1c.6.7 1.2 1.4 1.7 2.1 1 1.5 2.1 2.9 3 4.3 3.6 5.7 5.5 11.3 6.7 15.9.3 1.2.5 2.3.8 3.3.2 1 .3 2 .5 3 .1.9.3 1.8.4 2.5.1.8.1 1.5.1 2.1.3 2.7.3 4 .3 4zm-.4 0s-.1-1.4-.2-3.9c-.1-.6 0-1.3-.2-2.1-.1-.8-.3-1.6-.4-2.5-.2-.9-.3-1.9-.5-2.9-.3-1-.6-2.1-.9-3.2-.2-.6-.3-1.2-.5-1.7-.2-.6-.5-1.2-.7-1.8-.2-.6-.5-1.2-.8-1.9-.3-.6-.5-1.3-.9-1.9-.7-1.3-1.3-2.6-2.1-3.9-.8-1.3-1.7-2.6-2.6-3.9-3.8-5.3-9.1-10.5-15.9-14.7-3.4-2-7.1-3.9-11.1-5.2-1-.3-2-.7-3-1-1-.3-2.1-.5-3.2-.8-.5-.1-1.1-.3-1.6-.4-.5-.1-1.1-.2-1.6-.2-1.1-.2-2.2-.3-3.3-.5-.5-.1-1.1-.1-1.7-.1-.6 0-1.2 0-1.8-.1-.6 0-1.2 0-1.8-.1H1106.2c-2.3.2-4.6.1-7 .6-1.2.2-2.3.3-3.5.6-1.2.3-2.3.6-3.5.9-1.2.2-2.3.7-3.5 1.1l-1.7.6c-.6.2-1.2.4-1.7.7-1.1.5-2.2 1-3.4 1.6-.6.2-1.1.6-1.6.9l-1.6.9-1.6.9c-.5.3-1 .7-1.5 1.1-1 .7-2.1 1.5-3.1 2.2-3.9 3.2-7.4 7-10.4 11.2-2.9 4.3-5.3 9-7 14l-1.1 3.8-.3 1-.2 1-.3 1.9-.4 1.9c-.1.6-.1 1.3-.2 2l-.3 4c0 5.3.6 10.7 2 15.8 1.6 5.1 3.8 10 6.8 14.4.8 1.1 1.6 2.1 2.4 3.2.4.5.8 1.1 1.2 1.5l1.3 1.4 1.3 1.4c.2.2.4.5.7.7l.7.6c1 .9 2 1.7 2.9 2.6 1 .8 2.1 1.5 3.1 2.3.5.4 1 .8 1.6 1.1l1.7.9 1.7.9c.6.3 1.1.6 1.7.9 1.2.5 2.3 1 3.4 1.5.6.3 1.2.5 1.7.7l1.8.6c1.2.4 2.3.8 3.5 1 1.2.3 2.4.5 3.6.8 1.2.2 2.4.3 3.5.5 2.3.4 4.8.3 7.2.4H1106.8c.1 0-.1 0 0 0l.9-.1c.6 0 1.2-.1 1.7-.1 1.1-.1 2.3-.1 3.4-.3 9-1.1 17.1-4.3 23.9-8.4 6.8-4.2 12-9.4 15.9-14.7.9-1.4 1.8-2.7 2.6-3.9.7-1.4 1.4-2.7 2.1-3.9.4-.6.6-1.3.9-1.9.3-.6.5-1.2.8-1.9.2-.6.5-1.2.7-1.8.2-.6.3-1.2.5-1.7.3-1.1.6-2.2.9-3.2.3-1 .4-2 .5-2.9.1-.9.3-1.7.4-2.5.1-.8.1-1.5.2-2.1.5-2.5.5-3.9.5-3.9zM1253.5 452.2s0 .8-.1 2.2c0 .4 0 .8-.1 1.2-.1.4-.1.9-.2 1.5-.1.5-.1 1.1-.2 1.7-.1.6-.3 1.2-.4 1.9-.7 2.6-1.7 5.9-3.7 9.2-2 3.3-4.8 6.9-8.8 9.7-4 2.9-9.1 4.9-14.7 5.5-.7.1-1.4.1-2.1.1h-2.2c-1.4-.1-2.7-.2-4.2-.5-3-.5-5.7-1.5-8.5-2.8-2.7-1.3-5.2-3.1-7.6-5-2.3-2-4.4-4.3-6.2-6.9-.8-1.3-1.7-2.6-2.3-4.1-.4-.7-.7-1.4-1-2.1-.3-.7-.6-1.5-.9-2.2-1-3-1.6-6.2-1.8-9.4 0-1.7-.1-3.1.2-4.8.1-1.7.5-3.2.9-4.8.9-3.1 2.2-6.1 4-8.8 1.8-2.7 3.9-5.1 6.3-7.2 2.5-2 5.1-3.8 7.9-5 2.8-1.2 5.8-2.2 8.8-2.5 1.5-.3 3-.3 4.4-.4h1.2l1 .1c.7.1 1.3.1 2 .2s1.4.2 2.2.3c.4.1.7.1 1.1.2l1 .3c.7.2 1.3.4 2 .5.6.2 1.3.5 1.9.7 2.5.9 4.7 2.3 6.7 3.7 4 2.9 6.8 6.5 8.8 9.8 2 3.4 3 6.6 3.7 9.3.1.7.3 1.3.4 1.9.1.6.2 1.2.2 1.7.1.5.1 1 .2 1.5.1.4 0 .9.1 1.2-.1 1.3 0 2.1 0 2.1zm-.4 0s0-.8-.1-2.2c0-.4 0-.8-.1-1.2-.1-.4-.2-.9-.2-1.4-.1-.5-.2-1.1-.3-1.7-.2-.6-.4-1.2-.5-1.8-.1-.3-.2-.7-.3-1-.1-.3-.3-.7-.4-1-.3-.7-.6-1.4-1-2.1-.4-.7-.8-1.4-1.2-2.2-.5-.7-1-1.4-1.6-2.2-2.2-2.9-5.3-5.8-9.1-8-1.9-1.1-4-2.1-6.2-2.8-.6-.2-1.1-.4-1.7-.5-.6-.1-1.2-.3-1.8-.4l-.9-.2c-.3-.1-.6-.1-.9-.1-.6-.1-1.2-.2-1.8-.2-.6-.1-1.3-.1-2-.1h-1.5c-.1 0 .1 0 0 0h-.4c-1.3.1-2.6.1-3.9.3-2.6.3-5.2 1.1-7.7 2.1s-4.9 2.5-7.1 4.2c-2.2 1.8-4.1 3.9-5.9 6.2-1.6 2.4-3 5-4 7.7-.4 1.4-.9 2.8-1.1 4.2-.4 1.4-.4 3.1-.6 4.5 0 3 .2 6 1 8.9.9 2.9 2.1 5.7 3.8 8.2.9 1.2 1.8 2.4 2.8 3.5.5.5 1 1.1 1.6 1.6l1.7 1.4c2.3 1.8 4.9 3.2 7.5 4.2 2.6.9 5.4 1.6 8 1.8 1.2.2 2.7.1 4.1.2h.5s-.1 0 0 0h.5l1-.1c.6-.1 1.3-.1 1.9-.2 5-.7 9.5-2.4 13.3-4.6 3.8-2.3 6.9-5.1 9.1-8 .5-.8 1.1-1.5 1.6-2.2.4-.8.8-1.5 1.2-2.2.4-.7.6-1.4 1-2.1.1-.3.3-.7.4-1 .1-.3.2-.7.3-1 .2-.6.4-1.3.5-1.8.2-.6.2-1.1.3-1.6.1-.5.2-1 .2-1.4.1-.4.1-.8.1-1.2-.2-1.7-.1-2.5-.1-2.5zM1313.6 286s-.1 1.3-.2 3.7c0 .6 0 1.3-.1 2s-.2 1.6-.4 2.4c-.2.9-.2 1.8-.4 2.8-.2 1-.5 2.1-.8 3.2-1.2 4.4-3 9.8-6.5 15.3-.8 1.4-1.9 2.7-2.8 4.1-.5.7-1.1 1.4-1.7 2l-1.8 2.1c-1.2 1.4-2.6 2.6-4 3.9-1.5 1.2-3 2.5-4.7 3.6-6.6 4.6-15 7.9-24.2 8.9-1.1.2-2.3.1-3.5.2-.6 0-1.2 0-1.8.1H1258.9c-2.3-.2-4.6-.2-7-.8-4.9-.7-9.5-2.3-14.1-4.4-1.1-.6-2.2-1.1-3.3-1.7-.6-.3-1.1-.6-1.6-1l-1.6-1-1.6-1c-.5-.4-1-.8-1.5-1.1-1-.8-2-1.5-3-2.3-3.9-3.4-7.3-7.2-10.3-11.5l-2.1-3.3-.5-.8-.4-.9-.9-1.8-.9-1.8c-.3-.6-.5-1.2-.7-1.8-.5-1.2-1-2.4-1.4-3.7l-1.1-3.8-.3-1-.2-1-.3-2c-.2-1.3-.5-2.6-.5-3.9l-.3-4 .1-3.9c0-.7 0-1.3.1-2l.3-2 .3-2 .1-1 .2-1 .9-3.9c1.5-5.1 3.8-10 6.7-14.5 3-4.4 6.5-8.3 10.5-11.7 1-.8 2.1-1.6 3.1-2.4.5-.4 1-.8 1.6-1.1l1.6-1 1.6-1c.5-.3 1.1-.7 1.7-.9 1.2-.6 2.3-1.1 3.4-1.7 4.7-2 9.5-3.5 14.3-4.1 2.4-.5 4.8-.5 7.2-.6H1260.8c.6 0 1.1.1 1.7.1.6 0 1.1.1 1.7.1.6 0 1.1 0 1.7.2 1.2.2 2.3.4 3.5.5.6.1 1.2.2 1.7.3.6.1 1.1.3 1.6.4l3.3.9c1.1.3 2.1.8 3.1 1.1 4.1 1.5 7.8 3.6 11.1 5.9 1.6 1.2 3.2 2.4 4.7 3.7 1.4 1.4 2.8 2.6 4 4l1.8 2.1c.6.7 1.2 1.3 1.6 2 1 1.4 2 2.8 2.8 4.1 3.5 5.5 5.2 10.9 6.5 15.3.3 1.1.5 2.2.8 3.2.2 1 .3 2 .4 2.8.1.9.2 1.7.4 2.4.1.7.1 1.4.1 2 .2 2.7.3 4 .3 4zm-.4 0s-.1-1.3-.2-3.7c-.1-.6 0-1.3-.2-2-.1-.7-.3-1.5-.4-2.4-.2-.9-.3-1.8-.5-2.8-.3-1-.6-2-.9-3.1-.2-.5-.3-1.1-.5-1.7-.2-.6-.4-1.1-.7-1.7-.2-.6-.5-1.2-.7-1.8-.2-.6-.5-1.2-.8-1.8-.6-1.2-1.3-2.5-2-3.7-.8-1.2-1.7-2.5-2.5-3.8-3.7-5-8.8-10.1-15.2-14-3.3-1.9-6.8-3.8-10.6-5-1-.3-1.9-.7-2.9-1-1-.2-2-.5-3-.7-.5-.1-1-.3-1.5-.4-.5-.1-1-.2-1.5-.2-1-.1-2.1-.3-3.1-.4-.5-.1-1.1-.1-1.6-.1-.6 0-1.1 0-1.7-.1-.6 0-1.1 0-1.7-.1h-1.6c-2.2.2-4.5.1-6.7.5-4.5.5-8.9 2-13.3 3.7-1.1.5-2.1 1-3.2 1.5-.6.2-1.1.5-1.6.8l-1.5.9-1.6.9c-.5.3-1 .7-1.5 1-1 .7-2 1.4-2.9 2.1-3.8 3.1-7.1 6.7-10 10.7-2.8 4.1-5 8.6-6.7 13.4-1.6 4.8-2.4 9.7-2.7 15 0 5 .6 10.2 1.9 15.1 1.5 4.9 3.7 9.6 6.5 13.8.7 1 1.5 2 2.3 3 .7 1 1.6 1.9 2.5 2.9l1.3 1.4c.2.2.4.5.6.7l.7.6c.9.8 1.9 1.6 2.8 2.5 1 .8 2 1.4 3 2.2.5.3 1 .7 1.5 1l1.6.9 1.6.9c.5.3 1 .6 1.6.8l3.3 1.5c.5.3 1.1.5 1.7.6l1.7.6c1.1.4 2.2.8 3.4 1 1.1.3 2.3.5 3.4.8 1.1.2 2.3.3 3.4.5 2.2.4 4.6.3 6.9.4H1260.1c.1 0-.1 0 0 0l.8-.1c.6 0 1.1-.1 1.7-.1 1.1-.1 2.2-.1 3.3-.3 8.6-1.1 16.4-4.1 22.9-8.1s11.6-9 15.2-14.1c.9-1.3 1.7-2.6 2.5-3.8.7-1.3 1.3-2.5 2-3.8.3-.6.6-1.2.8-1.8.2-.6.5-1.2.7-1.8.2-.6.5-1.2.7-1.7.2-.6.3-1.1.5-1.7.3-1.1.6-2.1.9-3.1.3-1 .4-1.9.5-2.8.1-.9.3-1.7.4-2.4.1-.7.1-1.4.2-2-.1-2.3 0-3.6 0-3.6zM561.5 470.8c-.9-.6-.7-2.1-.3-2.9.7-1.4 2.9-1.8 4.3-1.8 2.8-.1 5.6 1.2 8.2 1.9 3.6 1.1 7.4 1.7 11.1.5 6.6-2.3 9.1-9.2 11.5-15.2 1.4-3.5 4.5-9.7 9.1-9.5 3.8.2 6.2 4.8 10.4 4.9 7.2.3 12-7.3 14.5-13 1.5-3.5-3.6-6.6-5.2-3-2.1 4.8-6.2 12.7-12.1 8.4-3.2-2.3-6.1-4.3-10.3-3.1-8.9 2.4-10.9 12-14.5 19.1-3.1 6-7.4 6.7-13.7 4.9-4.4-1.3-9.1-2.8-13.7-1.1-6.2 2.4-8.4 11.3-2.3 15.1 3.3 2 6.3-3.1 3-5.2zM607.2 470.4c-.6-3.7 2.5-7.6 6.2-8.1 3.3-.5 5.8 2.3 8.9 2.9 5.7 1 10.1-3.7 12.3-8.3 1.4-2.9 2.2-6.5 4.7-8.7 2.2-2 5.4-2.4 8.2-2.9 5.2-.9 10.2-1.6 13.9-5.8 2.5-2.9-1.7-7.1-4.2-4.2-4.3 4.9-12.1 3.5-17.8 5.9-7.2 3.1-7.3 9.8-11.6 15.4-3.7 4.8-7.5.3-11.9-.2-2.6-.3-5.3.3-7.6 1.5-5.2 2.9-7.8 8.3-6.8 14.1.6 3.8 6.4 2.2 5.7-1.6zM620.2 765.3c-3.9-5.3 0-13.6 7.1-11.5 6.9 2 6.4 11.5-.3 13.5-3.7 1.1-2.1 6.9 1.6 5.8 11.8-3.6 13.2-20.5 1.1-24.8-11.9-4.3-22.2 9.9-14.7 20 2.2 3.1 7.5.1 5.2-3zM1203.5 632.8c-.5-1.8.8-2.3 3.8-1.4 1.4.5 2.7 1 4 1.6 1.4.6 2.8 1.1 4.3 1.4 2.8.5 5.6-.1 7.9-1.9 4.9-3.9 4.2-10.4 7.2-15.2 3.2-5.2 5.5-1.5 7.9 1.5 1.3 1.7 2.8 3.1 5 3.6 2.3.5 4.6-.3 6.4-1.8 1.2-1 2.2-2.3 3-3.6.1-.2 4.5-6.6 4.6-4.9.2 3.8 6.2 3.9 6 0-.1-3.6-2.8-6.1-6.4-6.2-4.2-.1-6.5 3.2-8.4 6.4-1.8 2.9-3.8 5.4-6.3 1.8-1-1.4-1.8-2.8-3.2-3.9-3.1-2.5-7-2.3-10.1 0-3.5 2.5-5 6.6-6.1 10.5-.6 2.3-1.2 5.3-3 7-2.8 2.5-6.8-.3-9.6-1.4-3.9-1.5-8.8-1.9-11.6 1.9-2.1 2.9-2.1 6.5.4 9 2.7 2.6 6.9-1.7 4.2-4.4zM1251.9 638.9c-1.1-4.3 4.8-5 7.5-4.5 2.3.4 4.4 1.3 6.7 1.9 3.6 1 7.6 1.6 11.2.3 2.8-1 4.8-3 6.3-5.5 1.8-3 2.4-7.2 5.5-9.2 3.2-2.1.2-7.3-3-5.2-3.7 2.4-5 5.9-6.8 9.7-3.5 7.1-9.6 4.6-15.7 2.9-4.6-1.3-9.5-1.8-13.6 1.1-3.4 2.4-4.9 6.2-3.8 10.2.9 3.6 6.7 2 5.7-1.7z"/></g><g id="cat"><path class="st4" d="M417.5 751.4c-22.9 30.5-33.9 43-43.3 56-7.5 10.3-17.9 26.4-27.5 48.6-3.1 3.8-7.9 8.3-13.7 8.5-13.6.3-17-23-37-35.9-15.4-10-37.3-11.6-53.9-4.2-31.6 13.9-37.8 56.6-34.9 58.1 2.8 1.5 15.8-33.9 43.3-38.1 9.5-1.4 17.7 1.3 20.1 2.1 14.2 5.1 18 15.3 30.7 26.4 6.5 5.7 16.8 12.9 32.8 18-1.6 3.8-3.1 8.8-3.2 14.8-.1 20 16.6 32.9 19.2 34.8 1.3 3 3.3 8.3 3.2 15.3-.1 8.7-3.4 15.2-5.1 18.1 5.2 7.5 10.2 13 13.9 16.7 8.7 8.5 12.1 9.1 13.4 9.3 8.2.8 14.8-7.1 16.2-8.8-2.2-1-13.1-6.5-17.6-19.5-4.4-12.7.6-23.7 1.9-26.4 1.4-3 3-5.4 4.2-7 5.4 3.1 12.1 8.1 15.3 16.2 4.4 11.1-1.6 18.5 3.7 25.5 5.6 7.3 18.1 7.3 25.8 5.1 8.3-2.3 16.9-8.7 15.9-12.7-1.1-4.5-13.7-1.1-20.1-8.5-5.7-6.5-3-17.4-1.1-25.4 6.2-25.2 20.7-31.4 21.1-49.7.2-8.4-2.7-15.4-5.3-20.1 17.7-36.4 37.4-52.4 52.9-60.3 9.2-4.7 24.4-8.6 42.4-22.3 8.2-6.2 14.3-11.8 21.3-18.5 8.5-8.1 27-25.8 24.6-29.2-2-2.7-16.6 4.8-20.9 7-20.6 10.6-23.1 18.7-36.7 21.8-10.6 2.4-24.8 1-27.5-5.3-3.2-7.5 13.4-14.7 13.7-30.7.1-2.5-.3-5.5-13.7-28.5-12.2-20.8-15.8-25-18-24.3-3.4 1.1.7 13.8-6.3 20.1-3.8 3.4-9.1 3.5-12.7 3.2-15.3-15.9-21-18.3-23.3-16.9-4.2 2.7 5.9 18.3 2.1 38.1-1.9 9.5-6 15.4-15.9 28.6z"/><path class="st5" d="M466 724.2c.1.1.1.2.1.3 0-.2 0-.1 0 0 .1-.3-.1.1 0 0l-.1.1c-.1.1.1 0 0 0h-.3s-.3-.1-.1 0l-.1-.1c.1.1 0 .1 0 0v-.3c0-.1.1-.2 0-.1.1-.1.1-.2.2-.2-.2.1 0 0 .1 0-.4 0 .2 0 0 0s.3.1.1 0c-.2-.1.3.2 0 0-.7-.4-1.7-.1-2.1.5-.4.7-.1 1.6.5 2.1 1 .7 2.5.5 3.3-.4 1-1 1-2.6.1-3.6s-2.3-1.2-3.4-.5c-1.2.8-1.5 2.3-.9 3.6.4.7 1.4.9 2.1.5.7-.3.8-1.2.5-1.9zM487 715.9c-.2-.3.1.2 0 .4 0 .1-.1.2-.1.3-.3.3-.9.4-1.2 0-.4-.5 0-1.1.4-1.2-.2.1 0 0 .1 0 .2 0 .4.1.5.2-.6-.6-1.6-.6-2.1 0-.6.6-.6 1.5 0 2.1.7.8 2 .9 2.9.3 1.1-.7 1.3-2.2.6-3.2-.7-1-2.1-1.3-3.1-.5-.9.7-1.2 2.1-.6 3.1.5.7 1.3 1 2.1.5.6-.4 1-1.4.5-2zM481.3 726.6c.8 1.9 2 8.5-1.6 8.6-1 0-1 1.5 0 1.5 5.1-.1 4.2-7.9 2.9-10.8-.4-1-1.7-.2-1.3.7z"/><path class="st5" d="M481.8 727.1c.8 2.2 2.3 4.7 4.6 5.6 1.9.7 4.1-.3 4.2-2.4.1-1-1.4-1-1.5 0-.1 2.4-3.1.6-3.9-.2-.9-1-1.6-2.1-2-3.4-.3-.9-1.7-.5-1.4.4zM462.6 727.9c1.8-.4 3.5-.3 5.1.4.9.4 1.3-1.1.4-1.4-1.9-.8-3.9-.9-5.9-.4-.9.2-.5 1.6.4 1.4zM489.3 713.4c-1 1.7-1.6 3.5-1.8 5.5-.1 1 1.4 1 1.5 0 .2-1.7.7-3.3 1.6-4.8.5-.8-.8-1.5-1.3-.7z"/><path class="st4" d="M467.6 781.7c3.2-14.1 16.6-16.8 40.2-35.8 15.9-12.8 24.5-23.5 27.5-21.4 2.3 1.6-.4 9.8-1.4 12.5-2.6 7.5-6.7 12.4-8.3 14.4-6.8 7.9-19.3 21.4-43.8 37.7-4.8 3.2-9.8 6.3-12.7 4.5-3.5-2.3-1.7-11-1.5-11.9z"/><path d="M419 754.1c-12.8-11.5-16-26.3-16.6-29.3-4.9-24.9 10-44.1 13.1-47.9 16.6-20.4 49.3-32.3 75.1-18.8 20.3 10.7 26.3 32.1 27.8 38.2 4.5 19.1.2 42.3-16 57.7-23.8 22.7-62.8 18.7-83.4.1z" style="opacity:.73;fill:#fff;stroke:#161616;stroke-width:2;stroke-miterlimit:10"/></g><g id="leg_r"><path class="st7" d="M794.5 596.9c-13.3 11.4-31 28.8-47.6 53.2-12 17.7-32.4 48.5-39.5 92.8-10.3 64 13.8 114.6 21.8 129.9 29.1 55.7 74.4 81.7 91.2 90.4-3.7 6-8.9 15.4-13.7 27.4-1.1 2.9-22.8 58.4-8.1 68.6 11.1 7.6 37.8-13.6 41.9-16.9 24.4-19.5 35.8-45.7 48.4-75.8 5.3-12.8 9-23.5 11.3-30.7-13.9-9.7-34.5-26.4-52.4-52.4-11.2-16.2-49.4-71.6-33.1-122.6 7.5-23.4 18-19.8 46.8-67 21.1-34.7 33-54.1 26.6-70.2-8.6-21.8-47.6-31-93.6-26.7z"/><path class="st4" d="M753.1 653.9c17.3-.2 33.3-9.9 41.4-25.2.7-1.3-1.3-2.4-1.9-1.1-7.7 14.6-22.9 23.9-39.4 24.1-1.6 0-1.6 2.2-.1 2.2zM796.8 947.9c22.9-10.6 42.3-27.6 55.7-49 .8-1.2-1.2-2.4-1.9-1.1-13.3 21.1-32.3 37.8-54.9 48.2-1.3.6-.2 2.5 1.1 1.9z"/><path class="st4" d="M828.5 928.8c2 7.7 9.8.5 12.6-2.2 7.1-6.6 14.7-13 18.6-22.2.6-1.3-1.4-2.5-1.9-1.1-2.4 5.6-6.1 10.1-10.4 14.3l-5.7 5.4c-.9.9-9.6 10-10.9 5.1-.5-1.3-2.7-.7-2.3.7zM793.1 742.4c-10.3 19.5-14.5 41.5-12 63.4.2 1.4 2.4 1.4 2.3 0-2.5-21.5 1.5-43.1 11.6-62.2.7-1.3-1.3-2.5-1.9-1.2z"/><path class="st4" d="M783.2 818.4c-1.4-2.4-2.7-5.1-2.2-8 .4-2.5 2.7-4.7 5.4-4.4 5.9.8 3 14.8-3.7 11.4-1.3-.6-2.4 1.3-1.1 1.9 3.7 1.9 7.8-.1 9.4-3.8 1.4-3.3 1.3-8.8-2-10.9-2.8-1.9-6.7-.5-8.7 1.9-3.1 3.8-1.2 9.2 1 13 .7 1.3 2.6.2 1.9-1.1zM790.2 828.4c13.2 28.4 30.9 54.4 52.4 77.1 1 1.1 2.6-.5 1.6-1.6-21.4-22.6-38.9-48.5-52.1-76.7-.6-1.2-2.5-.1-1.9 1.2zM713.8 830.2c3.9-5.9 11.4-8.1 18.1-6 6.8 2.1 11.9 8 14.6 14.4 3.1 7.2 3.8 15.5 1.7 23.1-2.2 7.8-9 15.4-17.7 11.8-1.3-.6-1.9 1.6-.6 2.2 7.8 3.2 15.3-1.7 18.8-8.7 4.4-8.9 3.9-20.3-.1-29.3-3.3-7.5-9.7-14.4-18-16-7.2-1.4-14.7 1.4-18.7 7.5-.9 1.1 1.1 2.3 1.9 1z"/><path class="st4" d="M718.2 842c1.1-6.2 8.9-6.3 13.4-4.1 3.5 1.7 6.4 4.8 8.1 8.3 1.9 3.9 2.5 8.6 1 12.8-2.2 6.1-7.9 7.3-13.8 7-1.4-.1-1.4 2.2 0 2.3 6.4.4 12.6-1 15.4-7.3 2.4-5.4 1.5-12-1.4-17-2.8-4.9-7.8-8.9-13.6-9.5-4.9-.5-10.4 1.7-11.3 7-.2 1.3 2 1.9 2.2.5zM754 909c14.3-6.9 26.8-16.6 37.1-28.6.9-1.1-.6-2.7-1.6-1.6-10.2 11.9-22.6 21.4-36.7 28.3-1.2.6-.1 2.6 1.2 1.9z"/><path class="st4" d="M771.4 898.3c1.7 2.1 3.9 6.5 6.7 7.4 2.2.7 4-1 5.6-2.2 5.3-3.7 10.2-7.7 13.6-13.3.8-1.2-1.2-2.4-1.9-1.1-2.7 4.4-6.3 7.7-10.3 10.7-1.7 1.3-3.5 3.1-5.7 2.9-2.6-.2-4.6-4-6.3-6-1-1.1-2.6.5-1.7 1.6zM828.8 891c-6.6 12.5-16.2 23-28.1 30.6-.7.4-.8 1.5 0 1.9 4.6 2.5 8.5 5.6 11.8 9.6.9 1.1 2.5-.5 1.6-1.6-3.5-4.1-7.5-7.4-12.3-9.9v1.9c12.3-7.8 22.2-18.5 29-31.4.7-1.2-1.3-2.4-2-1.1zM717.7 707.4c10.1-1.3 20.2-1.1 30.2.9 9.4 1.9 19.6 4.7 25.8 12.6.9 1.1 2.5-.5 1.6-1.6-6-7.7-15.8-10.7-25-12.7-10.7-2.4-21.7-2.8-32.6-1.4-1.4.2-1.4 2.4 0 2.2zM709.6 734.7c17.1.5 33.5 5.1 48.4 13.5 1.3.7 2.4-1.2 1.1-1.9-15.2-8.6-32.1-13.3-49.5-13.9-1.4 0-1.4 2.3 0 2.3z"/><path class="st4" d="M773.2 720.6c-5.4 8.1-10.1 16.6-14.2 25.4-.6 1.3 1.3 2.4 1.9 1.1 4.1-8.8 8.8-17.3 14.2-25.4.9-1.2-1.1-2.3-1.9-1.1zM714.3 716.9c10.6-.8 21 .4 31.1 3.6 1.4.4 2-1.7.6-2.2-10.3-3.2-20.9-4.4-31.7-3.7-1.4.2-1.4 2.4 0 2.3z"/><path class="st4" d="M749.6 709.8c-1.8 2.5-2.9 5.3-3.5 8.3-.2 1.4 1.9 2 2.2.6.5-2.9 1.6-5.4 3.2-7.8.9-1.2-1.1-2.3-1.9-1.1z"/><path class="st4" d="M749 716c7.5 2.3 14.3 6.1 20.2 11.3 1.1.9 2.7-.6 1.6-1.6-6.2-5.4-13.3-9.4-21.2-11.9-1.4-.4-2 1.8-.6 2.2zM723.7 738.8c-5.6 11.3-8.8 23.4-9.4 36-.1 1.4 2.2 1.4 2.3 0 .6-12.2 3.7-23.9 9.1-34.9.6-1.3-1.3-2.4-2-1.1z"/><path class="st4" d="M713.8 785.9c-.8-2.1-1.8-4.6-1.1-6.9.6-2 3.1-3.9 4.9-2 1.6 1.6 2.3 4.7 1.1 6.7-1 1.7-3.2 2.3-4.8 1.1-1.2-.8-2.3 1.1-1.1 1.9 2.4 1.7 5.8.9 7.5-1.4 2.1-2.8 1.3-6.9-.7-9.5-2-2.5-5.2-2.5-7.4-.3-3.1 3-1.9 7.4-.6 11 .5 1.3 2.7.7 2.2-.6zM808.7 636.7c-10 13.9-20.8 27.2-32.2 40-1 1.1.6 2.7 1.6 1.6 11.5-12.9 22.4-26.4 32.5-40.4.9-1.3-1-2.4-1.9-1.2z"/><path class="st4" d="M776.7 678.8c4.3 4.2 9.6 6.6 15.5 7.1 1.4.1 1.4-2.1 0-2.3-5.3-.5-10.1-2.8-13.9-6.5-1-.9-2.6.7-1.6 1.7zM784 669.6c3.8 3.7 8.3 6.4 13.4 8.1 1.4.5 2-1.7.6-2.2-4.7-1.6-8.8-4.1-12.4-7.5-1.1-1-2.7.6-1.6 1.6z"/><path class="st4" d="M796 676.2c-1.3 3.1-3.3 5.7-5.9 7.8-1.1.9.5 2.5 1.6 1.6 2.7-2.2 4.9-5 6.3-8.2.5-1.3-1.5-2.5-2-1.2zM796 655.6c3.6 3.8 8.2 6.2 13.4 7 1.4.2 2-2 .6-2.2-4.8-.7-9-2.9-12.4-6.4-1.1-1.1-2.7.5-1.6 1.6zM801.5 648c3.1 3.1 6.9 5.3 11.2 6.3 1.4.3 2-1.8.6-2.2-3.9-.9-7.4-2.8-10.2-5.7-1-1-2.6.6-1.6 1.6z"/><path class="st4" d="M811.9 653.3c.1 2.8-1 5.3-3.2 7.2-1.1.9.5 2.5 1.6 1.6 2.6-2.2 4-5.4 3.8-8.8 0-1.5-2.2-1.5-2.2 0zM783.2 745.4c-7.7 15.8-11.8 32.7-12.4 50.2 0 1.4 2.2 1.4 2.3 0 .5-17.1 4.6-33.7 12.1-49.1.6-1.3-1.3-2.4-2-1.1zM799.1 713.9c9.9 7.4 18 16.6 24.2 27.3.7 1.3 2.7.1 1.9-1.1-6.4-11-14.8-20.5-25.1-28.1-1-.9-2.1 1-1 1.9zM811.9 714.2c7.2 5.7 13.3 12.5 18.2 20.2.8 1.2 2.7.1 1.9-1.1-5-7.9-11.2-14.9-18.5-20.7-1.1-.9-2.7.7-1.6 1.6zM889.4 929.2c-11.8 12.4-7.8 30.2-12 45.4-2.6 9.5-7.5 18.4-11.6 27.3-4 8.8-8 17.5-12.1 26.3-.6 1.3 1.3 2.5 1.9 1.1 7.4-16.2 15.9-32.2 22.1-48.9 5.9-15.9.7-36.6 13.1-49.6 1.2-1-.4-2.6-1.4-1.6zM820 964.5c7.2-4.5 14.8-7.7 23.1-9.5 1.4-.3.8-2.5-.6-2.2-8.5 1.8-16.4 5.1-23.7 9.7-1.1.8 0 2.8 1.2 2zM873 917.9c-3.4 7.2-8 13.5-13.9 18.9-.7.6-.3 1.6.5 1.9 3 1 7.7 4.1 10.6 1.6 2.3-2 4.2-5.1 6.1-7.5 2.3-2.8 4.6-5.7 7-8.5.9-1.1-.7-2.7-1.6-1.6-3.2 3.9-6.4 7.9-9.7 11.8-1.3 1.6-2.6 4.2-4.9 4.4-1.8.1-5.2-1.8-6.9-2.4.2.6.3 1.3.5 1.9 6-5.5 10.7-12 14.2-19.3.6-1.4-1.3-2.5-1.9-1.2zM802 1007.9c6.4-4.7 16.7-3.7 23.5-.2 1.3.7 2.4-1.3 1.1-1.9-7.5-3.8-18.7-5-25.8.2-1.1.8 0 2.8 1.2 1.9zM797.8 1023.1c8-5.2 17.3-6.6 26.4-3.8 1.4.4 2-1.8.6-2.2-9.7-2.9-19.7-1.4-28.1 4.1-1.2.8-.1 2.7 1.1 1.9z"/><path class="st4" d="M825.4 1007.3c.8 3.8-.3 7.6-2.9 10.4-1 1.1.6 2.7 1.6 1.6 3.2-3.5 4.4-8 3.5-12.6-.3-1.4-2.5-.8-2.2.6z"/><path d="M848 704c-10.3 4.5-46.7 21.8-63.5 62-14.2 33.9-6.3 64.5-.5 87 13.2 51.2 44.7 84.5 62.5 100.5-.5 5.5-1.8 13.8-6 23-8.1 17.7-19.6 22.6-28.5 35.5-5.9 8.7-12.1 23-10.5 47 2.9.3 7.1.4 12-.5 7.4-1.3 18.9-5.4 36.5-25.5 11.6-13.3 19.1-25.9 25-37 7.6-14.3 17.1-34.8 25-61-29.2-22.6-47.8-45.7-59-62-15.1-22-20.7-37.2-22.5-42.5-4-11.8-11-32.8-6.5-58.5 1.6-8.9 2.5-14.1 6-20.5 9-16.4 23.5-19.7 28.5-36 1.5-4.8 1.6-9 1.5-11.5z" style="opacity:.23;fill:#6d6c6c"/><path class="st9" d="M817.9 745.1c-6.5 15-14.6 39.6-13.8 70.1 1.8 63.6 41.1 105.6 52 116.5 3.4 10.7 6.9 27.2 4.4 47-6 46.4-41 73.2-48.9 78.9 6.9-2.2 18-6.5 29.4-15 22-16.3 31.9-38.1 43.8-65.1 4.3-9.6 10-23.9 15-42-29.7-23-48.2-46.9-58.9-63.3C829.6 855 819 838.5 814 814c-5.9-30-.3-55.2 3.9-68.9z"/></g><g id="leg_l"><path class="st7" d="M990.9 644.4c8.3 18 5 38.9 2.4 55-3.6 22.6-11.7 39.9-17.7 50.4-2.6 12.8-5.1 34.4 1.4 59.2 7.8 30 24.6 48.7 40.2 66 13.3 14.8 36.3 36.8 71.5 55.1-2 7.4-5.2 18.6-9.5 32.2-18.3 56.8-29.9 67.9-34.1 71.6-11.5 10.1-32.5 21.7-41.6 15-7.4-5.4-9.3-24.5 16.5-86.1-10.8-3.9-25.9-10-42.9-19.1-17.6-9.3-66.1-35.2-96.7-77.6-46.3-64.3-34.6-143.5-30.6-165.4-7.1-3.3-19.9-10.5-24.4-23.9-8.2-24.2 16.1-52.1 35.8-64.1 42.5-26.1 111.7-7.4 129.7 31.7z"/><path class="st5" d="M827.6 645c-6 9.1-6.6 20.7-2.3 30.7 2.1 4.9 5.3 9.3 9.2 13 1.9 1.8 3.9 3.5 6.1 5 .9.6 8.3 4.4 6.9 5.8.6-.1 1.2-.2 1.8-.2-12.9-9.5-22.9-23.7-22.6-40.2 0-1.6-2.7-2.1-2.9-.4-2.5 14.2 3.3 28.4 15 36.8l1.2-2.7c-14-4.3-17.1-19.8-13.5-32.4-1-.1-2-.3-2.9-.4 1 13.2 2.6 27.2 13.1 36.5 1.4 1.3 3.5-.8 2.1-2.1-11.6-11-18.5-28.2-8.8-42.8-.9-.1-1.8-.2-2.7-.4.4 2.3.5 4.5.1 6.8h2.9c-1.9-6.4-1.1-12.6 2.4-18.3-.9-.1-1.8-.2-2.7-.4 1.9 10.7-2.1 21.4-.6 32.1.5 3.6 1.5 7.3 3.5 10.5 1 1.6 2.2 3 3.6 4.2 1.5 1.3 4.9 2.5 5.2 4.7l1.8-1.8c-2.1-.3-4.3-.6-6.4-.9-1-.1-2.3.7-1.8 1.8 1.7 4.3 4.4 7.3 8.6 9.3v-2.6h-3.1c-.4.9-.7 1.7-1.1 2.6 1.2.6 2.4 1.2 3.5 1.8.4-.9.7-1.7 1.1-2.6-2.3.1-4.8-5-5.7-6.7-1.3-2.4-2.3-5-3.1-7.7-1.5-5.4-1.8-10.9-1-16.4-.9.1-1.8.2-2.7.4 3.5 6.3 4.6 13.2 3.1 20.3.7-.3 1.5-.6 2.2-.9-.5-.9-1-1.8-1.6-2.7-.8.4-1.5.9-2.3 1.3 1.7 1 3.3 2 5 2.9 1.7 1 3.2-1.6 1.5-2.6-1.7-1-3.3-2-5-2.9-.9-.5-2.4.1-2.3 1.3.3 2.4 1.1 3.9 3.1 5.3.8.6 2 0 2.2-.9 1.6-7.9.5-15.6-3.4-22.6-.6-1-2.5-1-2.7.4-1.1 7.4-.5 14.8 2.2 21.8 1.6 4.1 4.9 13 10.4 12.9 1.4 0 1.9-1.6 1.1-2.6-1.6-1.9-3.2-2.6-5.7-2.7-1.3-.1-2 1.7-1.1 2.6 2 1.9 4.5 2.2 6.8.5.8-.6 1.1-2.1 0-2.6-3.5-1.6-5.8-3.9-7.2-7.5l-1.8 1.8c2.1.3 4.3.6 6.4.9 1.2.2 2-.6 1.8-1.8-.5-3.5-4.2-4.3-6.5-6.4-3.8-3.5-5.4-8.9-5.9-13.9-.9-10.5 2.6-20.7.7-31.1-.2-1.3-2.1-1.4-2.7-.4-3.9 6.3-4.9 13.5-2.7 20.6.4 1.3 2.7 1.6 2.9 0 .4-2.9.4-5.5-.1-8.4-.2-1.4-2.1-1.3-2.7-.4-10.4 15.7-3.3 34.5 9.3 46.4l2.1-2.1c-9.9-8.7-11.2-21.9-12.2-34.3-.1-1.6-2.5-2.1-2.9-.4-4.1 14.3.1 31.3 15.6 36.1 1.7.5 2.5-1.8 1.2-2.7-10.5-7.6-15.8-20.6-13.6-33.4-1-.1-2-.3-2.9-.4-.3 17.6 10.4 32.7 24.1 42.8.5.4 1.4.2 1.8-.2 2.2-2.2 1.4-4.7-.9-6.5-4.8-3.7-10-6-14.2-10.6-9.4-10.4-12.3-25.8-4.3-37.9.7-2.1-1.9-3.6-3-2z"/><path class="st4" d="M963.7 667c2.2 11.5-4 22.8-8.5 33-3.8 8.7-7.7 17.4-11.1 26.3-6.4 17-10.3 34.6-9.8 52.9.9 33.2 14.8 65.9 38.7 89.2 15.7 15.2 34.6 26.4 53.5 37.1 1.3.7 2.4-1.2 1.1-1.9-16.7-9.5-33.4-19.2-47.9-32-13.4-11.8-24.1-26.1-31.6-42.4-7.2-15.9-11.2-33.3-11.6-50.7-.4-18.4 3.7-36.1 10.3-53.2 4.1-10.7 9-21.1 13.4-31.6 3.7-8.7 7.3-17.6 5.5-27.2-.1-1.6-2.3-.9-2 .5zM1005.3 955.8c2.7-11.4 7.9-22.1 13.6-32.3 5.3-9.4 11.6-18.3 21.4-23.3 1.3-.7.2-2.6-1.1-1.9-9.7 4.9-16.1 13.5-21.4 22.7-6.2 10.7-11.7 22.1-14.6 34.2-.4 1.4 1.7 2 2.1.6zM1015.1 959.9c4.6-21.3 16.2-40.3 33.2-54 1.1-.9-.5-2.5-1.6-1.6a96.37 96.37 0 0 0-33.7 55c-.3 1.4 1.8 2 2.1.6zM1071.7 922.2c-4.7 6.1-7 13.7-6.3 21.4.3 3.4 1.3 6.7 2.7 9.8 1.8 4 1.4 6.4.3 10.4-.8 2.8-1.6 5.5-2.4 8.2-6.6 21.5-14.3 42.7-23 63.4-.6 1.3 1.4 2.5 1.9 1.1 8.3-19.7 15.8-39.9 22.1-60.3 1.6-5.1 3.4-10.3 4.6-15.6.8-3.6-.3-5.7-1.8-9-4.1-9.5-2.4-20.3 3.9-28.4.8-1-1.2-2.2-2-1zM1020.9 964.1c4.6-4.6 10.3-7.6 16.7-8.8 1.4-.3.8-2.4-.6-2.2-6.8 1.2-12.8 4.5-17.7 9.4-1 1 .6 2.6 1.6 1.6zM1056.6 911.5c-1.6 3.4-3.3 6.7-5.2 9.9-1.8 3.1-4.8 6.1-6.2 9.3-2.1 4.6 4.7 4.5 7.9 5.3.4.1.8 0 1.1-.3 5-5.8 9.8-11.7 12.1-19 .4-1.4-1.7-2-2.2-.6-1.3 4.2-3.4 7.9-6 11.4-.9 1.2-3.1 4.8-4.5 5.5-1.2.6-4.9.2-6-.7-1 0-1.1-.2-.4-.5.6-.9 1.3-1.7 1.9-2.6 1.2-1.7 2.4-3.5 3.5-5.4 2.2-3.6 4.2-7.4 6-11.3.6-1.2-1.4-2.4-2-1zM1004.2 1011.5c6.6-2.5 17-4.8 22.4 1.2 1 1.1 2.6-.5 1.6-1.6-6-6.6-17.2-4.5-24.6-1.7-1.4.4-.8 2.6.6 2.1z"/><path class="st4" d="M1000.9 1024c3.8-1.5 7.6-2.6 11.7-2.9 3.1-.2 6.7.9 9.7.5 4.1-.6 5.3-4.7 6-8.5.3-1.4-1.9-2-2.2-.6-.2 1-.4 2-.8 3-1 2.7-2.5 3.4-5.4 3.6-2.1.1-4.3-.4-6.5-.3-4.6.2-8.9 1.3-13.1 3-1.3.6-.7 2.8.6 2.2zM956 847.2c4.4 2 10.8-3.9 14.1-6.3 5.4-3.9 9.9-8.6 13.4-14.3.7-1.2-1.2-2.4-1.9-1.1-2.8 4.8-6.5 8.8-10.8 12.2-2.2 1.7-10.6 9-13.5 7.6-1.4-.6-2.6 1.3-1.3 1.9zM977.6 870.5c8.3-2.8 15.1-10.4 19.7-17.6.8-1.2-1.2-2.3-1.9-1.1-4.3 6.6-10.6 14-18.4 16.6-1.4.4-.8 2.6.6 2.1zM860.9 827.8c-2.1-9.1 9.3-11.9 15.6-8.7 5.4 2.8 8.8 8 10.5 13.7 1.5 5 2 10.4 2.2 15.7.3 7.1-5.1 12.8-12.4 10-1.3-.5-1.9 1.6-.6 2.2 5.6 2.2 12.7-.5 14.7-6.4 1.5-4.3.3-9.9-.3-14.3s-1.5-8.8-3.5-12.8c-3.3-6.6-10.1-12.4-17.8-11.9-6.7.4-12.3 6.2-10.8 13.1.6 1.4 2.7.8 2.4-.6z"/><path class="st4" d="M863.6 834.5c-.6-5.4 3.1-10.3 8.9-9.7 4.7.5 7.8 4.6 9.4 8.7 1.1 3 1.9 6.4 1.8 9.6-.1 7.2-5.8 11.1-12.5 7.8-1.3-.6-2.4 1.3-1.1 1.9 5.2 2.6 11.2 2.6 14.3-3.1 3-5.4 1.3-13.3-1.1-18.6-2.4-5.2-7.4-9.7-13.5-8.6-5.8 1.1-9.1 6.3-8.5 11.9.2 1.6 2.5 1.6 2.3.1zM846.8 741.6c5.5-3.6 11.7-5.4 17.9-7.2 7.1-2 14.1-3.2 21.5-2.1 1.4.2 2-2 .6-2.2-7.2-1-14-.3-21 1.6-7 1.9-14.1 3.9-20.2 7.9-1.2.8-.1 2.8 1.2 2z"/><path class="st4" d="M846 750.6c3.6-2.4 7.5-4.3 11.7-5.7.6-.2.9-.8.8-1.4-.4-2.5-.5-4.9 0-7.4.2-1.4-1.9-2-2.2-.6-.5 2.9-.5 5.7 0 8.6.3-.5.5-.9.8-1.4-4.3 1.4-8.4 3.4-12.2 5.9-1.2.8-.1 2.8 1.1 2zM868 732.9c.2 2.3-.5 6.9 2.6 7.4 4.4.8 9.9-.5 14.3-1 .5-.1 1-.3 1.1-.8.3-2 .7-4.1 1-6.1.2-1.4-1.9-2-2.2-.6-.3 2-.7 4.1-1 6.1.4-.3.7-.6 1.1-.8-3 .4-5.9.7-8.9.8-.8.1-3 .5-3.8.2-2.2-.7-1.7-3.4-1.9-5.2-.2-1.5-2.4-1.5-2.3 0zM848.3 775.3c14.8-8.5 31.3-12.7 48.3-12.4 1.4 0 1.4-2.2 0-2.3-17.4-.3-34.3 4-49.4 12.7-1.3.8-.2 2.7 1.1 2z"/><path class="st4" d="M864.8 767.9c.8 3.4 1.4 6.8 1.7 10.3.1.8.7 1.2 1.4 1.1 9.9-2 19.8-3.6 29.8-4.9 1.4-.2 1.4-2.4 0-2.3-10.2 1.2-20.3 2.9-30.4 4.9.5.4.9.7 1.4 1.1-.3-3.7-.9-7.3-1.8-10.9-.3-1.3-2.5-.7-2.1.7z"/><path class="st4" d="M896 763.4c.7 2.8 1.1 5.7 1.1 8.6 0 1.4 2.2 1.5 2.3 0 0-3.1-.4-6.2-1.1-9.2-.5-1.4-2.6-.8-2.3.6z"/><path class="st4" d="M867.9 773.2c9.4-3.5 19.1-5.2 29.1-5.1 1.4 0 1.4-2.2 0-2.3-10.2-.1-20.1 1.6-29.7 5.1-1.4.7-.8 2.8.6 2.3zM929.4 914.3c13.6-7.3 25.2-17.5 34.3-30 .9-1.2-1.1-2.3-1.9-1.1-8.8 12.2-20.2 22.1-33.5 29.2-1.3.7-.2 2.6 1.1 1.9zM966.3 860.8c-4.6 9.2-10.5 17.5-17.7 24.8-1 1 .6 2.6 1.6 1.6 7.4-7.4 13.5-15.9 18.1-25.3.6-1.3-1.3-2.4-2-1.1z"/><path class="st4" d="M947 901.7c2.7 3.5 5.7 6.8 8.7 9.9 1 1 2.6-.6 1.6-1.6-3.1-3.1-6-6.5-8.7-9.9-.9-1.1-2.5.5-1.6 1.6z"/><path class="st4" d="M955.6 910.4c-3.2 5-7.5 9.1-12.7 11.9-1.3.7-.1 2.6 1.1 1.9 5.5-3.1 10.1-7.4 13.5-12.8.8-1.1-1.2-2.3-1.9-1zM943.9 868.4c3.1 2.8 6.2 5.6 9.2 8.4 1.1 1 2.7-.6 1.6-1.6-3.1-2.8-6.2-5.6-9.2-8.4-1.1-.9-2.7.6-1.6 1.6z"/><path class="st4" d="M944.1 867.4c2.7-2.7 5.3-5.6 7.8-8.5.9-1.1-.7-2.7-1.6-1.6-2.5 3-5.1 5.8-7.8 8.5-1 1 .6 2.6 1.6 1.6z"/><path class="st4" d="M951.9 856.4c-2.7-3-5.2-6.1-7.5-9.3-.1.5-.1.9-.2 1.4 2.6-2.8 5.2-5.7 7.8-8.5 1-1.1-.6-2.7-1.6-1.6-2.6 2.8-5.2 5.7-7.8 8.5-.3.3-.5 1-.2 1.4 2.5 3.4 5.1 6.6 7.9 9.7 1 1.1 2.6-.5 1.6-1.6zM954.4 876.4c5.1-4.8 9.1-10.5 11.9-16.9.6-1.3-1.4-2.5-1.9-1.1-2.7 6.2-6.6 11.7-11.5 16.4-1.1 1 .5 2.6 1.5 1.6zM944.1 837.8c-2.8 2.9-5.4 5.8-8 8.8-.9 1.1.7 2.7 1.6 1.6 2.6-3 5.2-6 8-8.8 1-1.1-.6-2.7-1.6-1.6zM939.9 852.5c1.3 2 2.7 4 4 6.1.8 1.2 2.7.1 1.9-1.1-1.3-2-2.7-4-4-6.1-.7-1.2-2.7-.1-1.9 1.1zM884.4 816c10.1 9.9 14 24.4 10.4 38.1-.4 1.4 1.8 2 2.2.6 3.8-14.4-.3-29.8-11-40.3-1.1-1-2.7.6-1.6 1.6zM924.7 709.9c1.9 20.7-8.8 39.4-12 59.4-3 18.3.3 37 8.8 53.4.7 1.3 2.6.1 1.9-1.1-9.4-18.1-11.9-38.7-7.2-58.4 4.2-17.6 12.4-34.6 10.7-53.2-.1-1.5-2.4-1.5-2.2-.1z"/><path class="st4" d="M914.6 762.9c6.8 3.1 14.2 3.3 21.2.4 1.3-.6.7-2.7-.6-2.2-6.4 2.7-13.1 2.7-19.4-.2-1.3-.5-2.5 1.4-1.2 2zM920 748c5.9 3.4 13 3.2 18.6-.6 1.2-.8.1-2.8-1.1-1.9-5 3.4-11.1 3.6-16.3.6-1.3-.8-2.4 1.2-1.2 1.9zM979.6 665.8c-3.8 18.7-8.9 37-15.3 54.9-.3.9.6 1.5 1.4 1.4 6.7-1 13.3-1.1 20-.1 1.4.2 2-2 .6-2.2-7.1-1-14.1-.9-21.2.1l1.4 1.4c6.4-17.9 11.5-36.3 15.3-54.9.3-1.4-1.9-2-2.2-.6z"/><path d="M873.4 624.2c-6.5 27.2-22.1 108.1 18.2 190.6 5.6 11.5 27.4 54.1 73.4 93 26.4 22.3 52.1 36.1 70.7 44.5-3.8 2.2-7.6 4.5-11.5 6.7-4.5 21.2-7.8 36.8-9.4 44.5-5.7 26.9-8.4 40.4-4 43.8 7 5.4 25.1-4.4 36.4-15.5 10-9.9 13.7-20.1 22.2-45.8 7.6-22.8 13.7-41.9 18.2-55.9-11-6.4-25.7-15.8-41.8-29-15.7-12.9-35.7-29.3-50.5-53.2-20.9-33.7-23.8-69.5-22.9-93.6 3.6-5.7 8.5-14.4 12.8-25.6 3.8-9.9 20.9-54.2 6.1-81.5-15.1-27.8-64.7-40.3-117.9-23z" style="opacity:.19;fill:#6d6c6c"/><path class="st11" d="M944.5 652.8c-7.6 21.1-17.5 57.6-12.8 102.7 5 48 24.1 81.2 36.7 102.7 26.2 44.7 59.1 74.1 83.5 92-.8 11.8-2.6 25.9-6.5 41.3-5.5 21.9-13.5 39.6-20.8 52.8 1.4.1 3.2.1 5.1-.2 6.8-1.4 10.7-6.4 12-8.2 4.2-3.9 10.1-10 15.7-18.4 7.8-11.7 11.1-22.3 17.4-43 7.2-23.6 11.9-39.3 13.8-45.6-15.2-7.7-36.6-20.3-58.7-40.3-10.5-9.5-24.3-22.1-35.8-40.3-21.5-34.4-23.5-71.5-22-95.4 8.9-12.6 25.4-40.2 23.8-76.1-.4-8.9-1.8-16.9-3.7-23.8-15.9-.2-31.8-.2-47.7-.2z"/></g><g id="hand_r"><path class="st7" d="M840.6 376.2c-15.4-6.1-48.8 46-53.9 53.9-10.5 16.4-24.2 41.3-34.7 75.1-27.4 6.8-54.8 13.7-82.1 20.5-26.8-16.7-35.8-19.1-37.9-16.7-1.5 1.8-.2 7.3 1.9 10.9 2.4 4.2 5.2 4.8 5.1 6.4-.2 3.8-15.1 4.1-27 7.7-24.1 7.2-40.7 28.6-38.5 32.1 3 4.6 44.8-15.8 44.9-15.4.1.3-20.7 5.2-28.2 21.2-2.9 6.1-4.4 14.9-.6 18 2.1 1.7 5.6 1.2 18-3.9 15.7-6.4 25.8-11.9 26.2-11.2.7 1.2-31.6 20.3-29.5 24.9 1.7 3.7 24.9-3.8 27.5-4.6 17.8-5.7 31.6-13.3 41.3-19.4 10.1 3.8 28.2 9 50.7 7.1 40.4-3.5 65.9-27.6 72.5-34 13.7-13.3 21.7-33.5 37.9-73.8 9.5-23.8 21.1-57.1 12.8-88.6-1.1-4.2-2.7-8.7-6.4-10.2z"/><path class="st4" d="M591.4 587.9c8.4-12 23.2-16.4 36-22.3 1.7-.8.2-3.4-1.5-2.6-13.3 6.2-28.2 10.8-37 23.4-1.2 1.6 1.4 3.1 2.5 1.5zM638.9 542.7c5.9 7.6 14.9 11.6 24.5 11.2 1.9-.1 1.9-3.1 0-3-8.9.4-16.9-3.3-22.3-10.3-1.3-1.5-3.4.6-2.2 2.1zM774 449.8c4 9.6 10.7 17.5 19.6 23 1.6 1 3.2-1.6 1.5-2.6-8.2-5-14.5-12.3-18.2-21.2-.7-1.8-3.6-1-2.9.8z"/><path class="st4" d="M786.5 431c4.7 6.2 10.4 11 17.4 14.5-.2-.6-.5-1.1-.7-1.7-2.2 9.2-5.4 17.9-9.6 26.4-.9 1.7 1.7 3.2 2.6 1.5 4.3-8.7 7.6-17.7 9.9-27.1.1-.6-.1-1.4-.7-1.7-6.5-3.2-12-7.6-16.4-13.4-1-1.5-3.6 0-2.5 1.5z"/><path class="st4" d="M781.8 440.3c4.5 6.1 9.9 11.3 16.3 15.4 1.6 1 3.1-1.5 1.5-2.6-5.9-3.8-11.1-8.6-15.2-14.3-1.1-1.5-3.7 0-2.6 1.5zM781.9 561c-2.1-15.1 10.3-27.3 25.2-25.6 1.9.2 1.9-2.8 0-3-17.1-1.9-30.5 12.6-28.1 29.4.2 1.9 3.1 1.1 2.9-.8zM693.4 520.4c-1.7 9.9-2 19.9-.9 29.9.2 1.9 3.2 1.9 3 0-1.1-9.8-.9-19.4.8-29.1.3-1.9-2.6-2.7-2.9-.8z"/><path class="st4" d="M704.7 517.3c-.2 3.5-.5 7.1-.7 10.6-.1.9-.1 1.8-.2 2.7-.9.7-1.8 1.2-2.9 1.5-1.6.7-3.2 1.2-4.8 1.8-1.8.7-1 3.6.8 2.9 2.8-1 8.4-1.8 9.7-4.8.7-1.7.4-4.2.6-6 .2-2.9.4-5.7.6-8.6.1-2-2.9-2-3.1-.1zM752 501.5l-.6 10.2c-.1 1.9 2.9 1.9 3 0l.6-10.2c.1-1.9-2.9-1.9-3 0zM752.3 517.8l.6 5.1c.1.8.6 1.5 1.5 1.5.7 0 1.6-.7 1.5-1.5l-.6-5.1c-.1-.8-.6-1.5-1.5-1.5-.7 0-1.6.7-1.5 1.5zM804.4 406.7c6.1 4.6 18.1 2.2 24.7-.2 8.1-2.9 14.9-8.2 19.8-15.2 1.1-1.6-1.5-3.1-2.6-1.5-4.5 6.3-10.7 11.1-18 13.8-5.8 2.1-16.9 4.6-22.4.5-1.6-1.1-3.1 1.5-1.5 2.6z"/><path class="st4" d="M814 396.4c12.8 1.8 25.2-3.8 32.2-14.7 1-1.6-1.6-3.1-2.6-1.5-6.2 9.6-17.4 15-28.8 13.4-1.9-.4-2.7 2.5-.8 2.8z"/><path class="st9" d="M849.6 402.6c-11.3 15.2-18.8 28.3-23.6 37.3-16.8 31.9-20.3 46.8-36.7 68.4-6.1 8.1-16.4 20-32.5 32.2-12.3 2.5-29.9 6.4-50.8 11.8-25.5 6.7-38.6 10.2-53.3 16.8-12.1 5.4-29.2 14.6-47.9 30.4 9.2-.8 20.9-2.7 34-7.1 14.7-4.9 26.2-11.3 34.4-16.8 7 2.7 17.5 5.9 30.5 7.1 33 2.8 57.7-10.2 65.8-14.6 7.5-4.1 21.2-11.7 33.1-26.9 3.6-4.5 6.9-9.7 15.4-28.7 13.5-30 21.1-47.1 26.5-72.4 1.9-8.7 4.1-21.6 5.1-37.5z"/><path d="M593.9 581.4c1.4-1.8 5.8-7.1 20.7-12.8 5.5-2.1 20.9-7.9 22.9-4.4.6 1.1.2 3.3-4.9 8.8-6.8 4.5-15.8 9.4-26.9 13.2-6 2.1-11.7 3.5-16.8 4.4.9-2.3 2.3-5.7 5-9.2z" style="opacity:.26;fill:#6d6c6c"/><path d="M847.6 433.5c-6.4 11.1-17.4 30.4-31.1 54.7-19.6 34.9-30.7 51.9-39.9 60.7-11.1 10.5-40 31.8-104.5 25.6 10.5 3.9 43.2 14.3 80.4 1.5 26.8-9.3 42.6-26 46.4-30.1 3.9-4.3 11.8-13.6 26.1-47.8 6.5-15.8 14.8-37.6 22.6-64.6z" style="opacity:.34;fill:#6d6c6c"/><path d="M610 598.7c11.8-3.9 26.3-9.3 42.5-16.6 11.7-5.3 19.2-9.3 19.6-8.6.5.8-11.2 9.4-24.9 15.6-14.4 6.4-27.6 8.7-37.2 9.6z" style="opacity:.47;fill:#6d6c6c"/></g><path d="M923.9 378.4c5.7-1.8 88.3-26.6 140.5 21.1 56.6 51.7 27.7 143.2 14.3 185.5-14.3 45.4-33 58.1-42.8 63-18.9 9.5-37.4 6.3-55.9 3.6-31.5-4.6-76.1-9.6-133.9-11.2 6.3-79.7 12.7-159.5 19-239.2l58.8-22.8z" style="fill:#161616;stroke:#161616;stroke-width:2;stroke-miterlimit:10" id="backbag"/><g id="tube"><path class="st7" d="M998.7 415c22.1.3 56.9 4.3 87.2 27 19.1 14.3 37.3 36.7 63.4 125.3 34.2 115.7 21.1 138 52.3 177.6 4.4 5.6 46.1 56.9 111 63.4 80.7 8.1 142.9-58.8 185.5-104.6 73.8-79.4 103.2-169.3 115.7-228.3 12.2 3.7 24.3 7.4 36.5 11.1-38.5 98.5-83.8 172.2-118.9 222-67.1 95.1-106.8 116.7-131.6 126.8-17.8 7.3-78.4 32-144.3 6.3-61.2-23.8-89.1-76.4-98.3-93.5-10.4-19.5-11.1-28.1-27-98.3-30.8-136.3-41.4-161.8-65-177.6-13.3-8.9-36.8-18.7-77.7-12.7 3.8-14.9 7.5-29.7 11.2-44.5z"/><path class="st4" d="M1066.2 470.6c1.2-10.5 7-19.7 15.8-25.4 1.6-1 .1-3.6-1.5-2.6-9.8 6.4-16 16.4-17.3 28-.2 2 2.8 1.9 3 0zM1096.4 509.2c4.9-9.4 13.1-16 23.3-18.9 1.9-.5 1.1-3.4-.8-2.9-10.9 3-19.9 10.2-25.1 20.2-.9 1.8 1.7 3.3 2.6 1.6zM1091 485.6c4.1-7.3 11.2-12.2 19.5-13.3 1.9-.2 1.9-3.2 0-3-9.4 1.2-17.4 6.5-22.1 14.8-.9 1.7 1.7 3.2 2.6 1.5zM1118 581.9c6.2-8.7 16.3-13.5 26.9-13.1 1.9.1 1.9-2.9 0-3-11.8-.5-22.7 5-29.5 14.6-1.2 1.6 1.4 3.1 2.6 1.5zM1114.1 549.8c5.1-8.3 14.8-11.1 23.9-12.4 1.9-.3 1.1-3.2-.8-2.9-10 1.4-20.1 4.8-25.7 13.8-1 1.6 1.6 3.1 2.6 1.5zM1103 532.7c4.9-8.2 13.5-13.2 23-13.5 1.9-.1 1.9-3.1 0-3-10.6.3-20.1 5.8-25.6 14.9-1 1.7 1.6 3.2 2.6 1.6zM1131.5 648.6c8.4-9.1 19.9-13.8 32.3-13.3 1.9.1 1.9-2.9 0-3-13.1-.5-25.5 4.6-34.4 14.2-1.4 1.4.8 3.5 2.1 2.1zM1127.4 630.4c7.6-9.3 19-14.1 31-13.1 1.9.2 1.9-2.8 0-3-12.7-1.1-25 4.1-33.1 14-1.3 1.4.8 3.6 2.1 2.1zM1123 610.4c5.6-6.6 13.2-10.7 21.9-11.6 1.9-.2 1.9-3.2 0-3-9.4 1-17.8 5.2-24 12.5-1.3 1.5.8 3.6 2.1 2.1zM1131.6 594c6.2-4.3 13.2-6.1 20.7-5.3 1.9.2 1.9-2.8 0-3-7.9-.8-15.6 1.1-22.2 5.7-1.6 1.2-.1 3.8 1.5 2.6zM1162.3 754.3c5.8-10.1 15-17.4 26.1-20.8 1.8-.6 1.1-3.5-.8-2.9-11.9 3.6-21.7 11.4-27.9 22.2-1 1.7 1.6 3.2 2.6 1.5zM1149.9 727.9c6.1-10.3 16.7-16.9 28.6-17.8 1.9-.1 1.9-3.1 0-3-13 1-24.5 8.1-31.2 19.3-1 1.6 1.6 3.1 2.6 1.5zM1142.1 694.3c7.1-9.6 18.6-14.7 30.5-13.7 1.9.2 1.9-2.8 0-3-13-1.1-25.4 4.7-33.1 15.2-1.2 1.6 1.4 3.1 2.6 1.5zM1151.1 701.7c7.6-5.4 16.2-8.1 25.5-8 1.9 0 1.9-3 0-3-9.8-.1-19 2.7-27 8.4-1.6 1.1-.1 3.7 1.5 2.6zM1265.3 798.2c2 6.3 3 12.9 2.7 19.5-.3 6.2-1.3 14-6.4 18.1-1.5 1.2.6 3.3 2.1 2.1 4.9-4.1 6.2-10.7 7-16.8 1-8.1 0-16.1-2.5-23.8-.6-1.7-3.5-.9-2.9.9zM1301.3 812.9c4.5 10.1 3.5 21.4-2.4 30.7-1 1.6 1.6 3.1 2.6 1.5 6.5-10.2 7.3-22.7 2.4-33.7-.8-1.8-3.4-.3-2.6 1.5zM1364.9 805.7c8.2 10.1 10.2 23.6 5.8 35.8-.7 1.8 2.2 2.6 2.9.8 4.9-13.2 2.3-27.8-6.5-38.7-1.3-1.5-3.4.6-2.2 2.1zM1504.9 699.1c6.7 2.7 11.1 8.8 12.2 15.8.3 1.9 3.2 1.1 2.9-.8-1.2-8.2-6.7-14.8-14.3-17.9-1.8-.7-2.6 2.2-.8 2.9zM1557.4 626.9c6.5 2.6 11.6 7.9 13.8 14.5.6 1.8 3.5 1 2.9-.8-2.6-7.7-8.3-13.6-15.9-16.6-1.8-.7-2.5 2.2-.8 2.9zM1432.4 768.1c7.5 9.9 10.6 22 8.6 34.2-.3 1.9 2.6 2.7 2.9.8 2.1-13-1-26-8.9-36.5-1.2-1.5-3.8 0-2.6 1.5zM1403.7 791c7.6 8.8 15.7 19.5 11.4 31.7-.6 1.8 2.3 2.6 2.9.8 4.6-13.3-3.9-25-12.2-34.7-1.3-1.3-3.4.8-2.1 2.2zM1190.8 793.7c2.8-10.9 10.1-19.7 20.2-24.6 1.7-.8.2-3.4-1.5-2.6-10.8 5.2-18.6 14.8-21.6 26.4-.5 1.9 2.4 2.7 2.9.8zM1208.2 810.9c5.8-12 14.8-21.8 26.4-28.5 1.7-1 .2-3.6-1.5-2.6-12 6.9-21.5 17.1-27.4 29.6-1 1.7 1.6 3.3 2.5 1.5zM1178.2 769.4c3.7-7 9.6-12.5 16.9-15.5 1.8-.7 1-3.6-.8-2.9-8.1 3.3-14.7 9.1-18.7 16.9-.8 1.6 1.7 3.2 2.6 1.5zM1469.8 735.5c10.3 3.4 17.9 11.9 20.3 22.5.4 1.9 3.3 1.1 2.9-.8-2.6-11.6-11.1-20.9-22.3-24.6-1.9-.6-2.7 2.3-.9 2.9zM1488.4 727.2c4.8 2.6 8.4 6.7 10.1 11.9.6 1.8 3.5 1 2.9-.8-2-5.9-6-10.7-11.5-13.7-1.7-.9-3.2 1.7-1.5 2.6zM1523.7 676.2c5.4 1.9 9.9 5.4 13.2 10.1 1.1 1.6 3.7.1 2.6-1.5-3.8-5.4-8.9-9.3-15-11.5-1.8-.6-2.6 2.3-.8 2.9zM1582.4 572.8c8.3 1.4 15.6 5.7 20.5 12.5 1.1 1.5 3.7 0 2.6-1.5-5.4-7.4-13.2-12.4-22.3-13.9-1.9-.3-2.7 2.6-.8 2.9zM1342.1 816.4c4.5 8.3 5 17.6 1.5 26.4-.7 1.8 2.2 2.6 2.9.8 3.7-9.5 3-19.8-1.8-28.7-.9-1.7-3.5-.2-2.6 1.5zM1465.5 758.3c5.6 5.4 8.5 12.4 8.3 20.2 0 1.9 3 1.9 3 0 .2-8.5-3-16.4-9.2-22.3-1.4-1.4-3.5.8-2.1 2.1z"/><path class="st11" d="M993.2 427.7c34.8 10.1 84.8 30.9 115.9 77.4 29.6 44.2 17.7 72.5 42.8 158.1 18.3 62.4 35.7 121.5 86.7 150.4 65 36.8 144.9 2.2 159.2-4.4 39.9-18.4 64.9-46.6 103.2-90 28.5-32.2 47.1-60.5 56-74.7 22.1-35.1 51.1-90.1 70.2-164.2 7.4 2 14.8 4.1 22.1 6.1-13.7 38.4-27.8 69.3-38.9 91.6-22.9 46-43.8 76.4-85.5 137.4-16.4 23.9-28.2 40.1-45.8 58.8-16.3 17.2-30.2 32-51.9 45.8-13.7 8.7-57.1 35.4-116.8 32.1-34.1-1.9-58.8-12.8-67.2-16.8-7.2-3.4-43-21-71.7-61.8-19.6-27.8-26.3-56.4-39.7-113.7-11.6-49.4-12.6-72.4-29-123.6-11.9-37.2-19.1-49.4-29.8-59.5-28.2-26.8-67.9-27-85.5-25.9 2.2-7.8 3.9-15.5 5.7-23.1z"/></g><g id="torso"><path class="st7" d="M833.1 379c-13 16.3-13.3 50.5-14.1 119-.2 22.3.3 40.7.8 53.1-13.8 20.3-27.6 40.6-41.5 61 14.4 11.1 32.6 22.7 54.7 32.3 66.4 29 128.7 22.8 159.9 17.3 13-36.5 22.2-67.4 28.5-89.9 29.4-105.6 23.2-133.9 13.8-153-9.6-19.7-23.2-31.2-29.4-36.3-50.8-42.4-140.7-43.8-172.7-3.5z"/><path class="st4" d="M840.8 571.2c2.6 2.6 5.6 4.5 8.9 5.9 1.8.7 2.6-2.2.8-2.9-2.9-1.2-5.4-3-7.6-5.1-1.4-1.3-3.5.8-2.1 2.1zM818.7 540.3c-.2 7.9 2.1 15.4 6.8 21.8.8 1.2 2.8 0 1.9-1.1-4.5-6.1-6.7-13.1-6.4-20.6 0-1.5-2.2-1.5-2.3-.1zM937.9 530.7c33.5 10.1 70.6 3.7 98.8-17 1.2-.8 0-2.8-1.1-1.9-27.7 20.4-64.1 26.7-97.1 16.7-1.4-.4-2 1.8-.6 2.2z"/><path class="st4" d="M936.7 529.1c-.6 2.8-3.1 8.7-1.5 11.5 1.7 2.8 7.8 3.2 10.6 3.7 9.8 2 19.9 2.7 29.9 2 20.4-1.3 40.1-8.1 57-19.6 1.2-.8.1-2.8-1.1-1.9-14.6 10-31.3 16.4-48.8 18.6-8.5 1.1-17.1 1.2-25.6.4-4.7-.5-9.4-1.3-14-2.3-3.4-.8-5.7-.4-5.8-5.1-.1-2.1.9-4.6 1.3-6.6.5-1.5-1.7-2.1-2-.7zM795.2 588.2c17.3 21.3 40.9 36.7 67.3 44.2 1.4.4 2-1.8.6-2.2-26.1-7.3-49.2-22.6-66.3-43.6-.9-1.1-2.5.5-1.6 1.6z"/><path class="st4" d="M788.3 598c3.5 3 6.9 6 10.4 9.1 2.6 2.3 5.6 5.9 8.7 7.5 4.7 2.5 7.8-1.8 10-5.7.7-1.3-1.2-2.4-1.9-1.1-1.8 3.2-3.3 6.1-7.8 4.1-2-.9-4.2-3.7-5.9-5.2-3.9-3.5-7.9-6.9-11.8-10.4-1.2-.8-2.8.8-1.7 1.7zM828.9 618.8c-3.9 9.6 8.3 14 15.5 16.9 6.3 2.6 17.1 6.3 20.1-2.7.4-1.4-1.7-2-2.2-.6-2.7 8.2-14.9 2.4-19.9 0-5-2.4-14.1-6-11.3-13 .5-1.3-1.7-1.9-2.2-.6zM802.9 576.8c12 12.9 26.2 23.3 42.2 30.7 1.3.6 2.5-1.3 1.1-1.9-15.8-7.3-29.9-17.5-41.8-30.3-.9-1.2-2.5.4-1.5 1.5zM844 444.2c-3.3.4-6.2-5.5-6.9-7.9-1.1-3.6-.9-7.5.5-11 2.8-7.1 10.3-11.4 17.7-8.7 6.9 2.5 10.4 10.6 8.1 17.4-1.3 3.9-4.3 6.9-8 8.6-3.3 1.5-8.9 3.2-12.3 1.3-1.3-.7-2.4 1.2-1.1 1.9 4 2.3 10.2.7 14.1-1.1 3.9-1.7 7-4.7 8.8-8.6 3.6-8.1-.1-18.1-8.4-21.5-9-3.7-18.4 1.8-21.4 10.5-1.5 4.3-1.4 9.1.4 13.3 1.3 3.1 4.6 8.4 8.5 7.9 1.4 0 1.5-2.2 0-2.1zM819.1 516.6c12.3 9.8 27.3 15 43.1 14.8 1.4 0 1.5-2.3 0-2.3-15.1.2-29.6-4.7-41.5-14.1-1.1-.9-2.7.7-1.6 1.6z"/><path class="st4" d="M820.1 507.9c-.2.8 9.5 4.4 11 5 1.6.7 4.2 1.2 5.6 2.3 2.7 2.2 1.2 6.9.6 9.8-.3 1.4 1.9 2 2.2.6.5-2.5 2.2-8.1 1-10.5-1-2.1-5.4-3-7.3-3.8-3.9-1.6-7.8-3.6-11.8-5-1.3-.4-2.8-.8-3.3.9-.6 1.5 1.6 2.1 2 .7zM875.2 586.5c27.1 9.7 55.7 14 84.4 12.8 1.4-.1 1.5-2.3 0-2.3-28.5 1.2-56.9-3.1-83.8-12.7-1.4-.5-2 1.7-.6 2.2zM819.6 463.6c4.4 2.4 9 3.7 13.9 4.7 2.8.6 6.7.5 7.7 3.8.9 2.9-.1 7.5-.2 10.5-.1 1.4 2.2 1.4 2.3 0 .2-3.9.7-8.4.1-12.3-.3-1.8-.5-2.1-2.2-2.8-3-1.2-6.8-1.3-10-2.1-3.7-.9-7.2-2-10.5-3.9-1.2-.6-2.4 1.3-1.1 2.1z"/><path class="st4" d="M822.8 478.9c3.2 3.5 11 3.7 15.4 4.6 6.7 1.4 13.5 2.5 20.3 3.5 1.4.2 2-2 .6-2.2-5.9-.8-11.7-1.8-17.5-2.9-2.8-.5-5.5-1.1-8.2-1.7-2.6-.6-7.1-.7-9-2.8-1-1.2-2.6.4-1.6 1.5zM914.3 562.4c-1.1 3.9-1.6 7.9-1.8 11.9 0 1.4 2.2 1.4 2.3 0 .1-3.8.7-7.6 1.7-11.3.3-1.4-1.8-2-2.2-.6z"/><path class="st4" d="M915.6 563.1c15 .7 31.5-.3 45.8 4.9 1.4.5 2-1.7.6-2.2-14.5-5.2-31.2-4.2-46.4-4.9-1.4-.2-1.4 2.1 0 2.2zM914.8 576.5c14.4 1.2 28.8 2.4 43.1 3.5 1.4.1 1.4-2.1 0-2.3-14.4-1.2-28.8-2.4-43.1-3.5-1.4-.1-1.4 2.2 0 2.3z"/><path class="st4" d="M960.2 567.2c-.3 3.5-1.1 6.8-2.5 10.1-.6 1.3 1.6 1.9 2.2.6 1.4-3.4 2.3-7 2.6-10.7.1-1.4-2.2-1.4-2.3 0zM923.6 563.6c-1.2 3.8-1.7 7.6-1.8 11.5 0 1.4 2.2 1.4 2.3 0 0-3.7.6-7.4 1.7-10.9.4-1.4-1.8-2-2.2-.6zM933.7 564c-1.4 3.9-2.3 7.8-2.6 11.9-.1 1.4 2.1 1.4 2.3 0 .3-3.9 1.2-7.6 2.5-11.3.5-1.3-1.7-1.9-2.2-.6zM945.4 564.5c-1.2 3.7-2.3 7.4-3.5 11.1-.4 1.4 1.7 2 2.2.6 1.2-3.7 2.3-7.4 3.5-11.1.4-1.4-1.7-2-2.2-.6zM964.3 656.1c-.4 2.8-1.1 5.6-2.1 8.3-.5 1.4 1.7 2 2.2.6 1-2.7 1.7-5.4 2.1-8.3.2-1.4-2-2-2.2-.6zM975.1 655.6c0 2.4-.5 4.7-1.6 6.8-.7 1.3 1.3 2.4 1.9 1.1 1.3-2.5 2-5.2 1.9-8 .1-1.4-2.2-1.4-2.2.1zM986.3 653.9c0 2-.5 3.9-1.6 5.6-.8 1.2 1.2 2.4 1.9 1.1 1.3-2 1.9-4.4 1.9-6.8.1-1.3-2.2-1.3-2.2.1zM900.5 439.5c-1.2 9.7-2.3 19.3-3.5 29-.2 1.9-1.2 5.1.1 6.8 1.7 2.2 6.2 1.9 8.6 2.3 18 2.8 36.2 4.7 54.3 5.9 1.4.1 1.4-2.2 0-2.3-16.1-1.1-32.1-2.7-48-5-1.9-.3-3.8-.6-5.8-.9-1.6-.2-4.5-.1-5.8-.9-3.2-2-1-8.7-.6-11.8.9-7.7 1.8-15.4 2.8-23.2.4-1.4-1.9-1.4-2.1.1z"/><path class="st4" d="M902.2 439.4c17.4-2.9 35-.9 52.3 1.9 3.9.6 10.3.2 11.5 4.8.8 3.1-.2 7.8-.5 11-.8 8.4-2.7 16.7-5.3 24.8-.4 1.4 1.7 2 2.2.6 3-9.1 4.9-18.5 5.6-28.1.2-3.2 1.3-7.9-.1-11-1.1-2.5-3.6-2.7-6-3.1-19.9-3.5-40.1-6.4-60.2-3-1.5.2-.9 2.4.5 2.1z"/><path class="st4" d="M901 451.4c21.8-3.8 44-1.8 64.8 5.8 1.4.5 1.9-1.7.6-2.2-21.2-7.7-43.8-9.7-66-5.8-1.4.3-.8 2.4.6 2.2z"/><path class="st4" d="M912.9 436.8c-.9 3.6-1.4 7.2-1.5 11 0 1.4 2.2 1.4 2.3 0 .1-3.5.5-7 1.4-10.4.3-1.4-1.9-2-2.2-.6zM928.7 438c-.7 3.1-1 6.2-.9 9.4 0 1.4 2.3 1.5 2.3 0-.1-3 .2-5.9.9-8.8.2-1.4-2-2-2.3-.6zM948.5 440c-.6 3.4-.9 6.8-1 10.2 0 1.4 2.2 1.4 2.3 0 0-3.2.3-6.4.9-9.6.2-1.4-2-2-2.2-.6zM931.9 460.9c-.8 5.9-1.6 11.8-2.2 17.8-.2 1.4 2.1 1.4 2.3 0 .6-5.7 1.3-11.5 2.1-17.2.2-1.4-2-2-2.2-.6z"/><path class="st4" d="M932.9 462c9.9 1.7 19.8 3.5 29.7 5.2 1.4.2 2-1.9.6-2.2-9.9-1.7-19.8-3.5-29.7-5.2-1.4-.3-2 1.9-.6 2.2zM936.9 468.5c-1.2 3.6-1.9 7.3-2.4 11-.2 1.4 2.1 1.4 2.3 0 .4-3.5 1.2-7 2.3-10.4.4-1.4-1.8-2-2.2-.6z"/><path class="st4" d="M938 470.7c7.5.3 15.1.6 22.6 1 1.4.1 1.4-2.2 0-2.3-7.5-.3-15.1-.6-22.6-1-1.5-.1-1.5 2.2 0 2.3zM900 460.6c3.6.6 7.1 1.2 10.7 1.8-.3-.5-.5-.9-.8-1.4-1.4 4.8-2.5 9.7-3.4 14.6-.2 1.4 1.9 2 2.2.6.9-4.9 2-9.8 3.4-14.6.2-.5-.2-1.3-.8-1.4-3.6-.6-7.1-1.2-10.7-1.8-1.4-.2-2.1 2-.6 2.2zM898.8 482.3c18.9 4.9 38.3 7.2 57.8 7 1.4 0 1.5-2.3 0-2.3-19.3.2-38.5-2.1-57.2-6.9-1.4-.3-2 1.9-.6 2.2zM864.4 510c-1.7 11.8-3.8 23.4-6.3 35.1-.3 1.4 1.9 2 2.2.6 2.5-11.6 4.6-23.3 6.3-35.1.2-1.4-2-2-2.2-.6zM906 616.3c-.5 7.7-3.8 15.4-6.3 22.7-2.5 7.4-5.1 14.8-7.9 22.1-.5 1.4 1.7 1.9 2.2.6 3-7.9 5.8-15.9 8.5-24 2.3-6.9 5.3-14.1 5.7-21.4.1-1.4-2.1-1.4-2.2 0z"/><path class="st4" d="M906.9 616.1c17.6 3.2 35.3 5.1 53.1 5.9l-1.1-1.1c.6 15.4-2.4 30.5-9 44.4-.6 1.3 1.3 2.4 1.9 1.1 6.8-14.3 9.9-29.8 9.3-45.6 0-.6-.5-1.1-1.1-1.1-17.6-.8-35.1-2.7-52.5-5.8-1.4-.2-2 2-.6 2.2z"/><path class="st4" d="M905.7 630c16.6 3.2 33.4 7.1 50.4 5.7 1.4-.1 1.4-2.4 0-2.3-16.8 1.5-33.4-2.4-49.8-5.6-1.4-.3-2 1.9-.6 2.2zM901.8 639.6c17 6.8 35.3 9.1 53.5 6.7 1.4-.2 1.4-2.4 0-2.3-18 2.4-36 .1-52.9-6.6-1.3-.5-1.9 1.6-.6 2.2z"/><path class="st4" d="M924.3 618.7c-1.3 4.2-2.5 8.5-3.5 12.8-.3 1.4 1.8 2 2.2.6 1-4.3 2.2-8.6 3.5-12.8.4-1.3-1.7-1.9-2.2-.6zM937.8 635.4l-1.8 9.3c-.3 1.4 1.9 2 2.2.6l1.8-9.3c.3-1.4-1.9-2-2.2-.6zM906.8 657.6c-.9-.1-1-1.4-.8-2 .2-.8.7-1.4 1.4-1.8 1.4-.9 3-.5 3.9.9 1.7 2.8-1.7 5.8-4.3 3.8-1.1-.9-2.7.7-1.6 1.6 2.2 1.7 5.4 1.6 7.3-.4 2-2.1 1.5-5.7-.7-7.5-2.3-1.9-5.7-1.2-7.4 1.2-1.7 2.4-1 6.2 2.2 6.6 1.4 0 1.4-2.2 0-2.4zM923.8 659.2c-1.5-.3-2.4-1.9-1.5-3.2.9-1.5 2.9-1.5 4.1-.3 1 1 1.4 2.7 0 3.5-1 .6-2.5.6-3.6.5-1.4 0-1.4 2.2 0 2.3 2.2.1 5.1-.2 6.3-2.4 1.3-2.5-.4-5.5-2.8-6.5s-5.3.1-6.3 2.5c-1 2.5.6 5.4 3.2 5.9 1.4.2 2-2 .6-2.3zM940.4 660c-3.2-.8-1.6-5.5 1.4-4.3 1.1.4 1.8 1.9 1.5 3-.4 1.4-2 2.2-3.4 1.9-1.4-.3-2 1.9-.6 2.2 2.6.6 5.4-.8 6.1-3.4.6-2.3-.8-5.1-3.1-5.8-2.3-.7-5.1.6-5.8 3-.8 2.5.9 5.1 3.3 5.7 1.4.2 2-1.9.6-2.3zM953.1 380c14.9 6.2 28.6 14.6 40.9 25 1.5 1.2 3.6-.9 2.1-2.1-12.7-10.8-26.8-19.4-42.2-25.8-1.8-.8-2.5 2.1-.8 2.9z"/><path class="st4" d="M954.2 378c1.8-1.8 3.9-4 6.3-5.1 3.6-1.6 6.1-.7 9.5 1 3.5 1.7 6.8 3.8 9.9 6.1 7.1 5.2 13.4 11.4 19.7 17.6 1.4 1.4 3.5-.8 2.1-2.1-8-7.9-16.1-15.9-25.8-21.8-3.2-1.9-8.6-5.6-12.6-5.2-4.1.4-8.4 4.7-11.1 7.4-1.5 1.3.6 3.5 2 2.1z"/><path class="st4" d="M996.5 404.9c1.6-2 3.2-4.1 4.9-6 1.2-1.5-.9-3.6-2.1-2.1l-5.4 6.6c-.5.6-.1 1.7.5 2.1.9.4 1.6 0 2.1-.6zM981.5 391.7c.2-3 2.5-5.3 5.3-5.9 1.9-.4 1.1-3.3-.8-2.9-4.2.9-7.2 4.6-7.5 8.8-.1 1.9 2.9 1.9 3 0zM988.4 396.6c.6-2 2.4-3.4 4.4-3.5 1.9-.1 1.9-3.1 0-3-3.4.2-6.3 2.4-7.3 5.7-.5 1.9 2.4 2.7 2.9.8z"/><path d="M837.2 383.7c13.5 3.8 28 7.3 43.3 10.5 18.6 3.9 36.2 6.8 52.7 8.9-15.9 89.9-21.4 123.6-23.3 136.5-.3 2.4-2.4 17-5.5 36.6-1 6.1-1.8 11-2.2 13.9-4.6.3-9.3.7-13.9 1-11.9 19.4-23.7 38.8-35.6 58.1 13.3 5.8 30.4 11.8 50.8 15.2 37.7 6.4 69.4 1.5 89.2-3.4 3.5-9.9 8.6-25 14.7-43.5 30-91.5 32.5-116.5 33.3-128.1 2.2-31.9 3.4-51.9-7.9-74.5-22.7-45.2-85.8-59.1-88.9-59.6-57-9.4-99.4 22.7-106.7 28.4z" style="opacity:.18;fill:#6d6c6c"/><path class="st17" d="M819.7 552c-.6.2 1.3 12.2 10.4 18.9 4 3 8.6 4.2 8.9 3.7.4-.6-5.7-3.4-11.5-10-6-6.8-7.4-12.8-7.8-12.6z"/><path d="M875.4 586.1c5.9 5 15 11.3 27.4 15.4 27.2 9 51.1.8 59.2-2.3-11.9.7-26.9.5-43.8-2-17.1-2.6-31.5-6.9-42.8-11.1z" style="opacity:.33;fill:#6d6c6c"/><path d="M1032.6 442.6c-8.2 46.3-18.1 84-26.1 111-15.9 54.1-25.2 66.7-34.1 75.6-30.3 30.1-74.5 31.1-94.6 30.1 14.9 3.2 33 6 53.5 6.7 23.8.8 44.5-1.2 61.2-4 12.3-32.4 20.8-60.5 26.8-82.3 17.3-63.8 17.5-92.8 16.4-111-.8-10.9-2.1-19.9-3.1-26.1z" style="opacity:.38;fill:#6d6c6c"/></g><g id="hand_l"><path class="st7" d="M1013 386.4c16.2 1 26.3 33.5 32.5 53.7 7 22.6 22.9 74-1.2 126.3-14.6 31.6-38 51.4-62.4 71.9-14.4 12.1-27.4 20.8-36.8 26.7.5 3.8 2 19.1-8.1 33.4-12.7 18.2-33.5 20-36.3 20.2 12.4-16.3 14.3-19.8 13.8-20.2-.7-.6-6.7 8.3-16.7 12.1-10.4 3.9-21.2.7-28.3-2.3 5.4-2.3 13-6.3 20-13.7 4.1-4.3 7.5-9.2 6.7-10-1.1-1.2-8.9 8.2-19.7 8.7-6.9.3-12.7-3.1-16.1-5.8 4-.6 13.5-2.6 21.9-10.4 5-4.6 7.8-9.6 9.4-12.9-2.6-.7-5.5-1.2-8.8-1.5-7.6-.6-13.9.5-18.4 1.7 9.9-12.7 19.8-18.5 27.1-21.3 12.7-5 21-2.9 33.1-10.4 7.1-4.4 11.4-9.7 16-16 24.1-33.4 41.4-57.2 43.2-88.9 1.9-32.1-14.3-33.3-13.3-65.7 1.2-37.5 24.2-76.7 42.4-75.6z"/><path class="st4" d="M871.6 709.1c12.2 2.8 27.8-5.4 35.3-14.9 1.2-1.5-.9-3.6-2.1-2.1-6.7 8.5-21.2 16.6-32.4 14.1-1.9-.4-2.7 2.5-.8 2.9zM984.3 508.2c9.9-11.7 25.1-14.4 39.6-15.4 1.4-.1 1.4-2.4 0-2.3-15.1 1.1-30.9 3.9-41.2 16.1-.9 1.1.7 2.7 1.6 1.6z"/><path class="st4" d="M1023 493.2c1.9 8.9 2.2 17.8 1.1 26.9-.2 1.4 2.1 1.4 2.3 0 1.1-9.2.7-18.4-1.2-27.5-.3-1.4-2.5-.8-2.2.6z"/><path class="st4" d="M984.9 533c10.9-9.1 25-10.7 38.6-12.1 1.4-.1 1.4-2.4 0-2.3-14.3 1.4-28.8 3.3-40.2 12.8-1.1.9.5 2.5 1.6 1.6zM985.3 518c10.6-10.1 24.5-15.5 39.1-15.3 1.4 0 1.4-2.2 0-2.3-15.2-.3-29.7 5.4-40.7 15.9-1 1.1.5 2.7 1.6 1.7z"/><path class="st4" d="M1004.3 495.5c.7 2.4 1.4 4.7 2.1 7.1.4 1.4 2.6.8 2.2-.6-.7-2.4-1.4-4.7-2.1-7.1-.5-1.4-2.6-.8-2.2.6zM993.2 511.4c.9 3.9 1.5 7.9 1.7 12 .1 1.4 2.3 1.4 2.3 0-.2-4.2-.8-8.4-1.8-12.6-.4-1.4-2.5-.8-2.2.6zM1024.8 396.3c-7 10.6-16.9 18.7-28.8 23.4-1.3.5-.8 2.7.6 2.2 12.4-4.9 22.7-13.3 30.1-24.4.8-1.3-1.1-2.4-1.9-1.2z"/><path class="st4" d="M1003.8 419.5c1.4 1.5 3.3 4.4 5.7 3.8 1.4-.3 2.5-1.6 3.6-2.4 1.5-1.2 3.1-2.3 4.6-3.5 1.1-.9 0-2.8-1.1-1.9-1.8 1.4-3.6 2.7-5.4 4.1-1 .8-1.7 1.7-3.2 1-.9-.4-1.9-1.9-2.6-2.6-1-1.1-2.6.5-1.6 1.5zM1038.8 428.6c.7 1.9 1.8 3.6 3.3 5 1.1 1 2.7-.6 1.6-1.6-1.2-1.1-2.2-2.5-2.7-4-.5-1.3-2.6-.7-2.2.6zM1051.8 537.6c-18.9 8.2-27.8 29.5-20.6 48.8.5 1.3 2.7.8 2.2-.6-6.9-18.5 1.5-38.4 19.6-46.3 1.3-.5.2-2.5-1.2-1.9zM937.3 622.2c3.6 6.4 6.8 14.1 11.9 19.4 4.4 4.5 10.4 7 16.3 8.8 1.4.4 2-1.7.6-2.2-6.1-1.8-12.1-4.4-16.3-9.4-4.4-5.2-7.3-12-10.6-17.9-.6-1.1-2.6.1-1.9 1.3zM936.4 642.9c4.6 7.2 11.5 12.3 19.8 14.3 1.4.3 2-1.8.6-2.2-7.7-1.9-14.2-6.5-18.5-13.3-.8-1.2-2.7-.1-1.9 1.2zM900 641.7c6.3 5.2 7.6 17.4 8.3 25 .1 1.4 2.4 1.4 2.3 0-.7-8.3-2-20.9-8.9-26.6-1.2-1-2.8.6-1.7 1.6zM913.6 638.5c3.1 4.7 4.9 9.9 5.2 15.5.1 1.4 2.3 1.4 2.3 0-.4-6-2.2-11.7-5.6-16.7-.7-1.2-2.7 0-1.9 1.2z"/><path class="st4" d="M908.8 658.7c3.4-2.2 7.1-3.3 11.2-3.5 1.4-.1 1.5-2.3 0-2.3-4.4.2-8.6 1.4-12.3 3.8-1.3.8-.1 2.8 1.1 2zM964.4 607.9c4.9 10.6 13 19 23.4 24.2 1.3.6 2.4-1.3 1.1-1.9-10.1-5.1-17.9-13.1-22.6-23.4-.6-1.4-2.5-.2-1.9 1.1z"/><path class="st4" d="M967.7 607.1c6.9-9.7 14.8-18.6 23.7-26.6 6.5-5.8 13.2-.8 19 3.1 5.1 3.5 9.7 7.5 13.8 12 1 1.1 2.6-.5 1.6-1.6-4.7-5-9.9-9.5-15.7-13.3-3.8-2.5-10.6-7.9-15.4-5.9-2.4 1-5 4.1-6.9 5.8-2.8 2.6-5.5 5.3-8.1 8-5.1 5.4-9.7 11.2-14 17.2-.8 1.3 1.2 2.4 2 1.3z"/><path class="st4" d="M989.9 587.5c9.4 5.1 17.6 11.7 24.7 19.7 1 1.1 2.5-.5 1.6-1.6-7.2-8.1-15.6-14.8-25.1-20-1.3-.7-2.4 1.2-1.2 1.9zM982.3 609.9c4.1 5.2 8.7 10 13.8 14.3 1.1.9 2.7-.7 1.6-1.6-5.1-4.3-9.7-9-13.8-14.3-.9-1.2-2.5.4-1.6 1.6z"/><path class="st4" d="M984.6 609c1.2-1.7 2.6-4.3 4.4-5.5 2.9-1.9 4.2-.1 6.4 1.4 4 2.7 7.8 5.6 11.5 8.7 1.1.9 2.7-.7 1.6-1.6-2.7-2.3-5.5-4.5-8.4-6.6-2.4-1.7-5.5-4.8-8.3-5.5-4-1-7.3 5.1-9.2 7.8-.8 1.3 1.2 2.5 2 1.3z"/><path d="M986.3 404.5c9.6 10.2 30.2 35.1 36.9 72.8 6.2 35.3-3.2 62.7-8.6 78.7-20.1 58.8-65 90.1-81.3 100.3-1.4 5.1-3.4 12.7-5.7 22.1-3.2 13-3.4 14.8-5.1 18.4-6.9 14.7-20.2 19.7-19.5 21 .9 1.5 22.6-3.1 34.3-21 8.9-13.6 7.8-28.1 7.2-33.3 15.7-8.9 33.3-20.8 50.7-36.9 16-14.7 32.7-30.1 45.6-56.4 12.6-25.6 15.2-48.6 15.9-59.9 1.4-23.5-2.9-40.8-7.2-57.4-7.1-27.6-16.5-63.2-35.4-65.6-3.7-.4-13.6-.2-27.8 17.2z" style="opacity:.25;fill:#6d6c6c"/><path class="st17" d="M1047.9 551.5c-13.8 23.5-28.2 41-39.4 53.2-20.3 22-38.1 40.8-65.5 44.8-7.4 1.1-13.6.8-18 .4 3.3 1.1 10 4 13.8 10.7 5.3 9.4 1.1 20-1.9 27.6-5.2 13.2-14.3 21.6-20.3 26 4.5-1.8 11.5-5.4 17.6-12.3 13.8-15.6 11.9-35.3 11.5-39.1 22.7-12.8 39.5-26.3 50.9-36.8 14.6-13.3 30.1-27.7 42.1-51.7 4.6-9 7.5-17.1 9.2-22.8z"/></g><g id="head"><path class="st7" d="M816.2 278.6c-5.4 22.4 4.9 40.9 13.3 56.1 8.2 14.9 15 27.2 30.1 33.2 1.4.6 21.4 8.1 40.4-2.4 21.1-11.7 24.4-36.4 25.9-47.6 1.2-8.8 4.5-33.3-11.5-53.7-17.2-21.9-52.2-33.1-76-18.7-16.7 10.2-21.2 29.1-22.2 33.1z"/><path class="st2" d="M857.1 245.1c1.6 2.2 4.6 5.6 9.2 8.2 7.8 4.5 15.4 4.1 18.4 3.8.6 4.1 3.1 17.8 15 27.6 7.5 6.2 22.4 13.8 30.5 8.2 9.3-6.4 6-28-1.9-41.3-10.1-17.2-29.6-20.8-41-23.1-7-1.4-25.7-5.2-30.8 3.3-1.1 1.7-2.6 5.6.6 13.3z" id="Layer_8"/><path class="st2" d="M845.4 238.8c2.1.8 3.4 1.3 4.4 2.5 4.5 5.6-1.2 21.3-12.3 28.2-5.9 3.6-11.9 3.9-15.5 3.8 1 3.8 2.8 12.4-.3 22.5-1.9 6.2-5 10.6-7.3 13.3-1.8-2.4-4-6-5.7-10.8-4.1-11.8-1.5-22.2 0-27.8 1.9-7.2 7.3-27.8 23.1-32 7.5-2 13.6.3 13.6.3z" id="Layer_9"/><path class="st4" d="M808.8 312.2c-.6-6.7-3.9-46.2 23.4-62.6 24.4-14.7 53.4.9 57.6 3.1 22.8 12.6 34.5 37 35 59.1.1 5.3.6 28.9-15.7 42.8-8.3 7.1-17.4 8.7-29.5 10.9-17.9 3.2-33 1.7-42.8 0 .6 5.8 1.2 11.7 1.8 17.5 21 4.4 38.6 4.4 50.6 3.6 17-1.1 30-4.4 38.6-6.6 15.1-3.9 27.5-8.6 36.8-12.7 2-11.4 4.1-27.8 4.2-47.6.1-28 .2-46.5-9.2-66.6-3.8-8.1-17.7-37.9-51.1-49.1-37.8-12.7-70.4 8.3-76 12.1-7.7 5.2-26.4 19.6-35 45.8-1.3 3.9-7.7 24.6-1.2 50 10 39.3 43.5 61.3 45.1 60-5.6-4.7-29.7-25.5-32.6-59.7z"/><path class="st4" d="M852.4 294.3c3.2 11.3 5.7 22.8 7.6 34.4.3 1.9 3.2 1.1 2.9-.8-1.9-11.6-4.4-23.1-7.6-34.4-.5-1.8-3.4-1-2.9.8z"/><path class="st4" d="M860.8 329.7c5.8 1.2 11.6.3 16.8-2.7 1.7-1 .2-3.6-1.5-2.6-4.5 2.6-9.4 3.4-14.5 2.4-1.9-.4-2.7 2.5-.8 2.9zM839.5 317.1c-3.5-3.8-4.9-8.9-3.9-14-.8.2-1.7.4-2.5.7 1.9 2 3.1 4.3 3.9 6.9.3.9.6 1.9.9 2.9.2.6.3 1.3.5 1.9 0 .9.4 1.4 1.4 1.6-1-1.6-3.6-.1-2.6 1.5.6 1.1 1.8 1.6 3 1 1.6-.7 1.6-2.5 1.3-4-1-5-2.8-10.1-6.3-13.9-.7-.8-2.3-.4-2.5.7-1.2 6.2.4 12.2 4.7 16.9 1.3 1.4 3.4-.8 2.1-2.2z"/><path class="st4" d="M833.6 305.5c.9 4.2 2.3 8.3 4.2 12.1.8 1.7 3.4.2 2.6-1.5-1.8-3.6-3-7.4-3.9-11.4-.4-1.9-3.3-1.1-2.9.8zM881.9 298.5c-2.5-3.4-3-7.5-1.6-11.4-.7.3-1.5.6-2.2.9 2.3 1.3 2.6 4.2 3.2 6.5.3 1.3.6 2.6.8 3.9.6 3.2-1-1.9-1.1-2.6-.1-1.9-3.1-1.9-3 0 .1 2.3 1.1 5.1 3.3 6.2 1.7.8 3.6.1 3.9-1.8.4-2.7-1-6.5-1.8-9.1-.7-2.3-1.7-4.4-3.9-5.7-.9-.5-1.9 0-2.2.9-1.7 4.6-1 9.7 1.9 13.7 1.2 1.6 3.8.1 2.7-1.5z"/><path class="st4" d="M878.3 288.7c.6 4.1 1.6 8 3.2 11.8.7 1.8 3.6 1 2.9-.8-1.5-3.8-2.6-7.7-3.2-11.8-.2-1.9-3.1-1.1-2.9.8zM824.5 297.5c.7-5 5.3-8.4 10.3-7.6 1.9.3 2.7-2.6.8-2.9-7.1-1.1-13.2 3.4-14.1 10.5-.3 2 2.7 1.9 3 0zM868.4 278.7c5.4-4.9 13-4.8 18.3.1 1.4 1.3 3.5-.8 2.1-2.1-6.6-6.1-15.9-6.2-22.5-.1-1.4 1.3.7 3.4 2.1 2.1zM864.1 347.2c13.1.3 25.4-5.4 33.7-15.6 1.2-1.5-.9-3.6-2.1-2.1-7.7 9.6-19.2 15-31.5 14.7-2.1-.1-2.1 2.9-.1 3z"/><path class="st4" d="M892.6 329.5c2.3.5 4.3 2 5.1 4.2.7 1.8 3.6 1 2.9-.8-1.2-3.2-3.8-5.6-7.2-6.3-1.9-.4-2.7 2.5-.8 2.9z"/><path class="st11" d="M897.5 257.9c7.9 22.2 10.6 40.9 11.6 53.7 1.6 20.7-1.1 27.9-3.4 32.2-8.1 15.1-24.8 20.3-30.9 21.9 4.6.1 21.4.1 34.8-12 16.1-14.7 15-36.1 14.6-44.2-1.5-29.1-21.8-47.4-26.7-51.6z"/></g></svg>