<svg xmlns="http://www.w3.org/2000/svg" viewBox="0 0 500 500"><g id="freepik--background-simple--inject-2"><path d="M398.7,422.79a124.26,124.26,0,0,0,38.24-43.52c57.16-107.09,44.25-265-65.83-332.73C320.23,15.24,247-4.57,192,27.57c-44.6,26.08-71.94,75.17-94.56,119.83C83.23,175.49,71.52,205.72,54,232,31.28,266.08,6.27,311.6,31.52,351.2c34.41,53.94,99.4,78.57,158.33,94.79,63.94,17.59,135.84,20.08,194.9-14.23Q391.92,427.59,398.7,422.79Z" style="fill:#3562F7"></path><path d="M398.7,422.79a124.26,124.26,0,0,0,38.24-43.52c57.16-107.09,44.25-265-65.83-332.73C320.23,15.24,247-4.57,192,27.57c-44.6,26.08-71.94,75.17-94.56,119.83C83.23,175.49,71.52,205.72,54,232,31.28,266.08,6.27,311.6,31.52,351.2c34.41,53.94,99.4,78.57,158.33,94.79,63.94,17.59,135.84,20.08,194.9-14.23Q391.92,427.59,398.7,422.79Z" style="fill:#fff;opacity:0.7000000000000001"></path><path d="M313.11,244a6,6,0,0,0,6-2.82" style="fill:none;stroke:#263238;stroke-linecap:round;stroke-linejoin:round"></path></g><g id="freepik--Floor--inject-2"><line x1="466" y1="469" x2="482" y2="469" style="fill:none;stroke:#263238;stroke-linecap:round;stroke-linejoin:round"></line><line x1="36" y1="469" x2="456" y2="469" style="fill:none;stroke:#263238;stroke-linecap:round;stroke-linejoin:round"></line></g><g id="freepik--Screen--inject-2"><rect x="117.48" y="25.92" width="252.22" height="224.51" style="fill:#fff;stroke:#263238;stroke-linecap:round;stroke-linejoin:round"></rect><rect x="117.48" y="25.92" width="252.22" height="35.08" style="fill:#3562F7;stroke:#263238;stroke-linecap:round;stroke-linejoin:round"></rect><rect x="360.2" y="25.92" width="9.5" height="224.51" style="fill:#dbdbdb;stroke:#263238;stroke-linecap:round;stroke-linejoin:round"></rect><rect x="360.2" y="59.67" width="9.5" height="43.33" style="fill:#949494;stroke:#263238;stroke-linecap:round;stroke-linejoin:round"></rect><rect x="117.48" y="25.92" width="252.22" height="17.05" style="fill:#dbdbdb;stroke:#263238;stroke-linecap:round;stroke-linejoin:round"></rect><rect x="130.27" y="30.9" width="99.47" height="7.1" style="fill:#fff;stroke:#263238;stroke-linecap:round;stroke-linejoin:round"></rect><line x1="354.81" y1="31.23" x2="363.54" y2="31.23" style="fill:none;stroke:#263238;stroke-linecap:round;stroke-linejoin:round"></line><line x1="354.81" y1="34.92" x2="363.54" y2="34.92" style="fill:none;stroke:#263238;stroke-linecap:round;stroke-linejoin:round"></line><line x1="354.81" y1="38.61" x2="363.54" y2="38.61" style="fill:none;stroke:#263238;stroke-linecap:round;stroke-linejoin:round"></line><rect x="159.53" y="87" width="160" height="6" style="fill:#dbdbdb;stroke:#a8a8a8;stroke-linecap:round;stroke-linejoin:round"></rect><rect x="159.53" y="87" width="79.33" height="6" style="fill:#3562F7;stroke:#263238;stroke-linecap:round;stroke-linejoin:round"></rect><circle cx="150.87" cy="91" r="14.67" style="fill:#3562F7;stroke:#263238;stroke-linecap:round;stroke-linejoin:round"></circle><circle cx="150.87" cy="91" r="12.47" style="fill:#fff;stroke:#263238;stroke-linecap:round;stroke-linejoin:round"></circle><circle cx="239.53" cy="91" r="14.67" style="fill:#3562F7;stroke:#263238;stroke-linecap:round;stroke-linejoin:round"></circle><circle cx="239.53" cy="91" r="12.47" style="fill:#fff;stroke:#263238;stroke-linecap:round;stroke-linejoin:round"></circle><circle cx="328.2" cy="91" r="14.67" style="fill:#dbdbdb;stroke:#a8a8a8;stroke-linecap:round;stroke-linejoin:round"></circle><circle cx="328.2" cy="91" r="12.51" style="fill:#fff;stroke:#a8a8a8;stroke-linecap:round;stroke-linejoin:round"></circle><path d="M148.32,86.51a2,2,0,0,0,2.19-1.59h1.34V97.56h-2V87.92h-1.54Z" style="fill:#263238"></path><path d="M238.9,86.58c-.63,0-1,.34-1,1.25v1.35H236V88c0-2,1-3.18,3-3.18s3,1.16,3,3.18c0,4-3.95,5.46-3.95,7.54a1.23,1.23,0,0,0,0,.27h3.75v1.8H236V96c0-3.72,3.94-4.34,3.94-8C239.93,86.89,239.53,86.58,238.9,86.58Z" style="fill:#263238"></path><path d="M329.06,88c0-1.14-.4-1.45-1-1.45s-1,.34-1,1.25v.81h-1.88V88c0-2,1-3.18,3-3.18s3,1.16,3,3.18v.33a2.46,2.46,0,0,1-1.39,2.6A2.57,2.57,0,0,1,331,93.54v1c0,2-1,3.18-3,3.18s-3-1.16-3-3.18v-1H327v1.18c0,.9.39,1.24,1,1.24s1-.3,1-1.42v-1c0-1.17-.4-1.61-1.3-1.61h-.67v-1.8h.77c.74,0,1.2-.33,1.2-1.34Z" style="fill:#263238"></path><rect x="139.46" y="140.64" width="74.49" height="11.52" style="fill:#fff;stroke:#263238;stroke-linecap:round;stroke-linejoin:round"></rect><rect x="230.41" y="140.64" width="74.49" height="11.52" style="fill:#fff;stroke:#263238;stroke-linecap:round;stroke-linejoin:round"></rect><rect x="139.46" y="163.28" width="125.52" height="11.52" style="fill:#fff;stroke:#263238;stroke-linecap:round;stroke-linejoin:round"></rect><rect x="139.46" y="185.09" width="125.52" height="11.52" style="fill:#fff;stroke:#263238;stroke-linecap:round;stroke-linejoin:round"></rect><path d="M142.54,120.22c1.29,0,1.94.76,1.94,2.11v.26h-1.24v-.35c0-.6-.24-.83-.66-.83s-.66.23-.66.83c0,1.73,2.58,2.05,2.58,4.45,0,1.34-.67,2.11-2,2.11s-2-.77-2-2.11v-.51h1.25v.6c0,.6.26.81.68.81s.69-.21.69-.81c0-1.73-2.58-2.06-2.58-4.45C140.6,121,141.26,120.22,142.54,120.22Z" style="fill:#263238"></path><path d="M144.87,120.31H149v1.2h-1.38v7.2h-1.32v-7.2h-1.38Z" style="fill:#263238"></path><path d="M150.85,123.85h1.81v1.2h-1.81v2.46h2.27v1.2h-3.59v-8.4h3.59v1.2h-2.27Z" style="fill:#263238"></path><path d="M157.85,122.39v1.09c0,1.34-.65,2.07-2,2.07h-.63v3.16h-1.32v-8.4h1.95C157.2,120.31,157.85,121,157.85,122.39Zm-2.59-.88v2.84h.63c.42,0,.64-.19.64-.79V122.3c0-.6-.22-.79-.64-.79Z" style="fill:#263238"></path><path d="M162.87,122.37c0-.75-.27-1-.68-1s-.69.23-.69.83v.54h-1.25v-.45a1.84,1.84,0,0,1,2-2.11c1.3,0,2,.76,2,2.11v.21a1.63,1.63,0,0,1-.93,1.73,1.71,1.71,0,0,1,.93,1.76v.66c0,1.34-.67,2.11-2,2.11a1.84,1.84,0,0,1-2-2.11V126h1.25v.78c0,.6.27.82.69.82s.68-.2.68-.94V126c0-.78-.27-1.07-.86-1.07h-.45v-1.2h.52c.49,0,.79-.22.79-.89Z" style="fill:#263238"></path><line x1="226.53" y1="125" x2="236.53" y2="125" style="fill:none;stroke:#263238;stroke-miterlimit:10"></line><line x1="189.53" y1="125" x2="222.03" y2="125" style="fill:none;stroke:#263238;stroke-miterlimit:10"></line><line x1="175.03" y1="125" x2="185.03" y2="125" style="fill:none;stroke:#263238;stroke-miterlimit:10"></line><line x1="138.87" y1="217.67" x2="329.53" y2="217.67" style="fill:none;stroke:#263238;stroke-linecap:round;stroke-linejoin:round"></line></g><g id="freepik--Character--inject-2"><path d="M243.41,356.43l10.14,87.86,10.88-.75,2.63-67.21,6.76-.75,42.43,2.63a61.7,61.7,0,0,1,6.76-1.13c1.5,0,3.38-4.13-5.63-7.88S246,353.43,244.54,353.43,243.41,356.43,243.41,356.43Z" style="fill:#263238;stroke:#263238;stroke-linecap:round;stroke-linejoin:round"></path><path d="M302.36,344s-39-12.91-77-4.5c-3.11.69-9.77,80-9.77,80l10.14,3,15.77-62.71s66.08,19.15,79.6,17.27S302.36,344,302.36,344Z" style="fill:#263238;stroke:#263238;stroke-linecap:round;stroke-linejoin:round"></path><path d="M313.25,211.51s-3,7.88-3,11.63A19.26,19.26,0,0,0,312,230.5s-5.89,6.39-4.8,8.81c.67,1.51,3.67,2.07,3.67,2.07s2.63,13.88,4.88,14.63,11.64-1.13,11.64-1.13l-1.6,19,18.63-15.82-1.5-12s4.5-6.39,9.76-13.89,2.25-19.53-.75-25.16-25.91-17.27-41.3,1.88Z" style="fill:#9c9c9c;stroke:#263238;stroke-linecap:round;stroke-linejoin:round"></path><path d="M374,217.83c-.48-1.69,4.82-2.17,2.89-6.27s-7.71-3.85-7.46-6.74,2.16-2.65-1.21-5.79-6-1.44-7-4.57-1.68-6.27-1.68-6.27l-2.17-1.68c-1.43-1.11-2.75,0-3.49.83-2,.65-3.84,3.25-5.7,3-2.76-.34-3.45-7.58-9-7.24s-3.44,9.31-5.51,8.62-6.21-3.45-11.72-2.07,0,6.55-2.07,6.21-14.13-2.76-15.17.34,6.55,7.24,6.55,7.24-9.31-2.76-6.55,2.41a11.31,11.31,0,0,0,8.48,5.63s-3.7,1.37-2.2,3.06c1.3,1.46,5.55,1.8,6.66,1.86l.2.21c-.36.9-1.55,4.65,2.89,5.81,1.2.31,2.18.51,3,.64l.67.74a21.56,21.56,0,0,0-1.05,3.08c-.69,3.1,4.82,4.83,6.89,4.83s3.79,6.89,2.07,9a2.17,2.17,0,0,0-.48,1.62c-.32.35-.59.63-.73.82-1,1.2-1.93,5.3-.73,6s6,0,6,0,.72,5.78,2.89,6.27,3.85-1.69,4.58-3.38,2.65,2.41,5.54,1.93,4.09-2.65,5.06-4.34,1.92,1.45,6.5.48,2.65-7.71,2.65-7.71,4.34,2.41,6.75.49,3.13-6.27,3.37-9.16,4.1.72,4.1-4.58S374.5,219.51,374,217.83Z" style="fill:#263238"></path><polygon points="327.38 254.88 332.61 253.52 326.99 263.51 327.38 254.88" style="fill:#263238;stroke:#263238;stroke-linecap:round;stroke-linejoin:round"></polygon><path d="M316.56,230.55c0,1.28-.45,2.32-1,2.32s-1-1-1-2.32.45-2.31,1-2.31S316.56,229.28,316.56,230.55Z" style="fill:#263238"></path><path d="M314.25,224.77s2-.86,4.33,1.16" style="fill:none;stroke:#263238;stroke-linecap:round;stroke-linejoin:round"></path><path d="M314.11,307.06l-40.41,3.27-13-1.21s-17.89,6.08-14.4,7.25a14,14,0,0,0,7.55-.08,29.81,29.81,0,0,0,10.56,2.1,35.63,35.63,0,0,0,8.71-1.17L318.2,324Z" style="fill:#263238;stroke:#263238;stroke-linecap:round;stroke-linejoin:round"></path><path d="M343.66,255.81s-23.28,22.53-27,28.16-5.25,10.51-5.25,15.39,3.38,15.77,3.38,15.77l-4.51,16.15-13.14,12,20.65,33s9.39,1.88,15.77-1.87S344,354.56,344,346.67s-1.5-24.78-1.5-24.78,8.64-27,11.27-37.17,3-19.15.37-24S347.41,253.18,343.66,255.81Z" style="fill:#fff;stroke:#263238;stroke-linecap:round;stroke-linejoin:round"></path><path d="M316.62,284a38.58,38.58,0,0,0-2.07,3.47c9.87,1.37,23.38,3.48,36.69,6.31.52-1.76,1-3.43,1.44-5-12.56-2.68-25.29-4.72-35.09-6.12C317.2,283.17,316.87,283.6,316.62,284Z" style="fill:#3562F7;stroke:#263238;stroke-linecap:round;stroke-linejoin:round"></path><path d="M354.11,283.45c.42-1.72.77-3.41,1.05-5.05l-27.19-7c-1.42,1.45-2.8,2.89-4.11,4.26Z" style="fill:#3562F7;stroke:#263238;stroke-linecap:round;stroke-linejoin:round"></path><path d="M343.18,319.86l1.59-5.05c-9.86-.72-20.69-1.53-30.79-2.3.44,1.58.77,2.62.77,2.62l-.71,2.55C323.59,318.41,333.78,319.17,343.18,319.86Z" style="fill:#3562F7;stroke:#263238;stroke-linecap:round;stroke-linejoin:round"></path><path d="M355.8,273.43a39.59,39.59,0,0,0,.11-5.39L337.36,262l-4.1,4.08Z" style="fill:#3562F7;stroke:#263238;stroke-linecap:round;stroke-linejoin:round"></path><path d="M331.57,375.4c-8.28-6.61-18.87-15-28.73-22.93l8.22,13.16L325,376.75A21.27,21.27,0,0,0,331.57,375.4Z" style="fill:#3562F7;stroke:#263238;stroke-linecap:round;stroke-linejoin:round"></path><path d="M342.83,325.4c-10.65-.17-21.57-.46-30.69-.92l-1.42,5.09c9.6.51,21.23.82,32.51,1C343.08,328.62,342.94,326.84,342.83,325.4Z" style="fill:#3562F7;stroke:#263238;stroke-linecap:round;stroke-linejoin:round"></path><path d="M311.9,294.47a22.8,22.8,0,0,0-.53,4.89v.25c10.6.32,23.9,1.46,37.23,2.89.52-1.69,1-3.38,1.53-5C336.56,296,322.91,294.81,311.9,294.47Z" style="fill:#3562F7;stroke:#263238;stroke-linecap:round;stroke-linejoin:round"></path><path d="M311.06,346c-3.91-1.81-7.68-3.55-11.23-5.17l-2.73,2.49,1.69,2.7,10.1,4.65A306.63,306.63,0,0,0,341,362.72c.56-1.62,1.06-3.3,1.47-5C331.88,354.33,320.06,350.14,311.06,346Z" style="fill:#3562F7;stroke:#263238;stroke-linecap:round;stroke-linejoin:round"></path><path d="M344,346.67c0-1.18,0-2.57-.09-4.08a306.56,306.56,0,0,1-36.75-8.52l-4.44,4.05a318.55,318.55,0,0,0,41.25,9.7C344,347.42,344,347,344,346.67Z" style="fill:#3562F7;stroke:#263238;stroke-linecap:round;stroke-linejoin:round"></path><path d="M253.55,444.29l-12.77,14.27s-9.76,3-11.26,4.51,1.5,2.25,5.25,3.75,17.65-.75,22.16-1.13,8.63,0,10.13-3.75,0-7.89-.37-9.39-2.26-9-2.26-9Z" style="fill:#9c9c9c;stroke:#263238;stroke-linecap:round;stroke-linejoin:round"></path><path d="M240.14,458.76c-2.16.69-9.35,3-10.62,4.31-1.5,1.5,1.5,2.25,5.25,3.75s17.65-.75,22.16-1.13,8.63,0,10.13-3.75,0-7.89-.37-9.39c0-.17-.11-.42-.18-.73-6.56,4.11-17.71,8.62-20.1,8.62A21.33,21.33,0,0,1,240.14,458.76Z" style="fill:#3562F7;stroke:#263238;stroke-linecap:round;stroke-linejoin:round"></path><path d="M215.62,419.51S201,435.66,199.1,437.91s-7.5,3-7.13,5.63,6.38,1.88,9,1.5,19.15-4.5,21.4-5.25,5.26-1.88,5.64-5.26-2.26-12-2.26-12Z" style="fill:#9c9c9c;stroke:#263238;stroke-linecap:round;stroke-linejoin:round"></path><path d="M228,434.53c.23-2.11-.71-6.26-1.44-9.09-3.69,1.8-7.25,6.67-9.08,7.59-2.25,1.12-19.52,6.76-19.52,6.76l-.79-.45c-2.36,1.3-5.5,2.22-5.22,4.2.38,2.63,6.38,1.88,9,1.5s19.15-4.5,21.4-5.25S227.64,437.91,228,434.53Z" style="fill:#3562F7;stroke:#263238;stroke-linecap:round;stroke-linejoin:round"></path><path d="M351.76,259.54c-3.26-1.81-9.78,1.45-11.95,5.07l-2.89,10.86-10.5,35.12-52.72-.26s-14.92-3.29-17.09-3.24-13.24,7.18-13.22,8.26,2.92,1,2.92,1l5.06-.47,5.41-1.21s4.73,1.34,6.91,1.29a31.16,31.16,0,0,0,5.41-.84S326.05,328,329.67,328s7.61-1.09,9.06-3.62,16.65-40.19,17.37-48.52S355,261.35,351.76,259.54Z" style="fill:#9c9c9c;stroke:#263238;stroke-linecap:round;stroke-linejoin:round"></path><path d="M246.65,315.77s8.4-4.49,9.33-4.67" style="fill:none;stroke:#263238;stroke-linecap:round;stroke-linejoin:round"></path><path d="M254.68,308.67s-9.53,5.42-10.09,7.47" style="fill:none;stroke:#263238;stroke-linecap:round;stroke-linejoin:round"></path><path d="M368,265l-6-.34s-15.45,44.67-17.47,61.46-1.34,30.89-.33,35.59,6.38,13.77,6.38,13.77l6.71,1.68s-7-18.14-7.38-23.17.53-25,1-27.54C354.59,307,368,265,368,265Z" style="fill:#6e6e6e;stroke:#263238;stroke-linecap:round;stroke-linejoin:round"></path><path d="M314,436.28S280.71,453.07,280,456.76a31.37,31.37,0,0,0,0,8.39l1.18-1.17,3.19-7.56,29.88-14.1Z" style="fill:#6e6e6e;stroke:#263238;stroke-linecap:round;stroke-linejoin:round"></path><path d="M286.09,463.81a3.7,3.7,0,1,1-3.7-3.69A3.7,3.7,0,0,1,286.09,463.81Z" style="fill:#263238;stroke:#263238;stroke-linecap:round;stroke-linejoin:round"></path><path d="M323.69,436.28s33.25,16.79,33.92,20.48a31.37,31.37,0,0,1,0,8.39L356.43,464l-3.19-7.56-29.88-14.1Z" style="fill:#6e6e6e;stroke:#263238;stroke-linecap:round;stroke-linejoin:round"></path><path d="M351.57,463.81a3.69,3.69,0,1,0,3.69-3.69A3.7,3.7,0,0,0,351.57,463.81Z" style="fill:#263238;stroke:#263238;stroke-linecap:round;stroke-linejoin:round"></path><rect x="315.64" y="381.54" width="5.37" height="58.43" style="fill:#263238;stroke:#263238;stroke-linecap:round;stroke-linejoin:round"></rect><rect x="310.6" y="387.25" width="15.78" height="10.75" style="fill:#263238;stroke:#263238;stroke-linecap:round;stroke-linejoin:round"></rect><path d="M356,376.43c-11.63-1.22-49.09-4.47-82.68,0a1.54,1.54,0,0,0-.83,2.64c3.57,3.37,13.48,9.49,39.13,11.17,26.5,1.74,40-6.4,45.31-10.78A1.74,1.74,0,0,0,356,376.43Z" style="fill:#6e6e6e;stroke:#263238;stroke-linecap:round;stroke-linejoin:round"></path><path d="M272.45,379.07l.07.06a1.5,1.5,0,0,0,1,.4h83.31l.06,0a1.73,1.73,0,0,0-.94-3.05c-11.64-1.22-49.09-4.47-82.67,0A1.53,1.53,0,0,0,272.45,379.07Z" style="fill:#263238;stroke:#263238;stroke-linecap:round;stroke-linejoin:round"></path><rect x="312.28" y="430.9" width="12.42" height="13.1" style="fill:#263238;stroke:#263238;stroke-linecap:round;stroke-linejoin:round"></rect><rect x="317.15" y="437.45" width="1.85" height="30.05" style="fill:#6e6e6e;stroke:#263238;stroke-linecap:round;stroke-linejoin:round"></rect><rect x="316.43" y="459.67" width="3.25" height="7.87" style="fill:#263238;stroke:#263238;stroke-linecap:round;stroke-linejoin:round"></rect><polygon points="331.08 379.53 323.69 379.53 318.99 334.53 324.03 334.53 331.08 379.53" style="fill:#6e6e6e;stroke:#263238;stroke-linecap:round;stroke-linejoin:round"></polygon><path d="M343.84,337.55h-50.7s3.69-6.71,6-7.38,40.63,0,40.63,0S343.84,331.51,343.84,337.55Z" style="fill:#263238;stroke:#263238;stroke-linecap:round;stroke-linejoin:round"></path><path d="M293.14,337.55h50.7a12.4,12.4,0,0,0-.12-1.68H294.13C293.53,336.85,293.14,337.55,293.14,337.55Z" style="fill:#6e6e6e;stroke:#263238;stroke-linecap:round;stroke-linejoin:round"></path></g><g id="freepik--Table--inject-2"><path d="M136,328.49l5.72,14.73c2,4.18,2.82,11.29,2.28,15.9l-13.42,106.4a2.05,2.05,0,0,0,2,2.3h0a2,2,0,0,0,2-1.67l25.64-136.24h-9.4l-1.65,7.84a1.33,1.33,0,0,1-2.56.13l-3.17-10Z" style="fill:#fff;stroke:#263238;stroke-linecap:round;stroke-linejoin:round"></path><polygon points="149.9 334.29 159.39 334.29 160.22 329.91 150.82 329.91 149.9 334.29" style="fill:#263238;stroke:#263238;stroke-linecap:round;stroke-linejoin:round"></polygon><polygon points="143.44 327.9 135.95 328.49 138.2 334.29 145.47 334.29 143.44 327.9" style="fill:#263238;stroke:#263238;stroke-linecap:round;stroke-linejoin:round"></polygon><path d="M280.37,328.49l-5.72,14.73c-2,4.18-2.83,11.29-2.29,15.9l13.43,106.4a2.05,2.05,0,0,1-2,2.3h0a2,2,0,0,1-2-1.67L256.1,329.91h9.4l1.65,7.84a1.32,1.32,0,0,0,2.55.13l3.18-10Z" style="fill:#fff;stroke:#263238;stroke-linecap:round;stroke-linejoin:round"></path><polygon points="265.5 329.91 256.1 329.91 256.93 334.29 266.42 334.29 265.5 329.91" style="fill:#263238;stroke:#263238;stroke-linecap:round;stroke-linejoin:round"></polygon><polygon points="270.85 334.29 278.12 334.29 280.37 328.49 272.88 327.9 270.85 334.29" style="fill:#263238;stroke:#263238;stroke-linecap:round;stroke-linejoin:round"></polygon><rect x="125.91" y="321.13" width="165.21" height="8.73" style="fill:#fff;stroke:#263238;stroke-linecap:round;stroke-linejoin:round"></rect><rect x="236.65" y="318.67" width="42.22" height="2.52" style="fill:#fff;stroke:#263238;stroke-linecap:round;stroke-linejoin:round"></rect><path d="M211.21,320.63H192.79a6.1,6.1,0,0,1-6.09-5.78,6,6,0,0,1,.23-2l11.54-33.19a1.34,1.34,0,0,1,2.54.88l-11.52,33.12a3.26,3.26,0,0,0-.11,1.07,3.42,3.42,0,0,0,3.41,3.23h18.42a1.35,1.35,0,0,1,0,2.69Z" style="fill:#263238;stroke:#263238;stroke-linecap:round;stroke-linejoin:round"></path><path d="M206.45,234.22l20.34,77.88-2.22,1.67S199,293.74,199,277s4.45-42.29,4.45-42.29Z" style="fill:#fff;stroke:#263238;stroke-linecap:round;stroke-linejoin:round"></path><polygon points="206.45 234.22 203.42 234.75 224.57 313.77 226.79 312.1 206.45 234.22" style="fill:#263238;stroke:#263238;stroke-linecap:round;stroke-linejoin:round"></polygon><path d="M150.14,305.4s-7.22-11.56-1.44-18.06S163.87,284,165.79,290s-2.16,16.13-2.16,16.13Z" style="fill:#3562F7;stroke:#263238;stroke-linecap:round;stroke-linejoin:round"></path><path d="M150.39,292.16c-1.21,0-5.78-1.69-7.23-3.86s-1.68-7,2.41-7,5.54,7.23,5.54,7.23l.24,2.64" style="fill:#3562F7;stroke:#263238;stroke-linecap:round;stroke-linejoin:round"></path><path d="M154.09,287.66c-1.08-.54-4.42-4.09-4.75-6.67s1.61-7,5.28-5.18,1.73,8.94,1.73,8.94l-1,2.48" style="fill:#3562F7;stroke:#263238;stroke-linecap:round;stroke-linejoin:round"></path><path d="M158.46,288.87c-.6-1-1.41-5.85-.25-8.18s5.23-4.93,7.26-1.38S162,287.7,162,287.7l-2.18,1.53" style="fill:#3562F7;stroke:#263238;stroke-linecap:round;stroke-linejoin:round"></path><path d="M159.9,297.5c-.2-1.19.7-6,2.6-7.76s6.61-2.82,7.29,1.22-6.21,6.65-6.21,6.65l-2.57.68" style="fill:#3562F7;stroke:#263238;stroke-linecap:round;stroke-linejoin:round"></path><line x1="143.69" y1="285.4" x2="144.5" y2="286.68" style="fill:none;stroke:#fff;stroke-linecap:round;stroke-linejoin:round"></line><line x1="146.01" y1="288.54" x2="147.29" y2="289.58" style="fill:none;stroke:#fff;stroke-linecap:round;stroke-linejoin:round"></line><line x1="144.62" y1="282.96" x2="145.9" y2="284.82" style="fill:none;stroke:#fff;stroke-linecap:round;stroke-linejoin:round"></line><line x1="147.64" y1="286.33" x2="149.04" y2="288.88" style="fill:none;stroke:#fff;stroke-linecap:round;stroke-linejoin:round"></line><line x1="150.89" y1="280.17" x2="151.36" y2="281.57" style="fill:none;stroke:#fff;stroke-linecap:round;stroke-linejoin:round"></line><line x1="152.52" y1="284.12" x2="153.33" y2="285.28" style="fill:none;stroke:#fff;stroke-linecap:round;stroke-linejoin:round"></line><line x1="152.17" y1="277.38" x2="153.22" y2="279.71" style="fill:none;stroke:#fff;stroke-linecap:round;stroke-linejoin:round"></line><line x1="148.11" y1="293.76" x2="148.45" y2="295.86" style="fill:none;stroke:#fff;stroke-linecap:round;stroke-linejoin:round"></line><line x1="149.15" y1="297.83" x2="149.62" y2="299.57" style="fill:none;stroke:#fff;stroke-linecap:round;stroke-linejoin:round"></line><line x1="150.31" y1="293.88" x2="150.78" y2="296.2" style="fill:none;stroke:#fff;stroke-linecap:round;stroke-linejoin:round"></line><line x1="151.82" y1="297.83" x2="152.17" y2="299.57" style="fill:none;stroke:#fff;stroke-linecap:round;stroke-linejoin:round"></line><line x1="152.64" y1="290.86" x2="153.33" y2="294.11" style="fill:none;stroke:#fff;stroke-linecap:round;stroke-linejoin:round"></line><line x1="154.26" y1="297.25" x2="154.38" y2="298.76" style="fill:none;stroke:#fff;stroke-linecap:round;stroke-linejoin:round"></line><line x1="155.54" y1="289.81" x2="156.12" y2="292.83" style="fill:none;stroke:#fff;stroke-linecap:round;stroke-linejoin:round"></line><line x1="156.12" y1="295.97" x2="156.35" y2="299.11" style="fill:none;stroke:#fff;stroke-linecap:round;stroke-linejoin:round"></line><line x1="158.91" y1="290.98" x2="158.91" y2="293.53" style="fill:none;stroke:#fff;stroke-linecap:round;stroke-linejoin:round"></line><line x1="158.56" y1="296.78" x2="158.68" y2="298.76" style="fill:none;stroke:#fff;stroke-linecap:round;stroke-linejoin:round"></line><line x1="161.82" y1="278.89" x2="161.23" y2="280.29" style="fill:none;stroke:#fff;stroke-linecap:round;stroke-linejoin:round"></line><line x1="161" y1="281.91" x2="160.42" y2="283.89" style="fill:none;stroke:#fff;stroke-linecap:round;stroke-linejoin:round"></line><line x1="164.37" y1="281.57" x2="163.44" y2="283.42" style="fill:none;stroke:#fff;stroke-linecap:round;stroke-linejoin:round"></line><line x1="161.47" y1="285.52" x2="160.42" y2="286.68" style="fill:none;stroke:#fff;stroke-linecap:round;stroke-linejoin:round"></line><line x1="159.26" y1="281.45" x2="158.91" y2="282.96" style="fill:none;stroke:#fff;stroke-linecap:round;stroke-linejoin:round"></line><line x1="164.37" y1="289.81" x2="163.09" y2="291.91" style="fill:none;stroke:#fff;stroke-linecap:round;stroke-linejoin:round"></line><line x1="162.28" y1="293.18" x2="161.58" y2="295.04" style="fill:none;stroke:#fff;stroke-linecap:round;stroke-linejoin:round"></line><line x1="163.33" y1="295.97" x2="165.42" y2="294.81" style="fill:none;stroke:#fff;stroke-linecap:round;stroke-linejoin:round"></line><line x1="166.69" y1="289.81" x2="165.65" y2="291.56" style="fill:none;stroke:#fff;stroke-linecap:round;stroke-linejoin:round"></line><line x1="167.74" y1="291.79" x2="166.35" y2="292.83" style="fill:none;stroke:#fff;stroke-linecap:round;stroke-linejoin:round"></line><rect x="146.49" y="301.37" width="19.75" height="19.75" style="fill:#263238;stroke:#263238;stroke-linecap:round;stroke-linejoin:round"></rect></g><g id="freepik--Plant--inject-2"><line x1="391.73" y1="323.74" x2="403.18" y2="433.52" style="fill:none;stroke:#263238;stroke-miterlimit:10;stroke-width:2px"></line><line x1="401.34" y1="412.51" x2="396.14" y2="407.03" style="fill:none;stroke:#263238;stroke-miterlimit:10;stroke-width:2px"></line><path d="M397.72,408.67a5.85,5.85,0,0,0-2.07-4.4c-1.33-1.2-8.35-4.15-9-1.68C385.91,405.28,393.1,410.56,397.72,408.67Z" style="fill:#3562F7;stroke:#263238;stroke-miterlimit:10"></path><line x1="397.72" y1="408.67" x2="391.04" y2="404.51" style="fill:none;stroke:#263238;stroke-miterlimit:10;stroke-width:0.5px"></line><line x1="402.64" y1="425" x2="397.45" y2="419.51" style="fill:none;stroke:#263238;stroke-miterlimit:10;stroke-width:2px"></line><path d="M399,421.16a5.89,5.89,0,0,0-2.06-4.41c-1.34-1.19-8.35-4.14-9-1.67C387.22,417.77,394.4,423.05,399,421.16Z" style="fill:#3562F7;stroke:#263238;stroke-miterlimit:10"></path><line x1="399.02" y1="421.16" x2="392.34" y2="416.99" style="fill:none;stroke:#263238;stroke-miterlimit:10;stroke-width:0.5px"></line><line x1="398.16" y1="382.05" x2="392.96" y2="376.56" style="fill:none;stroke:#263238;stroke-miterlimit:10;stroke-width:2px"></line><path d="M394.54,378.2a5.86,5.86,0,0,0-2.07-4.4c-1.33-1.19-8.35-4.15-9-1.67C382.73,374.81,389.92,380.09,394.54,378.2Z" style="fill:#3562F7;stroke:#263238;stroke-miterlimit:10"></path><line x1="394.54" y1="378.2" x2="387.86" y2="374.04" style="fill:none;stroke:#263238;stroke-miterlimit:10;stroke-width:0.5px"></line><line x1="399.46" y1="394.53" x2="394.27" y2="389.05" style="fill:none;stroke:#263238;stroke-miterlimit:10;stroke-width:2px"></line><path d="M395.84,390.69a5.89,5.89,0,0,0-2.06-4.41c-1.34-1.19-8.35-4.14-9-1.67C384,387.3,391.22,392.58,395.84,390.69Z" style="fill:#3562F7;stroke:#263238;stroke-miterlimit:10"></path><line x1="395.84" y1="390.69" x2="389.16" y2="386.53" style="fill:none;stroke:#263238;stroke-miterlimit:10;stroke-width:0.5px"></line><line x1="396.04" y1="361.76" x2="390.85" y2="356.28" style="fill:none;stroke:#263238;stroke-miterlimit:10;stroke-width:2px"></line><path d="M392.42,357.92a5.89,5.89,0,0,0-2.06-4.41c-1.34-1.19-8.35-4.14-9-1.67C380.62,354.53,387.8,359.81,392.42,357.92Z" style="fill:#3562F7;stroke:#263238;stroke-miterlimit:10"></path><line x1="392.42" y1="357.92" x2="385.74" y2="353.76" style="fill:none;stroke:#263238;stroke-miterlimit:10;stroke-width:0.5px"></line><line x1="393.91" y1="341.39" x2="388.72" y2="335.91" style="fill:none;stroke:#263238;stroke-miterlimit:10;stroke-width:2px"></line><path d="M390.3,337.55a5.88,5.88,0,0,0-2.07-4.41c-1.33-1.19-8.35-4.14-9-1.67C378.49,334.16,385.67,339.44,390.3,337.55Z" style="fill:#3562F7;stroke:#263238;stroke-miterlimit:10"></path><line x1="390.3" y1="337.55" x2="383.62" y2="333.39" style="fill:none;stroke:#263238;stroke-miterlimit:10;stroke-width:0.5px"></line><line x1="400.46" y1="405.13" x2="404.41" y2="398.69" style="fill:none;stroke:#263238;stroke-miterlimit:10;stroke-width:2px"></line><path d="M403.21,400.62a5.88,5.88,0,0,1,1.11-4.74c1.06-1.44,7.32-5.78,8.48-3.49C414.06,394.87,408.12,401.51,403.21,400.62Z" style="fill:#3562F7;stroke:#263238;stroke-miterlimit:10"></path><line x1="403.21" y1="400.62" x2="409.22" y2="394.87" style="fill:none;stroke:#263238;stroke-miterlimit:10;stroke-width:0.5px"></line><line x1="397.03" y1="372.27" x2="400.98" y2="365.83" style="fill:none;stroke:#263238;stroke-miterlimit:10;stroke-width:2px"></line><path d="M399.78,367.76a5.88,5.88,0,0,1,1.11-4.74c1.06-1.44,7.32-5.77,8.48-3.49C410.63,362,404.7,368.66,399.78,367.76Z" style="fill:#3562F7;stroke:#263238;stroke-miterlimit:10"></path><line x1="399.78" y1="367.76" x2="405.79" y2="362.01" style="fill:none;stroke:#263238;stroke-miterlimit:10;stroke-width:0.5px"></line><line x1="395.53" y1="357.83" x2="399.48" y2="351.39" style="fill:none;stroke:#263238;stroke-miterlimit:10;stroke-width:2px"></line><path d="M398.27,353.32a5.88,5.88,0,0,1,1.12-4.73c1.05-1.45,7.31-5.78,8.47-3.5C409.13,347.57,403.19,354.22,398.27,353.32Z" style="fill:#3562F7;stroke:#263238;stroke-miterlimit:10"></path><line x1="398.27" y1="353.32" x2="404.29" y2="347.57" style="fill:none;stroke:#263238;stroke-miterlimit:10;stroke-width:0.5px"></line><line x1="393.32" y1="336.66" x2="397.27" y2="330.22" style="fill:none;stroke:#263238;stroke-miterlimit:10;stroke-width:2px"></line><path d="M396.06,332.15a5.88,5.88,0,0,1,1.12-4.73c1.05-1.44,7.31-5.78,8.47-3.5C406.92,326.4,401,333.05,396.06,332.15Z" style="fill:#3562F7;stroke:#263238;stroke-miterlimit:10"></path><line x1="396.06" y1="332.15" x2="402.08" y2="326.41" style="fill:none;stroke:#263238;stroke-miterlimit:10;stroke-width:0.5px"></line><path d="M391.63,323.13a5.87,5.87,0,0,1,1.11-4.74c1.06-1.44,7.32-5.78,8.48-3.5C402.48,317.37,396.55,324,391.63,323.13Z" style="fill:#3562F7;stroke:#263238;stroke-miterlimit:10"></path><line x1="391.63" y1="323.13" x2="397.64" y2="317.38" style="fill:none;stroke:#263238;stroke-miterlimit:10;stroke-width:0.5px"></line><path d="M392,323.37a5.89,5.89,0,0,1-4.6-1.6c-1.32-1.2-5-7.88-2.59-8.8C387.39,312,393.38,318.58,392,323.37Z" style="fill:#3562F7;stroke:#263238;stroke-miterlimit:10"></path><line x1="391.98" y1="323.37" x2="386.89" y2="316.79" style="fill:none;stroke:#263238;stroke-miterlimit:10;stroke-width:0.5px"></line><line x1="421.95" y1="338.86" x2="410.55" y2="448.65" style="fill:none;stroke:#263238;stroke-miterlimit:10;stroke-width:2px"></line><line x1="413.07" y1="427.71" x2="409.12" y2="421.27" style="fill:none;stroke:#263238;stroke-miterlimit:10;stroke-width:2px"></line><path d="M410.32,423.21a5.87,5.87,0,0,0-1.11-4.74c-1.06-1.44-7.32-5.77-8.48-3.49C399.47,417.46,405.41,424.1,410.32,423.21Z" style="fill:#3562F7;stroke:#263238;stroke-miterlimit:10"></path><line x1="410.32" y1="423.21" x2="404.64" y2="417.76" style="fill:none;stroke:#263238;stroke-miterlimit:10;stroke-width:0.5px"></line><line x1="416.23" y1="397.24" x2="412.28" y2="390.8" style="fill:none;stroke:#263238;stroke-miterlimit:10;stroke-width:2px"></line><path d="M413.49,392.74a5.9,5.9,0,0,0-1.12-4.74c-1.06-1.44-7.32-5.77-8.48-3.49C402.63,387,408.57,393.63,413.49,392.74Z" style="fill:#3562F7;stroke:#263238;stroke-miterlimit:10"></path><line x1="413.49" y1="392.74" x2="407.81" y2="387.29" style="fill:none;stroke:#263238;stroke-miterlimit:10;stroke-width:0.5px"></line><line x1="414.94" y1="409.73" x2="410.98" y2="403.29" style="fill:none;stroke:#263238;stroke-miterlimit:10;stroke-width:2px"></line><path d="M412.19,405.22a5.86,5.86,0,0,0-1.12-4.74c-1.06-1.43-7.31-5.77-8.47-3.49C401.33,399.47,407.27,406.12,412.19,405.22Z" style="fill:#3562F7;stroke:#263238;stroke-miterlimit:10"></path><line x1="412.19" y1="405.22" x2="406.51" y2="399.77" style="fill:none;stroke:#263238;stroke-miterlimit:10;stroke-width:0.5px"></line><line x1="418.34" y1="376.96" x2="414.38" y2="370.52" style="fill:none;stroke:#263238;stroke-miterlimit:10;stroke-width:2px"></line><path d="M415.59,372.45a5.86,5.86,0,0,0-1.12-4.74c-1.05-1.44-7.31-5.77-8.47-3.49C404.73,366.7,410.68,373.35,415.59,372.45Z" style="fill:#3562F7;stroke:#263238;stroke-miterlimit:10"></path><line x1="415.59" y1="372.45" x2="409.91" y2="367" style="fill:none;stroke:#263238;stroke-miterlimit:10;stroke-width:0.5px"></line><line x1="420.45" y1="356.58" x2="416.5" y2="350.15" style="fill:none;stroke:#263238;stroke-miterlimit:10;stroke-width:2px"></line><path d="M417.7,352.08a5.87,5.87,0,0,0-1.11-4.74c-1.06-1.44-7.32-5.77-8.48-3.49C406.85,346.33,412.79,353,417.7,352.08Z" style="fill:#3562F7;stroke:#263238;stroke-miterlimit:10"></path><line x1="417.7" y1="352.08" x2="412.02" y2="346.63" style="fill:none;stroke:#263238;stroke-miterlimit:10;stroke-width:0.5px"></line><line x1="413.74" y1="420.3" x2="418.93" y2="414.81" style="fill:none;stroke:#263238;stroke-miterlimit:10;stroke-width:2px"></line><path d="M417.35,416.46a5.88,5.88,0,0,1,2.07-4.41c1.33-1.19,8.34-4.15,9-1.68C429.16,413.06,422,418.34,417.35,416.46Z" style="fill:#3562F7;stroke:#263238;stroke-miterlimit:10"></path><line x1="417.35" y1="416.46" x2="424.42" y2="412.07" style="fill:none;stroke:#263238;stroke-miterlimit:10;stroke-width:0.5px"></line><line x1="417.15" y1="387.44" x2="422.34" y2="381.95" style="fill:none;stroke:#263238;stroke-miterlimit:10;stroke-width:2px"></line><path d="M420.76,383.6a5.88,5.88,0,0,1,2.07-4.41c1.33-1.19,8.34-4.15,9-1.68C432.57,380.2,425.39,385.48,420.76,383.6Z" style="fill:#3562F7;stroke:#263238;stroke-miterlimit:10"></path><line x1="420.76" y1="383.6" x2="427.83" y2="379.21" style="fill:none;stroke:#263238;stroke-miterlimit:10;stroke-width:0.5px"></line><line x1="418.65" y1="373" x2="423.84" y2="367.51" style="fill:none;stroke:#263238;stroke-miterlimit:10;stroke-width:2px"></line><path d="M422.26,369.16a5.88,5.88,0,0,1,2.07-4.41c1.33-1.19,8.34-4.15,9-1.68C434.07,365.76,426.89,371,422.26,369.16Z" style="fill:#3562F7;stroke:#263238;stroke-miterlimit:10"></path><line x1="422.26" y1="369.16" x2="429.33" y2="364.77" style="fill:none;stroke:#263238;stroke-miterlimit:10;stroke-width:0.5px"></line><line x1="420.84" y1="351.83" x2="426.03" y2="346.34" style="fill:none;stroke:#263238;stroke-miterlimit:10;stroke-width:2px"></line><path d="M424.46,348a5.89,5.89,0,0,1,2.06-4.41c1.33-1.19,8.35-4.15,9-1.68C436.26,344.59,429.08,349.87,424.46,348Z" style="fill:#3562F7;stroke:#263238;stroke-miterlimit:10"></path><line x1="424.46" y1="347.99" x2="431.53" y2="343.6" style="fill:none;stroke:#263238;stroke-miterlimit:10;stroke-width:0.5px"></line><path d="M422,338.24a5.89,5.89,0,0,1,2.06-4.41c1.33-1.19,8.35-4.15,9-1.67C433.78,334.84,426.6,340.13,422,338.24Z" style="fill:#3562F7;stroke:#263238;stroke-miterlimit:10"></path><line x1="421.98" y1="338.24" x2="429.05" y2="333.85" style="fill:none;stroke:#263238;stroke-miterlimit:10;stroke-width:0.5px"></line><path d="M422.27,338.55A5.87,5.87,0,0,1,418.1,336c-1-1.45-3.25-8.74-.72-9.14C420.13,326.46,424.63,334.15,422.27,338.55Z" style="fill:#3562F7;stroke:#263238;stroke-miterlimit:10"></path><line x1="422.27" y1="338.55" x2="418.64" y2="331.06" style="fill:none;stroke:#263238;stroke-miterlimit:10;stroke-width:0.5px"></line><line x1="408.89" y1="294.15" x2="408.89" y2="432.99" style="fill:none;stroke:#263238;stroke-miterlimit:10;stroke-width:2px"></line><line x1="409" y1="412.11" x2="404.4" y2="406.12" style="fill:none;stroke:#263238;stroke-miterlimit:10;stroke-width:2px"></line><path d="M405.8,407.92a5.89,5.89,0,0,0-1.6-4.6c-1.2-1.32-7.87-5-8.79-2.6C394.41,403.32,401,409.32,405.8,407.92Z" style="fill:#3562F7;stroke:#263238;stroke-miterlimit:10"></path><line x1="405.8" y1="407.92" x2="399.59" y2="403.08" style="fill:none;stroke:#263238;stroke-miterlimit:10;stroke-width:0.5px"></line><line x1="409" y1="386.02" x2="404.4" y2="380.03" style="fill:none;stroke:#263238;stroke-miterlimit:10;stroke-width:2px"></line><path d="M405.8,381.82a5.87,5.87,0,0,0-1.6-4.59c-1.2-1.32-7.87-5-8.79-2.6C394.41,377.23,401,383.22,405.8,381.82Z" style="fill:#3562F7;stroke:#263238;stroke-miterlimit:10"></path><line x1="405.8" y1="381.82" x2="399.59" y2="376.99" style="fill:none;stroke:#263238;stroke-miterlimit:10;stroke-width:0.5px"></line><line x1="409" y1="355.39" x2="404.4" y2="349.39" style="fill:none;stroke:#263238;stroke-miterlimit:10;stroke-width:2px"></line><path d="M405.8,351.19a5.89,5.89,0,0,0-1.6-4.6c-1.2-1.32-7.87-5-8.79-2.59C394.41,346.59,401,352.59,405.8,351.19Z" style="fill:#3562F7;stroke:#263238;stroke-miterlimit:10"></path><line x1="405.8" y1="351.19" x2="399.59" y2="346.36" style="fill:none;stroke:#263238;stroke-miterlimit:10;stroke-width:0.5px"></line><line x1="409" y1="334.99" x2="404.4" y2="329" style="fill:none;stroke:#263238;stroke-miterlimit:10;stroke-width:2px"></line><path d="M405.8,330.8a5.89,5.89,0,0,0-1.6-4.6c-1.2-1.32-7.87-5-8.79-2.6C394.41,326.2,401,332.2,405.8,330.8Z" style="fill:#3562F7;stroke:#263238;stroke-miterlimit:10"></path><line x1="405.8" y1="330.8" x2="399.59" y2="325.96" style="fill:none;stroke:#263238;stroke-miterlimit:10;stroke-width:0.5px"></line><line x1="409" y1="314.51" x2="404.4" y2="308.52" style="fill:none;stroke:#263238;stroke-miterlimit:10;stroke-width:2px"></line><path d="M405.8,310.32a5.89,5.89,0,0,0-1.6-4.6c-1.2-1.32-7.87-5-8.79-2.6C394.41,305.72,401,311.71,405.8,310.32Z" style="fill:#3562F7;stroke:#263238;stroke-miterlimit:10"></path><line x1="405.8" y1="310.32" x2="399.59" y2="305.48" style="fill:none;stroke:#263238;stroke-miterlimit:10;stroke-width:0.5px"></line><line x1="408.9" y1="420.08" x2="413.5" y2="414.09" style="fill:none;stroke:#263238;stroke-miterlimit:10;stroke-width:2px"></line><path d="M412.1,415.88a5.87,5.87,0,0,1,1.6-4.59c1.2-1.33,7.87-5,8.79-2.6C423.49,411.29,416.89,417.28,412.1,415.88Z" style="fill:#3562F7;stroke:#263238;stroke-miterlimit:10"></path><line x1="412.1" y1="415.88" x2="418.68" y2="410.79" style="fill:none;stroke:#263238;stroke-miterlimit:10;stroke-width:0.5px"></line><line x1="408.9" y1="378.58" x2="413.5" y2="372.59" style="fill:none;stroke:#263238;stroke-miterlimit:10;stroke-width:2px"></line><path d="M412.1,374.39a5.89,5.89,0,0,1,1.6-4.6c1.2-1.32,7.87-5,8.79-2.6C423.49,369.79,416.89,375.79,412.1,374.39Z" style="fill:#3562F7;stroke:#263238;stroke-miterlimit:10"></path><line x1="412.1" y1="374.39" x2="418.68" y2="369.29" style="fill:none;stroke:#263238;stroke-miterlimit:10;stroke-width:0.5px"></line><line x1="408.9" y1="358.1" x2="413.5" y2="352.11" style="fill:none;stroke:#263238;stroke-miterlimit:10;stroke-width:2px"></line><path d="M412.1,353.9a5.87,5.87,0,0,1,1.6-4.59c1.2-1.33,7.87-5,8.79-2.6C423.49,349.31,416.89,355.3,412.1,353.9Z" style="fill:#3562F7;stroke:#263238;stroke-miterlimit:10"></path><line x1="412.1" y1="353.9" x2="418.68" y2="348.81" style="fill:none;stroke:#263238;stroke-miterlimit:10;stroke-width:0.5px"></line><line x1="408.9" y1="331.03" x2="413.5" y2="325.03" style="fill:none;stroke:#263238;stroke-miterlimit:10;stroke-width:2px"></line><path d="M412.1,326.83a5.86,5.86,0,0,1,1.6-4.59c1.2-1.33,7.87-5,8.79-2.6C423.49,322.24,416.89,328.23,412.1,326.83Z" style="fill:#3562F7;stroke:#263238;stroke-miterlimit:10"></path><line x1="412.1" y1="326.83" x2="418.68" y2="321.74" style="fill:none;stroke:#263238;stroke-miterlimit:10;stroke-width:0.5px"></line><line x1="408.9" y1="309.75" x2="413.5" y2="303.75" style="fill:none;stroke:#263238;stroke-miterlimit:10;stroke-width:2px"></line><path d="M412.1,305.55a5.89,5.89,0,0,1,1.6-4.6c1.2-1.32,7.87-5,8.79-2.6C423.49,301,416.89,307,412.1,305.55Z" style="fill:#3562F7;stroke:#263238;stroke-miterlimit:10"></path><line x1="412.1" y1="305.55" x2="418.68" y2="300.46" style="fill:none;stroke:#263238;stroke-miterlimit:10;stroke-width:0.5px"></line><path d="M408.62,296.11a5.89,5.89,0,0,1,1.6-4.6c1.2-1.32,7.88-5,8.8-2.6C420,291.51,413.42,297.51,408.62,296.11Z" style="fill:#3562F7;stroke:#263238;stroke-miterlimit:10"></path><line x1="408.62" y1="296.11" x2="415.2" y2="291.02" style="fill:none;stroke:#263238;stroke-miterlimit:10;stroke-width:0.5px"></line><path d="M408.94,296.39a5.86,5.86,0,0,1-4.4-2.07c-1.19-1.33-4.13-8.35-1.66-9C405.57,284.58,410.84,291.77,408.94,296.39Z" style="fill:#3562F7;stroke:#263238;stroke-miterlimit:10"></path><line x1="408.94" y1="296.39" x2="404.57" y2="289.32" style="fill:none;stroke:#263238;stroke-miterlimit:10;stroke-width:0.5px"></line><polygon points="414.6 469 399.9 469 398.06 431.87 416.44 431.87 414.6 469" style="fill:#263238;stroke:#263238;stroke-miterlimit:10"></polygon></g></svg>