<?xml version="1.0" encoding="utf-8"?>
<!-- Generator: Adobe Illustrator 19.0.0, SVG Export Plug-In . SVG Version: 6.00 Build 0)  -->
<svg version="1.1" xmlns="http://www.w3.org/2000/svg" xmlns:xlink="http://www.w3.org/1999/xlink" x="0px" y="0px"
	 viewBox="0 0 1600 1200" style="enable-background:new 0 0 1600 1200;" xml:space="preserve">
<style type="text/css">
	.st0{fill:#E8E8E8;}
	.st1{fill:#161616;}
	.st2{fill:#EC615B;}
	.st3{fill:#5222D0;}
	.st4{fill:#FFFFFF;}
	.st5{opacity:9.000000e-002;fill:#606060;}
	.st6{opacity:8.000000e-002;fill:#606060;}
	.st7{opacity:0.1;fill:#606060;}
	.st8{opacity:0.11;fill:#606060;}
	.st9{opacity:0.12;fill:#606060;}
	.st10{opacity:0.14;fill:#606060;}
	.st11{opacity:7.000000e-002;fill:#606060;}
</style>
<g id="background">
	<g>
		<g>
			<path class="st0" d="M78.7,940.3c69.5-31,148.4-27,221.3-11.6c77.1,16.3,151.3,44.7,229.1,57.9c43.1,7.3,87.1,9.9,130.5,3.1
				c1.9-0.3,1.1-3.2-0.8-2.9c-80.6,12.5-161.2-7.5-238.3-29.3c-73.8-20.9-148.5-44.1-226.1-43.5c-40.2,0.3-80.3,7.3-117.2,23.7
				C75.4,938.5,76.9,941.1,78.7,940.3L78.7,940.3z"/>
		</g>
	</g>
	<g>
		<g>
			<path class="st0" d="M467.9,966.1c94.2,1.9,185.4-24.2,277.5-39.7c26.9-4.5,54-8.1,81.3-9.9c1.9-0.1,1.9-3.1,0-3
				c-94.3,6.2-185.2,34.4-278.8,45.4c-26.5,3.1-53.2,4.8-79.9,4.3C465.9,963.1,465.9,966.1,467.9,966.1L467.9,966.1z"/>
		</g>
	</g>
	<g>
		<g>
			<path class="st0" d="M908.2,932.5c33.5-7.2,68.2-8.4,102.1-3.2c31.2,4.8,61.1,15.1,90.6,26.1c29.1,10.8,58,22.3,88.2,30
				c31.2,7.9,62.9,9.9,95.1,9.9c38,0,76.3-1.5,113.6,6.9c1.9,0.4,2.7-2.5,0.8-2.9c-65.9-14.8-134.2,0.2-200.1-14.8
				c-61.5-14-117.7-45.5-179.9-56.8c-36.8-6.7-74.6-5.9-111.1,1.9C905.5,930,906.3,932.9,908.2,932.5L908.2,932.5z"/>
		</g>
	</g>
	<g>
		<g>
			<path class="st0" d="M362,548c-8.6-2.6-25.5-9.7-19.2-21.7c4.5-8.6,17.9-9.3,26.2-9c28,0.8,56,3.2,84,0.9
				c26.3-2.2,51.4-9.7,77-15.7c26-6.2,53.5-10.7,79.7-3.1c11.5,3.3,22.2,8.8,33.5,12.6c5.4,1.8,11,3.2,16.7,3.8
				c6.8,0.7,13.6-0.3,20.3-0.6c6.9-0.3,14-0.1,19.9,4c5.4,3.7,9.9,10.7,6.4,17.2c-5,9.4-19.6,6.8-28,5c-24.9-5.2-50-6.8-75.3-3.4
				c-13.4,1.8-26.5,5.1-39.3,9.2c-13.8,4.4-27.2,8.3-41.9,6.3c-13.7-1.9-26.8-6.3-40.7-6.8c-13.9-0.6-27.7,1.2-41.4,3
				c-26.6,3.6-55,8.2-79.9-4.7c-1.7-0.9-3.2,1.7-1.5,2.6c23.3,12.1,49.6,9.3,74.8,6c13.2-1.8,26.5-3.7,39.9-4
				c14.7-0.3,28.4,3.1,42.7,5.9c14.6,2.8,27.8,1.3,42-3.1c14.1-4.4,28-8.7,42.6-10.9c15.1-2.3,30.4-2.9,45.6-1.8
				c13.5,0.9,26.4,4.5,39.7,6c7.9,0.9,18,0.6,22.9-6.8c5.6-8.5-0.4-18.4-8.1-23.1c-11.7-7.1-26.2-2.1-38.9-2.9
				c-14-0.9-26.9-7.4-39.8-12.4c-26.8-10.4-54.2-9.1-81.9-3.2c-29.3,6.2-57.8,15.7-87.8,18.1c-17.3,1.4-34.8,1.1-52.1,0.4
				c-9-0.4-18.1-0.8-27.1-1.2c-5.6-0.2-11.1-0.3-16.6,0.8c-8.5,1.7-18.2,6.7-17.6,16.8c0.7,11.1,13.5,16.2,22.5,18.9
				C363,551.5,363.8,548.6,362,548L362,548z"/>
		</g>
	</g>
	<g>
		<g>
			<path class="st0" d="M1100,179.1c-8.6-1.2-22.7-4.3-25.2-14.1c-3.6-13.6,15.8-17.9,25.2-19.6c27.5-4.7,55.7-0.4,83.4-0.4
				c54.9-0.1,109-10.5,163.6-14.4c27.3-2,54.8-2.3,82,1.2c6.2,0.8,12.7,1.4,18.7,3.2c2.5,0.7,5.3,1.9,7.2,3.7
				c4.6,4.5,0.1,8.6-4.1,10.8c-10.8,5.7-23.1,8-35.2,8.5c-24.2,1.1-48.3-3.9-72.5-3c-11.3,0.4-22.4,2.3-33.1,6.2
				c-12.5,4.6-24.1,11.1-36.7,15.4c-14.6,5-30,7.5-45.5,7.5c-15.7,0-31.2-2.4-46.7-4.2c-31.4-3.6-62.9-3.5-94.2,0.7
				c-1.9,0.3-1.9,3.3,0,3c30.6-4.1,61.6-4.4,92.3-0.9c15.2,1.7,30.4,4.1,45.8,4.4c14.2,0.3,28.5-1.5,42.2-5.4
				c14-4,26.8-10.9,40.3-16.3c13.1-5.2,26.6-7.5,40.6-7.5c25.8-0.2,51.7,5.6,77.5,2.2c6.3-0.8,12.4-2.2,18.4-4.4
				c4.6-1.7,10.8-3.8,14.1-7.7c6.2-7.5-2.8-14.1-9.5-16c-13.2-3.9-28.1-4.6-41.8-5.4c-14.9-0.9-29.8-0.8-44.7-0.1
				c-60.3,2.9-119.9,15.5-180.4,15.3c-17.2,0-34.4-1.6-51.6-1.7c-14.6-0.1-31.3,0.2-45,5.9c-8.6,3.6-17,12-12.2,21.9
				c4.5,9.3,17.2,12.5,26.4,13.8C1101.1,182.3,1101.9,179.4,1100,179.1L1100,179.1z"/>
		</g>
	</g>
	<g>
		<g>
			<path class="st0" d="M132.9,315.6c83.4-36.2,174.8-2.4,251.7,33.9c39.2,18.5,77.8,38.3,118.7,52.9
				c40.1,14.3,81.8,24.2,124.1,29.9c84.9,11.5,171.8,6.4,255.3-12.3c87.5-19.6,170.4-55.2,257.2-77.5
				c90.3-23.2,184.7-28.2,276.8-13.3c11.2,1.8,22.3,3.9,33.4,6.3c1.9,0.4,2.7-2.5,0.8-2.9c-89.4-19-182.3-19.9-271.9-2.1
				c-89.6,17.8-173.9,54.2-261.8,77.9c-85.3,23-174.4,32.3-262.5,24c-43.8-4.1-87.2-12.6-129.2-25.8c-43.4-13.6-84.1-33.4-125-53
				c-73.9-35.5-157.3-71.5-240.9-50.4c-9.7,2.4-19,5.7-28.2,9.7C129.7,313.8,131.2,316.4,132.9,315.6L132.9,315.6z"/>
		</g>
	</g>
	<g>
		<g>
			<path class="st0" d="M475.1,279.8c97.7,54.5,214,58.6,322.4,43.4c122.7-17.2,240.9-57.7,363.8-73.5c68.4-8.8,138.2-9.9,205.9,5.1
				c1.9,0.4,2.7-2.5,0.8-2.9c-119.7-26.4-242.5-3.1-359.7,24.2c-115.5,26.9-232.3,58.3-352,50.6c-62.5-4-124.7-18.9-179.7-49.5
				C475,276.2,473.5,278.8,475.1,279.8L475.1,279.8z"/>
		</g>
	</g>
	<g>
		<g>
			<path class="st0" d="M183.4,93.1c84-20,173.6-12.1,252.8,22.4c38.9,16.9,75.4,38.9,113.6,57.2c38.5,18.4,78.7,31.1,121.1,36.8
				c48.5,6.5,97.6,5.4,146.2,2.2c1.9-0.1,1.9-3.1,0-3c-43.9,2.9-88.2,4.1-132-0.5c-44.4-4.7-86.8-16.3-127.3-35
				c-38.5-17.9-74.9-39.9-113.6-57.3C406.2,98.5,365.9,87,324.4,82.1c-47.3-5.7-95.5-2.9-141.8,8.1
				C180.7,90.6,181.5,93.5,183.4,93.1L183.4,93.1z"/>
		</g>
	</g>
	<g>
		<g>
			<path class="st0" d="M1035.4,699.2c-8.8-1.8-23.2-6.3-23.9-17.2c-0.4-6.7,5.2-11.6,11.1-13.4c7.1-2.3,14.6-0.2,21.5,1.8
				c12.6,3.7,25.3,6.7,38.5,7.2c12.3,0.5,24.5-1.3,36.4-4.5c12.8-3.4,25.3-8,38-11.6c13.4-3.8,27.1-5.8,41.1-6
				c26.7-0.4,53.1,4.4,79.7,5.5c13.3,0.5,26.4-0.2,39.5-2.2c14.2-2.2,28.7-5.5,43.2-3.8c10.4,1.2,27.1,8.2,23.7,21.6
				c-3,11.7-19.6,18.3-29.8,21.6c-51.2,16.6-104-11-155.9-3.7c-29.9,4.2-58.1,16.8-88.3,19.2c-13.8,1.1-28,0.2-41.1-4.7
				c-12-4.6-22.8-14.6-36.5-12.2c-1.9,0.3-1.1,3.2,0.8,2.9c8.2-1.4,15.4,2.5,22.3,6.3c5.6,3,11.2,5.8,17.3,7.6
				c12.5,3.8,25.9,4.3,38.9,3.1c28.6-2.7,55.5-14,83.8-18.6c31.2-5,61.9,2.2,92.7,6.3c25.1,3.3,52,4.1,75.6-6.4c9-4,21-10.4,23.3-21
				c2.1-9.5-5.2-17.1-13.1-21c-11.7-5.7-25.8-4.6-38.2-2.9c-15.1,2-29.8,5.2-45.1,5.4c-29.8,0.5-59.2-5.6-88.9-5.7
				c-14.2,0-28.3,1.6-42.1,5.2c-13.7,3.6-27,8.6-40.6,12.3c-16.8,4.5-33.7,5.9-50.9,3.2c-8.6-1.4-16.7-3.8-25-6.2
				c-6.2-1.8-12.9-3.3-19.4-1.9c-9.7,2.1-18.5,11.3-14.2,21.6c3.9,9.4,15.8,13.5,25,15.4C1036.4,702.5,1037.2,699.6,1035.4,699.2
				L1035.4,699.2z"/>
		</g>
	</g>
	<g>
		<g>
			<path class="st1" d="M586.7,1094.1c37.4-9,74-21.3,109.3-36.6c18.3-8,36.2-17.1,55.7-21.9c18.7-4.7,38.1-6.1,57.4-5.6
				c22.3,0.5,44.4,3.5,66.4,7c1.9,0.3,2.7-2.6,0.8-2.9c-37.5-5.9-76.1-10.7-113.8-3.9c-19.4,3.5-37.2,10.9-55,19
				c-18.7,8.5-37.6,16.2-57,23c-21.2,7.4-42.7,13.8-64.6,19C584,1091.6,584.8,1094.5,586.7,1094.1L586.7,1094.1z"/>
		</g>
	</g>
	<g>
		<g>
			<path class="st1" d="M823,1031.1c16.8-0.4,33.4-2.8,49.6-7.5c16.5-4.7,32.8-11.3,50.3-9.6c8.9,0.8,17.6,3.3,26.2,5.5
				c9,2.3,17.9,4.6,26.9,6.9c17.3,4.4,34.5,8.8,51.8,13.2c1.9,0.5,2.7-2.4,0.8-2.9c-17.9-4.6-35.8-9.1-53.7-13.7
				c-16.4-4.2-33.2-9.8-50-11.8c-16.5-1.9-32.1,3.2-47.7,8c-17.7,5.4-35.7,8.5-54.1,9C821.1,1028.1,821.1,1031.1,823,1031.1
				L823,1031.1z"/>
		</g>
	</g>
	<g>
		<g>
			<path class="st1" d="M998.1,1046.6c39.3-8.7,80.6-16.2,120.5-7c19.8,4.6,38.4,13.4,56.9,21.5c19.4,8.6,38.9,17.1,58.3,25.7
				c1.8,0.8,3.3-1.8,1.5-2.6c-30.4-13.4-60.5-27.9-91.5-39.8c-30-11.5-61.2-13.8-93-10.2c-18,2.1-35.9,5.6-53.6,9.6
				C995.4,1044.1,996.2,1047,998.1,1046.6L998.1,1046.6z"/>
		</g>
	</g>
	<g>
		<g>
			<path class="st1" d="M642.8,1128.8c10.3-1.8,20.7-3.6,31-5.4c10.3-1.8,20.7-4.1,31.1-5.2c9.6-1,19.4,0.7,28.9,1.6
				c10.5,1.1,21.1,2.1,31.6,3.2c1.9,0.2,1.9-2.8,0-3c-10.5-1.1-21.1-2.1-31.6-3.2c-10.2-1-20.5-2.7-30.8-1.4
				c-20.4,2.5-40.7,7-61,10.5C640.1,1126.3,640.9,1129.2,642.8,1128.8L642.8,1128.8z"/>
		</g>
	</g>
</g>
<g id="details">
	<circle class="st2" cx="366.6" cy="665.4" r="12.4"/>
	<circle class="st2" cx="400.1" cy="698.5" r="6.5"/>
	<circle class="st2" cx="1097.5" cy="54.8" r="15.3"/>
	<circle class="st2" cx="1133.1" cy="78.7" r="8.7"/>
	<circle class="st3" cx="1127.3" cy="69.3" r="14.5"/>
	<circle class="st3" cx="1092.6" cy="810.4" r="19.6"/>
	<circle class="st3" cx="381" cy="67.3" r="12.5"/>
	<circle class="st3" cx="578.8" cy="919.3" r="15.3"/>
	<g>
		<g>
			<path class="st3" d="M689.2,646.8c-2.1-0.9,0.3-4.6,1.4-5.1c1.3-0.6,3.9,0.2,5.3,0.6c2.2,0.7,4.1,1.9,6.3,2.5
				c2.4,0.7,5.3,0.9,7.6-0.2c8-4.1-1.5-17.9,10.2-17.9c6.4,0,11.8,9.5,17.1,2.4c1.9-2.5,2.7-5.7,3.7-8.7c0.8-2.6,1.5-5.3,3.3-7.4
				c2.1-2.4,8.5-4.8,9.2,0.4c0.2,1.9,3.3,1.9,3,0c-0.5-3.6-3.1-6-6.8-6.2c-4.4-0.3-7.6,3-9.4,6.6c-1.3,2.5-1.9,5.3-2.8,8
				c-0.6,1.9-1.4,5.2-3.1,6.4c-1.8,1.2-3.2-0.1-4.7-1c-3.9-2.6-8.6-4.6-13.3-2.9c-4.3,1.6-6,5.3-5.8,9.7c0,1.3,0.4,2.9,0.3,4.2
				c-0.7,4.6-3.8,4.8-7,4.1c-3.2-0.7-5.9-2.7-9.2-3.3c-3.5-0.7-7,0.2-8.6,3.7c-1.3,3-0.5,6,2.5,7.2
				C690.2,650.4,691,647.5,689.2,646.8L689.2,646.8z"/>
		</g>
	</g>
	<g>
		<g>
			<path class="st3" d="M740.8,651.6c-1.5-2.3-1.5-5.2,0.1-7.5c2.3-3.3,5.5-2.8,9-2.3c2.6,0.4,5.8,0.9,7.7-1.4
				c1.3-1.5,1.1-3.3,1.6-5c0.7-2.5,2.3-4.7,4.4-6.2c4.4-3.2,10.6-3.7,15-0.3c1.1,0.8,2.4,0.3,2.6-1.1c1.2-9.7,10.8-16.9,20.4-15.2
				c1.9,0.3,2.7-2.6,0.8-2.9c-11.7-2-22.8,6.4-24.2,18.1c0.9-0.4,1.7-0.7,2.6-1.1c-4.1-3.2-9.3-4-14.2-2.3
				c-5.6,1.9-8.2,5.6-10.3,10.8c-1,2.6-2.2,4.2-5.1,3.8c-1.6-0.2-3.1-0.6-4.7-0.7c-2.3-0.1-4.3,0.5-6.1,2c-3.8,3.2-4.8,8.7-2.1,12.9
				C739.3,654.8,741.9,653.3,740.8,651.6L740.8,651.6z"/>
		</g>
	</g>
	<g>
		<g>
			<path class="st2" d="M791.4,104.3c-1.7-1.6-1.2-2.6,1.4-3.1c1.1-1.5,2.3-1.8,3.6-0.8c1.8,0.4,3,2,4.3,3.2c1.6,1.4,3,3,4.8,4.1
				c2.5,1.4,5.6,2,8.2,0.7c3.2-1.6,3.3-4.8,4.4-7.8c3-8,13.2-8.8,18-2c0.6,0.8,2.1,1.1,2.6,0c1.9-4.5,4.3-9.6,8.6-12.3
				c4.3-2.7,11.5-2.4,13.4,3.2c0.6,1.8,3.5,1,2.9-0.8c-1.9-5.4-7.4-7.8-12.9-6.9c-7.6,1.3-11.8,8.9-14.6,15.3c0.9,0,1.7,0,2.6,0
				c-3.5-5-9.5-7.7-15.5-5.5c-2.5,0.9-4.8,2.7-6.3,5c-0.8,1.2-1.3,2.5-1.8,3.9c-0.3,0.9-0.3,2-0.8,2.8c-1.3,2.2-4.9,3.1-7.2,1.8
				c-4.9-2.7-9.7-11.3-16.5-7.8c-3.8,1.9-4.3,7.3-0.7,9.6C791.6,107.9,793.1,105.3,791.4,104.3L791.4,104.3z"/>
		</g>
	</g>
	<g>
		<g>
			<path class="st2" d="M855.6,103.5c-0.7-10,12.1-6.7,17.2-4.2c2.6,1.3,5.8,3.7,8.6,1.5c0.9-0.7,1.3-1.7,1.7-2.7
				c1.5-3.3,2.5-5.7,6.5-6.9c6.2-1.8,12.2,2.1,17.2,5.3c1.6,1,3.1-1.6,1.5-2.6c-5.3-3.3-11.3-7-17.8-5.9c-2.1,0.3-4.2,1.1-5.9,2.4
				c-2.6,1.9-3.1,5.2-5.7,6.8c-2.5,1.5-3.5,0-6-1.2c-1.3-0.6-2.6-1.2-4-1.7c-2.6-0.9-5.4-1.3-8.1-0.7c-4.7,1.1-8.5,4.9-8.2,9.9
				C852.7,105.4,855.7,105.4,855.6,103.5L855.6,103.5z"/>
		</g>
	</g>
	<g>
		<g>
			<path class="st2" d="M1145,517.7c-6.6-14.5,18.4-20.9,20.1-5.7c0.6,5.1-2.2,10.5-7.4,11.9c-5.8,1.5-12-2.4-13.6-8
				c-0.5-1.9-3.4-1.1-2.9,0.8c2,7.2,9.9,12,17.3,10.1c7.3-1.9,10.9-10,9.2-17c-1.8-7.4-9.5-11-16.6-9.1c-8.3,2.2-12.2,10.9-8.7,18.7
				C1143.2,521,1145.8,519.4,1145,517.7L1145,517.7z"/>
		</g>
	</g>
	<g>
		<g>
			<path class="st2" d="M1163.6,529.2c-5.4-0.5-7.4-7.7-3.7-11.3c3.1-3.1,8.4-2.9,11.7-0.3c3.4,2.7,6.7,10.6,2.9,14.4
				c-5,5-11.1-3.1-13.5-6.7c-1.1-1.6-3.7-0.1-2.6,1.5c3.5,5.4,11.5,13.9,18.2,7.3c5.3-5.2,1.5-15.7-3.7-19.4c-5.3-3.8-14-2.5-17,3.7
				c-3,6,1.4,13.2,7.8,13.8C1165.5,532.4,1165.5,529.4,1163.6,529.2L1163.6,529.2z"/>
		</g>
	</g>
	<g>
		<g>
			<path class="st2" d="M255.2,403.5c4-0.2,6.1-2.9,8.9-5.4c6.6-5.9,14.2-0.3,18.4,5.5c4,5.5,9.8,9.4,14.9,2.8
				c2.4-3.1,3.6-7.7,6.9-9.9c6.7-4.5,12.4,4.4,16.6,8.3c4.8,4.4,14.7,6.4,16.9-1.8c0.5-1.9-2.4-2.7-2.9-0.8
				c-1.1,4.3-6.3,4.2-9.4,2.4c-2.4-1.4-4.1-3.6-6-5.5c-2.8-3-5.9-5.9-10.1-6.7c-6.9-1.2-10,5-13.1,10c-0.8,1.4-1.8,3.3-3.3,4.1
				c-3.6,1.9-6.2-1.9-8.1-4.4c-2.4-3.4-5.1-6.3-9-8.1c-3.2-1.5-7-2-10.3-0.6c-3.8,1.6-6.2,7-10.5,7.2
				C253.3,400.6,253.3,403.6,255.2,403.5L255.2,403.5z"/>
		</g>
	</g>
	<g>
		<g>
			<path class="st2" d="M325.1,382.9c4.2,5,11.7,11.7,18.3,6.2c1.6-1.4,2.5-3.4,4.2-4.8c2.5-1.9,5.8-2.3,8.7-1.4
				c6.3,1.7,10,7.7,13.3,12.8c0.6,0.9,2.1,1.1,2.6,0c4.3-9.4,15.8-11.7,24.8-8.1c1.8,0.7,2.6-2.2,0.8-2.9
				c-10.1-4.1-23.4-1.1-28.2,9.4c0.9,0,1.7,0,2.6,0c-4.5-7-10.2-15-19.6-14.7c-3.3,0.1-6.3,1.5-8.5,3.9c-2.6,3-4.8,5.4-9.1,4.1
				c-3.3-1-5.7-4.1-7.9-6.7C326,379.3,323.9,381.4,325.1,382.9L325.1,382.9z"/>
		</g>
	</g>
	<g>
		<g>
			<path class="st3" d="M505.2,487.5c-1.3-2.6-2.8-5.3-4-8c-1.3-2.8-0.7-3.9,1-6.3c2.2-3.1,5.6-5.9,9.5-3.8c2.8,1.5,4.6,4.9,5.4,7.8
				c1.4,4.9,0.2,11.9-5.5,13.5c-4.7,1.3-10.8-1.6-10.6-7c0-1.9-3-1.9-3,0c-0.2,6.7,6.5,10.9,12.7,10.2c7.6-0.9,10.8-8.9,9.7-15.7
				c-1.1-6.6-7.2-15-14.8-11.9c-3.7,1.5-6.5,5.4-8.2,8.9c-1,2.1-0.8,2.2,0.2,4.3c1.6,3.2,3.2,6.4,4.8,9.5
				C503.5,490.7,506.1,489.2,505.2,487.5L505.2,487.5z"/>
		</g>
	</g>
	<g>
		<g>
			<path class="st2" d="M516.3,507.1c-3.8-4.5-10.3-13.3-4.7-18.9c4-4,11.2-2.5,14.5,1.5c3.4,4.1,4.1,12.1-1.2,15.1
				c-4.5,2.6-11,0.1-11.8-5.1c-0.3-1.9-3.2-1.1-2.9,0.8c1.2,6.8,9.5,10,15.5,7.3c7.3-3.4,7.6-13.5,3.3-19.4
				c-4.1-5.7-13.1-7.7-18.7-3c-8.1,6.7-1.1,17.7,4,23.7C515.4,510.7,517.5,508.6,516.3,507.1L516.3,507.1z"/>
		</g>
	</g>
	<g>
		<g>
			<path class="st3" d="M1107.6,304.7c0.1-8.8,12.2-6.2,17.4-5.6c4.5,0.5,8.6-0.1,12.6-2.3c4.4-2.3,8-5.9,12.3-8.4
				c2.8-1.7,6.2-3.2,9.5-3.2c3.5,0.1,5.7,2.2,8.8,3.5c7.2,2.9,11.8-3.8,16.3-8.2c8.9-8.7,21.6-5.1,32-1.5c1.8,0.6,2.6-2.3,0.8-2.9
				c-9.3-3.2-21.1-6.7-30.3-1.4c-4.4,2.5-7,7.1-11,10c-5.7,4.1-10.5-2.4-16.5-2.5c-12.9-0.2-19.7,14.7-32.7,14
				c-5.6-0.3-11-2.4-16.4,0.1c-3.5,1.6-5.7,4.4-5.8,8.3C1104.5,306.6,1107.5,306.6,1107.6,304.7L1107.6,304.7z"/>
		</g>
	</g>
	<g>
		<g>
			<path class="st3" d="M1182.4,301.3c6.4-9.1,18.4-13.5,29.2-10.4c4.7,1.4,9.1,5.2,14.3,4.9c4.3-0.3,6.6-3.8,9.5-6.5
				c4.7-4.3,10.8-7.8,17.4-7.6c4,0.1,7.1,1.6,10.2,4.2c1,0.9,1.8,1.7,3.2,2.1c2,0.5,3.8-0.4,5.6-1.2c3.1-1.4,6.3-2.6,9.6-3.5
				c6.8-1.7,13.7-2,20.6-1.1c1.9,0.2,1.9-2.8,0-3c-6.6-0.9-13.2-0.7-19.7,0.8c-2.9,0.7-5.8,1.6-8.6,2.7c-2.2,0.9-3.3,1.5-5.8,1.5
				c-2.7,0-2.5-0.4-4.3-1.8c-8.5-6.5-19.9-3.5-27.6,2.6c-2.1,1.6-3.8,3.8-5.8,5.4c-4.8,3.8-8.6,1.4-13.5-0.8
				c-4.2-1.9-8.6-2.8-13.2-2.6c-9.5,0.4-18.1,5.1-23.5,12.8C1178.7,301.4,1181.3,302.9,1182.4,301.3L1182.4,301.3z"/>
		</g>
	</g>
</g>
<g id="girl">
	<g id="leg_right">
		<path d="M964.9,972c1.9,12,3.8,24.1,5.6,36.1c-39.5,12.8-58.9,20.9-58.1,24.3c1,4.2,32.6,1.1,94.8-9c-3.6-19-7.1-38-10.7-57
			C985.9,968.2,975.4,970.1,964.9,972z"/>
		<path class="st4" d="M879.9,570.2c-0.7,13.6-1.7,33-2.6,56.5c-0.9,24.9-1.4,37.9-1.3,53.9c0,6.9,0.3,35,3.9,71.2
			c3,30.5,7.7,76.1,24.4,132.2c6.6,22.2,16.8,52,32.7,86c7.3,1.1,15.9,1.7,25.7,1.3c18.4-0.9,33.3-5.4,43.6-9.6
			c-3-9.8-7.2-23.7-11.6-40.4c-5.9-22.6-22.9-90.7-29.5-182.2c-3.3-46-4.5-103.4,1.3-169.4C937.7,569.8,908.8,570,879.9,570.2z"/>
		<path class="st5" d="M964,577.9c-1.9,7.2-4.4,17.6-7.1,30.2c-7,33.3-14.2,80.8-13.5,161.1c0.4,49.4,3.9,117.7,16.7,200.2
			c5-0.5,10.1-1.1,15.4-1.9c11.1-1.7,21.4-3.9,30.8-6.4c-4.2-13.6-10-33.8-16-58.4C969,815,963,740.6,961.4,691.5
			C960.5,662.3,960.5,623.6,964,577.9z"/>
		<g>
			<g>
				<path class="st1" d="M964.3,572.8c-10,101.2-3.8,203.9,18.3,303.2c6.3,28.2,13.8,56,22.6,83.5c0.6,1.8,3.5,1,2.9-0.8
					c-30.8-96.7-46.2-198.1-45.4-299.6c0.2-28.8,1.8-57.7,4.6-86.4C967.5,570.9,964.5,570.9,964.3,572.8L964.3,572.8z"/>
			</g>
		</g>
		<g>
			<g>
				<path class="st1" d="M875.8,662.5c-3.7,82,7.8,164.5,33.6,242.4c7.2,21.8,15.6,43.2,25.1,64.1c0.8,1.8,3.4,0.2,2.6-1.5
					c-33.5-74.5-53.2-155-57.9-236.5c-1.3-22.8-1.4-45.6-0.4-68.5C878.9,660.5,875.9,660.6,875.8,662.5L875.8,662.5z"/>
			</g>
		</g>
		<g>
			<g>
				<path class="st1" d="M935.7,969.9c3.4,3.8,11.2,2.9,15.8,3c7,0.1,14.1-0.6,21-1.6c7.5-1.1,15-2.7,22.4-4.5
					c3.7-0.9,11.4-1.1,13.3-5.2c0.8-1.7-1.8-3.3-2.6-1.5c-0.9,2.1-5.9,2.5-7.8,2.9c-2.8,0.7-5.5,1.3-8.3,2
					c-5.3,1.2-10.5,2.3-15.8,3.1c-5.5,0.9-11,1.5-16.5,1.7c-4.2,0.2-16.2,1.5-19.3-2C936.5,966.3,934.4,968.5,935.7,969.9
					L935.7,969.9z"/>
			</g>
		</g>
	</g>
	<g id="leg_left">
		<path class="st4" d="M850.4,569.6c-2.9,6.3-6.8,18.3-9.6,28.9c-3.5,13.5-4.4,21.6-6.4,33.4c-3.7,21.8-6.2,25.5-11.6,49.4
			c-5.7,25.6-8.3,45.3-10.3,61c-1.6,12.2-4.5,37.1-5.8,69.3c-0.6,13.9-0.9,22.1-0.6,33.4c0.8,35.5,6.5,63,9,73.8
			c6.7,29.7,16.5,55.1,26.3,75.7c4.5,2.3,11.3,5.2,19.9,7.1c10.6,2.3,24.2,5.3,37.2-1.3c3.6-1.8,11.8-6.8,18-18.6
			c-4.8-13.1-10.7-31.7-15.4-54.5c-11.6-56.6-7.4-101.4-4.5-129.6c5.4-53.3,17.8-93.3,39.1-162.3c7.2-23.2,13.6-42,18-54.5
			c1.5-9.9,5-39.6-10.9-52C919.5,510.4,865.2,537.7,850.4,569.6z"/>
		<path class="st6" d="M939.6,622.8c-6.5,10.3-15.5,25.6-24.4,44.9c-11,23.8-27.2,65.6-35.9,148.9c-4.8,45.5-8,109.2-0.6,186.1
			c3.1,0.3,16.3,1.4,27.6-7.7c5.8-4.7,8.8-10.1,10.3-13.5c-4.9-13.5-11.2-33.3-16-57.8c-14.2-71.4-5.3-128.8,1.3-168.8
			C907.3,721.5,917.8,675.4,939.6,622.8z"/>
		<path d="M866.1,1001.4c3.4,12.2,6.8,24.5,10.2,36.7c-53.6,16.3-79.9,26.5-79,30.5c1,4.6,37.5,1.2,109.5-10.2
			c-1.9-19.6-3.8-39.1-5.6-58.7C889.4,1000.2,877.7,1000.8,866.1,1001.4z"/>
		<g>
			<g>
				<path class="st1" d="M849.3,570.8c-10.6,26.8-16,55.2-21.7,83.4c-6,29.5-11.8,59-16,88.8c-7.8,55.2-10.2,111.7,0.5,166.7
					c5.7,29.6,15.3,58.4,29.4,85c0.9,1.7,3.5,0.2,2.6-1.5c-53.5-101.7-37.3-220.7-15.5-328.6c6.3-31.3,11.9-63.2,23.7-93
					C852.9,569.8,850,569,849.3,570.8L849.3,570.8z"/>
			</g>
		</g>
		<g>
			<g>
				<path class="st1" d="M938.3,622.6c-33.5,89.3-55.9,185.3-42.9,281c3.6,26.4,9.9,52.3,19.1,77.3c0.7,1.8,3.6,1,2.9-0.8
					c-33.3-89.9-26.5-188.5-1.5-279.6c7.2-26.1,15.8-51.8,25.3-77.2C941.9,621.5,939,620.8,938.3,622.6L938.3,622.6z"/>
			</g>
		</g>
		<g>
			<g>
				<path class="st1" d="M841.8,994.6c14.1,7.8,30.3,11.1,46.3,9c13.1-1.8,28.3-7.8,29.6-22.9c0.2-1.9-2.8-1.9-3,0
					c-1.4,15.7-20.4,19.9-33.3,20.5c-13.3,0.6-26.4-2.7-38-9.2C841.6,991.1,840.1,993.7,841.8,994.6L841.8,994.6z"/>
			</g>
		</g>
	</g>
	<g id="torso">
		<path class="st2" d="M871,309c-2.7,3.2-6.5,8.1-10.1,14.6c-12.3,21.6-13.1,42.8-13.3,61.4c-0.2,27.1-0.4,40.7,2.5,70.2
			c2.7,27.6,3.4,67.2-6.3,117.7c8.7,6.4,21.4,13.8,38,17.7c47.8,11.2,87.4-16.7,94.9-22.1c-9.5-55.7-14.7-100.3-17.7-131.6
			c-1.9-19.8-8.9-48.6-22.8-106.3c-4.2-17.6-8.5-34.4-21.5-39.2C896.7,284.6,874.6,305.5,871,309z"/>
		<path class="st7" d="M914.2,292.8c1.6,6.5,3.9,16.3,6.2,28.4c3,15.6,7,39.2,9.8,74.3c2.9,36.2,6.2,104.1,7.2,191.9
			c6.8-2,15-5,23.7-9.8c5.8-3.2,10.8-6.6,15-9.8c-0.7-7.7-2-19.4-4.1-33.5c-2.7-17.7-5.4-30-6.7-36.1c-3.2-15.8-6.8-39.4-7.2-72.2
			c-4.1-17.4-7.2-31.4-9.3-40.7c-5.8-26.4-7.5-36.1-11.9-52.1c-4.4-16.1-9-28.9-11.9-36.6C921.4,295.2,917.8,294,914.2,292.8z"/>
	</g>
	<g id="backpack">
		<path class="st4" d="M870.9,318.6c0.9,1.8,2.4,2.4,5.7,4c2.8,1.4,5.5,3.1,8.3,4.3c8.6,3.7,18.7,20.1,20.3,22.7
			c6.1,9.9,13.2,21.5,17.3,38.3c1.1,4.4,3.6,15.8,0.7,54.3c-3.1,39.5-7.1,45-4,64.7c2.3,14.3,5.2,31.4,19.3,40.7
			c13.1,8.6,28.2,5.6,31.3,5c19-3.7,29.8-18.4,40.3-32.7c16-21.7,22.1-43.4,24.7-56c1.2-5.9,1-23.2,0.7-57.7
			c-0.4-35.6-1-47.9-10.3-58.3c-6.3-7-14-10.3-19.3-12c0.4-2.2,0.5-5.5-1.3-8.3c-3.4-5.2-11.5-5.1-16.7-5
			c-22.3,0.6-38.9,15.6-39.7,16.3c-13.9,12.9-18,28.7-19.3,35.3c-2.8-12.4-7.4-21.9-11-28c-3.1-5.3-7.7-10.7-17-21.7
			c-7.3-8.6-10.8-11.9-16.3-13.7c-1.2-0.4-10.3-3.1-13.3,1C869.9,313.7,869.9,316.6,870.9,318.6z"/>
		<path class="st8" d="M870.2,314.9c0.6-1.1,7.3,1.4,8,1.7c9.9,3.8,18.7,11.7,30,30c5.8,9.4,13.1,22.7,19.3,40
			c4.4-4.5,8.1-8.2,11-11c0,0,10.7-10.3,28-20.3c1.7-1,3.8-2.2,5.3-1.3c3.1,1.7-0.2,10,0.7,17.7c0.7,5.8,4.1,13.8,17,22.7
			c0.3,1.7,0.4,4.1-1,5.7c-2.8,3.1-10,0.6-13.7-0.7c-6-2.1-17.6-7.6-31.3-23.7c-1.3,5.2-3,12.6-4.3,21.7c-1.2,7.9-4.5,34.2,1,68
			c2.2,13.4,6.3,31.3,14.7,51.7c3.7,1.6,8.4,3.1,14,4c11.7,1.8,21.4-0.5,27-2.3c-3.3,1.6-7.8,4.3-11.7,9c-4.7,5.7-4.8,10-8.7,15.3
			c-2.6,3.6-7.3,8.1-16,11.3c-2.7-0.3-6.8-1-11.3-3c-13.7-6.1-19.9-19-22.7-25c-3.7-8.1-9.4-24.5-4-80c3.1-31.7,6.5-41.6,1.3-59.7
			c-4-13.9-10.9-25.4-13.3-29.3c-4.3-7-12-19.5-26-31C876.9,320.8,869.6,316.2,870.2,314.9z"/>
		<path d="M981.7,337.3c-1.8,2.4-4.1,5.9-5.9,10.5c-1,2.7-3.4,9-2.8,17c1.1,15.9,12.5,25.6,14.6,27.3c1.4,1.1,2.6,2,3.4,2.5
			c-1.2,4.1-2.6,10.2-3.1,17.7c-0.8,10.6-1.6,22.5,4.6,26c4,2.2,10,0.7,13.3-2.5c0.8-0.8,3.1-3.3,3.7-14.6c0.7-13.4-2.1-19,1.9-22.9
			c1.7-1.8,4.6-2.9,7.1-4c2.8-1.2,5.3-1.8,7.1-2.2c-1.1,8.2-1.9,15.5-2.5,21.4c-0.7,7.3-1,11,1.5,13.3c2.3,2.1,6.1,2.5,9,1.2
			c3.8-1.7,5-6.4,7.1-15.8c1.7-7.4,3.1-13.6,2.2-22c-0.5-4.3-1.4-7.8-2.2-10.2c-0.2-1.7-0.7-4.2-1.5-7.1c-1.7-5.8-3.3-7.5-4.3-11.2
			c-1.5-5.3,0.2-7.9,0.6-13.9c0.4-4.7,0-11.4-3.4-19.8c-1.3,0.1-4,0.3-6.8,2.2c-3.4,2.2-4.8,5.4-5.3,6.5c-2.6-0.6-7.3-1.2-12.7,0.3
			c-9.3,2.5-14.2,9.4-15.5,11.5c2.6-5.7,0.4-11.3-3.1-12.7C985.7,334.5,982.1,337.1,981.7,337.3z"/>
		<g>
			<g>
				<path class="st4" d="M993,368.3c1-1.9,6-6.1,7.7-2.6c0.8,1.7,3.4,0.2,2.6-1.5c-1.1-2.3-3.8-3-6.2-2.5c-2.9,0.5-5.3,2.5-6.7,5.1
					C989.5,368.5,992.1,370,993,368.3L993,368.3z"/>
			</g>
		</g>
		<g>
			<g>
				<path class="st4" d="M1022.3,360.6c0.6-1.3,1.2-2.8,2.2-3.8c1-1,4-2.1,4.1,0.2c0.1,1.9,3.1,1.9,3,0c-0.2-2.9-2.7-4.8-5.6-4.4
					c-3.3,0.6-5,3.6-6.3,6.4C1018.9,360.8,1021.5,362.4,1022.3,360.6L1022.3,360.6z"/>
			</g>
		</g>
		<g>
			<g>
				<path class="st4" d="M1023.1,370.1c0,0.1,0,0.2,0,0.3c-0.2,0.2-0.4,0.4-0.5,0.5c-0.5,0.3-1.3,0-1.2-0.6c0,0,0-0.3,0.1-0.2
					c0,0-0.3,0.3-0.3,0.3c0.7,0,1.4,0,2.1,0c-0.1-0.1-0.1-0.1-0.2-0.2c0.1,0.1,0.1,0.1,0.1,0.1c-0.1-0.1,0-0.1,0,0.1
					c0.1,0.6-0.2,1-1,1.3c-0.3-0.1-0.5-0.1-0.8-0.2c-0.4-0.2-0.3-0.8-0.2-1.1c0.1-0.1,0-0.1-0.1,0.1c0.1-0.1,0.1-0.1,0,0
					c-0.7,0.5-1,1.3-0.5,2.1c0.4,0.6,1.4,1,2.1,0.5c0.7-0.5,1.4-1.2,1.5-2.2c0-1.1-0.8-2.1-1.9-2.1c-1.1,0-1.9,0.7-2,1.8
					c-0.1,0.8,0.4,1.5,0.9,2c0.6,0.6,1.5,0.5,2.1,0c1.3-1,1.6-3.1,0.1-4.1c-0.7-0.4-1.6-0.5-2.3-0.1c-0.9,0.5-1,1.7-0.8,2.6
					c0.1,0.8,1.1,1.2,1.8,1C1022.9,371.7,1023.2,370.9,1023.1,370.1L1023.1,370.1z"/>
			</g>
		</g>
		<g>
			<g>
				<path class="st4" d="M1007.1,373.2c-2.9,1.7-6.8,0.9-8.7-1.9c-1.1-1.6-3.7-0.1-2.6,1.5c2.9,4.1,8.4,5.5,12.9,3
					C1010.3,374.8,1008.8,372.2,1007.1,373.2L1007.1,373.2z"/>
			</g>
		</g>
		<g>
			<g>
				<path class="st4" d="M1004.9,379.7c-2.2,1.7-4.1,3.9-5.4,6.4c-0.9,1.7,1.7,3.2,2.6,1.5c1.2-2.3,2.9-4.2,5-5.8
					c0.6-0.5,0.5-1.6,0-2.1C1006.4,379.1,1005.5,379.2,1004.9,379.7L1004.9,379.7z"/>
			</g>
		</g>
		<g>
			<g>
				<path class="st4" d="M1029.2,368.7c2-2.3,3.5-4.9,4.5-7.8c0.6-1.8-2.3-2.6-2.9-0.8c-0.8,2.4-2.1,4.6-3.7,6.5
					C1025.9,368.1,1028,370.2,1029.2,368.7L1029.2,368.7z"/>
			</g>
		</g>
		<g>
			<g>
				<path class="st4" d="M1029.4,372.5c2.4-0.5,5.2-1.1,7.1,0.9c1.3,1.4,3.4-0.7,2.1-2.1c-2.7-2.9-6.6-2.4-10.1-1.6
					C1026.7,370,1027.5,372.9,1029.4,372.5L1029.4,372.5z"/>
			</g>
		</g>
		<g>
			<g>
				<path class="st1" d="M869.7,316.3c4.6-7.2,15.5-2.9,21,0.7c6.6,4.2,11.6,10.5,16.1,16.8c9.1,12.7,17.2,26.5,20.2,42
					c0.4,1.9,3.3,1.1,2.9-0.8c-3.5-18.5-14.3-36.3-26.5-50.5c-7.1-8.2-27.2-23.7-36.3-9.6C866.1,316.4,868.7,318,869.7,316.3
					L869.7,316.3z"/>
			</g>
		</g>
		<g>
			<g>
				<path class="st1" d="M875.9,323.1c24,13.5,37.5,38.8,44.3,64.6c0.5,1.9,3.4,1.1,2.9-0.8c-7-26.5-21.1-52.6-45.7-66.4
					C875.7,319.5,874.2,322.1,875.9,323.1L875.9,323.1z"/>
			</g>
		</g>
		<g>
			<g>
				<path class="st1" d="M929.9,374.5c2.5-17.7,13.8-32.5,29.3-41c8-4.4,16.9-7.1,26-8.4c4.3-0.6,9.3-1.2,13.5,0.4
					c4.6,1.7,9,9,3.2,12.3c-1.7,0.9-0.2,3.5,1.5,2.6c6.4-3.6,4.8-12.8-0.8-16.3c-8.7-5.5-23.1-1.6-32,1.4
					c-22,7.1-40.2,24.9-43.5,48.4C926.7,375.6,929.6,376.4,929.9,374.5L929.9,374.5z"/>
			</g>
		</g>
		<g>
			<g>
				<path class="st1" d="M936.6,379c4.9-5.7,11.1-10.5,17.1-15c5.8-4.4,12-8,19.2-9.6c1.9-0.4,1.1-3.3-0.8-2.9
					c-7.4,1.7-13.9,5.4-19.9,9.9c-6.2,4.7-12.6,9.6-17.7,15.5C933.2,378.3,935.3,380.5,936.6,379L936.6,379z"/>
			</g>
		</g>
		<g>
			<g>
				<path class="st1" d="M973.3,354.7c2.1-4.8,4.8-9.4,8.1-13.5c0.6-0.7,1.3-1.9,2.1-2.4c0.7-1.3,1.6-1.4,2.9-0.2
					c1.6,0,2.3,0.6,2.3,2c1.1,2.1,1.2,5.7,1.6,8.1c0.4,1.9,3.3,1.1,2.9-0.8c-0.8-3.8-1.8-17.4-9-13.7c-2.8,1.4-4.9,4.9-6.7,7.3
					c-2.7,3.7-4.9,7.6-6.8,11.7C969.9,354.9,972.5,356.5,973.3,354.7L973.3,354.7z"/>
			</g>
		</g>
		<g>
			<g>
				<path class="st1" d="M992.6,349.6c5.1-6.6,15.5-15.7,24.4-10.8c1.7,0.9,3.2-1.7,1.5-2.6c-10.3-5.5-21.9,3.5-28.1,11.3
					C989.3,349,991.4,351.1,992.6,349.6L992.6,349.6z"/>
			</g>
		</g>
		<g>
			<g>
				<path class="st1" d="M1019.9,338.3c1.4-2.2,7.9-10.1,10.7-8c1.5,1.1,1.8,5,2.2,6.8c0.6,2.8,0.8,5.6,0.9,8.5c0.1,1.9,3.1,1.9,3,0
					c-0.1-4-0.6-7.9-1.6-11.8c-0.6-2.2-1.1-6.4-3.7-7.1c-2.4-0.6-5.7,1.7-7.5,3c-2.7,1.9-4.8,4.3-6.5,7.1
					C1016.3,338.4,1018.9,339.9,1019.9,338.3L1019.9,338.3z"/>
			</g>
		</g>
		<g>
			<g>
				<path class="st1" d="M940.5,374.1c6.9,6.7,14.2,12.9,22,18.5c7.7,5.5,15.2,9.4,24.9,8.9c1.9-0.1,1.9-3.1,0-3
					c-9.9,0.5-17.2-3.9-24.9-9.5c-7.1-5.2-13.7-10.9-20-17C941.2,370.7,939.1,372.8,940.5,374.1L940.5,374.1z"/>
			</g>
		</g>
		<g>
			<g>
				<path class="st1" d="M920.3,384.4c10.9,48.4-17.5,101.3,6,147.6c4.4,8.7,11.1,16.6,20.3,20.5c9,3.8,19.4,3.5,28.7,0.5
					c20.6-6.6,33.9-25.7,44.1-43.7c6.5-11.3,11.9-23.4,15.1-36.1c1.6-6.3,2.6-12.9,2.9-19.4c0.3-7.5-0.7-15-0.4-22.5
					c0.1-1.9-2.9-1.9-3,0c-0.4,12.2,1.2,23.8-1.2,35.9c-2.1,10.8-6,21.3-10.9,31.1c-9.1,18.4-21.4,39.1-40.3,48.8
					c-9.8,5-21.9,6.9-32.4,3c-10.3-3.8-17.1-12.9-21.5-22.6c-9.4-21.1-8.3-45.1-5.8-67.5c2.8-25.4,7.2-51.1,1.5-76.5
					C922.7,381.8,919.8,382.5,920.3,384.4L920.3,384.4z"/>
			</g>
		</g>
		<g>
			<g>
				<path class="st1" d="M964.8,484.5c-5.6,9.8-9.3,20.4-10.9,31.6c-0.3,1.9,2.6,2.7,2.9,0.8c1.6-11,5.1-21.3,10.6-30.9
					C968.4,484.4,965.8,482.9,964.8,484.5L964.8,484.5z"/>
			</g>
		</g>
		<g>
			<g>
				<path class="st1" d="M966.7,485.6c14.8-1.3,30.4-4.1,45.2-2.5c1.9,0.2,1.9-2.8,0-3c-14.8-1.7-30.4,1.2-45.2,2.5
					C964.8,482.8,964.8,485.8,966.7,485.6L966.7,485.6z"/>
			</g>
		</g>
		<g>
			<g>
				<path class="st1" d="M955.4,518.8c7.3,4.3,15.8,3.9,24,3.7c8.6-0.3,17.2-1.3,24.7-5.8c1.7-1,0.1-3.6-1.5-2.6
					c-7.1,4.3-15.1,5.1-23.2,5.4c-7.6,0.3-15.6,0.8-22.5-3.2C955.3,515.3,953.8,517.9,955.4,518.8L955.4,518.8z"/>
			</g>
		</g>
		<g>
			<g>
				<path class="st1" d="M1010.5,482.4c-1.9,11-4.8,21.6-8.7,32c-0.7,1.8,2.2,2.6,2.9,0.8c4-10.4,6.9-21.1,8.7-32
					C1013.7,481.3,1010.8,480.5,1010.5,482.4L1010.5,482.4z"/>
			</g>
		</g>
		<g>
			<g>
				<path class="st1" d="M964,489.7c4.9,10.8,18.8,13.5,29.5,13.6c1.9,0,1.9-3,0-3c-9.6-0.2-22.5-2.4-26.9-12.2
					C965.8,486.4,963.2,488,964,489.7L964,489.7z"/>
			</g>
		</g>
		<g>
			<g>
				<path class="st1" d="M985.6,499.4c-0.3,2.5-0.6,5-0.9,7.4c-0.2,1.9,2.8,1.9,3,0c0.3-2.5,0.6-5,0.9-7.4
					C988.8,497.5,985.8,497.5,985.6,499.4L985.6,499.4z"/>
			</g>
		</g>
		<g>
			<g>
				<path class="st1" d="M991.3,499.4c-0.3,2.5-0.6,5-0.8,7.5c-0.2,1.9,2.8,1.9,3,0c0.3-2.5,0.6-5,0.8-7.5
					C994.5,497.5,991.5,497.5,991.3,499.4L991.3,499.4z"/>
			</g>
		</g>
		<g>
			<g>
				<path class="st1" d="M993.9,503.6c7.1-1.6,13-6,16.7-12.2c1-1.7-1.6-3.2-2.6-1.5c-3.4,5.6-8.6,9.3-14.9,10.8
					C991.2,501.2,992,504.1,993.9,503.6L993.9,503.6z"/>
			</g>
		</g>
		<g>
			<g>
				<path class="st1" d="M972,349.3c-3,17.7,0.3,38.8,18.4,46.9c1.7,0.8,3.3-1.8,1.5-2.6c-16.9-7.6-19.8-27.1-17-43.5
					C975.2,348.2,972.3,347.4,972,349.3L972,349.3z"/>
			</g>
		</g>
		<g>
			<g>
				<path class="st1" d="M1033.5,344.5c0.2,5.7,0.1,11.5,0.9,17.1c0.8,6.1,6.3,12.9,3.4,19c-0.8,1.7,1.8,3.3,2.6,1.5
					c2.6-5.5,0.3-10.1-1.6-15.5c-2.5-6.9-1.9-14.9-2.2-22.2C1036.4,342.5,1033.4,342.5,1033.5,344.5L1033.5,344.5z"/>
			</g>
		</g>
		<g>
			<g>
				<path class="st4" d="M998.6,394.1c4.4-2.3,9.4,0.1,10.4,4.9c0.1,0.5,0.8,0.3,0.7-0.2c-1.2-5.3-6.7-7.9-11.5-5.4
					C997.8,393.7,998.2,394.4,998.6,394.1L998.6,394.1z"/>
			</g>
		</g>
		<g>
			<g>
				<path class="st4" d="M1006.2,399.2c0.7,0.8,1.2,1.7,1.5,2.7c0.2,0.5,0.9,0.3,0.7-0.2c-0.4-1.1-1-2.1-1.7-3
					C1006.4,398.3,1005.8,398.9,1006.2,399.2L1006.2,399.2z"/>
			</g>
		</g>
		<g>
			<g>
				<path class="st4" d="M1026.3,392.2c0.9-4.1,3.5-7.5,7.3-9.4c0.4-0.2,0.1-0.9-0.4-0.6c-4,1.9-6.7,5.5-7.6,9.8
					C1025.5,392.5,1026.2,392.7,1026.3,392.2L1026.3,392.2z"/>
			</g>
		</g>
	</g>
	<g id="head">
		<path class="st4" d="M850.2,180.2c-6.9,3.5-12.7,10.1-15.3,13c-6.4,7.3-9.7,14.1-13.3,21.7c-3,6.2-6.5,15-9.3,26
			c3.9,0.7,7.8,1.3,11.7,2c-0.2,3.8-0.2,9.4,1.3,16c1.4,6,3.7,15.6,11.7,22.3c11,9.4,25.6,7.1,28.3,6.7c0.2,4.7,1.2,11.4,5,18.3
			c1,1.7,2,3.3,3,4.7c5.5-1.6,14-4.9,22.3-11.7c21.2-17.1,24.1-42.6,25-50c1.3-11.4,3.8-32.9-10.3-50.7
			C895.6,180.1,867.7,171.4,850.2,180.2z"/>
		<path class="st3" d="M829.7,201c2.8-4.2,8.2-10.4,14.3-14.7c9.8-6.9,14.2-4,19.2-10.1c3.6-4.4,5.9-11.6,3.2-15
			c-4.3-5.4-19.6,1.1-21.6,2c-4.4,1.9-18.9,8-24.7,23.4c-4.8,12.9-1.6,27,0.6,27.3c0.6,0.1,1-0.9,4.2-5.8
			C826.4,205.6,828.1,203.3,829.7,201z"/>
		<path class="st3" d="M851.5,170.9c-0.8,2.6-2,7.8,2,18c7.1,18.3,23.7,34.7,32,31.7c1.8-0.7,3.7-2.5,7.3-2.7c0.9,0,4.5-0.2,7.3,2
			c4.4,3.5,4.6,11.1,1.7,16c-0.5,0.9-3.2,5-7.3,5.3c-3.6,0.3-4.8-2.5-7.7-2.7c-7.1-0.4-13.2,15.2-14,17.3c-1.6,4-5.5,14.4-2.7,27.7
			c0.6,2.9,2,9,6.3,15.3c9.3,13.5,24.9,16.8,30.7,18c5.7,1.2,27.4,5.7,44.3-8.3c2.7-2.2,11.6-9.8,14-22.7
			c4.1-21.8-14.2-38.1-15.3-39c-0.8-11.3-3.5-29.3-13-49c-6-12.5-11.6-24-24.3-32.7c-16.7-11.3-41-14.5-53.7-4.7
			C857.8,161.6,853.5,165,851.5,170.9z"/>
		<path class="st3" d="M832.5,278.2c-1.5,1.5-5.9,6.1-6.7,13.3c-1.1,10,5.6,16.9,7,18.3c7.3,7.5,19.5,10.5,28.3,6
			c0.7-0.3,8.4-4.4,8.7-10.3c0.1-2.6-1.3-3.9-3.3-9.7c-1.3-3.8-2.1-6.9-2.7-9c-2.7,0.9-7.3,2.1-13,1.3
			C840.6,286.8,834.3,280.2,832.5,278.2z"/>
		<path class="st9" d="M852.5,179.7c0.1,3.1,0.5,7.7,2.6,12.6c1.4,3.3,2.8,5.3,3.9,6.9c4.2,6.4,5.6,12.4,7.8,19.1
			c3.5,10.4,2.9,19.1,2.2,29.9c-0.6,9-2.6,22.7-9.1,38.6c2.7,0.8,6.6,2.4,10.8,5.2c7.7,5.2,11.2,11.4,13.4,14.3
			c4.5,5.9,14.5,12.1,38.6,11.7c-2.4-2.4-5.8-6-9.5-10.4c-8.7-10.2-16.3-19.1-20.8-29.9c-2.6-6.2-6.6-18.9-3.5-37.3
			c2.8,1.4,6.1,1.3,8.7-0.4c2.7-1.8,4.4-5.4,3.5-8.7c-1.1-3.8-5.7-6.4-10.4-5.2c-1-2.5-2.6-6.1-5.2-10c-4.1-6.1-8.4-9.9-10-11.3
			C870.4,200.4,863,192.9,852.5,179.7z"/>
		<path class="st10" d="M813.4,239.1c0.1-1.6,5.2-2.9,9.5-2.6c3.8,0.3,8.3,2,8.2,3.5c-0.1,1.4-4.3,2.5-7.4,2.6
			C818.9,242.8,813.4,240.7,813.4,239.1z"/>
		<g>
			<g>
				<path class="st1" d="M825.8,201.9c-5.7,12.5-10.8,25.2-15.2,38.2c-0.3,0.8,0.3,1.6,1,1.8c3.9,1.5,7.8,2.2,11.9,2.1
					c1.9,0,1.9-3,0-3c-3.9,0-7.5-0.7-11.1-2c0.3,0.6,0.7,1.2,1,1.8c4.3-12.8,9.2-25.3,14.9-37.5
					C829.2,201.7,826.6,200.1,825.8,201.9L825.8,201.9z"/>
			</g>
		</g>
		<g>
			<g>
				<path class="st1" d="M823.1,244.6c0.8,12.9,2,27.2,11.6,36.9c9.2,9.4,22.5,8.6,34.6,7.2c1.9-0.2,1.9-3.2,0-3
					c-11.2,1.3-23.9,2.4-32.5-6.3c-9-9.1-9.9-22.7-10.7-34.8C826,242.7,823,242.7,823.1,244.6L823.1,244.6z"/>
			</g>
		</g>
		<g>
			<g>
				<path class="st1" d="M863.4,289c1.3,7,3.7,13.7,7.1,19.9c0.9,1.7,3.5,0.2,2.6-1.5c-3.3-6.1-5.5-12.4-6.8-19.2
					C866,286.3,863.1,287.1,863.4,289L863.4,289z"/>
			</g>
		</g>
		<g>
			<g>
				<path class="st1" d="M825.1,259.9c4.9,4.3,12.2,2.3,14.1-4c0.6-1.9-2.3-2.6-2.9-0.8c-1.2,4-5.9,5.5-9,2.6
					C825.8,256.5,823.7,258.6,825.1,259.9L825.1,259.9z"/>
			</g>
		</g>
		<g>
			<g>
				<path class="st1" d="M834.3,255.8c1.6,0.4,2.8,1.3,3.8,2.5c0.5,0.6,1.6,0.5,2.1,0c0.6-0.6,0.5-1.5,0-2.1
					c-1.3-1.6-3.1-2.8-5.1-3.3C833.3,252.4,832.5,255.3,834.3,255.8L834.3,255.8z"/>
			</g>
		</g>
		<g>
			<g>
				<path class="st1" d="M838.8,218.4c0.8-4.2,6-3.4,8.8-1.9c2.4,1.3,4.1,3.4,5.1,5.9c0.7,1.8,3.6,1,2.9-0.8
					c-1.6-4.3-4.9-7.7-9.5-8.9c-4.2-1.1-9.2,0.2-10.1,4.9C835.6,219.5,838.5,220.3,838.8,218.4L838.8,218.4z"/>
			</g>
		</g>
		<g>
			<g>
				<path class="st1" d="M838.7,200.7c4.5-7.5,13.3-1.7,15.1,4.6c0.5,1.9,3.4,1.1,2.9-0.8c-1.3-4.6-4.5-8.9-9.4-10.1
					c-4.4-1-8.9,0.9-11.2,4.7C835.1,200.9,837.7,202.4,838.7,200.7L838.7,200.7z"/>
			</g>
		</g>
		<g>
			<g>
				<path class="st1" d="M841.7,235.4c1.9,0,1.9-3,0-3C839.8,232.4,839.7,235.4,841.7,235.4L841.7,235.4z"/>
			</g>
		</g>
		<g>
			<g>
				<path class="st1" d="M847.4,230.9c0.1,0,0.3,0,0.4,0c0.8,0,1.5-0.7,1.5-1.5c0-0.8-0.7-1.5-1.5-1.5c-0.1,0-0.3,0-0.4,0
					c-0.8,0-1.5,0.7-1.5,1.5C845.9,230.3,846.6,230.9,847.4,230.9L847.4,230.9z"/>
			</g>
		</g>
		<g>
			<g>
				<path class="st1" d="M847.5,236c0,0.1,0,0.2,0,0.3c0,1.9,3,1.9,3,0c0-0.1,0-0.2,0-0.3C850.5,234.1,847.5,234.1,847.5,236
					c0,0.1,0,0.2,0,0.3c0,1.9,3,1.9,3,0c0-0.1,0-0.2,0-0.3C850.5,234.1,847.5,234.1,847.5,236L847.5,236z"/>
			</g>
		</g>
		<g>
			<g>
				<path class="st1" d="M891.1,220.7c2.7-3.9,7.3-1.4,8.9,1.8c1.3,2.5,1.3,5.5,1.2,8.2c-0.4,6.8-6.1,11.6-12.7,7.4
					c-1.6-1.1-3.1,1.5-1.5,2.6c3.9,2.6,8.9,2.9,12.8-0.1c4-3.1,4.7-8.2,4.4-13c-0.3-4.6-2.1-9.7-6.9-11.4c-3.4-1.2-6.8,0.1-8.8,3
					C887.5,220.7,890.1,222.2,891.1,220.7L891.1,220.7z"/>
			</g>
		</g>
	</g>
	<g id="binocular">
		<path class="st4" d="M622.1,163.6c-2.1,0-4.2,0.1-6.2,0.1c-3.4,6.6-5.3,12.6-6.4,17c-3.2,12.9-2.4,23.6-1.8,28.8
			c0.4,3.5,1,6.4,1.5,8.4c1.8,0,3.6,0,5.4,0c0.7,2.4,1.4,4.8,2.1,7.2c16.9-0.1,30.8-0.1,40.5,0c58.8,0.5,99.8,2.8,109.3,3.3
			c11.9,0.7,21.6,1.4,27.6,1.8c0.2-3.7,1.2-5,2.1-5.4c1.6-0.7,3,1,5.1,0.6c2.2-0.4,3.6-2.7,4.5-4.8c1.8,0.9,5.1,2.1,9,1.5
			c0.9-0.1,1.7-0.4,2.4-0.6c1.7-3.4,3.4-6.8,5.1-10.2c-2.4-0.8-5.8-1.5-9.9-1.5c-2.3,0-4.3,0.3-6,0.6c-0.2-0.5-1.8-5-6-6
			c-1.3-0.3-2.4-0.2-3.3,0c-0.6-1.1-1.2-2.2-1.8-3.3c-2.4-0.4-6.1-1-10.5-1.8c-35.7-6.5-60.6-14.4-79.6-20.1
			c-18.2-5.5-44.7-13-78.7-21.3C625.1,159.8,623.6,161.7,622.1,163.6z"/>
		<path class="st11" d="M608,202.4c0.9-0.2,1.9,2.1,3,1.8c1.8-0.4,1.4-6.7,1.8-11.4c0.3-4.5,1.6-11,6-18.9c2.9,1.2,7.3,3.1,12.6,5.4
			c19.1,8.3,32.3,14.7,36.3,16.5c26.4,12.3,55.4,17.8,62.7,19.2c16.6,3.2,39.6,6,67.2,4.8c-1.2,3.3-2.4,6.6-3.6,9.9
			c-4.6-0.1-11.3-0.1-19.5-0.3c-35.2-0.7-59.8-1.8-73.9-2.4c-19.9-0.8-48.4-1.6-84.4-1.5c-0.4-2.7-0.8-5.4-1.2-8.1
			c-2.3,0.4-4.6,0.8-6.9,1.2C606.6,206.1,607,202.6,608,202.4z"/>
		<g>
			<g>
				<path class="st1" d="M624.2,158c-12.5,19.3-16,43.3-9.6,65.4c0.5,1.9,3.4,1.1,2.9-0.8c-6.2-21.4-2.8-44.4,9.3-63.1
					C627.9,157.8,625.3,156.3,624.2,158L624.2,158z"/>
			</g>
		</g>
		<g>
			<g>
				<path class="st1" d="M626.8,160.9c56.3,14.2,112.5,28.4,168.8,42.5c1.9,0.5,2.7-2.4,0.8-2.9c-56.3-14.2-112.5-28.4-168.8-42.5
					C625.8,157.5,625,160.4,626.8,160.9L626.8,160.9z"/>
			</g>
		</g>
		<g>
			<g>
				<path class="st1" d="M616.7,226.7c58.7-0.5,117.4,0.9,176,4.1c1.9,0.1,1.9-2.9,0-3c-58.6-3.2-117.3-4.6-176-4.1
					C614.8,223.7,614.8,226.7,616.7,226.7L616.7,226.7z"/>
			</g>
		</g>
		<g>
			<g>
				<path class="st1" d="M794.7,202.3c4,8.9,3.1,19-2.4,27.1c-1.1,1.6,1.5,3.1,2.6,1.5c6.1-9,6.9-20.2,2.4-30.1
					C796.5,199.1,793.9,200.6,794.7,202.3L794.7,202.3z"/>
			</g>
		</g>
		<g>
			<g>
				<path class="st1" d="M797.7,206.2c1.1,0.8,1.9,0.5,3.2,0.8c2.5,0.7,3.5,3,4,5.4c0.8,4.4-0.3,13.7-6.8,11.1
					c-1.8-0.7-2.6,2.2-0.8,2.9c6.6,2.6,10.9-4.3,10.9-10.1c0-3.2-0.4-6.8-2.2-9.5c-0.6-0.9-1.4-1.8-2.4-2.3c-1.3-0.6-3.1-0.2-4.2-1
					C797.6,202.5,796.1,205.1,797.7,206.2L797.7,206.2z"/>
			</g>
		</g>
		<g>
			<g>
				<path class="st1" d="M806.5,211.7c5.1-0.3,10.2-0.2,15.2,0.5c1.9,0.2,1.9-2.8,0-3c-5.1-0.6-10.1-0.8-15.2-0.5
					C804.6,208.9,804.6,211.9,806.5,211.7L806.5,211.7z"/>
			</g>
		</g>
		<g>
			<g>
				<path class="st1" d="M806.1,222.7c4.1,0.7,8.2,1,12.3,0.6c1.9-0.2,1.9-3.2,0-3c-3.9,0.3-7.7,0.2-11.5-0.5
					C805,219.5,804.2,222.3,806.1,222.7L806.1,222.7z"/>
			</g>
		</g>
		<g>
			<g>
				<path class="st1" d="M622.5,162.8c-9.7-5.6-12.4,11.9-13.7,17.4c-3,12.7-4.4,25.8-0.7,38.5c0.2,0.6,0.8,1.1,1.4,1.1
					c1.3,0,2.7,0,4,0c1.9,0,1.9-3,0-3c-1.3,0-2.7,0-4,0c0.5,0.4,1,0.7,1.4,1.1c-2.6-9.2-2.6-18.5-1.1-27.9c0.7-4.2,1.6-8.4,2.7-12.5
					c0.7-2.7,2.9-15.4,8.4-12.1C622.7,166.4,624.2,163.8,622.5,162.8L622.5,162.8z"/>
			</g>
		</g>
	</g>
	<g id="hand">
		<path class="st4" d="M730.6,184.3c-1.8-2.2-4.8-1.9-5.2-1.9c-3.3,0.2-6.5,3.2-10,10.5c-6.8,13.9-7.1,27.8-7.1,30
			c-0.1,9.6,0.8,25.2,7.6,43.8c0.6,7.8,1.9,18.7,4.8,31.4c5.1,22.8,10.5,46.8,29.1,68.1c7,8.1,20.8,23.8,44.8,29.5
			c25.1,6,45.5-2.9,50.5-5.2c4.4-2.1,16.7-8.3,27.1-21.4c6.3-7.9,13.6-16.5,12.4-27.1c-0.5-4.6-2.5-8.5-5.5-14.7
			c-3-6.2-4.6-9.3-7.8-10.5c-4.4-1.7-9.1,1.3-14.3,4.3c-8.8,5-9.6,9.8-19.1,14.8c-2.5,1.3-5,2.2-10,3.8c-7.9,2.6-15.7,5.2-22.9,5.7
			c-15.7,1.1-28.3-7.9-31.9-10.5c-13.3-9.5-18.5-22.2-21.9-30.5c-7.6-18.6-7-35.7-5.7-45.7c4.7-0.8,7.6-2.7,9-3.8
			c5.3-4.1,6.6-9.8,8.6-18.6c1.3-5.5,1.9-8.4,0.5-9.5c-2.9-2.2-11.8,5-13.8,6.7c0.4-6.8,1.4-12.3,2.4-16.2c1.3-5.2,2-7.9,3.8-10
			c3.5-4.1,7.6-3.7,9-7.6c0.8-2.1,0.7-5-1-6.7c-2-2-6.3-1.9-10,1c-1.2-2.6-3.6-4.2-6.2-4.3c-2.6-0.1-4.3,1.5-4.8,1.9
			c0.3-2.7-0.9-5.2-2.9-6.2c-2.7-1.4-7,0.2-8.6,4.3C731.6,189.2,732.3,186.4,730.6,184.3z"/>
		<path class="st9" d="M725.4,182.4c-2.4,4.2-5.4,10.4-7.4,18.5c-4.4,17.6-0.8,32.3,0.8,39.4c17.2,73.3,9.7,75.1,21.7,92.3
			c4.4,6.2,34.6,47.8,79.6,42.3c37.7-4.6,57.7-38.9,60.3-43.5c1.5,4,3.3,10.8,2.1,18.9c-1.8,11.9-9.2,19.4-11.9,22.2
			c-2.6,2.6-5.8,4.9-12.3,9.4c-5.8,4.1-11.5,7.7-14,9c-11.9,6.7-30.3,8.3-43.1,6.6c-34.8-4.6-55.7-37.6-64.4-51.3
			c-19.9-31.3-21.9-63-21.7-78.8c-1.9-6.4-3.8-12.9-5.7-19.3c-1.3-9.9-1.4-18.1-1.2-23.8c0.5-14.3,0.9-25,8.2-34.1
			C719.6,186.2,723.1,183.8,725.4,182.4z"/>
		<g>
			<g>
				<path class="st1" d="M860.8,380.4c15.8-7.5,26.4-23.2,23.8-41c-1.5-10.8-10.2-29.4-24.1-22.8c-6.2,3-11.3,8.5-17,12.4
					c-7.9,5.4-17,9.6-26.1,12.5c-11.6,3.7-24.5,4.5-35.7-1.1c-8.2-4.1-14.6-10.8-19.5-18.4c-10.8-16.7-16.4-36.4-15.1-56.3
					c0.1-1.9-2.9-1.9-3,0c-1.1,16.8,2.6,32.8,10,47.8c6.5,13.4,16,26,30.4,31.4c17.5,6.5,36.6-0.1,52.4-8.4
					c7.1-3.8,13.2-8.7,19.6-13.6c5.8-4.5,11.6-6.7,17.5-0.7c7.3,7.4,9.5,20.3,7.3,30.1c-2.7,11.7-11.4,20.5-22,25.5
					C857.6,378.6,859.1,381.2,860.8,380.4L860.8,380.4z"/>
			</g>
		</g>
		<g>
			<g>
				<path class="st1" d="M746.9,267c-1.3-5.5,2.6-6.9,6.2-9.5c2.1-1.5,3.7-3.6,5.2-5.7c3.8-5.5,6.8-11.9,7.6-18.6
					c0.4-3.3,1.1-8.5-3.4-8.7c-5.3-0.2-7.5,6.5-12.5,7c-1.9,0.2-1.9,3.2,0,3c3.8-0.4,5.7-2.8,8.6-5c1.7-1.3,3.6-2.8,4.5,0.1
					c0.5,1.6-0.3,4.6-0.7,6.2c-0.7,3.4-2.2,6.7-3.8,9.8c-1.5,2.8-3.2,5.7-5.5,8c-2.1,2.2-5,2.7-7.3,4.5c-3.1,2.4-2.6,6.5-1.8,9.8
					C744.5,269.7,747.4,268.9,746.9,267L746.9,267z"/>
			</g>
		</g>
		<g>
			<g>
				<path class="st1" d="M712,251.2c-2-12.9-2.2-26.1-0.2-39c0.8-5.2,1.8-10.5,3.6-15.5c1.1-3.1,2.6-6.7,4.8-9.2
					c3-3.3,8.9-5,10.5,0.6c0.5,1.9,3.4,1.1,2.9-0.8c-1.4-4.8-6-7.4-10.8-5.5c-6.1,2.5-9,10-10.9,15.7c-5.6,17.3-5.6,36.7-2.9,54.5
					C709.4,253.9,712.3,253.1,712,251.2L712,251.2z"/>
			</g>
		</g>
		<g>
			<g>
				<path class="st1" d="M726.5,199.6c2.4-5.9,9.2-17.8,16.6-9.7c1.3,1.4,3.4-0.7,2.1-2.1c-3.4-3.7-8.3-4.3-12.6-1.8
					c-4.8,2.7-7,8-9,12.9C722.9,200.6,725.8,201.4,726.5,199.6L726.5,199.6z"/>
			</g>
		</g>
		<g>
			<g>
				<path class="st1" d="M739.1,202.1c0.1-3.8,1.6-8,5.3-9.8c3.1-1.5,6.8-0.8,8.9,1.9c1.2,1.5,3.3-0.6,2.1-2.1
					c-2.9-3.6-8.1-4.5-12.2-2.6c-4.8,2.3-7,7.5-7.1,12.6C736,204,739,204,739.1,202.1L739.1,202.1z"/>
			</g>
		</g>
		<g>
			<g>
				<path class="st1" d="M747.8,203.1c1.8-6.7,9.3-12.8,15.8-7.4c1.5,1.2,3.6-0.9,2.1-2.1c-8.3-6.8-18.3-0.4-20.8,8.7
					C744.4,204.2,747.3,205,747.8,203.1L747.8,203.1z"/>
			</g>
		</g>
		<g>
			<g>
				<path class="st1" d="M763,195.2c3.2,4.5-3.9,7.3-6.4,9.4c-2.1,1.7-3.3,3.9-4.2,6.4c-2.4,6.9-3.5,14.4-4.1,21.6
					c-0.2,1.9,2.8,1.9,3,0c0.5-5.3,1.3-10.6,2.6-15.8c0.4-1.7,0.8-3.4,1.4-5.1c1.3-3.5,3.2-4.8,6.1-6.9c3.6-2.6,7.4-6.8,4.2-11.3
					C764.5,192.1,761.9,193.6,763,195.2L763,195.2z"/>
			</g>
		</g>
		<g>
			<g>
				<path class="st1" d="M708.3,248.2c1.6,6.8,3.6,13.5,6.1,20.1c0.7,1.8,3.6,1,2.9-0.8c-2.5-6.6-4.5-13.3-6.1-20.1
					C710.8,245.5,707.9,246.3,708.3,248.2L708.3,248.2z"/>
			</g>
		</g>
		<g>
			<g>
				<path class="st1" d="M713.9,270.2c3.8,34.4,12.3,69.7,35.4,96.5c18.4,21.3,47.6,37.5,76.4,32.2c13.6-2.5,26-9.3,35.9-18.8
					c1.4-1.3-0.7-3.5-2.1-2.1c-19.8,19-48,24-73.1,12.7c-27-12.3-45.9-35.4-56.6-62.7c-7.2-18.5-10.8-38.1-13-57.7
					C716.7,268.3,713.7,268.3,713.9,270.2L713.9,270.2z"/>
			</g>
		</g>
	</g>
</g>
</svg>
